M48
; DRILL file {KiCad 9.0.6} date 2025-11-25T19:29:42+0900
; FORMAT={-:-/ absolute / inch / decimal}
; #@! TF.CreationDate,2025-11-25T19:29:42+09:00
; #@! TF.GenerationSoftware,Kicad,Pcbnew,9.0.6
; #@! TF.FileFunction,MixedPlating,1,2
FMAT,2
INCH
; #@! TA.AperFunction,Plated,PTH,ComponentDrill
T1C0.0315
; #@! TA.AperFunction,Plated,PTH,ComponentDrill
T2C0.0354
; #@! TA.AperFunction,Plated,PTH,ComponentDrill
T3C0.0394
; #@! TA.AperFunction,Plated,PTH,ComponentDrill
T4C0.0433
; #@! TA.AperFunction,Plated,PTH,ComponentDrill
T5C0.0472
; #@! TA.AperFunction,Plated,PTH,ComponentDrill
T6C0.0630
; #@! TA.AperFunction,Plated,PTH,ComponentDrill
T7C0.0709
; #@! TA.AperFunction,Plated,PTH,ComponentDrill
T8C0.1200
%
G90
G05
T1
X1.6056Y-1.8388
X1.6056Y-2.3388
X1.6056Y-2.4864
X1.6056Y-2.9864
X1.7706Y-2.4858
X1.8138Y-3.1732
X1.8138Y-3.6732
X1.997Y-3.1732
X1.997Y-3.6732
X2.2706Y-2.4858
X2.294Y-3.1726
X2.294Y-3.6726
X2.4638Y-3.1718
X2.4638Y-3.6718
X2.6828Y-3.6738
X2.6828Y-4.1738
X2.8602Y-3.2244
X2.8602Y-3.7244
X3.0036Y-2.0638
X3.0036Y-2.4432
X3.0036Y-2.5432
X3.0036Y-2.6432
X3.0036Y-2.7432
X3.0062Y-3.0266
X3.0062Y-3.1266
X3.0062Y-3.2266
X3.0062Y-3.3266
X3.1338Y-3.536
X3.1338Y-4.036
X3.2005Y-2.0638
X3.3036Y-2.4432
X3.3036Y-2.5432
X3.3036Y-2.6432
X3.3036Y-2.7432
X3.3062Y-3.0266
X3.3062Y-3.1266
X3.3062Y-3.2266
X3.3062Y-3.3266
X3.3068Y-3.5368
X3.3068Y-4.0368
X3.4762Y-2.0626
X3.4842Y-3.0272
X3.4842Y-3.5272
X3.5762Y-2.0626
X3.5772Y-2.2072
X3.5772Y-2.7072
X3.6762Y-2.0626
X3.6766Y-1.849
X3.6826Y-2.8596
X3.6826Y-3.3596
X3.7438Y-2.208
X3.7438Y-2.708
X3.9456Y-2.5086
X3.9456Y-2.6086
X3.9456Y-2.7086
X4.1556Y-2.5086
X4.1556Y-2.6086
X4.1556Y-2.7086
X4.1766Y-1.849
T2
X2.2416Y-4.0006
X2.2416Y-4.1006
X3.684Y-3.5938
X3.684Y-3.6938
X3.684Y-3.8238
X3.684Y-3.9238
T3
X1.975Y-2.24
X2.075Y-2.24
X2.175Y-2.24
X3.2832Y-4.2666
X3.3832Y-4.2666
X3.4832Y-4.2666
X3.9442Y-1.6488
X4.0442Y-1.6488
X4.1442Y-1.6488
T4
X1.7712Y-1.8404
X1.7712Y-2.2404
X1.8222Y-3.8449
X1.8222Y-4.1008
X1.9994Y-3.8449
X1.9994Y-4.1008
X3.342Y-1.868
X3.342Y-2.268
X4.42Y-1.845
X4.82Y-1.845
T5
X2.6106Y-1.6696
X2.6106Y-1.8665
X2.6106Y-2.2073
X2.6106Y-2.4042
X3.991Y-2.1894
X4.0286Y-2.931
X4.0286Y-3.1279
X4.1542Y-3.873
X4.1542Y-4.0699
X4.1879Y-2.1894
T6
X1.603Y-1.6378
X2.203Y-1.6378
X4.416Y-3.561
X4.4174Y-1.6376
X5.016Y-3.561
X5.0174Y-1.6376
T7
X4.4646Y-2.6554
X4.9646Y-2.6554
T8
X1.4012Y-2.9842
X1.4042Y-1.639
X4.913Y-3.8998
X4.913Y-4.26
M30
