%TF.GenerationSoftware,KiCad,Pcbnew,(5.0.2)-1*%
%TF.CreationDate,2019-02-13T13:46:32+09:00*%
%TF.ProjectId,12f675-mppt,31326636-3735-42d6-9d70-70742e6b6963,rev?*%
%TF.SameCoordinates,Original*%
%TF.FileFunction,Copper,L2,Bot*%
%TF.FilePolarity,Positive*%
%FSLAX46Y46*%
G04 Gerber Fmt 4.6, Leading zero omitted, Abs format (unit mm)*
G04 Created by KiCad (PCBNEW (5.0.2)-1) date 2019-02-13 오후 1:46:32*
%MOMM*%
%LPD*%
G01*
G04 APERTURE LIST*
%ADD10C,2.400000*%
%ADD11R,2.400000X2.400000*%
%ADD12C,1.600000*%
%ADD13R,3.200000X3.200000*%
%ADD14O,3.200000X3.200000*%
%ADD15O,2.200000X2.200000*%
%ADD16R,2.200000X2.200000*%
%ADD17C,1.800000*%
%ADD18R,1.800000X1.800000*%
%ADD19R,2.400000X1.600000*%
%ADD20O,2.400000X1.600000*%
%ADD21C,3.600000*%
%ADD22O,1.800000X1.800000*%
%ADD23R,1.520000X1.520000*%
%ADD24C,1.520000*%
%ADD25O,1.600000X1.600000*%
%ADD26C,2.000000*%
%ADD27C,4.064000*%
%ADD28C,1.500000*%
%ADD29C,3.000000*%
%ADD30C,2.000000*%
%ADD31C,2.500000*%
%ADD32C,0.254000*%
G04 APERTURE END LIST*
D10*
X105516680Y-103374200D03*
D11*
X105516680Y-98374200D03*
X101371400Y-55610760D03*
D10*
X106371400Y-55610760D03*
X66309240Y-56066680D03*
D11*
X66309240Y-61066680D03*
D12*
X81291440Y-52420520D03*
X76291440Y-52420520D03*
D11*
X66309240Y-42407840D03*
D10*
X66309240Y-47407840D03*
D13*
X127441960Y-41595040D03*
D14*
X112201960Y-41595040D03*
X112166400Y-90449400D03*
D13*
X127406400Y-90449400D03*
D15*
X76306680Y-56332120D03*
D16*
X86466680Y-56332120D03*
D17*
X56936640Y-101615240D03*
D18*
X56936640Y-104155240D03*
D16*
X44988480Y-56906160D03*
D15*
X44988480Y-46746160D03*
D14*
X40716200Y-41600120D03*
D13*
X55956200Y-41600120D03*
D18*
X93573600Y-93822520D03*
D17*
X93573600Y-91282520D03*
X93573600Y-97124520D03*
D18*
X93573600Y-99664520D03*
D19*
X76291440Y-62057280D03*
D20*
X83911440Y-69677280D03*
X76291440Y-64597280D03*
X83911440Y-67137280D03*
X76291440Y-67137280D03*
X83911440Y-64597280D03*
X76291440Y-69677280D03*
X83911440Y-62057280D03*
D21*
X113400840Y-67447160D03*
X126100840Y-67447160D03*
D22*
X83393280Y-108371640D03*
X85933280Y-108371640D03*
D18*
X88473280Y-108371640D03*
X100182680Y-41879520D03*
D22*
X102722680Y-41879520D03*
X105262680Y-41879520D03*
D23*
X88295480Y-52390040D03*
D24*
X93375480Y-52390040D03*
X90835480Y-52390040D03*
D23*
X100218240Y-68798440D03*
D24*
X100218240Y-63718440D03*
X100218240Y-66258440D03*
X105552240Y-66258440D03*
X105552240Y-63718440D03*
D23*
X105552240Y-68798440D03*
D25*
X62580520Y-80563720D03*
D12*
X62580520Y-93263720D03*
X79598520Y-102514400D03*
D25*
X79598520Y-89814400D03*
D12*
X68143120Y-93314520D03*
D25*
X68143120Y-106014520D03*
X72649080Y-94599760D03*
D12*
X72649080Y-81899760D03*
D25*
X40782240Y-59405520D03*
D12*
X40782240Y-46705520D03*
X50723800Y-93299280D03*
D25*
X50723800Y-80599280D03*
D12*
X90860880Y-56062880D03*
D25*
X90860880Y-68762880D03*
X93385640Y-46964600D03*
D12*
X106085640Y-46964600D03*
X95092520Y-68783200D03*
D25*
X95092520Y-56083200D03*
X40782240Y-75854560D03*
D12*
X40782240Y-63154560D03*
D25*
X83992720Y-89834720D03*
D12*
X83992720Y-102534720D03*
X88498680Y-76890880D03*
D25*
X88498680Y-89590880D03*
D12*
X58267600Y-80584040D03*
D25*
X58267600Y-93284040D03*
X46070520Y-80599280D03*
D12*
X46070520Y-93299280D03*
D26*
X46283880Y-97660320D03*
X50783880Y-97660320D03*
X46283880Y-104160320D03*
X50783880Y-104160320D03*
D20*
X83977480Y-76875640D03*
X76357480Y-84495640D03*
X83977480Y-79415640D03*
X76357480Y-81955640D03*
X83977480Y-81955640D03*
X76357480Y-79415640D03*
X83977480Y-84495640D03*
D19*
X76357480Y-76875640D03*
D10*
X102326440Y-79447400D03*
D11*
X102326440Y-74447400D03*
D25*
X57673240Y-63139320D03*
D12*
X44973240Y-63139320D03*
D22*
X55245000Y-56896000D03*
X52705000Y-56896000D03*
D18*
X50165000Y-56896000D03*
D27*
X35666680Y-41630600D03*
X35590480Y-75798680D03*
X124790200Y-99054920D03*
X124790200Y-108204000D03*
D25*
X93538040Y-72633840D03*
D12*
X93538040Y-85333840D03*
D28*
X100218240Y-56763920D02*
X101371400Y-55610760D01*
X100218240Y-63718440D02*
X100218240Y-56763920D01*
X99143438Y-63718440D02*
X100218240Y-63718440D01*
X91253000Y-63718440D02*
X99143438Y-63718440D01*
X86466680Y-58932120D02*
X91253000Y-63718440D01*
X86466680Y-56332120D02*
X86466680Y-58932120D01*
X101371400Y-51678840D02*
X106085640Y-46964600D01*
X101371400Y-55610760D02*
X101371400Y-51678840D01*
X105552240Y-56429920D02*
X106371400Y-55610760D01*
X105552240Y-63718440D02*
X105552240Y-56429920D01*
X105262680Y-41879520D02*
X108722160Y-45339000D01*
X108722160Y-53260000D02*
X106371400Y-55610760D01*
X108722160Y-45339000D02*
X108722160Y-53260000D01*
D29*
X112201960Y-41595040D02*
X106415840Y-41595040D01*
D30*
X62138560Y-56896000D02*
X66309240Y-61066680D01*
X55245000Y-56896000D02*
X62138560Y-56896000D01*
D28*
X55245000Y-71424800D02*
X46070520Y-80599280D01*
X55245000Y-56896000D02*
X55245000Y-71424800D01*
X76321920Y-56316880D02*
X76306680Y-56332120D01*
X76291440Y-56316880D02*
X76306680Y-56332120D01*
X76291440Y-52420520D02*
X76291440Y-56316880D01*
X76306680Y-62042040D02*
X76291440Y-62057280D01*
X76306680Y-56332120D02*
X76306680Y-62042040D01*
X67299840Y-62057280D02*
X66309240Y-61066680D01*
X76291440Y-62057280D02*
X67299840Y-62057280D01*
X81277480Y-76875640D02*
X81147920Y-76746080D01*
X83977480Y-76875640D02*
X81277480Y-76875640D01*
X81147920Y-76746080D02*
X81147920Y-63515240D01*
X79689960Y-62057280D02*
X76291440Y-62057280D01*
X81147920Y-63515240D02*
X79689960Y-62057280D01*
X83992720Y-76890880D02*
X83977480Y-76875640D01*
X88498680Y-76890880D02*
X83992720Y-76890880D01*
D30*
X102722680Y-40606728D02*
X102732840Y-40596568D01*
X102722680Y-41879520D02*
X102722680Y-40606728D01*
D29*
X102732749Y-37757018D02*
X102732748Y-37757018D01*
X96113435Y-37750853D02*
X102732749Y-37757018D01*
X92264168Y-41600119D02*
X96113435Y-37750853D01*
X55956200Y-41600120D02*
X92264168Y-41600119D01*
D30*
X102732748Y-37757018D02*
X102732840Y-37658040D01*
D31*
X102732748Y-39161675D02*
X102732793Y-39161720D01*
X102732748Y-37757018D02*
X102732748Y-39161675D01*
D30*
X102732840Y-40596568D02*
X102732793Y-39161720D01*
D29*
X127452120Y-41650920D02*
X127452120Y-51531520D01*
X126100840Y-52882800D02*
X126100840Y-67447160D01*
X127452120Y-51531520D02*
X126100840Y-52882800D01*
X126100840Y-67447160D02*
X126100840Y-77988160D01*
X127406400Y-79293720D02*
X127406400Y-90449400D01*
X126100840Y-77988160D02*
X127406400Y-79293720D01*
D28*
X56936640Y-99512120D02*
X50723800Y-93299280D01*
X56936640Y-101615240D02*
X56936640Y-99512120D01*
D30*
X50154840Y-56906160D02*
X50165000Y-56896000D01*
X44988480Y-56906160D02*
X50154840Y-56906160D01*
X93573600Y-93822520D02*
X93573600Y-97124520D01*
D28*
X83911440Y-67137280D02*
X84246327Y-67137280D01*
X90855800Y-87233760D02*
X88498680Y-89590880D01*
X83911440Y-67137280D02*
X85552280Y-67137280D01*
X90855800Y-72440800D02*
X90855800Y-87233760D01*
X85552280Y-67137280D02*
X90855800Y-72440800D01*
D30*
X92673601Y-89051561D02*
X90855800Y-87233760D01*
X92673601Y-90382521D02*
X92673601Y-89051561D01*
X93573600Y-91282520D02*
X92673601Y-90382521D01*
D28*
X78991440Y-64597280D02*
X79110840Y-64716680D01*
X76291440Y-64597280D02*
X78991440Y-64597280D01*
X79110840Y-64716680D02*
X79110840Y-71907400D01*
X79110840Y-71907400D02*
X77673200Y-73345040D01*
X57978040Y-73345040D02*
X50723800Y-80599280D01*
X77673200Y-73345040D02*
X57978040Y-73345040D01*
X61671200Y-67137280D02*
X57673240Y-63139320D01*
X76291440Y-67137280D02*
X61671200Y-67137280D01*
X86695280Y-64597280D02*
X83911440Y-64597280D01*
X90860880Y-68762880D02*
X86695280Y-64597280D01*
X93538040Y-71440040D02*
X90860880Y-68762880D01*
X93538040Y-72633840D02*
X93538040Y-71440040D01*
D30*
X50783880Y-97660320D02*
X50783880Y-104160320D01*
D28*
X50733960Y-97610400D02*
X50783880Y-97660320D01*
X46422840Y-93299280D02*
X50783880Y-97660320D01*
X46070520Y-93299280D02*
X46422840Y-93299280D01*
X100218240Y-68798440D02*
X105552240Y-68798440D01*
X95092520Y-54107080D02*
X93375480Y-52390040D01*
X95092520Y-56083200D02*
X95092520Y-54107080D01*
X93385640Y-52379880D02*
X93375480Y-52390040D01*
X93385640Y-46964600D02*
X93385640Y-52379880D01*
X90860880Y-52415440D02*
X90835480Y-52390040D01*
X90860880Y-56062880D02*
X90860880Y-52415440D01*
X97617280Y-66258440D02*
X100218240Y-66258440D01*
X95092520Y-68783200D02*
X97617280Y-66258440D01*
X100218240Y-66258440D02*
X105552240Y-66258440D01*
X62560200Y-80584040D02*
X62580520Y-80563720D01*
X58267600Y-80584040D02*
X62560200Y-80584040D01*
X63728600Y-79415640D02*
X62580520Y-80563720D01*
X76357480Y-79415640D02*
X63728600Y-79415640D01*
X83972400Y-89814400D02*
X83992720Y-89834720D01*
X79598520Y-89814400D02*
X83972400Y-89814400D01*
X83977480Y-89819480D02*
X83992720Y-89834720D01*
X83977480Y-84495640D02*
X83977480Y-89819480D01*
X69428360Y-94599760D02*
X68143120Y-93314520D01*
X72649080Y-94599760D02*
X69428360Y-94599760D01*
X83977480Y-81955640D02*
X81960720Y-81955640D01*
X81960720Y-81955640D02*
X79435960Y-84480400D01*
X79435960Y-84480400D02*
X79435960Y-85516720D01*
X72649080Y-92303600D02*
X72649080Y-94599760D01*
X79435960Y-85516720D02*
X72649080Y-92303600D01*
X72704960Y-81955640D02*
X72649080Y-81899760D01*
X76357480Y-81955640D02*
X72704960Y-81955640D01*
X79057480Y-81955640D02*
X79857600Y-81155520D01*
X76357480Y-81955640D02*
X79057480Y-81955640D01*
X81277480Y-79415640D02*
X83977480Y-79415640D01*
X79857600Y-80835520D02*
X81277480Y-79415640D01*
X79857600Y-81155520D02*
X79857600Y-80835520D01*
D29*
X40782240Y-59405520D02*
X40782240Y-63154560D01*
X44958000Y-63154560D02*
X44973240Y-63139320D01*
X40782240Y-63154560D02*
X44958000Y-63154560D01*
D28*
X85933280Y-104475280D02*
X83992720Y-102534720D01*
X85933280Y-108371640D02*
X85933280Y-104475280D01*
D29*
X112166400Y-106384080D02*
X110346480Y-108204000D01*
X112166400Y-90449400D02*
X112166400Y-106384080D01*
X110346480Y-108204000D02*
X105516680Y-103374200D01*
X105516680Y-103374200D02*
X97359480Y-111531400D01*
X97359480Y-111531400D02*
X87106760Y-111531400D01*
X100686880Y-108204000D02*
X97359480Y-111531400D01*
X111942880Y-108204000D02*
X110346480Y-108204000D01*
X124790200Y-108204000D02*
X111942880Y-108204000D01*
X105516680Y-108097320D02*
X105623360Y-108204000D01*
X105516680Y-103374200D02*
X105516680Y-108097320D01*
X111942880Y-108204000D02*
X105623360Y-108204000D01*
X105623360Y-108204000D02*
X100686880Y-108204000D01*
D30*
X85933280Y-110357920D02*
X87106760Y-111531400D01*
X85933280Y-108371640D02*
X85933280Y-110357920D01*
D31*
X85933280Y-110357920D02*
X85933280Y-111651910D01*
D29*
X105516680Y-75331320D02*
X113400840Y-67447160D01*
X105516680Y-98374200D02*
X105516680Y-75331320D01*
D30*
X40782240Y-75854560D02*
X40782240Y-73624440D01*
X52705000Y-61701680D02*
X52705000Y-56896000D01*
X40782240Y-73624440D02*
X52705000Y-61701680D01*
D29*
X40782240Y-98658680D02*
X46283880Y-104160320D01*
X40782240Y-75854560D02*
X40782240Y-98658680D01*
D30*
X64612184Y-47407840D02*
X66309240Y-47407840D01*
X60920368Y-47407840D02*
X64612184Y-47407840D01*
X52705000Y-55623208D02*
X60920368Y-47407840D01*
X52705000Y-56896000D02*
X52705000Y-55623208D01*
X66309240Y-56066680D02*
X66309240Y-47407840D01*
D28*
X46283880Y-105574533D02*
X46283880Y-104160320D01*
X49050507Y-108341160D02*
X46283880Y-105574533D01*
X55150720Y-108341160D02*
X49050507Y-108341160D01*
X56936640Y-106555240D02*
X55150720Y-108341160D01*
X56936640Y-104155240D02*
X56936640Y-106555240D01*
X46283880Y-97660320D02*
X46283880Y-104160320D01*
X81291440Y-59437280D02*
X83911440Y-62057280D01*
X81291440Y-52420520D02*
X81291440Y-59437280D01*
X81321920Y-52390040D02*
X81291440Y-52420520D01*
X88295480Y-52390040D02*
X81321920Y-52390040D01*
X76278760Y-47407840D02*
X66309240Y-47407840D01*
X81291440Y-52420520D02*
X76278760Y-47407840D01*
X62580520Y-94395090D02*
X62585600Y-94400170D01*
X62580520Y-93263720D02*
X62580520Y-94395090D01*
X62585600Y-94400170D02*
X62585600Y-106304080D01*
X60548520Y-108341160D02*
X55150720Y-108341160D01*
X62585600Y-106304080D02*
X60548520Y-108341160D01*
X71348600Y-84495640D02*
X76357480Y-84495640D01*
X62580520Y-93263720D02*
X71348600Y-84495640D01*
X65816480Y-108341160D02*
X68143120Y-106014520D01*
X60548520Y-108341160D02*
X65816480Y-108341160D01*
X79598520Y-104576880D02*
X83393280Y-108371640D01*
X79598520Y-102514400D02*
X79598520Y-104576880D01*
D29*
X35646360Y-75854560D02*
X35590480Y-75798680D01*
X40782240Y-75854560D02*
X35646360Y-75854560D01*
X40782240Y-98658680D02*
X40782240Y-102758240D01*
X40782240Y-102758240D02*
X48153320Y-110129320D01*
X48153320Y-110129320D02*
X79816960Y-110129320D01*
X79816960Y-110129320D02*
X79883000Y-110129320D01*
X79883000Y-110129320D02*
X81874360Y-108137960D01*
D30*
X82108040Y-108371640D02*
X83393280Y-108371640D01*
X81874360Y-108137960D02*
X82108040Y-108371640D01*
X79598520Y-101383030D02*
X82576870Y-98404680D01*
X79598520Y-102514400D02*
X79598520Y-101383030D01*
X82576870Y-98404680D02*
X87533480Y-98404680D01*
X88793320Y-99664520D02*
X93573600Y-99664520D01*
X87533480Y-98404680D02*
X88793320Y-99664520D01*
D28*
X95973600Y-99664520D02*
X98216720Y-97421400D01*
X93573600Y-99664520D02*
X95973600Y-99664520D01*
X98216720Y-83557120D02*
X102326440Y-79447400D01*
X98216720Y-97421400D02*
X98216720Y-83557120D01*
D29*
X40716200Y-46639480D02*
X40782240Y-46705520D01*
X40716200Y-41600120D02*
X40716200Y-46639480D01*
X44947840Y-46705520D02*
X44988480Y-46746160D01*
X40782240Y-46705520D02*
X44947840Y-46705520D01*
X35697160Y-41600120D02*
X35666680Y-41630600D01*
X40716200Y-41600120D02*
X35697160Y-41600120D01*
D32*
G36*
X91379823Y-39465119D02*
X57898487Y-39465121D01*
X57803965Y-39401963D01*
X57556200Y-39352680D01*
X54356200Y-39352680D01*
X54108435Y-39401963D01*
X53898391Y-39542311D01*
X53758043Y-39752355D01*
X53708760Y-40000120D01*
X53708760Y-43200120D01*
X53758043Y-43447885D01*
X53898391Y-43657929D01*
X54108435Y-43798277D01*
X54356200Y-43847560D01*
X57556200Y-43847560D01*
X57803965Y-43798277D01*
X57898486Y-43735120D01*
X64487117Y-43735120D01*
X64511083Y-43855605D01*
X64651431Y-44065649D01*
X64861475Y-44205997D01*
X65109240Y-44255280D01*
X67509240Y-44255280D01*
X67757005Y-44205997D01*
X67967049Y-44065649D01*
X68107397Y-43855605D01*
X68131363Y-43735119D01*
X92053888Y-43735118D01*
X92264168Y-43776945D01*
X93097203Y-43611245D01*
X93625151Y-43258481D01*
X93625152Y-43258480D01*
X93803417Y-43139367D01*
X93922530Y-42961102D01*
X96996957Y-39886676D01*
X100955765Y-39890363D01*
X100957118Y-39897165D01*
X101097825Y-40107748D01*
X101097832Y-40335094D01*
X101082680Y-40332080D01*
X99282680Y-40332080D01*
X99034915Y-40381363D01*
X98824871Y-40521711D01*
X98684523Y-40731755D01*
X98635240Y-40979520D01*
X98635240Y-42779520D01*
X98684523Y-43027285D01*
X98824871Y-43237329D01*
X99034915Y-43377677D01*
X99282680Y-43426960D01*
X101082680Y-43426960D01*
X101330445Y-43377677D01*
X101540489Y-43237329D01*
X101624251Y-43111971D01*
X102084735Y-43419656D01*
X102722680Y-43546551D01*
X103360624Y-43419656D01*
X103901449Y-43058289D01*
X104052814Y-42831754D01*
X104156007Y-42986193D01*
X104663753Y-43325458D01*
X104771332Y-43346857D01*
X107337160Y-45912686D01*
X107337160Y-46236202D01*
X107302174Y-46151738D01*
X106898502Y-45748066D01*
X106371079Y-45529600D01*
X105800201Y-45529600D01*
X105272778Y-45748066D01*
X104869106Y-46151738D01*
X104819106Y-46272448D01*
X100488512Y-50603043D01*
X100372872Y-50680311D01*
X100295603Y-50795952D01*
X100066759Y-51138441D01*
X99959267Y-51678840D01*
X99986401Y-51815252D01*
X99986400Y-53800118D01*
X99923635Y-53812603D01*
X99713591Y-53952951D01*
X99573243Y-54162995D01*
X99523960Y-54410760D01*
X99523960Y-55499515D01*
X99335352Y-55688123D01*
X99219712Y-55765391D01*
X99142443Y-55881032D01*
X98913599Y-56223521D01*
X98806107Y-56763920D01*
X98833241Y-56900332D01*
X98833240Y-62333440D01*
X91826686Y-62333440D01*
X87851680Y-58358435D01*
X87851680Y-58005397D01*
X88024489Y-57889929D01*
X88164837Y-57679885D01*
X88214120Y-57432120D01*
X88214120Y-55232120D01*
X88164837Y-54984355D01*
X88024489Y-54774311D01*
X87814445Y-54633963D01*
X87566680Y-54584680D01*
X85366680Y-54584680D01*
X85118915Y-54633963D01*
X84908871Y-54774311D01*
X84768523Y-54984355D01*
X84719240Y-55232120D01*
X84719240Y-57432120D01*
X84768523Y-57679885D01*
X84908871Y-57889929D01*
X85081681Y-58005398D01*
X85081681Y-58795709D01*
X85054547Y-58932120D01*
X85162039Y-59472519D01*
X85355490Y-59762039D01*
X85468152Y-59930649D01*
X85583792Y-60007917D01*
X90177202Y-64601328D01*
X90254471Y-64716969D01*
X90529989Y-64901064D01*
X90712600Y-65023081D01*
X91253000Y-65130573D01*
X91389407Y-65103440D01*
X96852926Y-65103440D01*
X96618751Y-65259911D01*
X96541482Y-65375552D01*
X94400369Y-67516666D01*
X94279658Y-67566666D01*
X93875986Y-67970338D01*
X93657520Y-68497761D01*
X93657520Y-69068639D01*
X93875986Y-69596062D01*
X94279658Y-69999734D01*
X94807081Y-70218200D01*
X95377959Y-70218200D01*
X95905382Y-69999734D01*
X96309054Y-69596062D01*
X96359054Y-69475351D01*
X98190966Y-67643440D01*
X98958463Y-67643440D01*
X98860083Y-67790675D01*
X98810800Y-68038440D01*
X98810800Y-68774847D01*
X98806107Y-68798440D01*
X98810800Y-68822033D01*
X98810800Y-69558440D01*
X98860083Y-69806205D01*
X99000431Y-70016249D01*
X99210475Y-70156597D01*
X99458240Y-70205880D01*
X100978240Y-70205880D01*
X101091055Y-70183440D01*
X104679425Y-70183440D01*
X104792240Y-70205880D01*
X106312240Y-70205880D01*
X106560005Y-70156597D01*
X106770049Y-70016249D01*
X106910397Y-69806205D01*
X106959680Y-69558440D01*
X106959680Y-68822033D01*
X106964373Y-68798440D01*
X106959680Y-68774847D01*
X106959680Y-68038440D01*
X106910397Y-67790675D01*
X106770049Y-67580631D01*
X106560005Y-67440283D01*
X106379191Y-67404317D01*
X106477748Y-67305760D01*
X106550769Y-67256969D01*
X106599560Y-67183948D01*
X106734864Y-67048644D01*
X106808090Y-66871861D01*
X106856881Y-66798840D01*
X106874014Y-66712706D01*
X106947240Y-66535923D01*
X106947240Y-66344574D01*
X106964373Y-66258440D01*
X106947240Y-66172306D01*
X106947240Y-65980957D01*
X106874014Y-65804174D01*
X106856881Y-65718040D01*
X106808090Y-65645019D01*
X106734864Y-65468236D01*
X106599560Y-65332932D01*
X106550769Y-65259911D01*
X106477748Y-65211120D01*
X106342444Y-65075816D01*
X106165661Y-65002590D01*
X106144483Y-64988440D01*
X106165658Y-64974291D01*
X106342444Y-64901064D01*
X106477750Y-64765758D01*
X106550768Y-64716969D01*
X106599558Y-64643950D01*
X106734864Y-64508644D01*
X106808090Y-64331860D01*
X106856881Y-64258840D01*
X106874014Y-64172706D01*
X106947240Y-63995923D01*
X106947240Y-63440957D01*
X106937240Y-63416815D01*
X106937240Y-57362571D01*
X107410844Y-57166398D01*
X107927038Y-56650204D01*
X108206400Y-55975764D01*
X108206400Y-55734445D01*
X109605048Y-54335798D01*
X109720689Y-54258529D01*
X110026801Y-53800400D01*
X110107160Y-53396407D01*
X110134293Y-53260000D01*
X110107160Y-53123593D01*
X110107160Y-45475407D01*
X110134293Y-45339000D01*
X110026801Y-44798600D01*
X109797957Y-44456111D01*
X109797955Y-44456109D01*
X109720688Y-44340471D01*
X109605050Y-44263204D01*
X109071886Y-43730040D01*
X111479097Y-43730040D01*
X111981832Y-43830040D01*
X112422088Y-43830040D01*
X113074014Y-43700364D01*
X113813305Y-43206385D01*
X114307284Y-42467094D01*
X114480746Y-41595040D01*
X114307284Y-40722986D01*
X113813305Y-39983695D01*
X113074014Y-39489716D01*
X112422088Y-39360040D01*
X111981832Y-39360040D01*
X111479097Y-39460040D01*
X106205561Y-39460040D01*
X105582804Y-39583914D01*
X104876591Y-40055791D01*
X104592224Y-40481376D01*
X104396811Y-40611947D01*
X104399870Y-40596569D01*
X104367834Y-40435515D01*
X104367824Y-40107633D01*
X104508423Y-39897211D01*
X104654722Y-39161720D01*
X104617748Y-38975840D01*
X104617748Y-38779147D01*
X104743098Y-38591926D01*
X104743300Y-38590914D01*
X104743875Y-38590054D01*
X104826588Y-38174225D01*
X104909575Y-37759045D01*
X104909374Y-37758032D01*
X104909576Y-37757018D01*
X104826912Y-37341440D01*
X104750656Y-36956200D01*
X129098841Y-36956200D01*
X129098841Y-39358914D01*
X129041960Y-39347600D01*
X125841960Y-39347600D01*
X125594195Y-39396883D01*
X125384151Y-39537231D01*
X125243803Y-39747275D01*
X125194520Y-39995040D01*
X125194520Y-43195040D01*
X125243803Y-43442805D01*
X125317120Y-43552531D01*
X125317121Y-50647174D01*
X124739859Y-51224436D01*
X124561591Y-51343551D01*
X124089714Y-52049765D01*
X123965840Y-52672522D01*
X123965840Y-52672525D01*
X123924014Y-52882800D01*
X123965840Y-53093075D01*
X123965841Y-66238543D01*
X123665840Y-66962808D01*
X123665840Y-67931512D01*
X123965840Y-68655775D01*
X123965841Y-77777880D01*
X123924014Y-77988160D01*
X124089714Y-78821195D01*
X124442478Y-79349143D01*
X124561592Y-79527409D01*
X124739857Y-79646522D01*
X125271400Y-80178065D01*
X125271401Y-88507113D01*
X125208243Y-88601635D01*
X125158960Y-88849400D01*
X125158960Y-92049400D01*
X125208243Y-92297165D01*
X125348591Y-92507209D01*
X125558635Y-92647557D01*
X125806400Y-92696840D01*
X129006400Y-92696840D01*
X129098840Y-92678453D01*
X129098840Y-112411040D01*
X99499185Y-112411040D01*
X100510052Y-111400173D01*
X101571226Y-110339000D01*
X105413085Y-110339000D01*
X105623359Y-110380826D01*
X105833634Y-110339000D01*
X110136201Y-110339000D01*
X110346480Y-110380827D01*
X110556758Y-110339000D01*
X123153492Y-110339000D01*
X123279466Y-110464974D01*
X124259701Y-110871000D01*
X125320699Y-110871000D01*
X126300934Y-110464974D01*
X127051174Y-109714734D01*
X127457200Y-108734499D01*
X127457200Y-107673501D01*
X127051174Y-106693266D01*
X126300934Y-105943026D01*
X125320699Y-105537000D01*
X124259701Y-105537000D01*
X123279466Y-105943026D01*
X123153492Y-106069000D01*
X114301400Y-106069000D01*
X114301400Y-98524421D01*
X122123200Y-98524421D01*
X122123200Y-99585419D01*
X122529226Y-100565654D01*
X123279466Y-101315894D01*
X124259701Y-101721920D01*
X125320699Y-101721920D01*
X126300934Y-101315894D01*
X127051174Y-100565654D01*
X127457200Y-99585419D01*
X127457200Y-98524421D01*
X127051174Y-97544186D01*
X126300934Y-96793946D01*
X125320699Y-96387920D01*
X124259701Y-96387920D01*
X123279466Y-96793946D01*
X122529226Y-97544186D01*
X122123200Y-98524421D01*
X114301400Y-98524421D01*
X114301400Y-91172262D01*
X114445186Y-90449400D01*
X114271724Y-89577346D01*
X113777745Y-88838055D01*
X113038454Y-88344076D01*
X112386528Y-88214400D01*
X111946272Y-88214400D01*
X111294346Y-88344076D01*
X110555055Y-88838055D01*
X110061076Y-89577346D01*
X109887614Y-90449400D01*
X110031400Y-91172263D01*
X110031401Y-104869575D01*
X107175044Y-102013219D01*
X107055929Y-101834951D01*
X106349715Y-101363074D01*
X105516680Y-101197373D01*
X104683644Y-101363074D01*
X103977431Y-101834951D01*
X103858318Y-102013216D01*
X99325898Y-106545637D01*
X99147631Y-106664751D01*
X99028518Y-106843016D01*
X96475135Y-109396400D01*
X89995904Y-109396400D01*
X90020720Y-109271640D01*
X90020720Y-107471640D01*
X89971437Y-107223875D01*
X89831089Y-107013831D01*
X89621045Y-106873483D01*
X89373280Y-106824200D01*
X87573280Y-106824200D01*
X87325515Y-106873483D01*
X87318280Y-106878317D01*
X87318280Y-104611685D01*
X87345413Y-104475279D01*
X87292096Y-104207236D01*
X87237921Y-103934880D01*
X86931809Y-103476751D01*
X86816168Y-103399482D01*
X85259254Y-101842569D01*
X85209254Y-101721858D01*
X84805582Y-101318186D01*
X84278159Y-101099720D01*
X83707281Y-101099720D01*
X83179858Y-101318186D01*
X82776186Y-101721858D01*
X82557720Y-102249281D01*
X82557720Y-102820159D01*
X82776186Y-103347582D01*
X83179858Y-103751254D01*
X83300569Y-103801254D01*
X84548281Y-105048967D01*
X84548280Y-107176989D01*
X84031225Y-106831504D01*
X83757353Y-106777028D01*
X80983520Y-104003195D01*
X80983520Y-103384522D01*
X81138656Y-103152345D01*
X81233520Y-102675431D01*
X81233520Y-102060268D01*
X83254109Y-100039680D01*
X86856242Y-100039680D01*
X87523333Y-100706772D01*
X87614551Y-100843289D01*
X88155375Y-101204656D01*
X88632289Y-101299520D01*
X88632290Y-101299520D01*
X88793320Y-101331551D01*
X88954350Y-101299520D01*
X93734631Y-101299520D01*
X94174825Y-101211960D01*
X94473600Y-101211960D01*
X94721365Y-101162677D01*
X94890715Y-101049520D01*
X95837193Y-101049520D01*
X95973600Y-101076653D01*
X96110007Y-101049520D01*
X96514000Y-100969161D01*
X96972129Y-100663049D01*
X97049399Y-100547406D01*
X99099610Y-98497196D01*
X99215248Y-98419929D01*
X99292515Y-98304291D01*
X99292517Y-98304289D01*
X99521361Y-97961800D01*
X99628853Y-97421400D01*
X99601720Y-97284993D01*
X99601720Y-84130805D01*
X102450126Y-81282400D01*
X102691444Y-81282400D01*
X103365884Y-81003038D01*
X103381681Y-80987241D01*
X103381680Y-98584478D01*
X103505554Y-99207235D01*
X103669240Y-99452208D01*
X103669240Y-99574200D01*
X103718523Y-99821965D01*
X103858871Y-100032009D01*
X104068915Y-100172357D01*
X104316680Y-100221640D01*
X104438671Y-100221640D01*
X104683644Y-100385326D01*
X105516680Y-100551027D01*
X106349715Y-100385326D01*
X106594688Y-100221640D01*
X106716680Y-100221640D01*
X106964445Y-100172357D01*
X107174489Y-100032009D01*
X107314837Y-99821965D01*
X107364120Y-99574200D01*
X107364120Y-99452209D01*
X107527806Y-99207236D01*
X107651680Y-98584479D01*
X107651680Y-76215665D01*
X114055892Y-69811453D01*
X114780156Y-69511453D01*
X115465133Y-68826476D01*
X115835840Y-67931512D01*
X115835840Y-66962808D01*
X115465133Y-66067844D01*
X114780156Y-65382867D01*
X113885192Y-65012160D01*
X112916488Y-65012160D01*
X112021524Y-65382867D01*
X111336547Y-66067844D01*
X111036547Y-66792108D01*
X104173880Y-73654775D01*
X104173880Y-73247400D01*
X104124597Y-72999635D01*
X103984249Y-72789591D01*
X103774205Y-72649243D01*
X103526440Y-72599960D01*
X101126440Y-72599960D01*
X100878675Y-72649243D01*
X100668631Y-72789591D01*
X100528283Y-72999635D01*
X100479000Y-73247400D01*
X100479000Y-75647400D01*
X100528283Y-75895165D01*
X100668631Y-76105209D01*
X100878675Y-76245557D01*
X101126440Y-76294840D01*
X103381681Y-76294840D01*
X103381681Y-77907559D01*
X103365884Y-77891762D01*
X102691444Y-77612400D01*
X101961436Y-77612400D01*
X101286996Y-77891762D01*
X100770802Y-78407956D01*
X100491440Y-79082396D01*
X100491440Y-79323714D01*
X97333832Y-82481323D01*
X97218192Y-82558591D01*
X97140923Y-82674232D01*
X96912079Y-83016721D01*
X96804587Y-83557120D01*
X96831721Y-83693532D01*
X96831720Y-96847714D01*
X95399915Y-98279520D01*
X94890715Y-98279520D01*
X94806051Y-98222949D01*
X95113736Y-97762465D01*
X95208600Y-97285551D01*
X95208600Y-93661489D01*
X95121040Y-93221295D01*
X95121040Y-92922520D01*
X95071757Y-92674755D01*
X94931409Y-92464711D01*
X94806051Y-92380949D01*
X95113735Y-91920465D01*
X95240631Y-91282520D01*
X95113735Y-90644574D01*
X94843585Y-90240267D01*
X94308601Y-89705283D01*
X94308601Y-89212591D01*
X94340632Y-89051561D01*
X94308601Y-88890530D01*
X94213737Y-88413616D01*
X93852370Y-87872792D01*
X93715853Y-87781575D01*
X92240800Y-86306522D01*
X92240800Y-85951861D01*
X92321506Y-86146702D01*
X92725178Y-86550374D01*
X93252601Y-86768840D01*
X93823479Y-86768840D01*
X94350902Y-86550374D01*
X94754574Y-86146702D01*
X94973040Y-85619279D01*
X94973040Y-85048401D01*
X94754574Y-84520978D01*
X94350902Y-84117306D01*
X93823479Y-83898840D01*
X93252601Y-83898840D01*
X92725178Y-84117306D01*
X92321506Y-84520978D01*
X92240800Y-84715819D01*
X92240800Y-73275314D01*
X92503463Y-73668417D01*
X92978131Y-73985580D01*
X93396707Y-74068840D01*
X93679373Y-74068840D01*
X94097949Y-73985580D01*
X94572617Y-73668417D01*
X94889780Y-73193749D01*
X95001153Y-72633840D01*
X94923040Y-72241140D01*
X94923040Y-71576447D01*
X94950173Y-71440040D01*
X94842681Y-70899640D01*
X94613837Y-70557151D01*
X94536569Y-70441511D01*
X94420928Y-70364242D01*
X92117905Y-68061220D01*
X91895457Y-67728303D01*
X91562543Y-67505857D01*
X87771079Y-63714394D01*
X87693809Y-63598751D01*
X87235680Y-63292639D01*
X86831687Y-63212280D01*
X86695280Y-63185147D01*
X86558873Y-63212280D01*
X85165791Y-63212280D01*
X85346017Y-63091857D01*
X85663180Y-62617189D01*
X85774553Y-62057280D01*
X85663180Y-61497371D01*
X85346017Y-61022703D01*
X84871349Y-60705540D01*
X84452773Y-60622280D01*
X84435126Y-60622280D01*
X82676440Y-58863595D01*
X82676440Y-53775040D01*
X87422665Y-53775040D01*
X87535480Y-53797480D01*
X89055480Y-53797480D01*
X89303245Y-53748197D01*
X89475881Y-53632845D01*
X89475880Y-55656730D01*
X89425880Y-55777441D01*
X89425880Y-56348319D01*
X89644346Y-56875742D01*
X90048018Y-57279414D01*
X90575441Y-57497880D01*
X91146319Y-57497880D01*
X91673742Y-57279414D01*
X92077414Y-56875742D01*
X92295880Y-56348319D01*
X92295880Y-55777441D01*
X92245880Y-55656730D01*
X92245880Y-53233268D01*
X92328164Y-53315552D01*
X92376952Y-53388568D01*
X92449968Y-53437356D01*
X92585276Y-53572664D01*
X92609419Y-53582664D01*
X93707521Y-54680766D01*
X93707520Y-55690499D01*
X93629407Y-56083200D01*
X93740780Y-56643109D01*
X94057943Y-57117777D01*
X94532611Y-57434940D01*
X94951187Y-57518200D01*
X95233853Y-57518200D01*
X95652429Y-57434940D01*
X96127097Y-57117777D01*
X96444260Y-56643109D01*
X96555633Y-56083200D01*
X96477520Y-55690500D01*
X96477520Y-54243485D01*
X96504653Y-54107079D01*
X96473995Y-53952951D01*
X96397161Y-53566680D01*
X96091049Y-53108551D01*
X95975408Y-53031282D01*
X94770640Y-51826515D01*
X94770640Y-47357300D01*
X94848753Y-46964600D01*
X94737380Y-46404691D01*
X94420217Y-45930023D01*
X93945549Y-45612860D01*
X93526973Y-45529600D01*
X93244307Y-45529600D01*
X92825731Y-45612860D01*
X92351063Y-45930023D01*
X92033900Y-46404691D01*
X91922527Y-46964600D01*
X92000640Y-47357300D01*
X92000641Y-51582373D01*
X91908200Y-51489932D01*
X91859409Y-51416911D01*
X91786388Y-51368120D01*
X91625684Y-51207416D01*
X91448898Y-51134189D01*
X91375879Y-51085399D01*
X91289747Y-51068266D01*
X91112963Y-50995040D01*
X90921613Y-50995040D01*
X90835480Y-50977907D01*
X90749347Y-50995040D01*
X90557997Y-50995040D01*
X90381213Y-51068266D01*
X90295081Y-51085399D01*
X90222062Y-51134189D01*
X90045276Y-51207416D01*
X89909968Y-51342724D01*
X89836952Y-51391512D01*
X89788164Y-51464528D01*
X89689603Y-51563089D01*
X89653637Y-51382275D01*
X89513289Y-51172231D01*
X89303245Y-51031883D01*
X89055480Y-50982600D01*
X87535480Y-50982600D01*
X87422665Y-51005040D01*
X81834646Y-51005040D01*
X77354559Y-46524954D01*
X77277289Y-46409311D01*
X76819160Y-46103199D01*
X76415167Y-46022840D01*
X76278760Y-45995707D01*
X76142353Y-46022840D01*
X67519322Y-46022840D01*
X67348684Y-45852202D01*
X66674244Y-45572840D01*
X65944236Y-45572840D01*
X65461393Y-45772840D01*
X61081398Y-45772840D01*
X60920368Y-45740809D01*
X60759338Y-45772840D01*
X60759337Y-45772840D01*
X60282423Y-45867704D01*
X59741599Y-46229071D01*
X59650382Y-46365587D01*
X51662748Y-54353222D01*
X51526232Y-54444439D01*
X51164865Y-54985263D01*
X51091550Y-55353841D01*
X51065000Y-55348560D01*
X50766220Y-55348560D01*
X50164999Y-55228970D01*
X49952896Y-55271160D01*
X46430765Y-55271160D01*
X46336245Y-55208003D01*
X46088480Y-55158720D01*
X43888480Y-55158720D01*
X43640715Y-55208003D01*
X43430671Y-55348351D01*
X43290323Y-55558395D01*
X43241040Y-55806160D01*
X43241040Y-58006160D01*
X43290323Y-58253925D01*
X43430671Y-58463969D01*
X43640715Y-58604317D01*
X43888480Y-58653600D01*
X46088480Y-58653600D01*
X46336245Y-58604317D01*
X46430765Y-58541160D01*
X49993810Y-58541160D01*
X50154840Y-58573191D01*
X50315870Y-58541160D01*
X50315871Y-58541160D01*
X50792785Y-58446296D01*
X50797059Y-58443440D01*
X51065000Y-58443440D01*
X51070001Y-58442445D01*
X51070000Y-61024441D01*
X39739988Y-72354454D01*
X39603472Y-72445671D01*
X39512255Y-72582187D01*
X39242105Y-72986495D01*
X39115209Y-73624440D01*
X39134130Y-73719560D01*
X37283068Y-73719560D01*
X37101214Y-73537706D01*
X36120979Y-73131680D01*
X35059981Y-73131680D01*
X34079746Y-73537706D01*
X33329506Y-74287946D01*
X32923480Y-75268181D01*
X32923480Y-76329179D01*
X33329506Y-77309414D01*
X34079746Y-78059654D01*
X35059981Y-78465680D01*
X36120979Y-78465680D01*
X37101214Y-78059654D01*
X37171308Y-77989560D01*
X38647240Y-77989560D01*
X38647241Y-98448397D01*
X38647240Y-98448402D01*
X38647240Y-98448405D01*
X38605414Y-98658680D01*
X38647240Y-98868955D01*
X38647241Y-102547961D01*
X38605414Y-102758240D01*
X38771114Y-103591275D01*
X39123878Y-104119223D01*
X39242992Y-104297489D01*
X39421257Y-104416602D01*
X46494958Y-111490304D01*
X46614071Y-111668569D01*
X47320284Y-112140446D01*
X47943041Y-112264320D01*
X47943044Y-112264320D01*
X48153319Y-112306146D01*
X48363594Y-112264320D01*
X79672725Y-112264320D01*
X79883000Y-112306146D01*
X80093275Y-112264320D01*
X80093279Y-112264320D01*
X80716036Y-112140446D01*
X81422249Y-111668569D01*
X81541364Y-111490301D01*
X83025026Y-110006640D01*
X83554311Y-110006640D01*
X84031225Y-109911776D01*
X84110651Y-109858705D01*
X84048280Y-110172266D01*
X84048280Y-111837565D01*
X84157650Y-112387400D01*
X84173446Y-112411040D01*
X32917600Y-112411040D01*
X32917600Y-63154560D01*
X38605413Y-63154560D01*
X38771114Y-63987596D01*
X39242991Y-64693809D01*
X39949204Y-65165686D01*
X40571961Y-65289560D01*
X40571962Y-65289560D01*
X40782240Y-65331387D01*
X40992519Y-65289560D01*
X44747725Y-65289560D01*
X44958000Y-65331386D01*
X45168275Y-65289560D01*
X45168279Y-65289560D01*
X45791036Y-65165686D01*
X46497249Y-64693809D01*
X46616366Y-64515538D01*
X46631602Y-64500302D01*
X46984366Y-63972355D01*
X47150067Y-63139320D01*
X46984366Y-62306285D01*
X46512489Y-61600071D01*
X45806275Y-61128194D01*
X44973240Y-60962493D01*
X44686345Y-61019560D01*
X42917240Y-61019560D01*
X42917240Y-59195241D01*
X42793366Y-58572484D01*
X42321489Y-57866271D01*
X41615275Y-57394394D01*
X40782240Y-57228693D01*
X39949204Y-57394394D01*
X39242991Y-57866271D01*
X38771114Y-58572485D01*
X38647240Y-59195242D01*
X38647241Y-62944277D01*
X38605413Y-63154560D01*
X32917600Y-63154560D01*
X32917600Y-41100101D01*
X32999680Y-41100101D01*
X32999680Y-42161099D01*
X33405706Y-43141334D01*
X34155946Y-43891574D01*
X35136181Y-44297600D01*
X36197179Y-44297600D01*
X37177414Y-43891574D01*
X37333868Y-43735120D01*
X38581200Y-43735120D01*
X38581201Y-46429201D01*
X38539374Y-46639480D01*
X38705074Y-47472515D01*
X38955624Y-47847489D01*
X39176952Y-48178729D01*
X39216538Y-48205180D01*
X39242991Y-48244769D01*
X39949204Y-48716646D01*
X40571961Y-48840520D01*
X40571962Y-48840520D01*
X40782240Y-48882347D01*
X40992518Y-48840520D01*
X44573890Y-48840520D01*
X44988480Y-48922987D01*
X45821515Y-48757286D01*
X46527729Y-48285409D01*
X46999606Y-47579195D01*
X47165307Y-46746160D01*
X46999606Y-45913125D01*
X46646842Y-45385177D01*
X46606204Y-45344539D01*
X46487089Y-45166271D01*
X45780876Y-44694394D01*
X45158119Y-44570520D01*
X45158115Y-44570520D01*
X44947840Y-44528694D01*
X44737565Y-44570520D01*
X42851200Y-44570520D01*
X42851200Y-42322982D01*
X42994986Y-41600120D01*
X42821524Y-40728066D01*
X42327545Y-39988775D01*
X41588254Y-39494796D01*
X40936328Y-39365120D01*
X40496072Y-39365120D01*
X39993337Y-39465120D01*
X37272908Y-39465120D01*
X37177414Y-39369626D01*
X36197179Y-38963600D01*
X35136181Y-38963600D01*
X34155946Y-39369626D01*
X33405706Y-40119866D01*
X32999680Y-41100101D01*
X32917600Y-41100101D01*
X32917600Y-36956200D01*
X93888743Y-36956200D01*
X91379823Y-39465119D01*
X91379823Y-39465119D01*
G37*
X91379823Y-39465119D02*
X57898487Y-39465121D01*
X57803965Y-39401963D01*
X57556200Y-39352680D01*
X54356200Y-39352680D01*
X54108435Y-39401963D01*
X53898391Y-39542311D01*
X53758043Y-39752355D01*
X53708760Y-40000120D01*
X53708760Y-43200120D01*
X53758043Y-43447885D01*
X53898391Y-43657929D01*
X54108435Y-43798277D01*
X54356200Y-43847560D01*
X57556200Y-43847560D01*
X57803965Y-43798277D01*
X57898486Y-43735120D01*
X64487117Y-43735120D01*
X64511083Y-43855605D01*
X64651431Y-44065649D01*
X64861475Y-44205997D01*
X65109240Y-44255280D01*
X67509240Y-44255280D01*
X67757005Y-44205997D01*
X67967049Y-44065649D01*
X68107397Y-43855605D01*
X68131363Y-43735119D01*
X92053888Y-43735118D01*
X92264168Y-43776945D01*
X93097203Y-43611245D01*
X93625151Y-43258481D01*
X93625152Y-43258480D01*
X93803417Y-43139367D01*
X93922530Y-42961102D01*
X96996957Y-39886676D01*
X100955765Y-39890363D01*
X100957118Y-39897165D01*
X101097825Y-40107748D01*
X101097832Y-40335094D01*
X101082680Y-40332080D01*
X99282680Y-40332080D01*
X99034915Y-40381363D01*
X98824871Y-40521711D01*
X98684523Y-40731755D01*
X98635240Y-40979520D01*
X98635240Y-42779520D01*
X98684523Y-43027285D01*
X98824871Y-43237329D01*
X99034915Y-43377677D01*
X99282680Y-43426960D01*
X101082680Y-43426960D01*
X101330445Y-43377677D01*
X101540489Y-43237329D01*
X101624251Y-43111971D01*
X102084735Y-43419656D01*
X102722680Y-43546551D01*
X103360624Y-43419656D01*
X103901449Y-43058289D01*
X104052814Y-42831754D01*
X104156007Y-42986193D01*
X104663753Y-43325458D01*
X104771332Y-43346857D01*
X107337160Y-45912686D01*
X107337160Y-46236202D01*
X107302174Y-46151738D01*
X106898502Y-45748066D01*
X106371079Y-45529600D01*
X105800201Y-45529600D01*
X105272778Y-45748066D01*
X104869106Y-46151738D01*
X104819106Y-46272448D01*
X100488512Y-50603043D01*
X100372872Y-50680311D01*
X100295603Y-50795952D01*
X100066759Y-51138441D01*
X99959267Y-51678840D01*
X99986401Y-51815252D01*
X99986400Y-53800118D01*
X99923635Y-53812603D01*
X99713591Y-53952951D01*
X99573243Y-54162995D01*
X99523960Y-54410760D01*
X99523960Y-55499515D01*
X99335352Y-55688123D01*
X99219712Y-55765391D01*
X99142443Y-55881032D01*
X98913599Y-56223521D01*
X98806107Y-56763920D01*
X98833241Y-56900332D01*
X98833240Y-62333440D01*
X91826686Y-62333440D01*
X87851680Y-58358435D01*
X87851680Y-58005397D01*
X88024489Y-57889929D01*
X88164837Y-57679885D01*
X88214120Y-57432120D01*
X88214120Y-55232120D01*
X88164837Y-54984355D01*
X88024489Y-54774311D01*
X87814445Y-54633963D01*
X87566680Y-54584680D01*
X85366680Y-54584680D01*
X85118915Y-54633963D01*
X84908871Y-54774311D01*
X84768523Y-54984355D01*
X84719240Y-55232120D01*
X84719240Y-57432120D01*
X84768523Y-57679885D01*
X84908871Y-57889929D01*
X85081681Y-58005398D01*
X85081681Y-58795709D01*
X85054547Y-58932120D01*
X85162039Y-59472519D01*
X85355490Y-59762039D01*
X85468152Y-59930649D01*
X85583792Y-60007917D01*
X90177202Y-64601328D01*
X90254471Y-64716969D01*
X90529989Y-64901064D01*
X90712600Y-65023081D01*
X91253000Y-65130573D01*
X91389407Y-65103440D01*
X96852926Y-65103440D01*
X96618751Y-65259911D01*
X96541482Y-65375552D01*
X94400369Y-67516666D01*
X94279658Y-67566666D01*
X93875986Y-67970338D01*
X93657520Y-68497761D01*
X93657520Y-69068639D01*
X93875986Y-69596062D01*
X94279658Y-69999734D01*
X94807081Y-70218200D01*
X95377959Y-70218200D01*
X95905382Y-69999734D01*
X96309054Y-69596062D01*
X96359054Y-69475351D01*
X98190966Y-67643440D01*
X98958463Y-67643440D01*
X98860083Y-67790675D01*
X98810800Y-68038440D01*
X98810800Y-68774847D01*
X98806107Y-68798440D01*
X98810800Y-68822033D01*
X98810800Y-69558440D01*
X98860083Y-69806205D01*
X99000431Y-70016249D01*
X99210475Y-70156597D01*
X99458240Y-70205880D01*
X100978240Y-70205880D01*
X101091055Y-70183440D01*
X104679425Y-70183440D01*
X104792240Y-70205880D01*
X106312240Y-70205880D01*
X106560005Y-70156597D01*
X106770049Y-70016249D01*
X106910397Y-69806205D01*
X106959680Y-69558440D01*
X106959680Y-68822033D01*
X106964373Y-68798440D01*
X106959680Y-68774847D01*
X106959680Y-68038440D01*
X106910397Y-67790675D01*
X106770049Y-67580631D01*
X106560005Y-67440283D01*
X106379191Y-67404317D01*
X106477748Y-67305760D01*
X106550769Y-67256969D01*
X106599560Y-67183948D01*
X106734864Y-67048644D01*
X106808090Y-66871861D01*
X106856881Y-66798840D01*
X106874014Y-66712706D01*
X106947240Y-66535923D01*
X106947240Y-66344574D01*
X106964373Y-66258440D01*
X106947240Y-66172306D01*
X106947240Y-65980957D01*
X106874014Y-65804174D01*
X106856881Y-65718040D01*
X106808090Y-65645019D01*
X106734864Y-65468236D01*
X106599560Y-65332932D01*
X106550769Y-65259911D01*
X106477748Y-65211120D01*
X106342444Y-65075816D01*
X106165661Y-65002590D01*
X106144483Y-64988440D01*
X106165658Y-64974291D01*
X106342444Y-64901064D01*
X106477750Y-64765758D01*
X106550768Y-64716969D01*
X106599558Y-64643950D01*
X106734864Y-64508644D01*
X106808090Y-64331860D01*
X106856881Y-64258840D01*
X106874014Y-64172706D01*
X106947240Y-63995923D01*
X106947240Y-63440957D01*
X106937240Y-63416815D01*
X106937240Y-57362571D01*
X107410844Y-57166398D01*
X107927038Y-56650204D01*
X108206400Y-55975764D01*
X108206400Y-55734445D01*
X109605048Y-54335798D01*
X109720689Y-54258529D01*
X110026801Y-53800400D01*
X110107160Y-53396407D01*
X110134293Y-53260000D01*
X110107160Y-53123593D01*
X110107160Y-45475407D01*
X110134293Y-45339000D01*
X110026801Y-44798600D01*
X109797957Y-44456111D01*
X109797955Y-44456109D01*
X109720688Y-44340471D01*
X109605050Y-44263204D01*
X109071886Y-43730040D01*
X111479097Y-43730040D01*
X111981832Y-43830040D01*
X112422088Y-43830040D01*
X113074014Y-43700364D01*
X113813305Y-43206385D01*
X114307284Y-42467094D01*
X114480746Y-41595040D01*
X114307284Y-40722986D01*
X113813305Y-39983695D01*
X113074014Y-39489716D01*
X112422088Y-39360040D01*
X111981832Y-39360040D01*
X111479097Y-39460040D01*
X106205561Y-39460040D01*
X105582804Y-39583914D01*
X104876591Y-40055791D01*
X104592224Y-40481376D01*
X104396811Y-40611947D01*
X104399870Y-40596569D01*
X104367834Y-40435515D01*
X104367824Y-40107633D01*
X104508423Y-39897211D01*
X104654722Y-39161720D01*
X104617748Y-38975840D01*
X104617748Y-38779147D01*
X104743098Y-38591926D01*
X104743300Y-38590914D01*
X104743875Y-38590054D01*
X104826588Y-38174225D01*
X104909575Y-37759045D01*
X104909374Y-37758032D01*
X104909576Y-37757018D01*
X104826912Y-37341440D01*
X104750656Y-36956200D01*
X129098841Y-36956200D01*
X129098841Y-39358914D01*
X129041960Y-39347600D01*
X125841960Y-39347600D01*
X125594195Y-39396883D01*
X125384151Y-39537231D01*
X125243803Y-39747275D01*
X125194520Y-39995040D01*
X125194520Y-43195040D01*
X125243803Y-43442805D01*
X125317120Y-43552531D01*
X125317121Y-50647174D01*
X124739859Y-51224436D01*
X124561591Y-51343551D01*
X124089714Y-52049765D01*
X123965840Y-52672522D01*
X123965840Y-52672525D01*
X123924014Y-52882800D01*
X123965840Y-53093075D01*
X123965841Y-66238543D01*
X123665840Y-66962808D01*
X123665840Y-67931512D01*
X123965840Y-68655775D01*
X123965841Y-77777880D01*
X123924014Y-77988160D01*
X124089714Y-78821195D01*
X124442478Y-79349143D01*
X124561592Y-79527409D01*
X124739857Y-79646522D01*
X125271400Y-80178065D01*
X125271401Y-88507113D01*
X125208243Y-88601635D01*
X125158960Y-88849400D01*
X125158960Y-92049400D01*
X125208243Y-92297165D01*
X125348591Y-92507209D01*
X125558635Y-92647557D01*
X125806400Y-92696840D01*
X129006400Y-92696840D01*
X129098840Y-92678453D01*
X129098840Y-112411040D01*
X99499185Y-112411040D01*
X100510052Y-111400173D01*
X101571226Y-110339000D01*
X105413085Y-110339000D01*
X105623359Y-110380826D01*
X105833634Y-110339000D01*
X110136201Y-110339000D01*
X110346480Y-110380827D01*
X110556758Y-110339000D01*
X123153492Y-110339000D01*
X123279466Y-110464974D01*
X124259701Y-110871000D01*
X125320699Y-110871000D01*
X126300934Y-110464974D01*
X127051174Y-109714734D01*
X127457200Y-108734499D01*
X127457200Y-107673501D01*
X127051174Y-106693266D01*
X126300934Y-105943026D01*
X125320699Y-105537000D01*
X124259701Y-105537000D01*
X123279466Y-105943026D01*
X123153492Y-106069000D01*
X114301400Y-106069000D01*
X114301400Y-98524421D01*
X122123200Y-98524421D01*
X122123200Y-99585419D01*
X122529226Y-100565654D01*
X123279466Y-101315894D01*
X124259701Y-101721920D01*
X125320699Y-101721920D01*
X126300934Y-101315894D01*
X127051174Y-100565654D01*
X127457200Y-99585419D01*
X127457200Y-98524421D01*
X127051174Y-97544186D01*
X126300934Y-96793946D01*
X125320699Y-96387920D01*
X124259701Y-96387920D01*
X123279466Y-96793946D01*
X122529226Y-97544186D01*
X122123200Y-98524421D01*
X114301400Y-98524421D01*
X114301400Y-91172262D01*
X114445186Y-90449400D01*
X114271724Y-89577346D01*
X113777745Y-88838055D01*
X113038454Y-88344076D01*
X112386528Y-88214400D01*
X111946272Y-88214400D01*
X111294346Y-88344076D01*
X110555055Y-88838055D01*
X110061076Y-89577346D01*
X109887614Y-90449400D01*
X110031400Y-91172263D01*
X110031401Y-104869575D01*
X107175044Y-102013219D01*
X107055929Y-101834951D01*
X106349715Y-101363074D01*
X105516680Y-101197373D01*
X104683644Y-101363074D01*
X103977431Y-101834951D01*
X103858318Y-102013216D01*
X99325898Y-106545637D01*
X99147631Y-106664751D01*
X99028518Y-106843016D01*
X96475135Y-109396400D01*
X89995904Y-109396400D01*
X90020720Y-109271640D01*
X90020720Y-107471640D01*
X89971437Y-107223875D01*
X89831089Y-107013831D01*
X89621045Y-106873483D01*
X89373280Y-106824200D01*
X87573280Y-106824200D01*
X87325515Y-106873483D01*
X87318280Y-106878317D01*
X87318280Y-104611685D01*
X87345413Y-104475279D01*
X87292096Y-104207236D01*
X87237921Y-103934880D01*
X86931809Y-103476751D01*
X86816168Y-103399482D01*
X85259254Y-101842569D01*
X85209254Y-101721858D01*
X84805582Y-101318186D01*
X84278159Y-101099720D01*
X83707281Y-101099720D01*
X83179858Y-101318186D01*
X82776186Y-101721858D01*
X82557720Y-102249281D01*
X82557720Y-102820159D01*
X82776186Y-103347582D01*
X83179858Y-103751254D01*
X83300569Y-103801254D01*
X84548281Y-105048967D01*
X84548280Y-107176989D01*
X84031225Y-106831504D01*
X83757353Y-106777028D01*
X80983520Y-104003195D01*
X80983520Y-103384522D01*
X81138656Y-103152345D01*
X81233520Y-102675431D01*
X81233520Y-102060268D01*
X83254109Y-100039680D01*
X86856242Y-100039680D01*
X87523333Y-100706772D01*
X87614551Y-100843289D01*
X88155375Y-101204656D01*
X88632289Y-101299520D01*
X88632290Y-101299520D01*
X88793320Y-101331551D01*
X88954350Y-101299520D01*
X93734631Y-101299520D01*
X94174825Y-101211960D01*
X94473600Y-101211960D01*
X94721365Y-101162677D01*
X94890715Y-101049520D01*
X95837193Y-101049520D01*
X95973600Y-101076653D01*
X96110007Y-101049520D01*
X96514000Y-100969161D01*
X96972129Y-100663049D01*
X97049399Y-100547406D01*
X99099610Y-98497196D01*
X99215248Y-98419929D01*
X99292515Y-98304291D01*
X99292517Y-98304289D01*
X99521361Y-97961800D01*
X99628853Y-97421400D01*
X99601720Y-97284993D01*
X99601720Y-84130805D01*
X102450126Y-81282400D01*
X102691444Y-81282400D01*
X103365884Y-81003038D01*
X103381681Y-80987241D01*
X103381680Y-98584478D01*
X103505554Y-99207235D01*
X103669240Y-99452208D01*
X103669240Y-99574200D01*
X103718523Y-99821965D01*
X103858871Y-100032009D01*
X104068915Y-100172357D01*
X104316680Y-100221640D01*
X104438671Y-100221640D01*
X104683644Y-100385326D01*
X105516680Y-100551027D01*
X106349715Y-100385326D01*
X106594688Y-100221640D01*
X106716680Y-100221640D01*
X106964445Y-100172357D01*
X107174489Y-100032009D01*
X107314837Y-99821965D01*
X107364120Y-99574200D01*
X107364120Y-99452209D01*
X107527806Y-99207236D01*
X107651680Y-98584479D01*
X107651680Y-76215665D01*
X114055892Y-69811453D01*
X114780156Y-69511453D01*
X115465133Y-68826476D01*
X115835840Y-67931512D01*
X115835840Y-66962808D01*
X115465133Y-66067844D01*
X114780156Y-65382867D01*
X113885192Y-65012160D01*
X112916488Y-65012160D01*
X112021524Y-65382867D01*
X111336547Y-66067844D01*
X111036547Y-66792108D01*
X104173880Y-73654775D01*
X104173880Y-73247400D01*
X104124597Y-72999635D01*
X103984249Y-72789591D01*
X103774205Y-72649243D01*
X103526440Y-72599960D01*
X101126440Y-72599960D01*
X100878675Y-72649243D01*
X100668631Y-72789591D01*
X100528283Y-72999635D01*
X100479000Y-73247400D01*
X100479000Y-75647400D01*
X100528283Y-75895165D01*
X100668631Y-76105209D01*
X100878675Y-76245557D01*
X101126440Y-76294840D01*
X103381681Y-76294840D01*
X103381681Y-77907559D01*
X103365884Y-77891762D01*
X102691444Y-77612400D01*
X101961436Y-77612400D01*
X101286996Y-77891762D01*
X100770802Y-78407956D01*
X100491440Y-79082396D01*
X100491440Y-79323714D01*
X97333832Y-82481323D01*
X97218192Y-82558591D01*
X97140923Y-82674232D01*
X96912079Y-83016721D01*
X96804587Y-83557120D01*
X96831721Y-83693532D01*
X96831720Y-96847714D01*
X95399915Y-98279520D01*
X94890715Y-98279520D01*
X94806051Y-98222949D01*
X95113736Y-97762465D01*
X95208600Y-97285551D01*
X95208600Y-93661489D01*
X95121040Y-93221295D01*
X95121040Y-92922520D01*
X95071757Y-92674755D01*
X94931409Y-92464711D01*
X94806051Y-92380949D01*
X95113735Y-91920465D01*
X95240631Y-91282520D01*
X95113735Y-90644574D01*
X94843585Y-90240267D01*
X94308601Y-89705283D01*
X94308601Y-89212591D01*
X94340632Y-89051561D01*
X94308601Y-88890530D01*
X94213737Y-88413616D01*
X93852370Y-87872792D01*
X93715853Y-87781575D01*
X92240800Y-86306522D01*
X92240800Y-85951861D01*
X92321506Y-86146702D01*
X92725178Y-86550374D01*
X93252601Y-86768840D01*
X93823479Y-86768840D01*
X94350902Y-86550374D01*
X94754574Y-86146702D01*
X94973040Y-85619279D01*
X94973040Y-85048401D01*
X94754574Y-84520978D01*
X94350902Y-84117306D01*
X93823479Y-83898840D01*
X93252601Y-83898840D01*
X92725178Y-84117306D01*
X92321506Y-84520978D01*
X92240800Y-84715819D01*
X92240800Y-73275314D01*
X92503463Y-73668417D01*
X92978131Y-73985580D01*
X93396707Y-74068840D01*
X93679373Y-74068840D01*
X94097949Y-73985580D01*
X94572617Y-73668417D01*
X94889780Y-73193749D01*
X95001153Y-72633840D01*
X94923040Y-72241140D01*
X94923040Y-71576447D01*
X94950173Y-71440040D01*
X94842681Y-70899640D01*
X94613837Y-70557151D01*
X94536569Y-70441511D01*
X94420928Y-70364242D01*
X92117905Y-68061220D01*
X91895457Y-67728303D01*
X91562543Y-67505857D01*
X87771079Y-63714394D01*
X87693809Y-63598751D01*
X87235680Y-63292639D01*
X86831687Y-63212280D01*
X86695280Y-63185147D01*
X86558873Y-63212280D01*
X85165791Y-63212280D01*
X85346017Y-63091857D01*
X85663180Y-62617189D01*
X85774553Y-62057280D01*
X85663180Y-61497371D01*
X85346017Y-61022703D01*
X84871349Y-60705540D01*
X84452773Y-60622280D01*
X84435126Y-60622280D01*
X82676440Y-58863595D01*
X82676440Y-53775040D01*
X87422665Y-53775040D01*
X87535480Y-53797480D01*
X89055480Y-53797480D01*
X89303245Y-53748197D01*
X89475881Y-53632845D01*
X89475880Y-55656730D01*
X89425880Y-55777441D01*
X89425880Y-56348319D01*
X89644346Y-56875742D01*
X90048018Y-57279414D01*
X90575441Y-57497880D01*
X91146319Y-57497880D01*
X91673742Y-57279414D01*
X92077414Y-56875742D01*
X92295880Y-56348319D01*
X92295880Y-55777441D01*
X92245880Y-55656730D01*
X92245880Y-53233268D01*
X92328164Y-53315552D01*
X92376952Y-53388568D01*
X92449968Y-53437356D01*
X92585276Y-53572664D01*
X92609419Y-53582664D01*
X93707521Y-54680766D01*
X93707520Y-55690499D01*
X93629407Y-56083200D01*
X93740780Y-56643109D01*
X94057943Y-57117777D01*
X94532611Y-57434940D01*
X94951187Y-57518200D01*
X95233853Y-57518200D01*
X95652429Y-57434940D01*
X96127097Y-57117777D01*
X96444260Y-56643109D01*
X96555633Y-56083200D01*
X96477520Y-55690500D01*
X96477520Y-54243485D01*
X96504653Y-54107079D01*
X96473995Y-53952951D01*
X96397161Y-53566680D01*
X96091049Y-53108551D01*
X95975408Y-53031282D01*
X94770640Y-51826515D01*
X94770640Y-47357300D01*
X94848753Y-46964600D01*
X94737380Y-46404691D01*
X94420217Y-45930023D01*
X93945549Y-45612860D01*
X93526973Y-45529600D01*
X93244307Y-45529600D01*
X92825731Y-45612860D01*
X92351063Y-45930023D01*
X92033900Y-46404691D01*
X91922527Y-46964600D01*
X92000640Y-47357300D01*
X92000641Y-51582373D01*
X91908200Y-51489932D01*
X91859409Y-51416911D01*
X91786388Y-51368120D01*
X91625684Y-51207416D01*
X91448898Y-51134189D01*
X91375879Y-51085399D01*
X91289747Y-51068266D01*
X91112963Y-50995040D01*
X90921613Y-50995040D01*
X90835480Y-50977907D01*
X90749347Y-50995040D01*
X90557997Y-50995040D01*
X90381213Y-51068266D01*
X90295081Y-51085399D01*
X90222062Y-51134189D01*
X90045276Y-51207416D01*
X89909968Y-51342724D01*
X89836952Y-51391512D01*
X89788164Y-51464528D01*
X89689603Y-51563089D01*
X89653637Y-51382275D01*
X89513289Y-51172231D01*
X89303245Y-51031883D01*
X89055480Y-50982600D01*
X87535480Y-50982600D01*
X87422665Y-51005040D01*
X81834646Y-51005040D01*
X77354559Y-46524954D01*
X77277289Y-46409311D01*
X76819160Y-46103199D01*
X76415167Y-46022840D01*
X76278760Y-45995707D01*
X76142353Y-46022840D01*
X67519322Y-46022840D01*
X67348684Y-45852202D01*
X66674244Y-45572840D01*
X65944236Y-45572840D01*
X65461393Y-45772840D01*
X61081398Y-45772840D01*
X60920368Y-45740809D01*
X60759338Y-45772840D01*
X60759337Y-45772840D01*
X60282423Y-45867704D01*
X59741599Y-46229071D01*
X59650382Y-46365587D01*
X51662748Y-54353222D01*
X51526232Y-54444439D01*
X51164865Y-54985263D01*
X51091550Y-55353841D01*
X51065000Y-55348560D01*
X50766220Y-55348560D01*
X50164999Y-55228970D01*
X49952896Y-55271160D01*
X46430765Y-55271160D01*
X46336245Y-55208003D01*
X46088480Y-55158720D01*
X43888480Y-55158720D01*
X43640715Y-55208003D01*
X43430671Y-55348351D01*
X43290323Y-55558395D01*
X43241040Y-55806160D01*
X43241040Y-58006160D01*
X43290323Y-58253925D01*
X43430671Y-58463969D01*
X43640715Y-58604317D01*
X43888480Y-58653600D01*
X46088480Y-58653600D01*
X46336245Y-58604317D01*
X46430765Y-58541160D01*
X49993810Y-58541160D01*
X50154840Y-58573191D01*
X50315870Y-58541160D01*
X50315871Y-58541160D01*
X50792785Y-58446296D01*
X50797059Y-58443440D01*
X51065000Y-58443440D01*
X51070001Y-58442445D01*
X51070000Y-61024441D01*
X39739988Y-72354454D01*
X39603472Y-72445671D01*
X39512255Y-72582187D01*
X39242105Y-72986495D01*
X39115209Y-73624440D01*
X39134130Y-73719560D01*
X37283068Y-73719560D01*
X37101214Y-73537706D01*
X36120979Y-73131680D01*
X35059981Y-73131680D01*
X34079746Y-73537706D01*
X33329506Y-74287946D01*
X32923480Y-75268181D01*
X32923480Y-76329179D01*
X33329506Y-77309414D01*
X34079746Y-78059654D01*
X35059981Y-78465680D01*
X36120979Y-78465680D01*
X37101214Y-78059654D01*
X37171308Y-77989560D01*
X38647240Y-77989560D01*
X38647241Y-98448397D01*
X38647240Y-98448402D01*
X38647240Y-98448405D01*
X38605414Y-98658680D01*
X38647240Y-98868955D01*
X38647241Y-102547961D01*
X38605414Y-102758240D01*
X38771114Y-103591275D01*
X39123878Y-104119223D01*
X39242992Y-104297489D01*
X39421257Y-104416602D01*
X46494958Y-111490304D01*
X46614071Y-111668569D01*
X47320284Y-112140446D01*
X47943041Y-112264320D01*
X47943044Y-112264320D01*
X48153319Y-112306146D01*
X48363594Y-112264320D01*
X79672725Y-112264320D01*
X79883000Y-112306146D01*
X80093275Y-112264320D01*
X80093279Y-112264320D01*
X80716036Y-112140446D01*
X81422249Y-111668569D01*
X81541364Y-111490301D01*
X83025026Y-110006640D01*
X83554311Y-110006640D01*
X84031225Y-109911776D01*
X84110651Y-109858705D01*
X84048280Y-110172266D01*
X84048280Y-111837565D01*
X84157650Y-112387400D01*
X84173446Y-112411040D01*
X32917600Y-112411040D01*
X32917600Y-63154560D01*
X38605413Y-63154560D01*
X38771114Y-63987596D01*
X39242991Y-64693809D01*
X39949204Y-65165686D01*
X40571961Y-65289560D01*
X40571962Y-65289560D01*
X40782240Y-65331387D01*
X40992519Y-65289560D01*
X44747725Y-65289560D01*
X44958000Y-65331386D01*
X45168275Y-65289560D01*
X45168279Y-65289560D01*
X45791036Y-65165686D01*
X46497249Y-64693809D01*
X46616366Y-64515538D01*
X46631602Y-64500302D01*
X46984366Y-63972355D01*
X47150067Y-63139320D01*
X46984366Y-62306285D01*
X46512489Y-61600071D01*
X45806275Y-61128194D01*
X44973240Y-60962493D01*
X44686345Y-61019560D01*
X42917240Y-61019560D01*
X42917240Y-59195241D01*
X42793366Y-58572484D01*
X42321489Y-57866271D01*
X41615275Y-57394394D01*
X40782240Y-57228693D01*
X39949204Y-57394394D01*
X39242991Y-57866271D01*
X38771114Y-58572485D01*
X38647240Y-59195242D01*
X38647241Y-62944277D01*
X38605413Y-63154560D01*
X32917600Y-63154560D01*
X32917600Y-41100101D01*
X32999680Y-41100101D01*
X32999680Y-42161099D01*
X33405706Y-43141334D01*
X34155946Y-43891574D01*
X35136181Y-44297600D01*
X36197179Y-44297600D01*
X37177414Y-43891574D01*
X37333868Y-43735120D01*
X38581200Y-43735120D01*
X38581201Y-46429201D01*
X38539374Y-46639480D01*
X38705074Y-47472515D01*
X38955624Y-47847489D01*
X39176952Y-48178729D01*
X39216538Y-48205180D01*
X39242991Y-48244769D01*
X39949204Y-48716646D01*
X40571961Y-48840520D01*
X40571962Y-48840520D01*
X40782240Y-48882347D01*
X40992518Y-48840520D01*
X44573890Y-48840520D01*
X44988480Y-48922987D01*
X45821515Y-48757286D01*
X46527729Y-48285409D01*
X46999606Y-47579195D01*
X47165307Y-46746160D01*
X46999606Y-45913125D01*
X46646842Y-45385177D01*
X46606204Y-45344539D01*
X46487089Y-45166271D01*
X45780876Y-44694394D01*
X45158119Y-44570520D01*
X45158115Y-44570520D01*
X44947840Y-44528694D01*
X44737565Y-44570520D01*
X42851200Y-44570520D01*
X42851200Y-42322982D01*
X42994986Y-41600120D01*
X42821524Y-40728066D01*
X42327545Y-39988775D01*
X41588254Y-39494796D01*
X40936328Y-39365120D01*
X40496072Y-39365120D01*
X39993337Y-39465120D01*
X37272908Y-39465120D01*
X37177414Y-39369626D01*
X36197179Y-38963600D01*
X35136181Y-38963600D01*
X34155946Y-39369626D01*
X33405706Y-40119866D01*
X32999680Y-41100101D01*
X32917600Y-41100101D01*
X32917600Y-36956200D01*
X93888743Y-36956200D01*
X91379823Y-39465119D01*
G36*
X89470801Y-86363638D02*
X89315665Y-86595815D01*
X89261188Y-86869686D01*
X87797020Y-88333855D01*
X87464103Y-88556303D01*
X87146940Y-89030971D01*
X87035567Y-89590880D01*
X87146940Y-90150789D01*
X87464103Y-90625457D01*
X87938771Y-90942620D01*
X88357347Y-91025880D01*
X88640013Y-91025880D01*
X89058589Y-90942620D01*
X89533257Y-90625457D01*
X89755705Y-90292540D01*
X90679023Y-89369222D01*
X91038601Y-89728800D01*
X91038601Y-90221491D01*
X91006570Y-90382521D01*
X91038601Y-90543551D01*
X91133465Y-91020465D01*
X91494832Y-91561290D01*
X91631351Y-91652509D01*
X92352324Y-92373482D01*
X92215791Y-92464711D01*
X92075443Y-92674755D01*
X92026160Y-92922520D01*
X92026160Y-93221296D01*
X91938600Y-93661490D01*
X91938601Y-97285551D01*
X92033465Y-97762465D01*
X92211905Y-98029520D01*
X89470559Y-98029520D01*
X88803468Y-97362430D01*
X88712249Y-97225911D01*
X88171425Y-96864544D01*
X87694511Y-96769680D01*
X87694510Y-96769680D01*
X87533480Y-96737649D01*
X87372450Y-96769680D01*
X82737900Y-96769680D01*
X82576870Y-96737649D01*
X82415840Y-96769680D01*
X82415839Y-96769680D01*
X81938925Y-96864544D01*
X81398101Y-97225911D01*
X81306884Y-97362427D01*
X78556268Y-100113044D01*
X78419752Y-100204261D01*
X78058384Y-100745085D01*
X77963520Y-101221999D01*
X77931489Y-101383030D01*
X77963520Y-101544060D01*
X77963520Y-102675430D01*
X78058384Y-103152344D01*
X78213520Y-103384523D01*
X78213521Y-104440469D01*
X78186387Y-104576880D01*
X78293879Y-105117279D01*
X78417977Y-105303005D01*
X78599992Y-105575409D01*
X78715632Y-105652677D01*
X80027964Y-106965010D01*
X78998655Y-107994320D01*
X68122006Y-107994320D01*
X68844783Y-107271543D01*
X69177697Y-107049097D01*
X69494860Y-106574429D01*
X69606233Y-106014520D01*
X69494860Y-105454611D01*
X69177697Y-104979943D01*
X68703029Y-104662780D01*
X68284453Y-104579520D01*
X68001787Y-104579520D01*
X67583211Y-104662780D01*
X67108543Y-104979943D01*
X66886097Y-105312857D01*
X65242795Y-106956160D01*
X63815619Y-106956160D01*
X63890241Y-106844480D01*
X63970600Y-106440487D01*
X63997733Y-106304081D01*
X63970600Y-106167675D01*
X63970600Y-94536575D01*
X63997733Y-94400169D01*
X63965520Y-94238225D01*
X63965520Y-93837405D01*
X71922286Y-85880640D01*
X75564780Y-85880640D01*
X75816147Y-85930640D01*
X76898813Y-85930640D01*
X77104210Y-85889784D01*
X71766192Y-91227803D01*
X71650551Y-91305072D01*
X71573283Y-91420712D01*
X71344439Y-91763201D01*
X71236947Y-92303600D01*
X71264080Y-92440007D01*
X71264080Y-93214760D01*
X70002046Y-93214760D01*
X69409654Y-92622369D01*
X69359654Y-92501658D01*
X68955982Y-92097986D01*
X68428559Y-91879520D01*
X67857681Y-91879520D01*
X67330258Y-92097986D01*
X66926586Y-92501658D01*
X66708120Y-93029081D01*
X66708120Y-93599959D01*
X66926586Y-94127382D01*
X67330258Y-94531054D01*
X67450969Y-94581054D01*
X68352562Y-95482648D01*
X68429831Y-95598289D01*
X68545471Y-95675557D01*
X68887960Y-95904401D01*
X69428360Y-96011893D01*
X69564767Y-95984760D01*
X72256380Y-95984760D01*
X72507747Y-96034760D01*
X72790413Y-96034760D01*
X73208989Y-95951500D01*
X73683657Y-95634337D01*
X74000820Y-95159669D01*
X74112193Y-94599760D01*
X74034080Y-94207060D01*
X74034080Y-92877285D01*
X80318848Y-86592518D01*
X80434489Y-86515249D01*
X80740601Y-86057120D01*
X80820960Y-85653127D01*
X80848093Y-85516720D01*
X80820960Y-85380313D01*
X80820960Y-85054085D01*
X82534406Y-83340640D01*
X82723129Y-83340640D01*
X82542903Y-83461063D01*
X82225740Y-83935731D01*
X82114367Y-84495640D01*
X82225740Y-85055549D01*
X82542903Y-85530217D01*
X82592480Y-85563343D01*
X82592481Y-88429400D01*
X79991220Y-88429400D01*
X79739853Y-88379400D01*
X79457187Y-88379400D01*
X79038611Y-88462660D01*
X78563943Y-88779823D01*
X78246780Y-89254491D01*
X78135407Y-89814400D01*
X78246780Y-90374309D01*
X78563943Y-90848977D01*
X79038611Y-91166140D01*
X79457187Y-91249400D01*
X79739853Y-91249400D01*
X79991220Y-91199400D01*
X83497865Y-91199400D01*
X83851387Y-91269720D01*
X84134053Y-91269720D01*
X84552629Y-91186460D01*
X85027297Y-90869297D01*
X85344460Y-90394629D01*
X85455833Y-89834720D01*
X85362480Y-89365404D01*
X85362480Y-85563343D01*
X85412057Y-85530217D01*
X85729220Y-85055549D01*
X85840593Y-84495640D01*
X85729220Y-83935731D01*
X85412057Y-83461063D01*
X85059722Y-83225640D01*
X85412057Y-82990217D01*
X85729220Y-82515549D01*
X85840593Y-81955640D01*
X85729220Y-81395731D01*
X85412057Y-80921063D01*
X85059722Y-80685640D01*
X85412057Y-80450217D01*
X85729220Y-79975549D01*
X85840593Y-79415640D01*
X85729220Y-78855731D01*
X85412057Y-78381063D01*
X85254640Y-78275880D01*
X88092530Y-78275880D01*
X88213241Y-78325880D01*
X88784119Y-78325880D01*
X89311542Y-78107414D01*
X89470800Y-77948156D01*
X89470801Y-86363638D01*
X89470801Y-86363638D01*
G37*
X89470801Y-86363638D02*
X89315665Y-86595815D01*
X89261188Y-86869686D01*
X87797020Y-88333855D01*
X87464103Y-88556303D01*
X87146940Y-89030971D01*
X87035567Y-89590880D01*
X87146940Y-90150789D01*
X87464103Y-90625457D01*
X87938771Y-90942620D01*
X88357347Y-91025880D01*
X88640013Y-91025880D01*
X89058589Y-90942620D01*
X89533257Y-90625457D01*
X89755705Y-90292540D01*
X90679023Y-89369222D01*
X91038601Y-89728800D01*
X91038601Y-90221491D01*
X91006570Y-90382521D01*
X91038601Y-90543551D01*
X91133465Y-91020465D01*
X91494832Y-91561290D01*
X91631351Y-91652509D01*
X92352324Y-92373482D01*
X92215791Y-92464711D01*
X92075443Y-92674755D01*
X92026160Y-92922520D01*
X92026160Y-93221296D01*
X91938600Y-93661490D01*
X91938601Y-97285551D01*
X92033465Y-97762465D01*
X92211905Y-98029520D01*
X89470559Y-98029520D01*
X88803468Y-97362430D01*
X88712249Y-97225911D01*
X88171425Y-96864544D01*
X87694511Y-96769680D01*
X87694510Y-96769680D01*
X87533480Y-96737649D01*
X87372450Y-96769680D01*
X82737900Y-96769680D01*
X82576870Y-96737649D01*
X82415840Y-96769680D01*
X82415839Y-96769680D01*
X81938925Y-96864544D01*
X81398101Y-97225911D01*
X81306884Y-97362427D01*
X78556268Y-100113044D01*
X78419752Y-100204261D01*
X78058384Y-100745085D01*
X77963520Y-101221999D01*
X77931489Y-101383030D01*
X77963520Y-101544060D01*
X77963520Y-102675430D01*
X78058384Y-103152344D01*
X78213520Y-103384523D01*
X78213521Y-104440469D01*
X78186387Y-104576880D01*
X78293879Y-105117279D01*
X78417977Y-105303005D01*
X78599992Y-105575409D01*
X78715632Y-105652677D01*
X80027964Y-106965010D01*
X78998655Y-107994320D01*
X68122006Y-107994320D01*
X68844783Y-107271543D01*
X69177697Y-107049097D01*
X69494860Y-106574429D01*
X69606233Y-106014520D01*
X69494860Y-105454611D01*
X69177697Y-104979943D01*
X68703029Y-104662780D01*
X68284453Y-104579520D01*
X68001787Y-104579520D01*
X67583211Y-104662780D01*
X67108543Y-104979943D01*
X66886097Y-105312857D01*
X65242795Y-106956160D01*
X63815619Y-106956160D01*
X63890241Y-106844480D01*
X63970600Y-106440487D01*
X63997733Y-106304081D01*
X63970600Y-106167675D01*
X63970600Y-94536575D01*
X63997733Y-94400169D01*
X63965520Y-94238225D01*
X63965520Y-93837405D01*
X71922286Y-85880640D01*
X75564780Y-85880640D01*
X75816147Y-85930640D01*
X76898813Y-85930640D01*
X77104210Y-85889784D01*
X71766192Y-91227803D01*
X71650551Y-91305072D01*
X71573283Y-91420712D01*
X71344439Y-91763201D01*
X71236947Y-92303600D01*
X71264080Y-92440007D01*
X71264080Y-93214760D01*
X70002046Y-93214760D01*
X69409654Y-92622369D01*
X69359654Y-92501658D01*
X68955982Y-92097986D01*
X68428559Y-91879520D01*
X67857681Y-91879520D01*
X67330258Y-92097986D01*
X66926586Y-92501658D01*
X66708120Y-93029081D01*
X66708120Y-93599959D01*
X66926586Y-94127382D01*
X67330258Y-94531054D01*
X67450969Y-94581054D01*
X68352562Y-95482648D01*
X68429831Y-95598289D01*
X68545471Y-95675557D01*
X68887960Y-95904401D01*
X69428360Y-96011893D01*
X69564767Y-95984760D01*
X72256380Y-95984760D01*
X72507747Y-96034760D01*
X72790413Y-96034760D01*
X73208989Y-95951500D01*
X73683657Y-95634337D01*
X74000820Y-95159669D01*
X74112193Y-94599760D01*
X74034080Y-94207060D01*
X74034080Y-92877285D01*
X80318848Y-86592518D01*
X80434489Y-86515249D01*
X80740601Y-86057120D01*
X80820960Y-85653127D01*
X80848093Y-85516720D01*
X80820960Y-85380313D01*
X80820960Y-85054085D01*
X82534406Y-83340640D01*
X82723129Y-83340640D01*
X82542903Y-83461063D01*
X82225740Y-83935731D01*
X82114367Y-84495640D01*
X82225740Y-85055549D01*
X82542903Y-85530217D01*
X82592480Y-85563343D01*
X82592481Y-88429400D01*
X79991220Y-88429400D01*
X79739853Y-88379400D01*
X79457187Y-88379400D01*
X79038611Y-88462660D01*
X78563943Y-88779823D01*
X78246780Y-89254491D01*
X78135407Y-89814400D01*
X78246780Y-90374309D01*
X78563943Y-90848977D01*
X79038611Y-91166140D01*
X79457187Y-91249400D01*
X79739853Y-91249400D01*
X79991220Y-91199400D01*
X83497865Y-91199400D01*
X83851387Y-91269720D01*
X84134053Y-91269720D01*
X84552629Y-91186460D01*
X85027297Y-90869297D01*
X85344460Y-90394629D01*
X85455833Y-89834720D01*
X85362480Y-89365404D01*
X85362480Y-85563343D01*
X85412057Y-85530217D01*
X85729220Y-85055549D01*
X85840593Y-84495640D01*
X85729220Y-83935731D01*
X85412057Y-83461063D01*
X85059722Y-83225640D01*
X85412057Y-82990217D01*
X85729220Y-82515549D01*
X85840593Y-81955640D01*
X85729220Y-81395731D01*
X85412057Y-80921063D01*
X85059722Y-80685640D01*
X85412057Y-80450217D01*
X85729220Y-79975549D01*
X85840593Y-79415640D01*
X85729220Y-78855731D01*
X85412057Y-78381063D01*
X85254640Y-78275880D01*
X88092530Y-78275880D01*
X88213241Y-78325880D01*
X88784119Y-78325880D01*
X89311542Y-78107414D01*
X89470800Y-77948156D01*
X89470801Y-86363638D01*
G36*
X53860001Y-70851113D02*
X45368860Y-79342255D01*
X45035943Y-79564703D01*
X44718780Y-80039371D01*
X44607407Y-80599280D01*
X44718780Y-81159189D01*
X45035943Y-81633857D01*
X45510611Y-81951020D01*
X45929187Y-82034280D01*
X46211853Y-82034280D01*
X46630429Y-81951020D01*
X47105097Y-81633857D01*
X47327545Y-81300940D01*
X56127888Y-72500598D01*
X56243529Y-72423329D01*
X56549641Y-71965200D01*
X56630000Y-71561207D01*
X56657133Y-71424801D01*
X56630000Y-71288395D01*
X56630000Y-64160932D01*
X56638663Y-64173897D01*
X56971580Y-64396345D01*
X60595402Y-68020168D01*
X60672671Y-68135809D01*
X61130800Y-68441921D01*
X61534793Y-68522280D01*
X61671199Y-68549413D01*
X61807605Y-68522280D01*
X75037089Y-68522280D01*
X74856863Y-68642703D01*
X74539700Y-69117371D01*
X74428327Y-69677280D01*
X74539700Y-70237189D01*
X74856863Y-70711857D01*
X75331531Y-71029020D01*
X75750107Y-71112280D01*
X76832773Y-71112280D01*
X77251349Y-71029020D01*
X77725841Y-70711975D01*
X77725841Y-71333713D01*
X77099515Y-71960040D01*
X58114447Y-71960040D01*
X57978040Y-71932907D01*
X57841633Y-71960040D01*
X57437640Y-72040399D01*
X56979511Y-72346511D01*
X56902242Y-72462152D01*
X50022140Y-79342255D01*
X49689223Y-79564703D01*
X49372060Y-80039371D01*
X49260687Y-80599280D01*
X49372060Y-81159189D01*
X49689223Y-81633857D01*
X50163891Y-81951020D01*
X50582467Y-82034280D01*
X50865133Y-82034280D01*
X51283709Y-81951020D01*
X51758377Y-81633857D01*
X51980825Y-81300940D01*
X58551726Y-74730040D01*
X77536793Y-74730040D01*
X77673200Y-74757173D01*
X77809607Y-74730040D01*
X78213600Y-74649681D01*
X78671729Y-74343569D01*
X78748999Y-74227926D01*
X79762920Y-73214005D01*
X79762920Y-76609673D01*
X79735787Y-76746080D01*
X79792924Y-77033329D01*
X79843279Y-77286479D01*
X80149391Y-77744608D01*
X80227056Y-77796502D01*
X80278951Y-77874169D01*
X80685236Y-78145640D01*
X80278951Y-78417111D01*
X80201682Y-78532752D01*
X78974712Y-79759723D01*
X78859072Y-79836991D01*
X78552959Y-80295120D01*
X78503552Y-80543507D01*
X78501720Y-80552715D01*
X78483795Y-80570640D01*
X77611831Y-80570640D01*
X77792057Y-80450217D01*
X78109220Y-79975549D01*
X78220593Y-79415640D01*
X78109220Y-78855731D01*
X77792057Y-78381063D01*
X77671374Y-78300425D01*
X77805245Y-78273797D01*
X78015289Y-78133449D01*
X78155637Y-77923405D01*
X78204920Y-77675640D01*
X78204920Y-76075640D01*
X78155637Y-75827875D01*
X78015289Y-75617831D01*
X77805245Y-75477483D01*
X77557480Y-75428200D01*
X75157480Y-75428200D01*
X74909715Y-75477483D01*
X74699671Y-75617831D01*
X74559323Y-75827875D01*
X74510040Y-76075640D01*
X74510040Y-77675640D01*
X74559323Y-77923405D01*
X74630976Y-78030640D01*
X63865005Y-78030640D01*
X63728599Y-78003507D01*
X63592193Y-78030640D01*
X63188200Y-78110999D01*
X62730071Y-78417111D01*
X62652800Y-78532755D01*
X61986515Y-79199040D01*
X58673750Y-79199040D01*
X58553039Y-79149040D01*
X57982161Y-79149040D01*
X57454738Y-79367506D01*
X57051066Y-79771178D01*
X56832600Y-80298601D01*
X56832600Y-80869479D01*
X57051066Y-81396902D01*
X57454738Y-81800574D01*
X57982161Y-82019040D01*
X58553039Y-82019040D01*
X58673750Y-81969040D01*
X62289976Y-81969040D01*
X62439187Y-81998720D01*
X62721853Y-81998720D01*
X63140429Y-81915460D01*
X63615097Y-81598297D01*
X63837545Y-81265380D01*
X64302285Y-80800640D01*
X71718804Y-80800640D01*
X71432546Y-81086898D01*
X71214080Y-81614321D01*
X71214080Y-82185199D01*
X71432546Y-82712622D01*
X71830564Y-83110640D01*
X71485007Y-83110640D01*
X71348600Y-83083507D01*
X71212193Y-83110640D01*
X70808200Y-83190999D01*
X70350071Y-83497111D01*
X70272802Y-83612752D01*
X61888369Y-91997186D01*
X61767658Y-92047186D01*
X61363986Y-92450858D01*
X61145520Y-92978281D01*
X61145520Y-93549159D01*
X61195520Y-93669870D01*
X61195520Y-94258683D01*
X61168387Y-94395090D01*
X61195520Y-94531497D01*
X61200600Y-94557036D01*
X61200601Y-105730393D01*
X59974835Y-106956160D01*
X58269025Y-106956160D01*
X58321640Y-106691647D01*
X58348773Y-106555241D01*
X58321640Y-106418835D01*
X58321640Y-105472355D01*
X58434797Y-105303005D01*
X58484080Y-105055240D01*
X58484080Y-103255240D01*
X58434797Y-103007475D01*
X58294449Y-102797431D01*
X58084405Y-102657083D01*
X58068732Y-102653965D01*
X58237950Y-102484747D01*
X58471640Y-101920570D01*
X58471640Y-101309910D01*
X58321640Y-100947778D01*
X58321640Y-99648527D01*
X58348773Y-99512120D01*
X58241281Y-98971720D01*
X58083856Y-98736117D01*
X57935169Y-98513591D01*
X57819528Y-98436322D01*
X52667246Y-93284040D01*
X56804487Y-93284040D01*
X56915860Y-93843949D01*
X57233023Y-94318617D01*
X57707691Y-94635780D01*
X58126267Y-94719040D01*
X58408933Y-94719040D01*
X58827509Y-94635780D01*
X59302177Y-94318617D01*
X59619340Y-93843949D01*
X59730713Y-93284040D01*
X59619340Y-92724131D01*
X59302177Y-92249463D01*
X58827509Y-91932300D01*
X58408933Y-91849040D01*
X58126267Y-91849040D01*
X57707691Y-91932300D01*
X57233023Y-92249463D01*
X56915860Y-92724131D01*
X56804487Y-93284040D01*
X52667246Y-93284040D01*
X51990334Y-92607129D01*
X51940334Y-92486418D01*
X51536662Y-92082746D01*
X51009239Y-91864280D01*
X50438361Y-91864280D01*
X49910938Y-92082746D01*
X49507266Y-92486418D01*
X49288800Y-93013841D01*
X49288800Y-93584719D01*
X49507266Y-94112142D01*
X49910938Y-94515814D01*
X50031649Y-94565814D01*
X51916650Y-96450816D01*
X51826133Y-96390334D01*
X51710033Y-96274234D01*
X51558339Y-96211400D01*
X51421824Y-96120184D01*
X51260795Y-96088153D01*
X51109102Y-96025320D01*
X51107566Y-96025320D01*
X47498639Y-92416394D01*
X47421369Y-92300751D01*
X46963240Y-91994639D01*
X46559247Y-91914280D01*
X46422840Y-91887147D01*
X46414952Y-91888716D01*
X46355959Y-91864280D01*
X45785081Y-91864280D01*
X45257658Y-92082746D01*
X44853986Y-92486418D01*
X44635520Y-93013841D01*
X44635520Y-93584719D01*
X44853986Y-94112142D01*
X45257658Y-94515814D01*
X45785081Y-94734280D01*
X45899155Y-94734280D01*
X49148880Y-97984006D01*
X49148881Y-103835096D01*
X49148880Y-103835098D01*
X49148880Y-104485542D01*
X49211715Y-104637239D01*
X49243745Y-104798265D01*
X49334959Y-104934777D01*
X49397794Y-105086473D01*
X49513897Y-105202576D01*
X49605112Y-105339089D01*
X49741625Y-105430304D01*
X49857727Y-105546406D01*
X50009422Y-105609240D01*
X50145936Y-105700456D01*
X50306965Y-105732487D01*
X50458658Y-105795320D01*
X50622849Y-105795320D01*
X50783880Y-105827351D01*
X50944911Y-105795320D01*
X51109102Y-105795320D01*
X51260794Y-105732487D01*
X51421825Y-105700456D01*
X51558341Y-105609239D01*
X51710033Y-105546406D01*
X51826133Y-105430306D01*
X51962649Y-105339089D01*
X52053866Y-105202573D01*
X52169966Y-105086473D01*
X52232799Y-104934781D01*
X52324016Y-104798265D01*
X52356047Y-104637234D01*
X52418880Y-104485542D01*
X52418880Y-97335098D01*
X52356047Y-97183406D01*
X52324016Y-97022375D01*
X52232799Y-96885859D01*
X52169966Y-96734167D01*
X52053866Y-96618067D01*
X51993384Y-96527550D01*
X55551641Y-100085807D01*
X55551640Y-100947778D01*
X55401640Y-101309910D01*
X55401640Y-101920570D01*
X55635330Y-102484747D01*
X55804548Y-102653965D01*
X55788875Y-102657083D01*
X55578831Y-102797431D01*
X55438483Y-103007475D01*
X55389200Y-103255240D01*
X55389200Y-105055240D01*
X55438483Y-105303005D01*
X55551641Y-105472356D01*
X55551641Y-105981554D01*
X54577035Y-106956160D01*
X49624192Y-106956160D01*
X48041214Y-105373182D01*
X48295006Y-104993355D01*
X48460706Y-104160320D01*
X48295006Y-103327284D01*
X47942242Y-102799336D01*
X47668880Y-102525974D01*
X47668880Y-98587559D01*
X47669966Y-98586473D01*
X47918880Y-97985542D01*
X47918880Y-97335098D01*
X47669966Y-96734167D01*
X47210033Y-96274234D01*
X46609102Y-96025320D01*
X45958658Y-96025320D01*
X45357727Y-96274234D01*
X44897794Y-96734167D01*
X44648880Y-97335098D01*
X44648880Y-97985542D01*
X44897794Y-98586473D01*
X44898880Y-98587559D01*
X44898880Y-99755975D01*
X42917240Y-97774335D01*
X42917240Y-76064839D01*
X42959067Y-75854560D01*
X42793366Y-75021524D01*
X42417240Y-74458612D01*
X42417240Y-74301678D01*
X53747253Y-62971666D01*
X53860000Y-62896331D01*
X53860001Y-70851113D01*
X53860001Y-70851113D01*
G37*
X53860001Y-70851113D02*
X45368860Y-79342255D01*
X45035943Y-79564703D01*
X44718780Y-80039371D01*
X44607407Y-80599280D01*
X44718780Y-81159189D01*
X45035943Y-81633857D01*
X45510611Y-81951020D01*
X45929187Y-82034280D01*
X46211853Y-82034280D01*
X46630429Y-81951020D01*
X47105097Y-81633857D01*
X47327545Y-81300940D01*
X56127888Y-72500598D01*
X56243529Y-72423329D01*
X56549641Y-71965200D01*
X56630000Y-71561207D01*
X56657133Y-71424801D01*
X56630000Y-71288395D01*
X56630000Y-64160932D01*
X56638663Y-64173897D01*
X56971580Y-64396345D01*
X60595402Y-68020168D01*
X60672671Y-68135809D01*
X61130800Y-68441921D01*
X61534793Y-68522280D01*
X61671199Y-68549413D01*
X61807605Y-68522280D01*
X75037089Y-68522280D01*
X74856863Y-68642703D01*
X74539700Y-69117371D01*
X74428327Y-69677280D01*
X74539700Y-70237189D01*
X74856863Y-70711857D01*
X75331531Y-71029020D01*
X75750107Y-71112280D01*
X76832773Y-71112280D01*
X77251349Y-71029020D01*
X77725841Y-70711975D01*
X77725841Y-71333713D01*
X77099515Y-71960040D01*
X58114447Y-71960040D01*
X57978040Y-71932907D01*
X57841633Y-71960040D01*
X57437640Y-72040399D01*
X56979511Y-72346511D01*
X56902242Y-72462152D01*
X50022140Y-79342255D01*
X49689223Y-79564703D01*
X49372060Y-80039371D01*
X49260687Y-80599280D01*
X49372060Y-81159189D01*
X49689223Y-81633857D01*
X50163891Y-81951020D01*
X50582467Y-82034280D01*
X50865133Y-82034280D01*
X51283709Y-81951020D01*
X51758377Y-81633857D01*
X51980825Y-81300940D01*
X58551726Y-74730040D01*
X77536793Y-74730040D01*
X77673200Y-74757173D01*
X77809607Y-74730040D01*
X78213600Y-74649681D01*
X78671729Y-74343569D01*
X78748999Y-74227926D01*
X79762920Y-73214005D01*
X79762920Y-76609673D01*
X79735787Y-76746080D01*
X79792924Y-77033329D01*
X79843279Y-77286479D01*
X80149391Y-77744608D01*
X80227056Y-77796502D01*
X80278951Y-77874169D01*
X80685236Y-78145640D01*
X80278951Y-78417111D01*
X80201682Y-78532752D01*
X78974712Y-79759723D01*
X78859072Y-79836991D01*
X78552959Y-80295120D01*
X78503552Y-80543507D01*
X78501720Y-80552715D01*
X78483795Y-80570640D01*
X77611831Y-80570640D01*
X77792057Y-80450217D01*
X78109220Y-79975549D01*
X78220593Y-79415640D01*
X78109220Y-78855731D01*
X77792057Y-78381063D01*
X77671374Y-78300425D01*
X77805245Y-78273797D01*
X78015289Y-78133449D01*
X78155637Y-77923405D01*
X78204920Y-77675640D01*
X78204920Y-76075640D01*
X78155637Y-75827875D01*
X78015289Y-75617831D01*
X77805245Y-75477483D01*
X77557480Y-75428200D01*
X75157480Y-75428200D01*
X74909715Y-75477483D01*
X74699671Y-75617831D01*
X74559323Y-75827875D01*
X74510040Y-76075640D01*
X74510040Y-77675640D01*
X74559323Y-77923405D01*
X74630976Y-78030640D01*
X63865005Y-78030640D01*
X63728599Y-78003507D01*
X63592193Y-78030640D01*
X63188200Y-78110999D01*
X62730071Y-78417111D01*
X62652800Y-78532755D01*
X61986515Y-79199040D01*
X58673750Y-79199040D01*
X58553039Y-79149040D01*
X57982161Y-79149040D01*
X57454738Y-79367506D01*
X57051066Y-79771178D01*
X56832600Y-80298601D01*
X56832600Y-80869479D01*
X57051066Y-81396902D01*
X57454738Y-81800574D01*
X57982161Y-82019040D01*
X58553039Y-82019040D01*
X58673750Y-81969040D01*
X62289976Y-81969040D01*
X62439187Y-81998720D01*
X62721853Y-81998720D01*
X63140429Y-81915460D01*
X63615097Y-81598297D01*
X63837545Y-81265380D01*
X64302285Y-80800640D01*
X71718804Y-80800640D01*
X71432546Y-81086898D01*
X71214080Y-81614321D01*
X71214080Y-82185199D01*
X71432546Y-82712622D01*
X71830564Y-83110640D01*
X71485007Y-83110640D01*
X71348600Y-83083507D01*
X71212193Y-83110640D01*
X70808200Y-83190999D01*
X70350071Y-83497111D01*
X70272802Y-83612752D01*
X61888369Y-91997186D01*
X61767658Y-92047186D01*
X61363986Y-92450858D01*
X61145520Y-92978281D01*
X61145520Y-93549159D01*
X61195520Y-93669870D01*
X61195520Y-94258683D01*
X61168387Y-94395090D01*
X61195520Y-94531497D01*
X61200600Y-94557036D01*
X61200601Y-105730393D01*
X59974835Y-106956160D01*
X58269025Y-106956160D01*
X58321640Y-106691647D01*
X58348773Y-106555241D01*
X58321640Y-106418835D01*
X58321640Y-105472355D01*
X58434797Y-105303005D01*
X58484080Y-105055240D01*
X58484080Y-103255240D01*
X58434797Y-103007475D01*
X58294449Y-102797431D01*
X58084405Y-102657083D01*
X58068732Y-102653965D01*
X58237950Y-102484747D01*
X58471640Y-101920570D01*
X58471640Y-101309910D01*
X58321640Y-100947778D01*
X58321640Y-99648527D01*
X58348773Y-99512120D01*
X58241281Y-98971720D01*
X58083856Y-98736117D01*
X57935169Y-98513591D01*
X57819528Y-98436322D01*
X52667246Y-93284040D01*
X56804487Y-93284040D01*
X56915860Y-93843949D01*
X57233023Y-94318617D01*
X57707691Y-94635780D01*
X58126267Y-94719040D01*
X58408933Y-94719040D01*
X58827509Y-94635780D01*
X59302177Y-94318617D01*
X59619340Y-93843949D01*
X59730713Y-93284040D01*
X59619340Y-92724131D01*
X59302177Y-92249463D01*
X58827509Y-91932300D01*
X58408933Y-91849040D01*
X58126267Y-91849040D01*
X57707691Y-91932300D01*
X57233023Y-92249463D01*
X56915860Y-92724131D01*
X56804487Y-93284040D01*
X52667246Y-93284040D01*
X51990334Y-92607129D01*
X51940334Y-92486418D01*
X51536662Y-92082746D01*
X51009239Y-91864280D01*
X50438361Y-91864280D01*
X49910938Y-92082746D01*
X49507266Y-92486418D01*
X49288800Y-93013841D01*
X49288800Y-93584719D01*
X49507266Y-94112142D01*
X49910938Y-94515814D01*
X50031649Y-94565814D01*
X51916650Y-96450816D01*
X51826133Y-96390334D01*
X51710033Y-96274234D01*
X51558339Y-96211400D01*
X51421824Y-96120184D01*
X51260795Y-96088153D01*
X51109102Y-96025320D01*
X51107566Y-96025320D01*
X47498639Y-92416394D01*
X47421369Y-92300751D01*
X46963240Y-91994639D01*
X46559247Y-91914280D01*
X46422840Y-91887147D01*
X46414952Y-91888716D01*
X46355959Y-91864280D01*
X45785081Y-91864280D01*
X45257658Y-92082746D01*
X44853986Y-92486418D01*
X44635520Y-93013841D01*
X44635520Y-93584719D01*
X44853986Y-94112142D01*
X45257658Y-94515814D01*
X45785081Y-94734280D01*
X45899155Y-94734280D01*
X49148880Y-97984006D01*
X49148881Y-103835096D01*
X49148880Y-103835098D01*
X49148880Y-104485542D01*
X49211715Y-104637239D01*
X49243745Y-104798265D01*
X49334959Y-104934777D01*
X49397794Y-105086473D01*
X49513897Y-105202576D01*
X49605112Y-105339089D01*
X49741625Y-105430304D01*
X49857727Y-105546406D01*
X50009422Y-105609240D01*
X50145936Y-105700456D01*
X50306965Y-105732487D01*
X50458658Y-105795320D01*
X50622849Y-105795320D01*
X50783880Y-105827351D01*
X50944911Y-105795320D01*
X51109102Y-105795320D01*
X51260794Y-105732487D01*
X51421825Y-105700456D01*
X51558341Y-105609239D01*
X51710033Y-105546406D01*
X51826133Y-105430306D01*
X51962649Y-105339089D01*
X52053866Y-105202573D01*
X52169966Y-105086473D01*
X52232799Y-104934781D01*
X52324016Y-104798265D01*
X52356047Y-104637234D01*
X52418880Y-104485542D01*
X52418880Y-97335098D01*
X52356047Y-97183406D01*
X52324016Y-97022375D01*
X52232799Y-96885859D01*
X52169966Y-96734167D01*
X52053866Y-96618067D01*
X51993384Y-96527550D01*
X55551641Y-100085807D01*
X55551640Y-100947778D01*
X55401640Y-101309910D01*
X55401640Y-101920570D01*
X55635330Y-102484747D01*
X55804548Y-102653965D01*
X55788875Y-102657083D01*
X55578831Y-102797431D01*
X55438483Y-103007475D01*
X55389200Y-103255240D01*
X55389200Y-105055240D01*
X55438483Y-105303005D01*
X55551641Y-105472356D01*
X55551641Y-105981554D01*
X54577035Y-106956160D01*
X49624192Y-106956160D01*
X48041214Y-105373182D01*
X48295006Y-104993355D01*
X48460706Y-104160320D01*
X48295006Y-103327284D01*
X47942242Y-102799336D01*
X47668880Y-102525974D01*
X47668880Y-98587559D01*
X47669966Y-98586473D01*
X47918880Y-97985542D01*
X47918880Y-97335098D01*
X47669966Y-96734167D01*
X47210033Y-96274234D01*
X46609102Y-96025320D01*
X45958658Y-96025320D01*
X45357727Y-96274234D01*
X44897794Y-96734167D01*
X44648880Y-97335098D01*
X44648880Y-97985542D01*
X44897794Y-98586473D01*
X44898880Y-98587559D01*
X44898880Y-99755975D01*
X42917240Y-97774335D01*
X42917240Y-76064839D01*
X42959067Y-75854560D01*
X42793366Y-75021524D01*
X42417240Y-74458612D01*
X42417240Y-74301678D01*
X53747253Y-62971666D01*
X53860000Y-62896331D01*
X53860001Y-70851113D01*
G36*
X78553072Y-83404603D02*
X78437431Y-83481872D01*
X78360163Y-83597512D01*
X78131319Y-83940001D01*
X78120694Y-83993416D01*
X78109220Y-83935731D01*
X77792057Y-83461063D01*
X77611831Y-83340640D01*
X78617035Y-83340640D01*
X78553072Y-83404603D01*
X78553072Y-83404603D01*
G37*
X78553072Y-83404603D02*
X78437431Y-83481872D01*
X78360163Y-83597512D01*
X78131319Y-83940001D01*
X78120694Y-83993416D01*
X78109220Y-83935731D01*
X77792057Y-83461063D01*
X77611831Y-83340640D01*
X78617035Y-83340640D01*
X78553072Y-83404603D01*
G36*
X129098840Y-77983738D02*
X128945649Y-77754471D01*
X128767381Y-77635356D01*
X128235840Y-77103815D01*
X128235840Y-68655775D01*
X128535840Y-67931512D01*
X128535840Y-66962808D01*
X128235840Y-66238545D01*
X128235840Y-53767145D01*
X128813101Y-53189884D01*
X128991369Y-53070769D01*
X129098841Y-52909926D01*
X129098840Y-77983738D01*
X129098840Y-77983738D01*
G37*
X129098840Y-77983738D02*
X128945649Y-77754471D01*
X128767381Y-77635356D01*
X128235840Y-77103815D01*
X128235840Y-68655775D01*
X128535840Y-67931512D01*
X128535840Y-66962808D01*
X128235840Y-66238545D01*
X128235840Y-53767145D01*
X128813101Y-53189884D01*
X128991369Y-53070769D01*
X129098841Y-52909926D01*
X129098840Y-77983738D01*
G36*
X89470800Y-73014486D02*
X89470800Y-75833604D01*
X89311542Y-75674346D01*
X88784119Y-75455880D01*
X88213241Y-75455880D01*
X88092530Y-75505880D01*
X84846796Y-75505880D01*
X84518813Y-75440640D01*
X83436147Y-75440640D01*
X83184780Y-75490640D01*
X82532920Y-75490640D01*
X82532920Y-70749313D01*
X82951531Y-71029020D01*
X83370107Y-71112280D01*
X84452773Y-71112280D01*
X84871349Y-71029020D01*
X85346017Y-70711857D01*
X85663180Y-70237189D01*
X85774553Y-69677280D01*
X85685402Y-69229087D01*
X89470800Y-73014486D01*
X89470800Y-73014486D01*
G37*
X89470800Y-73014486D02*
X89470800Y-75833604D01*
X89311542Y-75674346D01*
X88784119Y-75455880D01*
X88213241Y-75455880D01*
X88092530Y-75505880D01*
X84846796Y-75505880D01*
X84518813Y-75440640D01*
X83436147Y-75440640D01*
X83184780Y-75490640D01*
X82532920Y-75490640D01*
X82532920Y-70749313D01*
X82951531Y-71029020D01*
X83370107Y-71112280D01*
X84452773Y-71112280D01*
X84871349Y-71029020D01*
X85346017Y-70711857D01*
X85663180Y-70237189D01*
X85774553Y-69677280D01*
X85685402Y-69229087D01*
X89470800Y-73014486D01*
G36*
X77725841Y-68642585D02*
X77373682Y-68407280D01*
X77725840Y-68171975D01*
X77725841Y-68642585D01*
X77725841Y-68642585D01*
G37*
X77725841Y-68642585D02*
X77373682Y-68407280D01*
X77725840Y-68171975D01*
X77725841Y-68642585D01*
G36*
X82829198Y-68407280D02*
X82532920Y-68605247D01*
X82532920Y-68209313D01*
X82829198Y-68407280D01*
X82829198Y-68407280D01*
G37*
X82829198Y-68407280D02*
X82532920Y-68605247D01*
X82532920Y-68209313D01*
X82829198Y-68407280D01*
G36*
X77725840Y-66102585D02*
X77545791Y-65982280D01*
X77725840Y-65982280D01*
X77725840Y-66102585D01*
X77725840Y-66102585D01*
G37*
X77725840Y-66102585D02*
X77545791Y-65982280D01*
X77725840Y-65982280D01*
X77725840Y-66102585D01*
G36*
X82829198Y-65867280D02*
X82532920Y-66065247D01*
X82532920Y-65669313D01*
X82829198Y-65867280D01*
X82829198Y-65867280D01*
G37*
X82829198Y-65867280D02*
X82532920Y-66065247D01*
X82532920Y-65669313D01*
X82829198Y-65867280D01*
G36*
X64461800Y-61531479D02*
X64461800Y-62266680D01*
X64511083Y-62514445D01*
X64651431Y-62724489D01*
X64861475Y-62864837D01*
X65109240Y-62914120D01*
X66197994Y-62914120D01*
X66224042Y-62940168D01*
X66301311Y-63055809D01*
X66579690Y-63241816D01*
X66759440Y-63361921D01*
X67299840Y-63469413D01*
X67436247Y-63442280D01*
X74823984Y-63442280D01*
X74843675Y-63455437D01*
X74977546Y-63482065D01*
X74856863Y-63562703D01*
X74539700Y-64037371D01*
X74428327Y-64597280D01*
X74539700Y-65157189D01*
X74856863Y-65631857D01*
X75037089Y-65752280D01*
X62244886Y-65752280D01*
X58930265Y-62437660D01*
X58707817Y-62104743D01*
X58233149Y-61787580D01*
X57814573Y-61704320D01*
X57531907Y-61704320D01*
X57113331Y-61787580D01*
X56638663Y-62104743D01*
X56630000Y-62117708D01*
X56630000Y-58531000D01*
X61461322Y-58531000D01*
X64461800Y-61531479D01*
X64461800Y-61531479D01*
G37*
X64461800Y-61531479D02*
X64461800Y-62266680D01*
X64511083Y-62514445D01*
X64651431Y-62724489D01*
X64861475Y-62864837D01*
X65109240Y-62914120D01*
X66197994Y-62914120D01*
X66224042Y-62940168D01*
X66301311Y-63055809D01*
X66579690Y-63241816D01*
X66759440Y-63361921D01*
X67299840Y-63469413D01*
X67436247Y-63442280D01*
X74823984Y-63442280D01*
X74843675Y-63455437D01*
X74977546Y-63482065D01*
X74856863Y-63562703D01*
X74539700Y-64037371D01*
X74428327Y-64597280D01*
X74539700Y-65157189D01*
X74856863Y-65631857D01*
X75037089Y-65752280D01*
X62244886Y-65752280D01*
X58930265Y-62437660D01*
X58707817Y-62104743D01*
X58233149Y-61787580D01*
X57814573Y-61704320D01*
X57531907Y-61704320D01*
X57113331Y-61787580D01*
X56638663Y-62104743D01*
X56630000Y-62117708D01*
X56630000Y-58531000D01*
X61461322Y-58531000D01*
X64461800Y-61531479D01*
G36*
X107337161Y-52686313D02*
X106247715Y-53775760D01*
X106006396Y-53775760D01*
X105331956Y-54055122D01*
X104815762Y-54571316D01*
X104536400Y-55245756D01*
X104536400Y-55457300D01*
X104476443Y-55547032D01*
X104247599Y-55889521D01*
X104140107Y-56429920D01*
X104167241Y-56566332D01*
X104167240Y-63416815D01*
X104157240Y-63440957D01*
X104157240Y-63995923D01*
X104230466Y-64172707D01*
X104247599Y-64258839D01*
X104296389Y-64331858D01*
X104369616Y-64508644D01*
X104504922Y-64643950D01*
X104553711Y-64716968D01*
X104626730Y-64765758D01*
X104734412Y-64873440D01*
X101036068Y-64873440D01*
X101143748Y-64765760D01*
X101216769Y-64716969D01*
X101265560Y-64643948D01*
X101400864Y-64508644D01*
X101474090Y-64331861D01*
X101522881Y-64258840D01*
X101540014Y-64172706D01*
X101613240Y-63995923D01*
X101613240Y-63804574D01*
X101630373Y-63718440D01*
X101613240Y-63632306D01*
X101613240Y-63440957D01*
X101603240Y-63416815D01*
X101603240Y-57458200D01*
X102571400Y-57458200D01*
X102819165Y-57408917D01*
X103029209Y-57268569D01*
X103169557Y-57058525D01*
X103218840Y-56810760D01*
X103218840Y-54410760D01*
X103169557Y-54162995D01*
X103029209Y-53952951D01*
X102819165Y-53812603D01*
X102756400Y-53800118D01*
X102756400Y-52252525D01*
X106777792Y-48231134D01*
X106898502Y-48181134D01*
X107302174Y-47777462D01*
X107337160Y-47692998D01*
X107337161Y-52686313D01*
X107337161Y-52686313D01*
G37*
X107337161Y-52686313D02*
X106247715Y-53775760D01*
X106006396Y-53775760D01*
X105331956Y-54055122D01*
X104815762Y-54571316D01*
X104536400Y-55245756D01*
X104536400Y-55457300D01*
X104476443Y-55547032D01*
X104247599Y-55889521D01*
X104140107Y-56429920D01*
X104167241Y-56566332D01*
X104167240Y-63416815D01*
X104157240Y-63440957D01*
X104157240Y-63995923D01*
X104230466Y-64172707D01*
X104247599Y-64258839D01*
X104296389Y-64331858D01*
X104369616Y-64508644D01*
X104504922Y-64643950D01*
X104553711Y-64716968D01*
X104626730Y-64765758D01*
X104734412Y-64873440D01*
X101036068Y-64873440D01*
X101143748Y-64765760D01*
X101216769Y-64716969D01*
X101265560Y-64643948D01*
X101400864Y-64508644D01*
X101474090Y-64331861D01*
X101522881Y-64258840D01*
X101540014Y-64172706D01*
X101613240Y-63995923D01*
X101613240Y-63804574D01*
X101630373Y-63718440D01*
X101613240Y-63632306D01*
X101613240Y-63440957D01*
X101603240Y-63416815D01*
X101603240Y-57458200D01*
X102571400Y-57458200D01*
X102819165Y-57408917D01*
X103029209Y-57268569D01*
X103169557Y-57058525D01*
X103218840Y-56810760D01*
X103218840Y-54410760D01*
X103169557Y-54162995D01*
X103029209Y-53952951D01*
X102819165Y-53812603D01*
X102756400Y-53800118D01*
X102756400Y-52252525D01*
X106777792Y-48231134D01*
X106898502Y-48181134D01*
X107302174Y-47777462D01*
X107337160Y-47692998D01*
X107337161Y-52686313D01*
G36*
X82476863Y-63091857D02*
X82829198Y-63327280D01*
X82558627Y-63508070D01*
X82475402Y-63089671D01*
X82476863Y-63091857D01*
X82476863Y-63091857D01*
G37*
X82476863Y-63091857D02*
X82829198Y-63327280D01*
X82558627Y-63508070D01*
X82475402Y-63089671D01*
X82476863Y-63091857D01*
G36*
X79906440Y-52994206D02*
X79906441Y-59300868D01*
X79879307Y-59437280D01*
X79986799Y-59977679D01*
X80159912Y-60236761D01*
X80292912Y-60435809D01*
X80408552Y-60513077D01*
X82072058Y-62176584D01*
X82138681Y-62511521D01*
X82030808Y-62439442D01*
X80765759Y-61174394D01*
X80688489Y-61058751D01*
X80230360Y-60752639D01*
X79826367Y-60672280D01*
X79689960Y-60645147D01*
X79553553Y-60672280D01*
X77758896Y-60672280D01*
X77739205Y-60659123D01*
X77691680Y-60649670D01*
X77691680Y-57382238D01*
X77941014Y-57009083D01*
X78075670Y-56332120D01*
X77941014Y-55655157D01*
X77676440Y-55259194D01*
X77676440Y-52826670D01*
X77726440Y-52705959D01*
X77726440Y-52135081D01*
X77507974Y-51607658D01*
X77104302Y-51203986D01*
X76576879Y-50985520D01*
X76006001Y-50985520D01*
X75478578Y-51203986D01*
X75074906Y-51607658D01*
X74856440Y-52135081D01*
X74856440Y-52705959D01*
X74906440Y-52826670D01*
X74906441Y-55304809D01*
X74672346Y-55655157D01*
X74537690Y-56332120D01*
X74672346Y-57009083D01*
X74921680Y-57382238D01*
X74921681Y-60643607D01*
X74843675Y-60659123D01*
X74823984Y-60672280D01*
X68156680Y-60672280D01*
X68156680Y-59866680D01*
X68107397Y-59618915D01*
X67967049Y-59408871D01*
X67757005Y-59268523D01*
X67509240Y-59219240D01*
X66774039Y-59219240D01*
X63408548Y-55853750D01*
X63317329Y-55717231D01*
X62776505Y-55355864D01*
X62299591Y-55261000D01*
X62299590Y-55261000D01*
X62138560Y-55228969D01*
X61977530Y-55261000D01*
X55379446Y-55261000D01*
X61597607Y-49042840D01*
X64674241Y-49042840D01*
X64674240Y-55218833D01*
X64474240Y-55701676D01*
X64474240Y-56431684D01*
X64753602Y-57106124D01*
X65269796Y-57622318D01*
X65944236Y-57901680D01*
X66674244Y-57901680D01*
X67348684Y-57622318D01*
X67864878Y-57106124D01*
X68144240Y-56431684D01*
X68144240Y-55701676D01*
X67944240Y-55218833D01*
X67944240Y-48792840D01*
X75705075Y-48792840D01*
X79906440Y-52994206D01*
X79906440Y-52994206D01*
G37*
X79906440Y-52994206D02*
X79906441Y-59300868D01*
X79879307Y-59437280D01*
X79986799Y-59977679D01*
X80159912Y-60236761D01*
X80292912Y-60435809D01*
X80408552Y-60513077D01*
X82072058Y-62176584D01*
X82138681Y-62511521D01*
X82030808Y-62439442D01*
X80765759Y-61174394D01*
X80688489Y-61058751D01*
X80230360Y-60752639D01*
X79826367Y-60672280D01*
X79689960Y-60645147D01*
X79553553Y-60672280D01*
X77758896Y-60672280D01*
X77739205Y-60659123D01*
X77691680Y-60649670D01*
X77691680Y-57382238D01*
X77941014Y-57009083D01*
X78075670Y-56332120D01*
X77941014Y-55655157D01*
X77676440Y-55259194D01*
X77676440Y-52826670D01*
X77726440Y-52705959D01*
X77726440Y-52135081D01*
X77507974Y-51607658D01*
X77104302Y-51203986D01*
X76576879Y-50985520D01*
X76006001Y-50985520D01*
X75478578Y-51203986D01*
X75074906Y-51607658D01*
X74856440Y-52135081D01*
X74856440Y-52705959D01*
X74906440Y-52826670D01*
X74906441Y-55304809D01*
X74672346Y-55655157D01*
X74537690Y-56332120D01*
X74672346Y-57009083D01*
X74921680Y-57382238D01*
X74921681Y-60643607D01*
X74843675Y-60659123D01*
X74823984Y-60672280D01*
X68156680Y-60672280D01*
X68156680Y-59866680D01*
X68107397Y-59618915D01*
X67967049Y-59408871D01*
X67757005Y-59268523D01*
X67509240Y-59219240D01*
X66774039Y-59219240D01*
X63408548Y-55853750D01*
X63317329Y-55717231D01*
X62776505Y-55355864D01*
X62299591Y-55261000D01*
X62299590Y-55261000D01*
X62138560Y-55228969D01*
X61977530Y-55261000D01*
X55379446Y-55261000D01*
X61597607Y-49042840D01*
X64674241Y-49042840D01*
X64674240Y-55218833D01*
X64474240Y-55701676D01*
X64474240Y-56431684D01*
X64753602Y-57106124D01*
X65269796Y-57622318D01*
X65944236Y-57901680D01*
X66674244Y-57901680D01*
X67348684Y-57622318D01*
X67864878Y-57106124D01*
X68144240Y-56431684D01*
X68144240Y-55701676D01*
X67944240Y-55218833D01*
X67944240Y-48792840D01*
X75705075Y-48792840D01*
X79906440Y-52994206D01*
M02*
