%TF.GenerationSoftware,KiCad,Pcbnew,(5.0.2)-1*%
%TF.CreationDate,2019-02-13T13:46:32+09:00*%
%TF.ProjectId,12f675-mppt,31326636-3735-42d6-9d70-70742e6b6963,rev?*%
%TF.SameCoordinates,Original*%
%TF.FileFunction,Copper,L1,Top*%
%TF.FilePolarity,Positive*%
%FSLAX46Y46*%
G04 Gerber Fmt 4.6, Leading zero omitted, Abs format (unit mm)*
G04 Created by KiCad (PCBNEW (5.0.2)-1) date 2019-02-13 오후 1:46:32*
%MOMM*%
%LPD*%
G01*
G04 APERTURE LIST*
%ADD10C,2.400000*%
%ADD11R,2.400000X2.400000*%
%ADD12C,1.600000*%
%ADD13R,3.200000X3.200000*%
%ADD14O,3.200000X3.200000*%
%ADD15O,2.200000X2.200000*%
%ADD16R,2.200000X2.200000*%
%ADD17C,1.800000*%
%ADD18R,1.800000X1.800000*%
%ADD19R,2.400000X1.600000*%
%ADD20O,2.400000X1.600000*%
%ADD21C,3.600000*%
%ADD22O,1.800000X1.800000*%
%ADD23R,1.520000X1.520000*%
%ADD24C,1.520000*%
%ADD25O,1.600000X1.600000*%
%ADD26C,2.000000*%
%ADD27C,4.064000*%
%ADD28C,1.500000*%
%ADD29C,3.000000*%
%ADD30C,0.254000*%
G04 APERTURE END LIST*
D10*
X105516680Y-103374200D03*
D11*
X105516680Y-98374200D03*
X101371400Y-55610760D03*
D10*
X106371400Y-55610760D03*
X66309240Y-56066680D03*
D11*
X66309240Y-61066680D03*
D12*
X81291440Y-52420520D03*
X76291440Y-52420520D03*
D11*
X66309240Y-42407840D03*
D10*
X66309240Y-47407840D03*
D13*
X127441960Y-41595040D03*
D14*
X112201960Y-41595040D03*
X112166400Y-90449400D03*
D13*
X127406400Y-90449400D03*
D15*
X76306680Y-56332120D03*
D16*
X86466680Y-56332120D03*
D17*
X56936640Y-101615240D03*
D18*
X56936640Y-104155240D03*
D16*
X44988480Y-56906160D03*
D15*
X44988480Y-46746160D03*
D14*
X40716200Y-41600120D03*
D13*
X55956200Y-41600120D03*
D18*
X93573600Y-93822520D03*
D17*
X93573600Y-91282520D03*
X93573600Y-97124520D03*
D18*
X93573600Y-99664520D03*
D19*
X76291440Y-62057280D03*
D20*
X83911440Y-69677280D03*
X76291440Y-64597280D03*
X83911440Y-67137280D03*
X76291440Y-67137280D03*
X83911440Y-64597280D03*
X76291440Y-69677280D03*
X83911440Y-62057280D03*
D21*
X113400840Y-67447160D03*
X126100840Y-67447160D03*
D22*
X83393280Y-108371640D03*
X85933280Y-108371640D03*
D18*
X88473280Y-108371640D03*
X100182680Y-41879520D03*
D22*
X102722680Y-41879520D03*
X105262680Y-41879520D03*
D23*
X88295480Y-52390040D03*
D24*
X93375480Y-52390040D03*
X90835480Y-52390040D03*
D23*
X100218240Y-68798440D03*
D24*
X100218240Y-63718440D03*
X100218240Y-66258440D03*
X105552240Y-66258440D03*
X105552240Y-63718440D03*
D23*
X105552240Y-68798440D03*
D25*
X62580520Y-80563720D03*
D12*
X62580520Y-93263720D03*
X79598520Y-102514400D03*
D25*
X79598520Y-89814400D03*
D12*
X68143120Y-93314520D03*
D25*
X68143120Y-106014520D03*
X72649080Y-94599760D03*
D12*
X72649080Y-81899760D03*
D25*
X40782240Y-59405520D03*
D12*
X40782240Y-46705520D03*
X50723800Y-93299280D03*
D25*
X50723800Y-80599280D03*
D12*
X90860880Y-56062880D03*
D25*
X90860880Y-68762880D03*
X93385640Y-46964600D03*
D12*
X106085640Y-46964600D03*
X95092520Y-68783200D03*
D25*
X95092520Y-56083200D03*
X40782240Y-75854560D03*
D12*
X40782240Y-63154560D03*
D25*
X83992720Y-89834720D03*
D12*
X83992720Y-102534720D03*
X88498680Y-76890880D03*
D25*
X88498680Y-89590880D03*
D12*
X58267600Y-80584040D03*
D25*
X58267600Y-93284040D03*
X46070520Y-80599280D03*
D12*
X46070520Y-93299280D03*
D26*
X46283880Y-97660320D03*
X50783880Y-97660320D03*
X46283880Y-104160320D03*
X50783880Y-104160320D03*
D20*
X83977480Y-76875640D03*
X76357480Y-84495640D03*
X83977480Y-79415640D03*
X76357480Y-81955640D03*
X83977480Y-81955640D03*
X76357480Y-79415640D03*
X83977480Y-84495640D03*
D19*
X76357480Y-76875640D03*
D10*
X102326440Y-79447400D03*
D11*
X102326440Y-74447400D03*
D25*
X57673240Y-63139320D03*
D12*
X44973240Y-63139320D03*
D22*
X55245000Y-56896000D03*
X52705000Y-56896000D03*
D18*
X50165000Y-56896000D03*
D27*
X35666680Y-41630600D03*
X35590480Y-75798680D03*
X124790200Y-99054920D03*
X124790200Y-108204000D03*
D25*
X93538040Y-72633840D03*
D12*
X93538040Y-85333840D03*
D28*
X88498680Y-80294480D02*
X93538040Y-85333840D01*
X88498680Y-76890880D02*
X88498680Y-80294480D01*
X88498680Y-108346240D02*
X88473280Y-108371640D01*
X88498680Y-89590880D02*
X88498680Y-108346240D01*
X76713080Y-76875640D02*
X83911440Y-69677280D01*
X76357480Y-76875640D02*
X76713080Y-76875640D01*
X76357480Y-76875640D02*
X72461120Y-76875640D01*
X58267600Y-91069160D02*
X58267600Y-93284040D01*
X72461120Y-76875640D02*
X58267600Y-91069160D01*
X86611440Y-69677280D02*
X93286560Y-76352400D01*
X83911440Y-69677280D02*
X86611440Y-69677280D01*
X97721440Y-76352400D02*
X93286560Y-76352400D01*
X99626440Y-74447400D02*
X97721440Y-76352400D01*
X102326440Y-74447400D02*
X99626440Y-74447400D01*
X73591440Y-69677280D02*
X66083200Y-77185520D01*
X76291440Y-69677280D02*
X73591440Y-69677280D01*
X66083200Y-77185520D02*
X56713120Y-77185520D01*
X56713120Y-77185520D02*
X54152800Y-79745840D01*
X54152800Y-85217000D02*
X46070520Y-93299280D01*
X54152800Y-79745840D02*
X54152800Y-85217000D01*
X97958240Y-68798440D02*
X97617280Y-68457480D01*
X100218240Y-68798440D02*
X97958240Y-68798440D01*
X100182680Y-44279520D02*
X100182680Y-41879520D01*
X97617280Y-46844920D02*
X100182680Y-44279520D01*
X97617280Y-68457480D02*
X97617280Y-46844920D01*
D29*
X124109480Y-98374200D02*
X124790200Y-99054920D01*
X105516680Y-98374200D02*
X124109480Y-98374200D01*
D30*
G36*
X129098841Y-39358914D02*
X129041960Y-39347600D01*
X125841960Y-39347600D01*
X125594195Y-39396883D01*
X125384151Y-39537231D01*
X125243803Y-39747275D01*
X125194520Y-39995040D01*
X125194520Y-43195040D01*
X125243803Y-43442805D01*
X125384151Y-43652849D01*
X125594195Y-43793197D01*
X125841960Y-43842480D01*
X129041960Y-43842480D01*
X129098841Y-43831166D01*
X129098840Y-88220347D01*
X129006400Y-88201960D01*
X125806400Y-88201960D01*
X125558635Y-88251243D01*
X125348591Y-88391591D01*
X125208243Y-88601635D01*
X125158960Y-88849400D01*
X125158960Y-92049400D01*
X125208243Y-92297165D01*
X125348591Y-92507209D01*
X125558635Y-92647557D01*
X125806400Y-92696840D01*
X129006400Y-92696840D01*
X129098840Y-92678453D01*
X129098840Y-112411040D01*
X32917600Y-112411040D01*
X32917600Y-108371640D01*
X81828208Y-108371640D01*
X81947342Y-108970567D01*
X82286607Y-109478313D01*
X82794353Y-109817578D01*
X83242098Y-109906640D01*
X83544462Y-109906640D01*
X83992207Y-109817578D01*
X84499953Y-109478313D01*
X84663280Y-109233877D01*
X84826607Y-109478313D01*
X85334353Y-109817578D01*
X85782098Y-109906640D01*
X86084462Y-109906640D01*
X86532207Y-109817578D01*
X86976151Y-109520944D01*
X87115471Y-109729449D01*
X87325515Y-109869797D01*
X87573280Y-109919080D01*
X89373280Y-109919080D01*
X89621045Y-109869797D01*
X89831089Y-109729449D01*
X89971437Y-109519405D01*
X90020720Y-109271640D01*
X90020720Y-107673501D01*
X122123200Y-107673501D01*
X122123200Y-108734499D01*
X122529226Y-109714734D01*
X123279466Y-110464974D01*
X124259701Y-110871000D01*
X125320699Y-110871000D01*
X126300934Y-110464974D01*
X127051174Y-109714734D01*
X127457200Y-108734499D01*
X127457200Y-107673501D01*
X127051174Y-106693266D01*
X126300934Y-105943026D01*
X125320699Y-105537000D01*
X124259701Y-105537000D01*
X123279466Y-105943026D01*
X122529226Y-106693266D01*
X122123200Y-107673501D01*
X90020720Y-107673501D01*
X90020720Y-107471640D01*
X89971437Y-107223875D01*
X89883680Y-107092538D01*
X89883680Y-103009196D01*
X103681680Y-103009196D01*
X103681680Y-103739204D01*
X103961042Y-104413644D01*
X104477236Y-104929838D01*
X105151676Y-105209200D01*
X105881684Y-105209200D01*
X106556124Y-104929838D01*
X107072318Y-104413644D01*
X107351680Y-103739204D01*
X107351680Y-103009196D01*
X107072318Y-102334756D01*
X106556124Y-101818562D01*
X105881684Y-101539200D01*
X105151676Y-101539200D01*
X104477236Y-101818562D01*
X103961042Y-102334756D01*
X103681680Y-103009196D01*
X89883680Y-103009196D01*
X89883680Y-98764520D01*
X92026160Y-98764520D01*
X92026160Y-100564520D01*
X92075443Y-100812285D01*
X92215791Y-101022329D01*
X92425835Y-101162677D01*
X92673600Y-101211960D01*
X94473600Y-101211960D01*
X94721365Y-101162677D01*
X94931409Y-101022329D01*
X95071757Y-100812285D01*
X95121040Y-100564520D01*
X95121040Y-98764520D01*
X95071757Y-98516755D01*
X94976505Y-98374200D01*
X103339853Y-98374200D01*
X103505554Y-99207236D01*
X103669240Y-99452209D01*
X103669240Y-99574200D01*
X103718523Y-99821965D01*
X103858871Y-100032009D01*
X104068915Y-100172357D01*
X104316680Y-100221640D01*
X104438671Y-100221640D01*
X104683644Y-100385326D01*
X105306401Y-100509200D01*
X122505842Y-100509200D01*
X122529226Y-100565654D01*
X123279466Y-101315894D01*
X124259701Y-101721920D01*
X125320699Y-101721920D01*
X126300934Y-101315894D01*
X127051174Y-100565654D01*
X127457200Y-99585419D01*
X127457200Y-98524421D01*
X127051174Y-97544186D01*
X126300934Y-96793946D01*
X125320699Y-96387920D01*
X124979701Y-96387920D01*
X124942516Y-96363074D01*
X124319759Y-96239200D01*
X124319755Y-96239200D01*
X124109480Y-96197374D01*
X123899205Y-96239200D01*
X105306401Y-96239200D01*
X104683644Y-96363074D01*
X104438671Y-96526760D01*
X104316680Y-96526760D01*
X104068915Y-96576043D01*
X103858871Y-96716391D01*
X103718523Y-96926435D01*
X103669240Y-97174200D01*
X103669240Y-97296191D01*
X103505554Y-97541164D01*
X103339853Y-98374200D01*
X94976505Y-98374200D01*
X94931409Y-98306711D01*
X94721365Y-98166363D01*
X94705692Y-98163245D01*
X94874910Y-97994027D01*
X95108600Y-97429850D01*
X95108600Y-96819190D01*
X94874910Y-96255013D01*
X94443107Y-95823210D01*
X93878930Y-95589520D01*
X93268270Y-95589520D01*
X92704093Y-95823210D01*
X92272290Y-96255013D01*
X92038600Y-96819190D01*
X92038600Y-97429850D01*
X92272290Y-97994027D01*
X92441508Y-98163245D01*
X92425835Y-98166363D01*
X92215791Y-98306711D01*
X92075443Y-98516755D01*
X92026160Y-98764520D01*
X89883680Y-98764520D01*
X89883680Y-92922520D01*
X92026160Y-92922520D01*
X92026160Y-94722520D01*
X92075443Y-94970285D01*
X92215791Y-95180329D01*
X92425835Y-95320677D01*
X92673600Y-95369960D01*
X94473600Y-95369960D01*
X94721365Y-95320677D01*
X94931409Y-95180329D01*
X95071757Y-94970285D01*
X95121040Y-94722520D01*
X95121040Y-92922520D01*
X95071757Y-92674755D01*
X94931409Y-92464711D01*
X94721365Y-92324363D01*
X94705692Y-92321245D01*
X94874910Y-92152027D01*
X95108600Y-91587850D01*
X95108600Y-90977190D01*
X94889983Y-90449400D01*
X109887614Y-90449400D01*
X110061076Y-91321454D01*
X110555055Y-92060745D01*
X111294346Y-92554724D01*
X111946272Y-92684400D01*
X112386528Y-92684400D01*
X113038454Y-92554724D01*
X113777745Y-92060745D01*
X114271724Y-91321454D01*
X114445186Y-90449400D01*
X114271724Y-89577346D01*
X113777745Y-88838055D01*
X113038454Y-88344076D01*
X112386528Y-88214400D01*
X111946272Y-88214400D01*
X111294346Y-88344076D01*
X110555055Y-88838055D01*
X110061076Y-89577346D01*
X109887614Y-90449400D01*
X94889983Y-90449400D01*
X94874910Y-90413013D01*
X94443107Y-89981210D01*
X93878930Y-89747520D01*
X93268270Y-89747520D01*
X92704093Y-89981210D01*
X92272290Y-90413013D01*
X92038600Y-90977190D01*
X92038600Y-91587850D01*
X92272290Y-92152027D01*
X92441508Y-92321245D01*
X92425835Y-92324363D01*
X92215791Y-92464711D01*
X92075443Y-92674755D01*
X92026160Y-92922520D01*
X89883680Y-92922520D01*
X89883680Y-89983580D01*
X89961793Y-89590880D01*
X89850420Y-89030971D01*
X89533257Y-88556303D01*
X89058589Y-88239140D01*
X88640013Y-88155880D01*
X88357347Y-88155880D01*
X87938771Y-88239140D01*
X87464103Y-88556303D01*
X87146940Y-89030971D01*
X87035567Y-89590880D01*
X87113680Y-89983580D01*
X87113681Y-107016510D01*
X86976151Y-107222336D01*
X86532207Y-106925702D01*
X86084462Y-106836640D01*
X85782098Y-106836640D01*
X85334353Y-106925702D01*
X84826607Y-107264967D01*
X84663280Y-107509403D01*
X84499953Y-107264967D01*
X83992207Y-106925702D01*
X83544462Y-106836640D01*
X83242098Y-106836640D01*
X82794353Y-106925702D01*
X82286607Y-107264967D01*
X81947342Y-107772713D01*
X81828208Y-108371640D01*
X32917600Y-108371640D01*
X32917600Y-106014520D01*
X66680007Y-106014520D01*
X66791380Y-106574429D01*
X67108543Y-107049097D01*
X67583211Y-107366260D01*
X68001787Y-107449520D01*
X68284453Y-107449520D01*
X68703029Y-107366260D01*
X69177697Y-107049097D01*
X69494860Y-106574429D01*
X69606233Y-106014520D01*
X69494860Y-105454611D01*
X69177697Y-104979943D01*
X68703029Y-104662780D01*
X68284453Y-104579520D01*
X68001787Y-104579520D01*
X67583211Y-104662780D01*
X67108543Y-104979943D01*
X66791380Y-105454611D01*
X66680007Y-106014520D01*
X32917600Y-106014520D01*
X32917600Y-103835098D01*
X44648880Y-103835098D01*
X44648880Y-104485542D01*
X44897794Y-105086473D01*
X45357727Y-105546406D01*
X45958658Y-105795320D01*
X46609102Y-105795320D01*
X47210033Y-105546406D01*
X47669966Y-105086473D01*
X47918880Y-104485542D01*
X47918880Y-103835098D01*
X49148880Y-103835098D01*
X49148880Y-104485542D01*
X49397794Y-105086473D01*
X49857727Y-105546406D01*
X50458658Y-105795320D01*
X51109102Y-105795320D01*
X51710033Y-105546406D01*
X52169966Y-105086473D01*
X52418880Y-104485542D01*
X52418880Y-103835098D01*
X52178695Y-103255240D01*
X55389200Y-103255240D01*
X55389200Y-105055240D01*
X55438483Y-105303005D01*
X55578831Y-105513049D01*
X55788875Y-105653397D01*
X56036640Y-105702680D01*
X57836640Y-105702680D01*
X58084405Y-105653397D01*
X58294449Y-105513049D01*
X58434797Y-105303005D01*
X58484080Y-105055240D01*
X58484080Y-103255240D01*
X58434797Y-103007475D01*
X58294449Y-102797431D01*
X58084405Y-102657083D01*
X58068732Y-102653965D01*
X58237950Y-102484747D01*
X58343900Y-102228961D01*
X78163520Y-102228961D01*
X78163520Y-102799839D01*
X78381986Y-103327262D01*
X78785658Y-103730934D01*
X79313081Y-103949400D01*
X79883959Y-103949400D01*
X80411382Y-103730934D01*
X80815054Y-103327262D01*
X81033520Y-102799839D01*
X81033520Y-102249281D01*
X82557720Y-102249281D01*
X82557720Y-102820159D01*
X82776186Y-103347582D01*
X83179858Y-103751254D01*
X83707281Y-103969720D01*
X84278159Y-103969720D01*
X84805582Y-103751254D01*
X85209254Y-103347582D01*
X85427720Y-102820159D01*
X85427720Y-102249281D01*
X85209254Y-101721858D01*
X84805582Y-101318186D01*
X84278159Y-101099720D01*
X83707281Y-101099720D01*
X83179858Y-101318186D01*
X82776186Y-101721858D01*
X82557720Y-102249281D01*
X81033520Y-102249281D01*
X81033520Y-102228961D01*
X80815054Y-101701538D01*
X80411382Y-101297866D01*
X79883959Y-101079400D01*
X79313081Y-101079400D01*
X78785658Y-101297866D01*
X78381986Y-101701538D01*
X78163520Y-102228961D01*
X58343900Y-102228961D01*
X58471640Y-101920570D01*
X58471640Y-101309910D01*
X58237950Y-100745733D01*
X57806147Y-100313930D01*
X57241970Y-100080240D01*
X56631310Y-100080240D01*
X56067133Y-100313930D01*
X55635330Y-100745733D01*
X55401640Y-101309910D01*
X55401640Y-101920570D01*
X55635330Y-102484747D01*
X55804548Y-102653965D01*
X55788875Y-102657083D01*
X55578831Y-102797431D01*
X55438483Y-103007475D01*
X55389200Y-103255240D01*
X52178695Y-103255240D01*
X52169966Y-103234167D01*
X51710033Y-102774234D01*
X51109102Y-102525320D01*
X50458658Y-102525320D01*
X49857727Y-102774234D01*
X49397794Y-103234167D01*
X49148880Y-103835098D01*
X47918880Y-103835098D01*
X47669966Y-103234167D01*
X47210033Y-102774234D01*
X46609102Y-102525320D01*
X45958658Y-102525320D01*
X45357727Y-102774234D01*
X44897794Y-103234167D01*
X44648880Y-103835098D01*
X32917600Y-103835098D01*
X32917600Y-97335098D01*
X44648880Y-97335098D01*
X44648880Y-97985542D01*
X44897794Y-98586473D01*
X45357727Y-99046406D01*
X45958658Y-99295320D01*
X46609102Y-99295320D01*
X47210033Y-99046406D01*
X47669966Y-98586473D01*
X47918880Y-97985542D01*
X47918880Y-97335098D01*
X49148880Y-97335098D01*
X49148880Y-97985542D01*
X49397794Y-98586473D01*
X49857727Y-99046406D01*
X50458658Y-99295320D01*
X51109102Y-99295320D01*
X51710033Y-99046406D01*
X52169966Y-98586473D01*
X52418880Y-97985542D01*
X52418880Y-97335098D01*
X52169966Y-96734167D01*
X51710033Y-96274234D01*
X51109102Y-96025320D01*
X50458658Y-96025320D01*
X49857727Y-96274234D01*
X49397794Y-96734167D01*
X49148880Y-97335098D01*
X47918880Y-97335098D01*
X47669966Y-96734167D01*
X47210033Y-96274234D01*
X46609102Y-96025320D01*
X45958658Y-96025320D01*
X45357727Y-96274234D01*
X44897794Y-96734167D01*
X44648880Y-97335098D01*
X32917600Y-97335098D01*
X32917600Y-93013841D01*
X44635520Y-93013841D01*
X44635520Y-93584719D01*
X44853986Y-94112142D01*
X45257658Y-94515814D01*
X45785081Y-94734280D01*
X46355959Y-94734280D01*
X46883382Y-94515814D01*
X47287054Y-94112142D01*
X47337054Y-93991431D01*
X48314644Y-93013841D01*
X49288800Y-93013841D01*
X49288800Y-93584719D01*
X49507266Y-94112142D01*
X49910938Y-94515814D01*
X50438361Y-94734280D01*
X51009239Y-94734280D01*
X51536662Y-94515814D01*
X51940334Y-94112142D01*
X52158800Y-93584719D01*
X52158800Y-93284040D01*
X56804487Y-93284040D01*
X56915860Y-93843949D01*
X57233023Y-94318617D01*
X57707691Y-94635780D01*
X58126267Y-94719040D01*
X58408933Y-94719040D01*
X58827509Y-94635780D01*
X59302177Y-94318617D01*
X59619340Y-93843949D01*
X59730713Y-93284040D01*
X59669894Y-92978281D01*
X61145520Y-92978281D01*
X61145520Y-93549159D01*
X61363986Y-94076582D01*
X61767658Y-94480254D01*
X62295081Y-94698720D01*
X62865959Y-94698720D01*
X63393382Y-94480254D01*
X63797054Y-94076582D01*
X64015520Y-93549159D01*
X64015520Y-93029081D01*
X66708120Y-93029081D01*
X66708120Y-93599959D01*
X66926586Y-94127382D01*
X67330258Y-94531054D01*
X67857681Y-94749520D01*
X68428559Y-94749520D01*
X68790111Y-94599760D01*
X71185967Y-94599760D01*
X71297340Y-95159669D01*
X71614503Y-95634337D01*
X72089171Y-95951500D01*
X72507747Y-96034760D01*
X72790413Y-96034760D01*
X73208989Y-95951500D01*
X73683657Y-95634337D01*
X74000820Y-95159669D01*
X74112193Y-94599760D01*
X74000820Y-94039851D01*
X73683657Y-93565183D01*
X73208989Y-93248020D01*
X72790413Y-93164760D01*
X72507747Y-93164760D01*
X72089171Y-93248020D01*
X71614503Y-93565183D01*
X71297340Y-94039851D01*
X71185967Y-94599760D01*
X68790111Y-94599760D01*
X68955982Y-94531054D01*
X69359654Y-94127382D01*
X69578120Y-93599959D01*
X69578120Y-93029081D01*
X69359654Y-92501658D01*
X68955982Y-92097986D01*
X68428559Y-91879520D01*
X67857681Y-91879520D01*
X67330258Y-92097986D01*
X66926586Y-92501658D01*
X66708120Y-93029081D01*
X64015520Y-93029081D01*
X64015520Y-92978281D01*
X63797054Y-92450858D01*
X63393382Y-92047186D01*
X62865959Y-91828720D01*
X62295081Y-91828720D01*
X61767658Y-92047186D01*
X61363986Y-92450858D01*
X61145520Y-92978281D01*
X59669894Y-92978281D01*
X59652600Y-92891340D01*
X59652600Y-91642845D01*
X61481045Y-89814400D01*
X78135407Y-89814400D01*
X78246780Y-90374309D01*
X78563943Y-90848977D01*
X79038611Y-91166140D01*
X79457187Y-91249400D01*
X79739853Y-91249400D01*
X80158429Y-91166140D01*
X80633097Y-90848977D01*
X80950260Y-90374309D01*
X81057591Y-89834720D01*
X82529607Y-89834720D01*
X82640980Y-90394629D01*
X82958143Y-90869297D01*
X83432811Y-91186460D01*
X83851387Y-91269720D01*
X84134053Y-91269720D01*
X84552629Y-91186460D01*
X85027297Y-90869297D01*
X85344460Y-90394629D01*
X85455833Y-89834720D01*
X85344460Y-89274811D01*
X85027297Y-88800143D01*
X84552629Y-88482980D01*
X84134053Y-88399720D01*
X83851387Y-88399720D01*
X83432811Y-88482980D01*
X82958143Y-88800143D01*
X82640980Y-89274811D01*
X82529607Y-89834720D01*
X81057591Y-89834720D01*
X81061633Y-89814400D01*
X80950260Y-89254491D01*
X80633097Y-88779823D01*
X80158429Y-88462660D01*
X79739853Y-88379400D01*
X79457187Y-88379400D01*
X79038611Y-88462660D01*
X78563943Y-88779823D01*
X78246780Y-89254491D01*
X78135407Y-89814400D01*
X61481045Y-89814400D01*
X69681124Y-81614321D01*
X71214080Y-81614321D01*
X71214080Y-82185199D01*
X71432546Y-82712622D01*
X71836218Y-83116294D01*
X72363641Y-83334760D01*
X72934519Y-83334760D01*
X73461942Y-83116294D01*
X73865614Y-82712622D01*
X74084080Y-82185199D01*
X74084080Y-81614321D01*
X73865614Y-81086898D01*
X73461942Y-80683226D01*
X72934519Y-80464760D01*
X72363641Y-80464760D01*
X71836218Y-80683226D01*
X71432546Y-81086898D01*
X71214080Y-81614321D01*
X69681124Y-81614321D01*
X73034805Y-78260640D01*
X74890024Y-78260640D01*
X74909715Y-78273797D01*
X75043586Y-78300425D01*
X74922903Y-78381063D01*
X74605740Y-78855731D01*
X74494367Y-79415640D01*
X74605740Y-79975549D01*
X74922903Y-80450217D01*
X75275238Y-80685640D01*
X74922903Y-80921063D01*
X74605740Y-81395731D01*
X74494367Y-81955640D01*
X74605740Y-82515549D01*
X74922903Y-82990217D01*
X75275238Y-83225640D01*
X74922903Y-83461063D01*
X74605740Y-83935731D01*
X74494367Y-84495640D01*
X74605740Y-85055549D01*
X74922903Y-85530217D01*
X75397571Y-85847380D01*
X75816147Y-85930640D01*
X76898813Y-85930640D01*
X77317389Y-85847380D01*
X77792057Y-85530217D01*
X78109220Y-85055549D01*
X78220593Y-84495640D01*
X78109220Y-83935731D01*
X77792057Y-83461063D01*
X77439722Y-83225640D01*
X77792057Y-82990217D01*
X78109220Y-82515549D01*
X78220593Y-81955640D01*
X78109220Y-81395731D01*
X77792057Y-80921063D01*
X77439722Y-80685640D01*
X77792057Y-80450217D01*
X78109220Y-79975549D01*
X78220593Y-79415640D01*
X78109220Y-78855731D01*
X77792057Y-78381063D01*
X77671374Y-78300425D01*
X77805245Y-78273797D01*
X78015289Y-78133449D01*
X78155637Y-77923405D01*
X78204920Y-77675640D01*
X78204920Y-77342485D01*
X78671765Y-76875640D01*
X82114367Y-76875640D01*
X82225740Y-77435549D01*
X82542903Y-77910217D01*
X82895238Y-78145640D01*
X82542903Y-78381063D01*
X82225740Y-78855731D01*
X82114367Y-79415640D01*
X82225740Y-79975549D01*
X82542903Y-80450217D01*
X82895238Y-80685640D01*
X82542903Y-80921063D01*
X82225740Y-81395731D01*
X82114367Y-81955640D01*
X82225740Y-82515549D01*
X82542903Y-82990217D01*
X82895238Y-83225640D01*
X82542903Y-83461063D01*
X82225740Y-83935731D01*
X82114367Y-84495640D01*
X82225740Y-85055549D01*
X82542903Y-85530217D01*
X83017571Y-85847380D01*
X83436147Y-85930640D01*
X84518813Y-85930640D01*
X84937389Y-85847380D01*
X85412057Y-85530217D01*
X85729220Y-85055549D01*
X85840593Y-84495640D01*
X85729220Y-83935731D01*
X85412057Y-83461063D01*
X85059722Y-83225640D01*
X85412057Y-82990217D01*
X85729220Y-82515549D01*
X85840593Y-81955640D01*
X85729220Y-81395731D01*
X85412057Y-80921063D01*
X85059722Y-80685640D01*
X85412057Y-80450217D01*
X85729220Y-79975549D01*
X85840593Y-79415640D01*
X85729220Y-78855731D01*
X85412057Y-78381063D01*
X85059722Y-78145640D01*
X85412057Y-77910217D01*
X85729220Y-77435549D01*
X85840593Y-76875640D01*
X85786847Y-76605441D01*
X87063680Y-76605441D01*
X87063680Y-77176319D01*
X87113680Y-77297030D01*
X87113681Y-80158068D01*
X87086547Y-80294480D01*
X87194039Y-80834879D01*
X87338100Y-81050481D01*
X87500152Y-81293009D01*
X87615792Y-81370277D01*
X92271506Y-86025992D01*
X92321506Y-86146702D01*
X92725178Y-86550374D01*
X93252601Y-86768840D01*
X93823479Y-86768840D01*
X94350902Y-86550374D01*
X94754574Y-86146702D01*
X94973040Y-85619279D01*
X94973040Y-85048401D01*
X94754574Y-84520978D01*
X94350902Y-84117306D01*
X94230192Y-84067306D01*
X89883680Y-79720795D01*
X89883680Y-79082396D01*
X100491440Y-79082396D01*
X100491440Y-79812404D01*
X100770802Y-80486844D01*
X101286996Y-81003038D01*
X101961436Y-81282400D01*
X102691444Y-81282400D01*
X103365884Y-81003038D01*
X103882078Y-80486844D01*
X104161440Y-79812404D01*
X104161440Y-79082396D01*
X103882078Y-78407956D01*
X103365884Y-77891762D01*
X102691444Y-77612400D01*
X101961436Y-77612400D01*
X101286996Y-77891762D01*
X100770802Y-78407956D01*
X100491440Y-79082396D01*
X89883680Y-79082396D01*
X89883680Y-77297030D01*
X89933680Y-77176319D01*
X89933680Y-76605441D01*
X89715214Y-76078018D01*
X89311542Y-75674346D01*
X88784119Y-75455880D01*
X88213241Y-75455880D01*
X87685818Y-75674346D01*
X87282146Y-76078018D01*
X87063680Y-76605441D01*
X85786847Y-76605441D01*
X85729220Y-76315731D01*
X85412057Y-75841063D01*
X84937389Y-75523900D01*
X84518813Y-75440640D01*
X83436147Y-75440640D01*
X83017571Y-75523900D01*
X82542903Y-75841063D01*
X82225740Y-76315731D01*
X82114367Y-76875640D01*
X78671765Y-76875640D01*
X84435125Y-71112280D01*
X84452773Y-71112280D01*
X84704140Y-71062280D01*
X86037755Y-71062280D01*
X92210762Y-77235288D01*
X92288031Y-77350929D01*
X92746160Y-77657041D01*
X93150153Y-77737400D01*
X93286559Y-77764533D01*
X93422965Y-77737400D01*
X97585033Y-77737400D01*
X97721440Y-77764533D01*
X97857847Y-77737400D01*
X98261840Y-77657041D01*
X98719969Y-77350929D01*
X98797239Y-77235286D01*
X100200126Y-75832400D01*
X100515798Y-75832400D01*
X100528283Y-75895165D01*
X100668631Y-76105209D01*
X100878675Y-76245557D01*
X101126440Y-76294840D01*
X103526440Y-76294840D01*
X103774205Y-76245557D01*
X103984249Y-76105209D01*
X104124597Y-75895165D01*
X104173880Y-75647400D01*
X104173880Y-73247400D01*
X104124597Y-72999635D01*
X103984249Y-72789591D01*
X103774205Y-72649243D01*
X103526440Y-72599960D01*
X101126440Y-72599960D01*
X100878675Y-72649243D01*
X100668631Y-72789591D01*
X100528283Y-72999635D01*
X100515798Y-73062400D01*
X99762847Y-73062400D01*
X99626440Y-73035267D01*
X99490033Y-73062400D01*
X99086040Y-73142759D01*
X98627911Y-73448871D01*
X98550642Y-73564512D01*
X97147755Y-74967400D01*
X93860246Y-74967400D01*
X92677652Y-73784807D01*
X92978131Y-73985580D01*
X93396707Y-74068840D01*
X93679373Y-74068840D01*
X94097949Y-73985580D01*
X94572617Y-73668417D01*
X94889780Y-73193749D01*
X95001153Y-72633840D01*
X94889780Y-72073931D01*
X94572617Y-71599263D01*
X94097949Y-71282100D01*
X93679373Y-71198840D01*
X93396707Y-71198840D01*
X92978131Y-71282100D01*
X92503463Y-71599263D01*
X92186300Y-72073931D01*
X92074927Y-72633840D01*
X92186300Y-73193749D01*
X92387073Y-73494228D01*
X87687239Y-68794394D01*
X87666183Y-68762880D01*
X89397767Y-68762880D01*
X89509140Y-69322789D01*
X89826303Y-69797457D01*
X90300971Y-70114620D01*
X90719547Y-70197880D01*
X91002213Y-70197880D01*
X91420789Y-70114620D01*
X91895457Y-69797457D01*
X92212620Y-69322789D01*
X92323993Y-68762880D01*
X92212620Y-68202971D01*
X91895457Y-67728303D01*
X91420789Y-67411140D01*
X91002213Y-67327880D01*
X90719547Y-67327880D01*
X90300971Y-67411140D01*
X89826303Y-67728303D01*
X89509140Y-68202971D01*
X89397767Y-68762880D01*
X87666183Y-68762880D01*
X87609969Y-68678751D01*
X87151840Y-68372639D01*
X86747847Y-68292280D01*
X86611440Y-68265147D01*
X86475033Y-68292280D01*
X85165791Y-68292280D01*
X85346017Y-68171857D01*
X85663180Y-67697189D01*
X85774553Y-67137280D01*
X85663180Y-66577371D01*
X85346017Y-66102703D01*
X84993682Y-65867280D01*
X85346017Y-65631857D01*
X85663180Y-65157189D01*
X85774553Y-64597280D01*
X85663180Y-64037371D01*
X85346017Y-63562703D01*
X84993682Y-63327280D01*
X85346017Y-63091857D01*
X85663180Y-62617189D01*
X85774553Y-62057280D01*
X85663180Y-61497371D01*
X85346017Y-61022703D01*
X84871349Y-60705540D01*
X84452773Y-60622280D01*
X83370107Y-60622280D01*
X82951531Y-60705540D01*
X82476863Y-61022703D01*
X82159700Y-61497371D01*
X82048327Y-62057280D01*
X82159700Y-62617189D01*
X82476863Y-63091857D01*
X82829198Y-63327280D01*
X82476863Y-63562703D01*
X82159700Y-64037371D01*
X82048327Y-64597280D01*
X82159700Y-65157189D01*
X82476863Y-65631857D01*
X82829198Y-65867280D01*
X82476863Y-66102703D01*
X82159700Y-66577371D01*
X82048327Y-67137280D01*
X82159700Y-67697189D01*
X82476863Y-68171857D01*
X82829198Y-68407280D01*
X82476863Y-68642703D01*
X82159700Y-69117371D01*
X82072058Y-69557977D01*
X76201835Y-75428200D01*
X75157480Y-75428200D01*
X74909715Y-75477483D01*
X74890024Y-75490640D01*
X72597521Y-75490640D01*
X72461119Y-75463508D01*
X72324717Y-75490640D01*
X72324713Y-75490640D01*
X71920720Y-75570999D01*
X71462591Y-75877111D01*
X71385320Y-75992755D01*
X57384712Y-89993363D01*
X57269071Y-90070632D01*
X57191803Y-90186272D01*
X56962959Y-90528761D01*
X56855467Y-91069160D01*
X56882600Y-91205567D01*
X56882601Y-92891336D01*
X56804487Y-93284040D01*
X52158800Y-93284040D01*
X52158800Y-93013841D01*
X51940334Y-92486418D01*
X51536662Y-92082746D01*
X51009239Y-91864280D01*
X50438361Y-91864280D01*
X49910938Y-92082746D01*
X49507266Y-92486418D01*
X49288800Y-93013841D01*
X48314644Y-93013841D01*
X55035688Y-86292798D01*
X55151329Y-86215529D01*
X55457441Y-85757400D01*
X55537800Y-85353407D01*
X55564933Y-85217000D01*
X55537800Y-85080593D01*
X55537800Y-80319525D01*
X55558724Y-80298601D01*
X56832600Y-80298601D01*
X56832600Y-80869479D01*
X57051066Y-81396902D01*
X57454738Y-81800574D01*
X57982161Y-82019040D01*
X58553039Y-82019040D01*
X59080462Y-81800574D01*
X59484134Y-81396902D01*
X59702600Y-80869479D01*
X59702600Y-80563720D01*
X61117407Y-80563720D01*
X61228780Y-81123629D01*
X61545943Y-81598297D01*
X62020611Y-81915460D01*
X62439187Y-81998720D01*
X62721853Y-81998720D01*
X63140429Y-81915460D01*
X63615097Y-81598297D01*
X63932260Y-81123629D01*
X64043633Y-80563720D01*
X63932260Y-80003811D01*
X63615097Y-79529143D01*
X63140429Y-79211980D01*
X62721853Y-79128720D01*
X62439187Y-79128720D01*
X62020611Y-79211980D01*
X61545943Y-79529143D01*
X61228780Y-80003811D01*
X61117407Y-80563720D01*
X59702600Y-80563720D01*
X59702600Y-80298601D01*
X59484134Y-79771178D01*
X59080462Y-79367506D01*
X58553039Y-79149040D01*
X57982161Y-79149040D01*
X57454738Y-79367506D01*
X57051066Y-79771178D01*
X56832600Y-80298601D01*
X55558724Y-80298601D01*
X57286806Y-78570520D01*
X65946793Y-78570520D01*
X66083200Y-78597653D01*
X66219607Y-78570520D01*
X66623600Y-78490161D01*
X67081729Y-78184049D01*
X67158999Y-78068406D01*
X74165126Y-71062280D01*
X75498740Y-71062280D01*
X75750107Y-71112280D01*
X76832773Y-71112280D01*
X77251349Y-71029020D01*
X77726017Y-70711857D01*
X78043180Y-70237189D01*
X78154553Y-69677280D01*
X78043180Y-69117371D01*
X77726017Y-68642703D01*
X77373682Y-68407280D01*
X77726017Y-68171857D01*
X78043180Y-67697189D01*
X78154553Y-67137280D01*
X78043180Y-66577371D01*
X77726017Y-66102703D01*
X77373682Y-65867280D01*
X77726017Y-65631857D01*
X78043180Y-65157189D01*
X78154553Y-64597280D01*
X78043180Y-64037371D01*
X77726017Y-63562703D01*
X77605334Y-63482065D01*
X77739205Y-63455437D01*
X77949249Y-63315089D01*
X78089597Y-63105045D01*
X78138880Y-62857280D01*
X78138880Y-61257280D01*
X78089597Y-61009515D01*
X77949249Y-60799471D01*
X77739205Y-60659123D01*
X77491440Y-60609840D01*
X75091440Y-60609840D01*
X74843675Y-60659123D01*
X74633631Y-60799471D01*
X74493283Y-61009515D01*
X74444000Y-61257280D01*
X74444000Y-62857280D01*
X74493283Y-63105045D01*
X74633631Y-63315089D01*
X74843675Y-63455437D01*
X74977546Y-63482065D01*
X74856863Y-63562703D01*
X74539700Y-64037371D01*
X74428327Y-64597280D01*
X74539700Y-65157189D01*
X74856863Y-65631857D01*
X75209198Y-65867280D01*
X74856863Y-66102703D01*
X74539700Y-66577371D01*
X74428327Y-67137280D01*
X74539700Y-67697189D01*
X74856863Y-68171857D01*
X75037089Y-68292280D01*
X73727847Y-68292280D01*
X73591440Y-68265147D01*
X73455033Y-68292280D01*
X73051040Y-68372639D01*
X72592911Y-68678751D01*
X72515642Y-68794392D01*
X65509515Y-75800520D01*
X56849525Y-75800520D01*
X56713119Y-75773387D01*
X56576713Y-75800520D01*
X56172720Y-75880879D01*
X55714591Y-76186991D01*
X55637322Y-76302632D01*
X53269912Y-78670043D01*
X53154271Y-78747312D01*
X53077003Y-78862952D01*
X52848159Y-79205441D01*
X52740667Y-79745840D01*
X52767800Y-79882247D01*
X52767801Y-84643313D01*
X45378369Y-92032746D01*
X45257658Y-92082746D01*
X44853986Y-92486418D01*
X44635520Y-93013841D01*
X32917600Y-93013841D01*
X32917600Y-80599280D01*
X44607407Y-80599280D01*
X44718780Y-81159189D01*
X45035943Y-81633857D01*
X45510611Y-81951020D01*
X45929187Y-82034280D01*
X46211853Y-82034280D01*
X46630429Y-81951020D01*
X47105097Y-81633857D01*
X47422260Y-81159189D01*
X47533633Y-80599280D01*
X49260687Y-80599280D01*
X49372060Y-81159189D01*
X49689223Y-81633857D01*
X50163891Y-81951020D01*
X50582467Y-82034280D01*
X50865133Y-82034280D01*
X51283709Y-81951020D01*
X51758377Y-81633857D01*
X52075540Y-81159189D01*
X52186913Y-80599280D01*
X52075540Y-80039371D01*
X51758377Y-79564703D01*
X51283709Y-79247540D01*
X50865133Y-79164280D01*
X50582467Y-79164280D01*
X50163891Y-79247540D01*
X49689223Y-79564703D01*
X49372060Y-80039371D01*
X49260687Y-80599280D01*
X47533633Y-80599280D01*
X47422260Y-80039371D01*
X47105097Y-79564703D01*
X46630429Y-79247540D01*
X46211853Y-79164280D01*
X45929187Y-79164280D01*
X45510611Y-79247540D01*
X45035943Y-79564703D01*
X44718780Y-80039371D01*
X44607407Y-80599280D01*
X32917600Y-80599280D01*
X32917600Y-75268181D01*
X32923480Y-75268181D01*
X32923480Y-76329179D01*
X33329506Y-77309414D01*
X34079746Y-78059654D01*
X35059981Y-78465680D01*
X36120979Y-78465680D01*
X37101214Y-78059654D01*
X37851454Y-77309414D01*
X38257480Y-76329179D01*
X38257480Y-75854560D01*
X39319127Y-75854560D01*
X39430500Y-76414469D01*
X39747663Y-76889137D01*
X40222331Y-77206300D01*
X40640907Y-77289560D01*
X40923573Y-77289560D01*
X41342149Y-77206300D01*
X41816817Y-76889137D01*
X42133980Y-76414469D01*
X42245353Y-75854560D01*
X42133980Y-75294651D01*
X41816817Y-74819983D01*
X41342149Y-74502820D01*
X40923573Y-74419560D01*
X40640907Y-74419560D01*
X40222331Y-74502820D01*
X39747663Y-74819983D01*
X39430500Y-75294651D01*
X39319127Y-75854560D01*
X38257480Y-75854560D01*
X38257480Y-75268181D01*
X37851454Y-74287946D01*
X37101214Y-73537706D01*
X36120979Y-73131680D01*
X35059981Y-73131680D01*
X34079746Y-73537706D01*
X33329506Y-74287946D01*
X32923480Y-75268181D01*
X32917600Y-75268181D01*
X32917600Y-62869121D01*
X39347240Y-62869121D01*
X39347240Y-63439999D01*
X39565706Y-63967422D01*
X39969378Y-64371094D01*
X40496801Y-64589560D01*
X41067679Y-64589560D01*
X41595102Y-64371094D01*
X41998774Y-63967422D01*
X42217240Y-63439999D01*
X42217240Y-62869121D01*
X42210928Y-62853881D01*
X43538240Y-62853881D01*
X43538240Y-63424759D01*
X43756706Y-63952182D01*
X44160378Y-64355854D01*
X44687801Y-64574320D01*
X45258679Y-64574320D01*
X45786102Y-64355854D01*
X46189774Y-63952182D01*
X46408240Y-63424759D01*
X46408240Y-63139320D01*
X56210127Y-63139320D01*
X56321500Y-63699229D01*
X56638663Y-64173897D01*
X57113331Y-64491060D01*
X57531907Y-64574320D01*
X57814573Y-64574320D01*
X58233149Y-64491060D01*
X58707817Y-64173897D01*
X59024980Y-63699229D01*
X59136353Y-63139320D01*
X59024980Y-62579411D01*
X58707817Y-62104743D01*
X58233149Y-61787580D01*
X57814573Y-61704320D01*
X57531907Y-61704320D01*
X57113331Y-61787580D01*
X56638663Y-62104743D01*
X56321500Y-62579411D01*
X56210127Y-63139320D01*
X46408240Y-63139320D01*
X46408240Y-62853881D01*
X46189774Y-62326458D01*
X45786102Y-61922786D01*
X45258679Y-61704320D01*
X44687801Y-61704320D01*
X44160378Y-61922786D01*
X43756706Y-62326458D01*
X43538240Y-62853881D01*
X42210928Y-62853881D01*
X41998774Y-62341698D01*
X41595102Y-61938026D01*
X41067679Y-61719560D01*
X40496801Y-61719560D01*
X39969378Y-61938026D01*
X39565706Y-62341698D01*
X39347240Y-62869121D01*
X32917600Y-62869121D01*
X32917600Y-59405520D01*
X39319127Y-59405520D01*
X39430500Y-59965429D01*
X39747663Y-60440097D01*
X40222331Y-60757260D01*
X40640907Y-60840520D01*
X40923573Y-60840520D01*
X41342149Y-60757260D01*
X41816817Y-60440097D01*
X42133980Y-59965429D01*
X42153622Y-59866680D01*
X64461800Y-59866680D01*
X64461800Y-62266680D01*
X64511083Y-62514445D01*
X64651431Y-62724489D01*
X64861475Y-62864837D01*
X65109240Y-62914120D01*
X67509240Y-62914120D01*
X67757005Y-62864837D01*
X67967049Y-62724489D01*
X68107397Y-62514445D01*
X68156680Y-62266680D01*
X68156680Y-59866680D01*
X68107397Y-59618915D01*
X67967049Y-59408871D01*
X67757005Y-59268523D01*
X67509240Y-59219240D01*
X65109240Y-59219240D01*
X64861475Y-59268523D01*
X64651431Y-59408871D01*
X64511083Y-59618915D01*
X64461800Y-59866680D01*
X42153622Y-59866680D01*
X42245353Y-59405520D01*
X42133980Y-58845611D01*
X41816817Y-58370943D01*
X41342149Y-58053780D01*
X40923573Y-57970520D01*
X40640907Y-57970520D01*
X40222331Y-58053780D01*
X39747663Y-58370943D01*
X39430500Y-58845611D01*
X39319127Y-59405520D01*
X32917600Y-59405520D01*
X32917600Y-55806160D01*
X43241040Y-55806160D01*
X43241040Y-58006160D01*
X43290323Y-58253925D01*
X43430671Y-58463969D01*
X43640715Y-58604317D01*
X43888480Y-58653600D01*
X46088480Y-58653600D01*
X46336245Y-58604317D01*
X46546289Y-58463969D01*
X46686637Y-58253925D01*
X46735920Y-58006160D01*
X46735920Y-55996000D01*
X48617560Y-55996000D01*
X48617560Y-57796000D01*
X48666843Y-58043765D01*
X48807191Y-58253809D01*
X49017235Y-58394157D01*
X49265000Y-58443440D01*
X51065000Y-58443440D01*
X51312765Y-58394157D01*
X51522809Y-58253809D01*
X51662129Y-58045304D01*
X52106073Y-58341938D01*
X52553818Y-58431000D01*
X52856182Y-58431000D01*
X53303927Y-58341938D01*
X53811673Y-58002673D01*
X53975000Y-57758237D01*
X54138327Y-58002673D01*
X54646073Y-58341938D01*
X55093818Y-58431000D01*
X55396182Y-58431000D01*
X55843927Y-58341938D01*
X56351673Y-58002673D01*
X56690938Y-57494927D01*
X56810072Y-56896000D01*
X56690938Y-56297073D01*
X56351673Y-55789327D01*
X56220494Y-55701676D01*
X64474240Y-55701676D01*
X64474240Y-56431684D01*
X64753602Y-57106124D01*
X65269796Y-57622318D01*
X65944236Y-57901680D01*
X66674244Y-57901680D01*
X67348684Y-57622318D01*
X67864878Y-57106124D01*
X68144240Y-56431684D01*
X68144240Y-56332120D01*
X74537690Y-56332120D01*
X74672346Y-57009083D01*
X75055815Y-57582985D01*
X75629717Y-57966454D01*
X76135800Y-58067120D01*
X76477560Y-58067120D01*
X76983643Y-57966454D01*
X77557545Y-57582985D01*
X77941014Y-57009083D01*
X78075670Y-56332120D01*
X77941014Y-55655157D01*
X77658350Y-55232120D01*
X84719240Y-55232120D01*
X84719240Y-57432120D01*
X84768523Y-57679885D01*
X84908871Y-57889929D01*
X85118915Y-58030277D01*
X85366680Y-58079560D01*
X87566680Y-58079560D01*
X87814445Y-58030277D01*
X88024489Y-57889929D01*
X88164837Y-57679885D01*
X88214120Y-57432120D01*
X88214120Y-55777441D01*
X89425880Y-55777441D01*
X89425880Y-56348319D01*
X89644346Y-56875742D01*
X90048018Y-57279414D01*
X90575441Y-57497880D01*
X91146319Y-57497880D01*
X91673742Y-57279414D01*
X92077414Y-56875742D01*
X92295880Y-56348319D01*
X92295880Y-56083200D01*
X93629407Y-56083200D01*
X93740780Y-56643109D01*
X94057943Y-57117777D01*
X94532611Y-57434940D01*
X94951187Y-57518200D01*
X95233853Y-57518200D01*
X95652429Y-57434940D01*
X96127097Y-57117777D01*
X96232281Y-56960359D01*
X96232280Y-67893564D01*
X95905382Y-67566666D01*
X95377959Y-67348200D01*
X94807081Y-67348200D01*
X94279658Y-67566666D01*
X93875986Y-67970338D01*
X93657520Y-68497761D01*
X93657520Y-69068639D01*
X93875986Y-69596062D01*
X94279658Y-69999734D01*
X94807081Y-70218200D01*
X95377959Y-70218200D01*
X95905382Y-69999734D01*
X96309054Y-69596062D01*
X96463382Y-69223482D01*
X96618751Y-69456008D01*
X96734392Y-69533277D01*
X96882440Y-69681325D01*
X96959711Y-69796969D01*
X97417840Y-70103081D01*
X97821833Y-70183440D01*
X97958239Y-70210573D01*
X98094645Y-70183440D01*
X99345425Y-70183440D01*
X99458240Y-70205880D01*
X100978240Y-70205880D01*
X101226005Y-70156597D01*
X101436049Y-70016249D01*
X101576397Y-69806205D01*
X101625680Y-69558440D01*
X101625680Y-68822033D01*
X101630373Y-68798440D01*
X101625680Y-68774847D01*
X101625680Y-68038440D01*
X104144800Y-68038440D01*
X104144800Y-69558440D01*
X104194083Y-69806205D01*
X104334431Y-70016249D01*
X104544475Y-70156597D01*
X104792240Y-70205880D01*
X106312240Y-70205880D01*
X106560005Y-70156597D01*
X106770049Y-70016249D01*
X106910397Y-69806205D01*
X106959680Y-69558440D01*
X106959680Y-68038440D01*
X106910397Y-67790675D01*
X106770049Y-67580631D01*
X106560005Y-67440283D01*
X106379191Y-67404317D01*
X106734864Y-67048644D01*
X106770418Y-66962808D01*
X110965840Y-66962808D01*
X110965840Y-67931512D01*
X111336547Y-68826476D01*
X112021524Y-69511453D01*
X112916488Y-69882160D01*
X113885192Y-69882160D01*
X114780156Y-69511453D01*
X115465133Y-68826476D01*
X115835840Y-67931512D01*
X115835840Y-66962808D01*
X123665840Y-66962808D01*
X123665840Y-67931512D01*
X124036547Y-68826476D01*
X124721524Y-69511453D01*
X125616488Y-69882160D01*
X126585192Y-69882160D01*
X127480156Y-69511453D01*
X128165133Y-68826476D01*
X128535840Y-67931512D01*
X128535840Y-66962808D01*
X128165133Y-66067844D01*
X127480156Y-65382867D01*
X126585192Y-65012160D01*
X125616488Y-65012160D01*
X124721524Y-65382867D01*
X124036547Y-66067844D01*
X123665840Y-66962808D01*
X115835840Y-66962808D01*
X115465133Y-66067844D01*
X114780156Y-65382867D01*
X113885192Y-65012160D01*
X112916488Y-65012160D01*
X112021524Y-65382867D01*
X111336547Y-66067844D01*
X110965840Y-66962808D01*
X106770418Y-66962808D01*
X106947240Y-66535923D01*
X106947240Y-65980957D01*
X106734864Y-65468236D01*
X106342444Y-65075816D01*
X106131500Y-64988440D01*
X106342444Y-64901064D01*
X106734864Y-64508644D01*
X106947240Y-63995923D01*
X106947240Y-63440957D01*
X106734864Y-62928236D01*
X106342444Y-62535816D01*
X105829723Y-62323440D01*
X105274757Y-62323440D01*
X104762036Y-62535816D01*
X104369616Y-62928236D01*
X104157240Y-63440957D01*
X104157240Y-63995923D01*
X104369616Y-64508644D01*
X104762036Y-64901064D01*
X104972980Y-64988440D01*
X104762036Y-65075816D01*
X104369616Y-65468236D01*
X104157240Y-65980957D01*
X104157240Y-66535923D01*
X104369616Y-67048644D01*
X104725289Y-67404317D01*
X104544475Y-67440283D01*
X104334431Y-67580631D01*
X104194083Y-67790675D01*
X104144800Y-68038440D01*
X101625680Y-68038440D01*
X101576397Y-67790675D01*
X101436049Y-67580631D01*
X101226005Y-67440283D01*
X101045191Y-67404317D01*
X101400864Y-67048644D01*
X101613240Y-66535923D01*
X101613240Y-65980957D01*
X101400864Y-65468236D01*
X101008444Y-65075816D01*
X100797500Y-64988440D01*
X101008444Y-64901064D01*
X101400864Y-64508644D01*
X101613240Y-63995923D01*
X101613240Y-63440957D01*
X101400864Y-62928236D01*
X101008444Y-62535816D01*
X100495723Y-62323440D01*
X99940757Y-62323440D01*
X99428036Y-62535816D01*
X99035616Y-62928236D01*
X99002280Y-63008716D01*
X99002280Y-54410760D01*
X99523960Y-54410760D01*
X99523960Y-56810760D01*
X99573243Y-57058525D01*
X99713591Y-57268569D01*
X99923635Y-57408917D01*
X100171400Y-57458200D01*
X102571400Y-57458200D01*
X102819165Y-57408917D01*
X103029209Y-57268569D01*
X103169557Y-57058525D01*
X103218840Y-56810760D01*
X103218840Y-55245756D01*
X104536400Y-55245756D01*
X104536400Y-55975764D01*
X104815762Y-56650204D01*
X105331956Y-57166398D01*
X106006396Y-57445760D01*
X106736404Y-57445760D01*
X107410844Y-57166398D01*
X107927038Y-56650204D01*
X108206400Y-55975764D01*
X108206400Y-55245756D01*
X107927038Y-54571316D01*
X107410844Y-54055122D01*
X106736404Y-53775760D01*
X106006396Y-53775760D01*
X105331956Y-54055122D01*
X104815762Y-54571316D01*
X104536400Y-55245756D01*
X103218840Y-55245756D01*
X103218840Y-54410760D01*
X103169557Y-54162995D01*
X103029209Y-53952951D01*
X102819165Y-53812603D01*
X102571400Y-53763320D01*
X100171400Y-53763320D01*
X99923635Y-53812603D01*
X99713591Y-53952951D01*
X99573243Y-54162995D01*
X99523960Y-54410760D01*
X99002280Y-54410760D01*
X99002280Y-47418605D01*
X99741724Y-46679161D01*
X104650640Y-46679161D01*
X104650640Y-47250039D01*
X104869106Y-47777462D01*
X105272778Y-48181134D01*
X105800201Y-48399600D01*
X106371079Y-48399600D01*
X106898502Y-48181134D01*
X107302174Y-47777462D01*
X107520640Y-47250039D01*
X107520640Y-46679161D01*
X107302174Y-46151738D01*
X106898502Y-45748066D01*
X106371079Y-45529600D01*
X105800201Y-45529600D01*
X105272778Y-45748066D01*
X104869106Y-46151738D01*
X104650640Y-46679161D01*
X99741724Y-46679161D01*
X101065567Y-45355318D01*
X101181208Y-45278049D01*
X101487321Y-44819920D01*
X101567680Y-44415927D01*
X101567680Y-44415923D01*
X101594812Y-44279521D01*
X101567680Y-44143119D01*
X101567680Y-43196635D01*
X101679809Y-43028824D01*
X102123753Y-43325458D01*
X102571498Y-43414520D01*
X102873862Y-43414520D01*
X103321607Y-43325458D01*
X103829353Y-42986193D01*
X103992680Y-42741757D01*
X104156007Y-42986193D01*
X104663753Y-43325458D01*
X105111498Y-43414520D01*
X105413862Y-43414520D01*
X105861607Y-43325458D01*
X106369353Y-42986193D01*
X106708618Y-42478447D01*
X106827752Y-41879520D01*
X106771166Y-41595040D01*
X109923174Y-41595040D01*
X110096636Y-42467094D01*
X110590615Y-43206385D01*
X111329906Y-43700364D01*
X111981832Y-43830040D01*
X112422088Y-43830040D01*
X113074014Y-43700364D01*
X113813305Y-43206385D01*
X114307284Y-42467094D01*
X114480746Y-41595040D01*
X114307284Y-40722986D01*
X113813305Y-39983695D01*
X113074014Y-39489716D01*
X112422088Y-39360040D01*
X111981832Y-39360040D01*
X111329906Y-39489716D01*
X110590615Y-39983695D01*
X110096636Y-40722986D01*
X109923174Y-41595040D01*
X106771166Y-41595040D01*
X106708618Y-41280593D01*
X106369353Y-40772847D01*
X105861607Y-40433582D01*
X105413862Y-40344520D01*
X105111498Y-40344520D01*
X104663753Y-40433582D01*
X104156007Y-40772847D01*
X103992680Y-41017283D01*
X103829353Y-40772847D01*
X103321607Y-40433582D01*
X102873862Y-40344520D01*
X102571498Y-40344520D01*
X102123753Y-40433582D01*
X101679809Y-40730216D01*
X101540489Y-40521711D01*
X101330445Y-40381363D01*
X101082680Y-40332080D01*
X99282680Y-40332080D01*
X99034915Y-40381363D01*
X98824871Y-40521711D01*
X98684523Y-40731755D01*
X98635240Y-40979520D01*
X98635240Y-42779520D01*
X98684523Y-43027285D01*
X98797680Y-43196636D01*
X98797680Y-43705835D01*
X96734393Y-45769122D01*
X96618752Y-45846391D01*
X96541483Y-45962032D01*
X96312639Y-46304521D01*
X96205147Y-46844920D01*
X96232281Y-46981332D01*
X96232281Y-55206041D01*
X96127097Y-55048623D01*
X95652429Y-54731460D01*
X95233853Y-54648200D01*
X94951187Y-54648200D01*
X94532611Y-54731460D01*
X94057943Y-55048623D01*
X93740780Y-55523291D01*
X93629407Y-56083200D01*
X92295880Y-56083200D01*
X92295880Y-55777441D01*
X92077414Y-55250018D01*
X91673742Y-54846346D01*
X91146319Y-54627880D01*
X90575441Y-54627880D01*
X90048018Y-54846346D01*
X89644346Y-55250018D01*
X89425880Y-55777441D01*
X88214120Y-55777441D01*
X88214120Y-55232120D01*
X88164837Y-54984355D01*
X88024489Y-54774311D01*
X87814445Y-54633963D01*
X87566680Y-54584680D01*
X85366680Y-54584680D01*
X85118915Y-54633963D01*
X84908871Y-54774311D01*
X84768523Y-54984355D01*
X84719240Y-55232120D01*
X77658350Y-55232120D01*
X77557545Y-55081255D01*
X76983643Y-54697786D01*
X76477560Y-54597120D01*
X76135800Y-54597120D01*
X75629717Y-54697786D01*
X75055815Y-55081255D01*
X74672346Y-55655157D01*
X74537690Y-56332120D01*
X68144240Y-56332120D01*
X68144240Y-55701676D01*
X67864878Y-55027236D01*
X67348684Y-54511042D01*
X66674244Y-54231680D01*
X65944236Y-54231680D01*
X65269796Y-54511042D01*
X64753602Y-55027236D01*
X64474240Y-55701676D01*
X56220494Y-55701676D01*
X55843927Y-55450062D01*
X55396182Y-55361000D01*
X55093818Y-55361000D01*
X54646073Y-55450062D01*
X54138327Y-55789327D01*
X53975000Y-56033763D01*
X53811673Y-55789327D01*
X53303927Y-55450062D01*
X52856182Y-55361000D01*
X52553818Y-55361000D01*
X52106073Y-55450062D01*
X51662129Y-55746696D01*
X51522809Y-55538191D01*
X51312765Y-55397843D01*
X51065000Y-55348560D01*
X49265000Y-55348560D01*
X49017235Y-55397843D01*
X48807191Y-55538191D01*
X48666843Y-55748235D01*
X48617560Y-55996000D01*
X46735920Y-55996000D01*
X46735920Y-55806160D01*
X46686637Y-55558395D01*
X46546289Y-55348351D01*
X46336245Y-55208003D01*
X46088480Y-55158720D01*
X43888480Y-55158720D01*
X43640715Y-55208003D01*
X43430671Y-55348351D01*
X43290323Y-55558395D01*
X43241040Y-55806160D01*
X32917600Y-55806160D01*
X32917600Y-52135081D01*
X74856440Y-52135081D01*
X74856440Y-52705959D01*
X75074906Y-53233382D01*
X75478578Y-53637054D01*
X76006001Y-53855520D01*
X76576879Y-53855520D01*
X77104302Y-53637054D01*
X77507974Y-53233382D01*
X77726440Y-52705959D01*
X77726440Y-52135081D01*
X79856440Y-52135081D01*
X79856440Y-52705959D01*
X80074906Y-53233382D01*
X80478578Y-53637054D01*
X81006001Y-53855520D01*
X81576879Y-53855520D01*
X82104302Y-53637054D01*
X82507974Y-53233382D01*
X82726440Y-52705959D01*
X82726440Y-52135081D01*
X82517245Y-51630040D01*
X86888040Y-51630040D01*
X86888040Y-53150040D01*
X86937323Y-53397805D01*
X87077671Y-53607849D01*
X87287715Y-53748197D01*
X87535480Y-53797480D01*
X89055480Y-53797480D01*
X89303245Y-53748197D01*
X89513289Y-53607849D01*
X89653637Y-53397805D01*
X89689603Y-53216991D01*
X90045276Y-53572664D01*
X90557997Y-53785040D01*
X91112963Y-53785040D01*
X91625684Y-53572664D01*
X92018104Y-53180244D01*
X92105480Y-52969300D01*
X92192856Y-53180244D01*
X92585276Y-53572664D01*
X93097997Y-53785040D01*
X93652963Y-53785040D01*
X94165684Y-53572664D01*
X94558104Y-53180244D01*
X94770480Y-52667523D01*
X94770480Y-52112557D01*
X94558104Y-51599836D01*
X94165684Y-51207416D01*
X93652963Y-50995040D01*
X93097997Y-50995040D01*
X92585276Y-51207416D01*
X92192856Y-51599836D01*
X92105480Y-51810780D01*
X92018104Y-51599836D01*
X91625684Y-51207416D01*
X91112963Y-50995040D01*
X90557997Y-50995040D01*
X90045276Y-51207416D01*
X89689603Y-51563089D01*
X89653637Y-51382275D01*
X89513289Y-51172231D01*
X89303245Y-51031883D01*
X89055480Y-50982600D01*
X87535480Y-50982600D01*
X87287715Y-51031883D01*
X87077671Y-51172231D01*
X86937323Y-51382275D01*
X86888040Y-51630040D01*
X82517245Y-51630040D01*
X82507974Y-51607658D01*
X82104302Y-51203986D01*
X81576879Y-50985520D01*
X81006001Y-50985520D01*
X80478578Y-51203986D01*
X80074906Y-51607658D01*
X79856440Y-52135081D01*
X77726440Y-52135081D01*
X77507974Y-51607658D01*
X77104302Y-51203986D01*
X76576879Y-50985520D01*
X76006001Y-50985520D01*
X75478578Y-51203986D01*
X75074906Y-51607658D01*
X74856440Y-52135081D01*
X32917600Y-52135081D01*
X32917600Y-46420081D01*
X39347240Y-46420081D01*
X39347240Y-46990959D01*
X39565706Y-47518382D01*
X39969378Y-47922054D01*
X40496801Y-48140520D01*
X41067679Y-48140520D01*
X41595102Y-47922054D01*
X41998774Y-47518382D01*
X42217240Y-46990959D01*
X42217240Y-46746160D01*
X43219490Y-46746160D01*
X43354146Y-47423123D01*
X43737615Y-47997025D01*
X44311517Y-48380494D01*
X44817600Y-48481160D01*
X45159360Y-48481160D01*
X45665443Y-48380494D01*
X46239345Y-47997025D01*
X46622814Y-47423123D01*
X46698457Y-47042836D01*
X64474240Y-47042836D01*
X64474240Y-47772844D01*
X64753602Y-48447284D01*
X65269796Y-48963478D01*
X65944236Y-49242840D01*
X66674244Y-49242840D01*
X67348684Y-48963478D01*
X67864878Y-48447284D01*
X68144240Y-47772844D01*
X68144240Y-47042836D01*
X68111834Y-46964600D01*
X91922527Y-46964600D01*
X92033900Y-47524509D01*
X92351063Y-47999177D01*
X92825731Y-48316340D01*
X93244307Y-48399600D01*
X93526973Y-48399600D01*
X93945549Y-48316340D01*
X94420217Y-47999177D01*
X94737380Y-47524509D01*
X94848753Y-46964600D01*
X94737380Y-46404691D01*
X94420217Y-45930023D01*
X93945549Y-45612860D01*
X93526973Y-45529600D01*
X93244307Y-45529600D01*
X92825731Y-45612860D01*
X92351063Y-45930023D01*
X92033900Y-46404691D01*
X91922527Y-46964600D01*
X68111834Y-46964600D01*
X67864878Y-46368396D01*
X67348684Y-45852202D01*
X66674244Y-45572840D01*
X65944236Y-45572840D01*
X65269796Y-45852202D01*
X64753602Y-46368396D01*
X64474240Y-47042836D01*
X46698457Y-47042836D01*
X46757470Y-46746160D01*
X46622814Y-46069197D01*
X46239345Y-45495295D01*
X45665443Y-45111826D01*
X45159360Y-45011160D01*
X44817600Y-45011160D01*
X44311517Y-45111826D01*
X43737615Y-45495295D01*
X43354146Y-46069197D01*
X43219490Y-46746160D01*
X42217240Y-46746160D01*
X42217240Y-46420081D01*
X41998774Y-45892658D01*
X41595102Y-45488986D01*
X41067679Y-45270520D01*
X40496801Y-45270520D01*
X39969378Y-45488986D01*
X39565706Y-45892658D01*
X39347240Y-46420081D01*
X32917600Y-46420081D01*
X32917600Y-41100101D01*
X32999680Y-41100101D01*
X32999680Y-42161099D01*
X33405706Y-43141334D01*
X34155946Y-43891574D01*
X35136181Y-44297600D01*
X36197179Y-44297600D01*
X37177414Y-43891574D01*
X37927654Y-43141334D01*
X38333680Y-42161099D01*
X38333680Y-41600120D01*
X38437414Y-41600120D01*
X38610876Y-42472174D01*
X39104855Y-43211465D01*
X39844146Y-43705444D01*
X40496072Y-43835120D01*
X40936328Y-43835120D01*
X41588254Y-43705444D01*
X42327545Y-43211465D01*
X42821524Y-42472174D01*
X42994986Y-41600120D01*
X42821524Y-40728066D01*
X42335126Y-40000120D01*
X53708760Y-40000120D01*
X53708760Y-43200120D01*
X53758043Y-43447885D01*
X53898391Y-43657929D01*
X54108435Y-43798277D01*
X54356200Y-43847560D01*
X57556200Y-43847560D01*
X57803965Y-43798277D01*
X58014009Y-43657929D01*
X58154357Y-43447885D01*
X58203640Y-43200120D01*
X58203640Y-41207840D01*
X64461800Y-41207840D01*
X64461800Y-43607840D01*
X64511083Y-43855605D01*
X64651431Y-44065649D01*
X64861475Y-44205997D01*
X65109240Y-44255280D01*
X67509240Y-44255280D01*
X67757005Y-44205997D01*
X67967049Y-44065649D01*
X68107397Y-43855605D01*
X68156680Y-43607840D01*
X68156680Y-41207840D01*
X68107397Y-40960075D01*
X67967049Y-40750031D01*
X67757005Y-40609683D01*
X67509240Y-40560400D01*
X65109240Y-40560400D01*
X64861475Y-40609683D01*
X64651431Y-40750031D01*
X64511083Y-40960075D01*
X64461800Y-41207840D01*
X58203640Y-41207840D01*
X58203640Y-40000120D01*
X58154357Y-39752355D01*
X58014009Y-39542311D01*
X57803965Y-39401963D01*
X57556200Y-39352680D01*
X54356200Y-39352680D01*
X54108435Y-39401963D01*
X53898391Y-39542311D01*
X53758043Y-39752355D01*
X53708760Y-40000120D01*
X42335126Y-40000120D01*
X42327545Y-39988775D01*
X41588254Y-39494796D01*
X40936328Y-39365120D01*
X40496072Y-39365120D01*
X39844146Y-39494796D01*
X39104855Y-39988775D01*
X38610876Y-40728066D01*
X38437414Y-41600120D01*
X38333680Y-41600120D01*
X38333680Y-41100101D01*
X37927654Y-40119866D01*
X37177414Y-39369626D01*
X36197179Y-38963600D01*
X35136181Y-38963600D01*
X34155946Y-39369626D01*
X33405706Y-40119866D01*
X32999680Y-41100101D01*
X32917600Y-41100101D01*
X32917600Y-36956200D01*
X129098841Y-36956200D01*
X129098841Y-39358914D01*
X129098841Y-39358914D01*
G37*
X129098841Y-39358914D02*
X129041960Y-39347600D01*
X125841960Y-39347600D01*
X125594195Y-39396883D01*
X125384151Y-39537231D01*
X125243803Y-39747275D01*
X125194520Y-39995040D01*
X125194520Y-43195040D01*
X125243803Y-43442805D01*
X125384151Y-43652849D01*
X125594195Y-43793197D01*
X125841960Y-43842480D01*
X129041960Y-43842480D01*
X129098841Y-43831166D01*
X129098840Y-88220347D01*
X129006400Y-88201960D01*
X125806400Y-88201960D01*
X125558635Y-88251243D01*
X125348591Y-88391591D01*
X125208243Y-88601635D01*
X125158960Y-88849400D01*
X125158960Y-92049400D01*
X125208243Y-92297165D01*
X125348591Y-92507209D01*
X125558635Y-92647557D01*
X125806400Y-92696840D01*
X129006400Y-92696840D01*
X129098840Y-92678453D01*
X129098840Y-112411040D01*
X32917600Y-112411040D01*
X32917600Y-108371640D01*
X81828208Y-108371640D01*
X81947342Y-108970567D01*
X82286607Y-109478313D01*
X82794353Y-109817578D01*
X83242098Y-109906640D01*
X83544462Y-109906640D01*
X83992207Y-109817578D01*
X84499953Y-109478313D01*
X84663280Y-109233877D01*
X84826607Y-109478313D01*
X85334353Y-109817578D01*
X85782098Y-109906640D01*
X86084462Y-109906640D01*
X86532207Y-109817578D01*
X86976151Y-109520944D01*
X87115471Y-109729449D01*
X87325515Y-109869797D01*
X87573280Y-109919080D01*
X89373280Y-109919080D01*
X89621045Y-109869797D01*
X89831089Y-109729449D01*
X89971437Y-109519405D01*
X90020720Y-109271640D01*
X90020720Y-107673501D01*
X122123200Y-107673501D01*
X122123200Y-108734499D01*
X122529226Y-109714734D01*
X123279466Y-110464974D01*
X124259701Y-110871000D01*
X125320699Y-110871000D01*
X126300934Y-110464974D01*
X127051174Y-109714734D01*
X127457200Y-108734499D01*
X127457200Y-107673501D01*
X127051174Y-106693266D01*
X126300934Y-105943026D01*
X125320699Y-105537000D01*
X124259701Y-105537000D01*
X123279466Y-105943026D01*
X122529226Y-106693266D01*
X122123200Y-107673501D01*
X90020720Y-107673501D01*
X90020720Y-107471640D01*
X89971437Y-107223875D01*
X89883680Y-107092538D01*
X89883680Y-103009196D01*
X103681680Y-103009196D01*
X103681680Y-103739204D01*
X103961042Y-104413644D01*
X104477236Y-104929838D01*
X105151676Y-105209200D01*
X105881684Y-105209200D01*
X106556124Y-104929838D01*
X107072318Y-104413644D01*
X107351680Y-103739204D01*
X107351680Y-103009196D01*
X107072318Y-102334756D01*
X106556124Y-101818562D01*
X105881684Y-101539200D01*
X105151676Y-101539200D01*
X104477236Y-101818562D01*
X103961042Y-102334756D01*
X103681680Y-103009196D01*
X89883680Y-103009196D01*
X89883680Y-98764520D01*
X92026160Y-98764520D01*
X92026160Y-100564520D01*
X92075443Y-100812285D01*
X92215791Y-101022329D01*
X92425835Y-101162677D01*
X92673600Y-101211960D01*
X94473600Y-101211960D01*
X94721365Y-101162677D01*
X94931409Y-101022329D01*
X95071757Y-100812285D01*
X95121040Y-100564520D01*
X95121040Y-98764520D01*
X95071757Y-98516755D01*
X94976505Y-98374200D01*
X103339853Y-98374200D01*
X103505554Y-99207236D01*
X103669240Y-99452209D01*
X103669240Y-99574200D01*
X103718523Y-99821965D01*
X103858871Y-100032009D01*
X104068915Y-100172357D01*
X104316680Y-100221640D01*
X104438671Y-100221640D01*
X104683644Y-100385326D01*
X105306401Y-100509200D01*
X122505842Y-100509200D01*
X122529226Y-100565654D01*
X123279466Y-101315894D01*
X124259701Y-101721920D01*
X125320699Y-101721920D01*
X126300934Y-101315894D01*
X127051174Y-100565654D01*
X127457200Y-99585419D01*
X127457200Y-98524421D01*
X127051174Y-97544186D01*
X126300934Y-96793946D01*
X125320699Y-96387920D01*
X124979701Y-96387920D01*
X124942516Y-96363074D01*
X124319759Y-96239200D01*
X124319755Y-96239200D01*
X124109480Y-96197374D01*
X123899205Y-96239200D01*
X105306401Y-96239200D01*
X104683644Y-96363074D01*
X104438671Y-96526760D01*
X104316680Y-96526760D01*
X104068915Y-96576043D01*
X103858871Y-96716391D01*
X103718523Y-96926435D01*
X103669240Y-97174200D01*
X103669240Y-97296191D01*
X103505554Y-97541164D01*
X103339853Y-98374200D01*
X94976505Y-98374200D01*
X94931409Y-98306711D01*
X94721365Y-98166363D01*
X94705692Y-98163245D01*
X94874910Y-97994027D01*
X95108600Y-97429850D01*
X95108600Y-96819190D01*
X94874910Y-96255013D01*
X94443107Y-95823210D01*
X93878930Y-95589520D01*
X93268270Y-95589520D01*
X92704093Y-95823210D01*
X92272290Y-96255013D01*
X92038600Y-96819190D01*
X92038600Y-97429850D01*
X92272290Y-97994027D01*
X92441508Y-98163245D01*
X92425835Y-98166363D01*
X92215791Y-98306711D01*
X92075443Y-98516755D01*
X92026160Y-98764520D01*
X89883680Y-98764520D01*
X89883680Y-92922520D01*
X92026160Y-92922520D01*
X92026160Y-94722520D01*
X92075443Y-94970285D01*
X92215791Y-95180329D01*
X92425835Y-95320677D01*
X92673600Y-95369960D01*
X94473600Y-95369960D01*
X94721365Y-95320677D01*
X94931409Y-95180329D01*
X95071757Y-94970285D01*
X95121040Y-94722520D01*
X95121040Y-92922520D01*
X95071757Y-92674755D01*
X94931409Y-92464711D01*
X94721365Y-92324363D01*
X94705692Y-92321245D01*
X94874910Y-92152027D01*
X95108600Y-91587850D01*
X95108600Y-90977190D01*
X94889983Y-90449400D01*
X109887614Y-90449400D01*
X110061076Y-91321454D01*
X110555055Y-92060745D01*
X111294346Y-92554724D01*
X111946272Y-92684400D01*
X112386528Y-92684400D01*
X113038454Y-92554724D01*
X113777745Y-92060745D01*
X114271724Y-91321454D01*
X114445186Y-90449400D01*
X114271724Y-89577346D01*
X113777745Y-88838055D01*
X113038454Y-88344076D01*
X112386528Y-88214400D01*
X111946272Y-88214400D01*
X111294346Y-88344076D01*
X110555055Y-88838055D01*
X110061076Y-89577346D01*
X109887614Y-90449400D01*
X94889983Y-90449400D01*
X94874910Y-90413013D01*
X94443107Y-89981210D01*
X93878930Y-89747520D01*
X93268270Y-89747520D01*
X92704093Y-89981210D01*
X92272290Y-90413013D01*
X92038600Y-90977190D01*
X92038600Y-91587850D01*
X92272290Y-92152027D01*
X92441508Y-92321245D01*
X92425835Y-92324363D01*
X92215791Y-92464711D01*
X92075443Y-92674755D01*
X92026160Y-92922520D01*
X89883680Y-92922520D01*
X89883680Y-89983580D01*
X89961793Y-89590880D01*
X89850420Y-89030971D01*
X89533257Y-88556303D01*
X89058589Y-88239140D01*
X88640013Y-88155880D01*
X88357347Y-88155880D01*
X87938771Y-88239140D01*
X87464103Y-88556303D01*
X87146940Y-89030971D01*
X87035567Y-89590880D01*
X87113680Y-89983580D01*
X87113681Y-107016510D01*
X86976151Y-107222336D01*
X86532207Y-106925702D01*
X86084462Y-106836640D01*
X85782098Y-106836640D01*
X85334353Y-106925702D01*
X84826607Y-107264967D01*
X84663280Y-107509403D01*
X84499953Y-107264967D01*
X83992207Y-106925702D01*
X83544462Y-106836640D01*
X83242098Y-106836640D01*
X82794353Y-106925702D01*
X82286607Y-107264967D01*
X81947342Y-107772713D01*
X81828208Y-108371640D01*
X32917600Y-108371640D01*
X32917600Y-106014520D01*
X66680007Y-106014520D01*
X66791380Y-106574429D01*
X67108543Y-107049097D01*
X67583211Y-107366260D01*
X68001787Y-107449520D01*
X68284453Y-107449520D01*
X68703029Y-107366260D01*
X69177697Y-107049097D01*
X69494860Y-106574429D01*
X69606233Y-106014520D01*
X69494860Y-105454611D01*
X69177697Y-104979943D01*
X68703029Y-104662780D01*
X68284453Y-104579520D01*
X68001787Y-104579520D01*
X67583211Y-104662780D01*
X67108543Y-104979943D01*
X66791380Y-105454611D01*
X66680007Y-106014520D01*
X32917600Y-106014520D01*
X32917600Y-103835098D01*
X44648880Y-103835098D01*
X44648880Y-104485542D01*
X44897794Y-105086473D01*
X45357727Y-105546406D01*
X45958658Y-105795320D01*
X46609102Y-105795320D01*
X47210033Y-105546406D01*
X47669966Y-105086473D01*
X47918880Y-104485542D01*
X47918880Y-103835098D01*
X49148880Y-103835098D01*
X49148880Y-104485542D01*
X49397794Y-105086473D01*
X49857727Y-105546406D01*
X50458658Y-105795320D01*
X51109102Y-105795320D01*
X51710033Y-105546406D01*
X52169966Y-105086473D01*
X52418880Y-104485542D01*
X52418880Y-103835098D01*
X52178695Y-103255240D01*
X55389200Y-103255240D01*
X55389200Y-105055240D01*
X55438483Y-105303005D01*
X55578831Y-105513049D01*
X55788875Y-105653397D01*
X56036640Y-105702680D01*
X57836640Y-105702680D01*
X58084405Y-105653397D01*
X58294449Y-105513049D01*
X58434797Y-105303005D01*
X58484080Y-105055240D01*
X58484080Y-103255240D01*
X58434797Y-103007475D01*
X58294449Y-102797431D01*
X58084405Y-102657083D01*
X58068732Y-102653965D01*
X58237950Y-102484747D01*
X58343900Y-102228961D01*
X78163520Y-102228961D01*
X78163520Y-102799839D01*
X78381986Y-103327262D01*
X78785658Y-103730934D01*
X79313081Y-103949400D01*
X79883959Y-103949400D01*
X80411382Y-103730934D01*
X80815054Y-103327262D01*
X81033520Y-102799839D01*
X81033520Y-102249281D01*
X82557720Y-102249281D01*
X82557720Y-102820159D01*
X82776186Y-103347582D01*
X83179858Y-103751254D01*
X83707281Y-103969720D01*
X84278159Y-103969720D01*
X84805582Y-103751254D01*
X85209254Y-103347582D01*
X85427720Y-102820159D01*
X85427720Y-102249281D01*
X85209254Y-101721858D01*
X84805582Y-101318186D01*
X84278159Y-101099720D01*
X83707281Y-101099720D01*
X83179858Y-101318186D01*
X82776186Y-101721858D01*
X82557720Y-102249281D01*
X81033520Y-102249281D01*
X81033520Y-102228961D01*
X80815054Y-101701538D01*
X80411382Y-101297866D01*
X79883959Y-101079400D01*
X79313081Y-101079400D01*
X78785658Y-101297866D01*
X78381986Y-101701538D01*
X78163520Y-102228961D01*
X58343900Y-102228961D01*
X58471640Y-101920570D01*
X58471640Y-101309910D01*
X58237950Y-100745733D01*
X57806147Y-100313930D01*
X57241970Y-100080240D01*
X56631310Y-100080240D01*
X56067133Y-100313930D01*
X55635330Y-100745733D01*
X55401640Y-101309910D01*
X55401640Y-101920570D01*
X55635330Y-102484747D01*
X55804548Y-102653965D01*
X55788875Y-102657083D01*
X55578831Y-102797431D01*
X55438483Y-103007475D01*
X55389200Y-103255240D01*
X52178695Y-103255240D01*
X52169966Y-103234167D01*
X51710033Y-102774234D01*
X51109102Y-102525320D01*
X50458658Y-102525320D01*
X49857727Y-102774234D01*
X49397794Y-103234167D01*
X49148880Y-103835098D01*
X47918880Y-103835098D01*
X47669966Y-103234167D01*
X47210033Y-102774234D01*
X46609102Y-102525320D01*
X45958658Y-102525320D01*
X45357727Y-102774234D01*
X44897794Y-103234167D01*
X44648880Y-103835098D01*
X32917600Y-103835098D01*
X32917600Y-97335098D01*
X44648880Y-97335098D01*
X44648880Y-97985542D01*
X44897794Y-98586473D01*
X45357727Y-99046406D01*
X45958658Y-99295320D01*
X46609102Y-99295320D01*
X47210033Y-99046406D01*
X47669966Y-98586473D01*
X47918880Y-97985542D01*
X47918880Y-97335098D01*
X49148880Y-97335098D01*
X49148880Y-97985542D01*
X49397794Y-98586473D01*
X49857727Y-99046406D01*
X50458658Y-99295320D01*
X51109102Y-99295320D01*
X51710033Y-99046406D01*
X52169966Y-98586473D01*
X52418880Y-97985542D01*
X52418880Y-97335098D01*
X52169966Y-96734167D01*
X51710033Y-96274234D01*
X51109102Y-96025320D01*
X50458658Y-96025320D01*
X49857727Y-96274234D01*
X49397794Y-96734167D01*
X49148880Y-97335098D01*
X47918880Y-97335098D01*
X47669966Y-96734167D01*
X47210033Y-96274234D01*
X46609102Y-96025320D01*
X45958658Y-96025320D01*
X45357727Y-96274234D01*
X44897794Y-96734167D01*
X44648880Y-97335098D01*
X32917600Y-97335098D01*
X32917600Y-93013841D01*
X44635520Y-93013841D01*
X44635520Y-93584719D01*
X44853986Y-94112142D01*
X45257658Y-94515814D01*
X45785081Y-94734280D01*
X46355959Y-94734280D01*
X46883382Y-94515814D01*
X47287054Y-94112142D01*
X47337054Y-93991431D01*
X48314644Y-93013841D01*
X49288800Y-93013841D01*
X49288800Y-93584719D01*
X49507266Y-94112142D01*
X49910938Y-94515814D01*
X50438361Y-94734280D01*
X51009239Y-94734280D01*
X51536662Y-94515814D01*
X51940334Y-94112142D01*
X52158800Y-93584719D01*
X52158800Y-93284040D01*
X56804487Y-93284040D01*
X56915860Y-93843949D01*
X57233023Y-94318617D01*
X57707691Y-94635780D01*
X58126267Y-94719040D01*
X58408933Y-94719040D01*
X58827509Y-94635780D01*
X59302177Y-94318617D01*
X59619340Y-93843949D01*
X59730713Y-93284040D01*
X59669894Y-92978281D01*
X61145520Y-92978281D01*
X61145520Y-93549159D01*
X61363986Y-94076582D01*
X61767658Y-94480254D01*
X62295081Y-94698720D01*
X62865959Y-94698720D01*
X63393382Y-94480254D01*
X63797054Y-94076582D01*
X64015520Y-93549159D01*
X64015520Y-93029081D01*
X66708120Y-93029081D01*
X66708120Y-93599959D01*
X66926586Y-94127382D01*
X67330258Y-94531054D01*
X67857681Y-94749520D01*
X68428559Y-94749520D01*
X68790111Y-94599760D01*
X71185967Y-94599760D01*
X71297340Y-95159669D01*
X71614503Y-95634337D01*
X72089171Y-95951500D01*
X72507747Y-96034760D01*
X72790413Y-96034760D01*
X73208989Y-95951500D01*
X73683657Y-95634337D01*
X74000820Y-95159669D01*
X74112193Y-94599760D01*
X74000820Y-94039851D01*
X73683657Y-93565183D01*
X73208989Y-93248020D01*
X72790413Y-93164760D01*
X72507747Y-93164760D01*
X72089171Y-93248020D01*
X71614503Y-93565183D01*
X71297340Y-94039851D01*
X71185967Y-94599760D01*
X68790111Y-94599760D01*
X68955982Y-94531054D01*
X69359654Y-94127382D01*
X69578120Y-93599959D01*
X69578120Y-93029081D01*
X69359654Y-92501658D01*
X68955982Y-92097986D01*
X68428559Y-91879520D01*
X67857681Y-91879520D01*
X67330258Y-92097986D01*
X66926586Y-92501658D01*
X66708120Y-93029081D01*
X64015520Y-93029081D01*
X64015520Y-92978281D01*
X63797054Y-92450858D01*
X63393382Y-92047186D01*
X62865959Y-91828720D01*
X62295081Y-91828720D01*
X61767658Y-92047186D01*
X61363986Y-92450858D01*
X61145520Y-92978281D01*
X59669894Y-92978281D01*
X59652600Y-92891340D01*
X59652600Y-91642845D01*
X61481045Y-89814400D01*
X78135407Y-89814400D01*
X78246780Y-90374309D01*
X78563943Y-90848977D01*
X79038611Y-91166140D01*
X79457187Y-91249400D01*
X79739853Y-91249400D01*
X80158429Y-91166140D01*
X80633097Y-90848977D01*
X80950260Y-90374309D01*
X81057591Y-89834720D01*
X82529607Y-89834720D01*
X82640980Y-90394629D01*
X82958143Y-90869297D01*
X83432811Y-91186460D01*
X83851387Y-91269720D01*
X84134053Y-91269720D01*
X84552629Y-91186460D01*
X85027297Y-90869297D01*
X85344460Y-90394629D01*
X85455833Y-89834720D01*
X85344460Y-89274811D01*
X85027297Y-88800143D01*
X84552629Y-88482980D01*
X84134053Y-88399720D01*
X83851387Y-88399720D01*
X83432811Y-88482980D01*
X82958143Y-88800143D01*
X82640980Y-89274811D01*
X82529607Y-89834720D01*
X81057591Y-89834720D01*
X81061633Y-89814400D01*
X80950260Y-89254491D01*
X80633097Y-88779823D01*
X80158429Y-88462660D01*
X79739853Y-88379400D01*
X79457187Y-88379400D01*
X79038611Y-88462660D01*
X78563943Y-88779823D01*
X78246780Y-89254491D01*
X78135407Y-89814400D01*
X61481045Y-89814400D01*
X69681124Y-81614321D01*
X71214080Y-81614321D01*
X71214080Y-82185199D01*
X71432546Y-82712622D01*
X71836218Y-83116294D01*
X72363641Y-83334760D01*
X72934519Y-83334760D01*
X73461942Y-83116294D01*
X73865614Y-82712622D01*
X74084080Y-82185199D01*
X74084080Y-81614321D01*
X73865614Y-81086898D01*
X73461942Y-80683226D01*
X72934519Y-80464760D01*
X72363641Y-80464760D01*
X71836218Y-80683226D01*
X71432546Y-81086898D01*
X71214080Y-81614321D01*
X69681124Y-81614321D01*
X73034805Y-78260640D01*
X74890024Y-78260640D01*
X74909715Y-78273797D01*
X75043586Y-78300425D01*
X74922903Y-78381063D01*
X74605740Y-78855731D01*
X74494367Y-79415640D01*
X74605740Y-79975549D01*
X74922903Y-80450217D01*
X75275238Y-80685640D01*
X74922903Y-80921063D01*
X74605740Y-81395731D01*
X74494367Y-81955640D01*
X74605740Y-82515549D01*
X74922903Y-82990217D01*
X75275238Y-83225640D01*
X74922903Y-83461063D01*
X74605740Y-83935731D01*
X74494367Y-84495640D01*
X74605740Y-85055549D01*
X74922903Y-85530217D01*
X75397571Y-85847380D01*
X75816147Y-85930640D01*
X76898813Y-85930640D01*
X77317389Y-85847380D01*
X77792057Y-85530217D01*
X78109220Y-85055549D01*
X78220593Y-84495640D01*
X78109220Y-83935731D01*
X77792057Y-83461063D01*
X77439722Y-83225640D01*
X77792057Y-82990217D01*
X78109220Y-82515549D01*
X78220593Y-81955640D01*
X78109220Y-81395731D01*
X77792057Y-80921063D01*
X77439722Y-80685640D01*
X77792057Y-80450217D01*
X78109220Y-79975549D01*
X78220593Y-79415640D01*
X78109220Y-78855731D01*
X77792057Y-78381063D01*
X77671374Y-78300425D01*
X77805245Y-78273797D01*
X78015289Y-78133449D01*
X78155637Y-77923405D01*
X78204920Y-77675640D01*
X78204920Y-77342485D01*
X78671765Y-76875640D01*
X82114367Y-76875640D01*
X82225740Y-77435549D01*
X82542903Y-77910217D01*
X82895238Y-78145640D01*
X82542903Y-78381063D01*
X82225740Y-78855731D01*
X82114367Y-79415640D01*
X82225740Y-79975549D01*
X82542903Y-80450217D01*
X82895238Y-80685640D01*
X82542903Y-80921063D01*
X82225740Y-81395731D01*
X82114367Y-81955640D01*
X82225740Y-82515549D01*
X82542903Y-82990217D01*
X82895238Y-83225640D01*
X82542903Y-83461063D01*
X82225740Y-83935731D01*
X82114367Y-84495640D01*
X82225740Y-85055549D01*
X82542903Y-85530217D01*
X83017571Y-85847380D01*
X83436147Y-85930640D01*
X84518813Y-85930640D01*
X84937389Y-85847380D01*
X85412057Y-85530217D01*
X85729220Y-85055549D01*
X85840593Y-84495640D01*
X85729220Y-83935731D01*
X85412057Y-83461063D01*
X85059722Y-83225640D01*
X85412057Y-82990217D01*
X85729220Y-82515549D01*
X85840593Y-81955640D01*
X85729220Y-81395731D01*
X85412057Y-80921063D01*
X85059722Y-80685640D01*
X85412057Y-80450217D01*
X85729220Y-79975549D01*
X85840593Y-79415640D01*
X85729220Y-78855731D01*
X85412057Y-78381063D01*
X85059722Y-78145640D01*
X85412057Y-77910217D01*
X85729220Y-77435549D01*
X85840593Y-76875640D01*
X85786847Y-76605441D01*
X87063680Y-76605441D01*
X87063680Y-77176319D01*
X87113680Y-77297030D01*
X87113681Y-80158068D01*
X87086547Y-80294480D01*
X87194039Y-80834879D01*
X87338100Y-81050481D01*
X87500152Y-81293009D01*
X87615792Y-81370277D01*
X92271506Y-86025992D01*
X92321506Y-86146702D01*
X92725178Y-86550374D01*
X93252601Y-86768840D01*
X93823479Y-86768840D01*
X94350902Y-86550374D01*
X94754574Y-86146702D01*
X94973040Y-85619279D01*
X94973040Y-85048401D01*
X94754574Y-84520978D01*
X94350902Y-84117306D01*
X94230192Y-84067306D01*
X89883680Y-79720795D01*
X89883680Y-79082396D01*
X100491440Y-79082396D01*
X100491440Y-79812404D01*
X100770802Y-80486844D01*
X101286996Y-81003038D01*
X101961436Y-81282400D01*
X102691444Y-81282400D01*
X103365884Y-81003038D01*
X103882078Y-80486844D01*
X104161440Y-79812404D01*
X104161440Y-79082396D01*
X103882078Y-78407956D01*
X103365884Y-77891762D01*
X102691444Y-77612400D01*
X101961436Y-77612400D01*
X101286996Y-77891762D01*
X100770802Y-78407956D01*
X100491440Y-79082396D01*
X89883680Y-79082396D01*
X89883680Y-77297030D01*
X89933680Y-77176319D01*
X89933680Y-76605441D01*
X89715214Y-76078018D01*
X89311542Y-75674346D01*
X88784119Y-75455880D01*
X88213241Y-75455880D01*
X87685818Y-75674346D01*
X87282146Y-76078018D01*
X87063680Y-76605441D01*
X85786847Y-76605441D01*
X85729220Y-76315731D01*
X85412057Y-75841063D01*
X84937389Y-75523900D01*
X84518813Y-75440640D01*
X83436147Y-75440640D01*
X83017571Y-75523900D01*
X82542903Y-75841063D01*
X82225740Y-76315731D01*
X82114367Y-76875640D01*
X78671765Y-76875640D01*
X84435125Y-71112280D01*
X84452773Y-71112280D01*
X84704140Y-71062280D01*
X86037755Y-71062280D01*
X92210762Y-77235288D01*
X92288031Y-77350929D01*
X92746160Y-77657041D01*
X93150153Y-77737400D01*
X93286559Y-77764533D01*
X93422965Y-77737400D01*
X97585033Y-77737400D01*
X97721440Y-77764533D01*
X97857847Y-77737400D01*
X98261840Y-77657041D01*
X98719969Y-77350929D01*
X98797239Y-77235286D01*
X100200126Y-75832400D01*
X100515798Y-75832400D01*
X100528283Y-75895165D01*
X100668631Y-76105209D01*
X100878675Y-76245557D01*
X101126440Y-76294840D01*
X103526440Y-76294840D01*
X103774205Y-76245557D01*
X103984249Y-76105209D01*
X104124597Y-75895165D01*
X104173880Y-75647400D01*
X104173880Y-73247400D01*
X104124597Y-72999635D01*
X103984249Y-72789591D01*
X103774205Y-72649243D01*
X103526440Y-72599960D01*
X101126440Y-72599960D01*
X100878675Y-72649243D01*
X100668631Y-72789591D01*
X100528283Y-72999635D01*
X100515798Y-73062400D01*
X99762847Y-73062400D01*
X99626440Y-73035267D01*
X99490033Y-73062400D01*
X99086040Y-73142759D01*
X98627911Y-73448871D01*
X98550642Y-73564512D01*
X97147755Y-74967400D01*
X93860246Y-74967400D01*
X92677652Y-73784807D01*
X92978131Y-73985580D01*
X93396707Y-74068840D01*
X93679373Y-74068840D01*
X94097949Y-73985580D01*
X94572617Y-73668417D01*
X94889780Y-73193749D01*
X95001153Y-72633840D01*
X94889780Y-72073931D01*
X94572617Y-71599263D01*
X94097949Y-71282100D01*
X93679373Y-71198840D01*
X93396707Y-71198840D01*
X92978131Y-71282100D01*
X92503463Y-71599263D01*
X92186300Y-72073931D01*
X92074927Y-72633840D01*
X92186300Y-73193749D01*
X92387073Y-73494228D01*
X87687239Y-68794394D01*
X87666183Y-68762880D01*
X89397767Y-68762880D01*
X89509140Y-69322789D01*
X89826303Y-69797457D01*
X90300971Y-70114620D01*
X90719547Y-70197880D01*
X91002213Y-70197880D01*
X91420789Y-70114620D01*
X91895457Y-69797457D01*
X92212620Y-69322789D01*
X92323993Y-68762880D01*
X92212620Y-68202971D01*
X91895457Y-67728303D01*
X91420789Y-67411140D01*
X91002213Y-67327880D01*
X90719547Y-67327880D01*
X90300971Y-67411140D01*
X89826303Y-67728303D01*
X89509140Y-68202971D01*
X89397767Y-68762880D01*
X87666183Y-68762880D01*
X87609969Y-68678751D01*
X87151840Y-68372639D01*
X86747847Y-68292280D01*
X86611440Y-68265147D01*
X86475033Y-68292280D01*
X85165791Y-68292280D01*
X85346017Y-68171857D01*
X85663180Y-67697189D01*
X85774553Y-67137280D01*
X85663180Y-66577371D01*
X85346017Y-66102703D01*
X84993682Y-65867280D01*
X85346017Y-65631857D01*
X85663180Y-65157189D01*
X85774553Y-64597280D01*
X85663180Y-64037371D01*
X85346017Y-63562703D01*
X84993682Y-63327280D01*
X85346017Y-63091857D01*
X85663180Y-62617189D01*
X85774553Y-62057280D01*
X85663180Y-61497371D01*
X85346017Y-61022703D01*
X84871349Y-60705540D01*
X84452773Y-60622280D01*
X83370107Y-60622280D01*
X82951531Y-60705540D01*
X82476863Y-61022703D01*
X82159700Y-61497371D01*
X82048327Y-62057280D01*
X82159700Y-62617189D01*
X82476863Y-63091857D01*
X82829198Y-63327280D01*
X82476863Y-63562703D01*
X82159700Y-64037371D01*
X82048327Y-64597280D01*
X82159700Y-65157189D01*
X82476863Y-65631857D01*
X82829198Y-65867280D01*
X82476863Y-66102703D01*
X82159700Y-66577371D01*
X82048327Y-67137280D01*
X82159700Y-67697189D01*
X82476863Y-68171857D01*
X82829198Y-68407280D01*
X82476863Y-68642703D01*
X82159700Y-69117371D01*
X82072058Y-69557977D01*
X76201835Y-75428200D01*
X75157480Y-75428200D01*
X74909715Y-75477483D01*
X74890024Y-75490640D01*
X72597521Y-75490640D01*
X72461119Y-75463508D01*
X72324717Y-75490640D01*
X72324713Y-75490640D01*
X71920720Y-75570999D01*
X71462591Y-75877111D01*
X71385320Y-75992755D01*
X57384712Y-89993363D01*
X57269071Y-90070632D01*
X57191803Y-90186272D01*
X56962959Y-90528761D01*
X56855467Y-91069160D01*
X56882600Y-91205567D01*
X56882601Y-92891336D01*
X56804487Y-93284040D01*
X52158800Y-93284040D01*
X52158800Y-93013841D01*
X51940334Y-92486418D01*
X51536662Y-92082746D01*
X51009239Y-91864280D01*
X50438361Y-91864280D01*
X49910938Y-92082746D01*
X49507266Y-92486418D01*
X49288800Y-93013841D01*
X48314644Y-93013841D01*
X55035688Y-86292798D01*
X55151329Y-86215529D01*
X55457441Y-85757400D01*
X55537800Y-85353407D01*
X55564933Y-85217000D01*
X55537800Y-85080593D01*
X55537800Y-80319525D01*
X55558724Y-80298601D01*
X56832600Y-80298601D01*
X56832600Y-80869479D01*
X57051066Y-81396902D01*
X57454738Y-81800574D01*
X57982161Y-82019040D01*
X58553039Y-82019040D01*
X59080462Y-81800574D01*
X59484134Y-81396902D01*
X59702600Y-80869479D01*
X59702600Y-80563720D01*
X61117407Y-80563720D01*
X61228780Y-81123629D01*
X61545943Y-81598297D01*
X62020611Y-81915460D01*
X62439187Y-81998720D01*
X62721853Y-81998720D01*
X63140429Y-81915460D01*
X63615097Y-81598297D01*
X63932260Y-81123629D01*
X64043633Y-80563720D01*
X63932260Y-80003811D01*
X63615097Y-79529143D01*
X63140429Y-79211980D01*
X62721853Y-79128720D01*
X62439187Y-79128720D01*
X62020611Y-79211980D01*
X61545943Y-79529143D01*
X61228780Y-80003811D01*
X61117407Y-80563720D01*
X59702600Y-80563720D01*
X59702600Y-80298601D01*
X59484134Y-79771178D01*
X59080462Y-79367506D01*
X58553039Y-79149040D01*
X57982161Y-79149040D01*
X57454738Y-79367506D01*
X57051066Y-79771178D01*
X56832600Y-80298601D01*
X55558724Y-80298601D01*
X57286806Y-78570520D01*
X65946793Y-78570520D01*
X66083200Y-78597653D01*
X66219607Y-78570520D01*
X66623600Y-78490161D01*
X67081729Y-78184049D01*
X67158999Y-78068406D01*
X74165126Y-71062280D01*
X75498740Y-71062280D01*
X75750107Y-71112280D01*
X76832773Y-71112280D01*
X77251349Y-71029020D01*
X77726017Y-70711857D01*
X78043180Y-70237189D01*
X78154553Y-69677280D01*
X78043180Y-69117371D01*
X77726017Y-68642703D01*
X77373682Y-68407280D01*
X77726017Y-68171857D01*
X78043180Y-67697189D01*
X78154553Y-67137280D01*
X78043180Y-66577371D01*
X77726017Y-66102703D01*
X77373682Y-65867280D01*
X77726017Y-65631857D01*
X78043180Y-65157189D01*
X78154553Y-64597280D01*
X78043180Y-64037371D01*
X77726017Y-63562703D01*
X77605334Y-63482065D01*
X77739205Y-63455437D01*
X77949249Y-63315089D01*
X78089597Y-63105045D01*
X78138880Y-62857280D01*
X78138880Y-61257280D01*
X78089597Y-61009515D01*
X77949249Y-60799471D01*
X77739205Y-60659123D01*
X77491440Y-60609840D01*
X75091440Y-60609840D01*
X74843675Y-60659123D01*
X74633631Y-60799471D01*
X74493283Y-61009515D01*
X74444000Y-61257280D01*
X74444000Y-62857280D01*
X74493283Y-63105045D01*
X74633631Y-63315089D01*
X74843675Y-63455437D01*
X74977546Y-63482065D01*
X74856863Y-63562703D01*
X74539700Y-64037371D01*
X74428327Y-64597280D01*
X74539700Y-65157189D01*
X74856863Y-65631857D01*
X75209198Y-65867280D01*
X74856863Y-66102703D01*
X74539700Y-66577371D01*
X74428327Y-67137280D01*
X74539700Y-67697189D01*
X74856863Y-68171857D01*
X75037089Y-68292280D01*
X73727847Y-68292280D01*
X73591440Y-68265147D01*
X73455033Y-68292280D01*
X73051040Y-68372639D01*
X72592911Y-68678751D01*
X72515642Y-68794392D01*
X65509515Y-75800520D01*
X56849525Y-75800520D01*
X56713119Y-75773387D01*
X56576713Y-75800520D01*
X56172720Y-75880879D01*
X55714591Y-76186991D01*
X55637322Y-76302632D01*
X53269912Y-78670043D01*
X53154271Y-78747312D01*
X53077003Y-78862952D01*
X52848159Y-79205441D01*
X52740667Y-79745840D01*
X52767800Y-79882247D01*
X52767801Y-84643313D01*
X45378369Y-92032746D01*
X45257658Y-92082746D01*
X44853986Y-92486418D01*
X44635520Y-93013841D01*
X32917600Y-93013841D01*
X32917600Y-80599280D01*
X44607407Y-80599280D01*
X44718780Y-81159189D01*
X45035943Y-81633857D01*
X45510611Y-81951020D01*
X45929187Y-82034280D01*
X46211853Y-82034280D01*
X46630429Y-81951020D01*
X47105097Y-81633857D01*
X47422260Y-81159189D01*
X47533633Y-80599280D01*
X49260687Y-80599280D01*
X49372060Y-81159189D01*
X49689223Y-81633857D01*
X50163891Y-81951020D01*
X50582467Y-82034280D01*
X50865133Y-82034280D01*
X51283709Y-81951020D01*
X51758377Y-81633857D01*
X52075540Y-81159189D01*
X52186913Y-80599280D01*
X52075540Y-80039371D01*
X51758377Y-79564703D01*
X51283709Y-79247540D01*
X50865133Y-79164280D01*
X50582467Y-79164280D01*
X50163891Y-79247540D01*
X49689223Y-79564703D01*
X49372060Y-80039371D01*
X49260687Y-80599280D01*
X47533633Y-80599280D01*
X47422260Y-80039371D01*
X47105097Y-79564703D01*
X46630429Y-79247540D01*
X46211853Y-79164280D01*
X45929187Y-79164280D01*
X45510611Y-79247540D01*
X45035943Y-79564703D01*
X44718780Y-80039371D01*
X44607407Y-80599280D01*
X32917600Y-80599280D01*
X32917600Y-75268181D01*
X32923480Y-75268181D01*
X32923480Y-76329179D01*
X33329506Y-77309414D01*
X34079746Y-78059654D01*
X35059981Y-78465680D01*
X36120979Y-78465680D01*
X37101214Y-78059654D01*
X37851454Y-77309414D01*
X38257480Y-76329179D01*
X38257480Y-75854560D01*
X39319127Y-75854560D01*
X39430500Y-76414469D01*
X39747663Y-76889137D01*
X40222331Y-77206300D01*
X40640907Y-77289560D01*
X40923573Y-77289560D01*
X41342149Y-77206300D01*
X41816817Y-76889137D01*
X42133980Y-76414469D01*
X42245353Y-75854560D01*
X42133980Y-75294651D01*
X41816817Y-74819983D01*
X41342149Y-74502820D01*
X40923573Y-74419560D01*
X40640907Y-74419560D01*
X40222331Y-74502820D01*
X39747663Y-74819983D01*
X39430500Y-75294651D01*
X39319127Y-75854560D01*
X38257480Y-75854560D01*
X38257480Y-75268181D01*
X37851454Y-74287946D01*
X37101214Y-73537706D01*
X36120979Y-73131680D01*
X35059981Y-73131680D01*
X34079746Y-73537706D01*
X33329506Y-74287946D01*
X32923480Y-75268181D01*
X32917600Y-75268181D01*
X32917600Y-62869121D01*
X39347240Y-62869121D01*
X39347240Y-63439999D01*
X39565706Y-63967422D01*
X39969378Y-64371094D01*
X40496801Y-64589560D01*
X41067679Y-64589560D01*
X41595102Y-64371094D01*
X41998774Y-63967422D01*
X42217240Y-63439999D01*
X42217240Y-62869121D01*
X42210928Y-62853881D01*
X43538240Y-62853881D01*
X43538240Y-63424759D01*
X43756706Y-63952182D01*
X44160378Y-64355854D01*
X44687801Y-64574320D01*
X45258679Y-64574320D01*
X45786102Y-64355854D01*
X46189774Y-63952182D01*
X46408240Y-63424759D01*
X46408240Y-63139320D01*
X56210127Y-63139320D01*
X56321500Y-63699229D01*
X56638663Y-64173897D01*
X57113331Y-64491060D01*
X57531907Y-64574320D01*
X57814573Y-64574320D01*
X58233149Y-64491060D01*
X58707817Y-64173897D01*
X59024980Y-63699229D01*
X59136353Y-63139320D01*
X59024980Y-62579411D01*
X58707817Y-62104743D01*
X58233149Y-61787580D01*
X57814573Y-61704320D01*
X57531907Y-61704320D01*
X57113331Y-61787580D01*
X56638663Y-62104743D01*
X56321500Y-62579411D01*
X56210127Y-63139320D01*
X46408240Y-63139320D01*
X46408240Y-62853881D01*
X46189774Y-62326458D01*
X45786102Y-61922786D01*
X45258679Y-61704320D01*
X44687801Y-61704320D01*
X44160378Y-61922786D01*
X43756706Y-62326458D01*
X43538240Y-62853881D01*
X42210928Y-62853881D01*
X41998774Y-62341698D01*
X41595102Y-61938026D01*
X41067679Y-61719560D01*
X40496801Y-61719560D01*
X39969378Y-61938026D01*
X39565706Y-62341698D01*
X39347240Y-62869121D01*
X32917600Y-62869121D01*
X32917600Y-59405520D01*
X39319127Y-59405520D01*
X39430500Y-59965429D01*
X39747663Y-60440097D01*
X40222331Y-60757260D01*
X40640907Y-60840520D01*
X40923573Y-60840520D01*
X41342149Y-60757260D01*
X41816817Y-60440097D01*
X42133980Y-59965429D01*
X42153622Y-59866680D01*
X64461800Y-59866680D01*
X64461800Y-62266680D01*
X64511083Y-62514445D01*
X64651431Y-62724489D01*
X64861475Y-62864837D01*
X65109240Y-62914120D01*
X67509240Y-62914120D01*
X67757005Y-62864837D01*
X67967049Y-62724489D01*
X68107397Y-62514445D01*
X68156680Y-62266680D01*
X68156680Y-59866680D01*
X68107397Y-59618915D01*
X67967049Y-59408871D01*
X67757005Y-59268523D01*
X67509240Y-59219240D01*
X65109240Y-59219240D01*
X64861475Y-59268523D01*
X64651431Y-59408871D01*
X64511083Y-59618915D01*
X64461800Y-59866680D01*
X42153622Y-59866680D01*
X42245353Y-59405520D01*
X42133980Y-58845611D01*
X41816817Y-58370943D01*
X41342149Y-58053780D01*
X40923573Y-57970520D01*
X40640907Y-57970520D01*
X40222331Y-58053780D01*
X39747663Y-58370943D01*
X39430500Y-58845611D01*
X39319127Y-59405520D01*
X32917600Y-59405520D01*
X32917600Y-55806160D01*
X43241040Y-55806160D01*
X43241040Y-58006160D01*
X43290323Y-58253925D01*
X43430671Y-58463969D01*
X43640715Y-58604317D01*
X43888480Y-58653600D01*
X46088480Y-58653600D01*
X46336245Y-58604317D01*
X46546289Y-58463969D01*
X46686637Y-58253925D01*
X46735920Y-58006160D01*
X46735920Y-55996000D01*
X48617560Y-55996000D01*
X48617560Y-57796000D01*
X48666843Y-58043765D01*
X48807191Y-58253809D01*
X49017235Y-58394157D01*
X49265000Y-58443440D01*
X51065000Y-58443440D01*
X51312765Y-58394157D01*
X51522809Y-58253809D01*
X51662129Y-58045304D01*
X52106073Y-58341938D01*
X52553818Y-58431000D01*
X52856182Y-58431000D01*
X53303927Y-58341938D01*
X53811673Y-58002673D01*
X53975000Y-57758237D01*
X54138327Y-58002673D01*
X54646073Y-58341938D01*
X55093818Y-58431000D01*
X55396182Y-58431000D01*
X55843927Y-58341938D01*
X56351673Y-58002673D01*
X56690938Y-57494927D01*
X56810072Y-56896000D01*
X56690938Y-56297073D01*
X56351673Y-55789327D01*
X56220494Y-55701676D01*
X64474240Y-55701676D01*
X64474240Y-56431684D01*
X64753602Y-57106124D01*
X65269796Y-57622318D01*
X65944236Y-57901680D01*
X66674244Y-57901680D01*
X67348684Y-57622318D01*
X67864878Y-57106124D01*
X68144240Y-56431684D01*
X68144240Y-56332120D01*
X74537690Y-56332120D01*
X74672346Y-57009083D01*
X75055815Y-57582985D01*
X75629717Y-57966454D01*
X76135800Y-58067120D01*
X76477560Y-58067120D01*
X76983643Y-57966454D01*
X77557545Y-57582985D01*
X77941014Y-57009083D01*
X78075670Y-56332120D01*
X77941014Y-55655157D01*
X77658350Y-55232120D01*
X84719240Y-55232120D01*
X84719240Y-57432120D01*
X84768523Y-57679885D01*
X84908871Y-57889929D01*
X85118915Y-58030277D01*
X85366680Y-58079560D01*
X87566680Y-58079560D01*
X87814445Y-58030277D01*
X88024489Y-57889929D01*
X88164837Y-57679885D01*
X88214120Y-57432120D01*
X88214120Y-55777441D01*
X89425880Y-55777441D01*
X89425880Y-56348319D01*
X89644346Y-56875742D01*
X90048018Y-57279414D01*
X90575441Y-57497880D01*
X91146319Y-57497880D01*
X91673742Y-57279414D01*
X92077414Y-56875742D01*
X92295880Y-56348319D01*
X92295880Y-56083200D01*
X93629407Y-56083200D01*
X93740780Y-56643109D01*
X94057943Y-57117777D01*
X94532611Y-57434940D01*
X94951187Y-57518200D01*
X95233853Y-57518200D01*
X95652429Y-57434940D01*
X96127097Y-57117777D01*
X96232281Y-56960359D01*
X96232280Y-67893564D01*
X95905382Y-67566666D01*
X95377959Y-67348200D01*
X94807081Y-67348200D01*
X94279658Y-67566666D01*
X93875986Y-67970338D01*
X93657520Y-68497761D01*
X93657520Y-69068639D01*
X93875986Y-69596062D01*
X94279658Y-69999734D01*
X94807081Y-70218200D01*
X95377959Y-70218200D01*
X95905382Y-69999734D01*
X96309054Y-69596062D01*
X96463382Y-69223482D01*
X96618751Y-69456008D01*
X96734392Y-69533277D01*
X96882440Y-69681325D01*
X96959711Y-69796969D01*
X97417840Y-70103081D01*
X97821833Y-70183440D01*
X97958239Y-70210573D01*
X98094645Y-70183440D01*
X99345425Y-70183440D01*
X99458240Y-70205880D01*
X100978240Y-70205880D01*
X101226005Y-70156597D01*
X101436049Y-70016249D01*
X101576397Y-69806205D01*
X101625680Y-69558440D01*
X101625680Y-68822033D01*
X101630373Y-68798440D01*
X101625680Y-68774847D01*
X101625680Y-68038440D01*
X104144800Y-68038440D01*
X104144800Y-69558440D01*
X104194083Y-69806205D01*
X104334431Y-70016249D01*
X104544475Y-70156597D01*
X104792240Y-70205880D01*
X106312240Y-70205880D01*
X106560005Y-70156597D01*
X106770049Y-70016249D01*
X106910397Y-69806205D01*
X106959680Y-69558440D01*
X106959680Y-68038440D01*
X106910397Y-67790675D01*
X106770049Y-67580631D01*
X106560005Y-67440283D01*
X106379191Y-67404317D01*
X106734864Y-67048644D01*
X106770418Y-66962808D01*
X110965840Y-66962808D01*
X110965840Y-67931512D01*
X111336547Y-68826476D01*
X112021524Y-69511453D01*
X112916488Y-69882160D01*
X113885192Y-69882160D01*
X114780156Y-69511453D01*
X115465133Y-68826476D01*
X115835840Y-67931512D01*
X115835840Y-66962808D01*
X123665840Y-66962808D01*
X123665840Y-67931512D01*
X124036547Y-68826476D01*
X124721524Y-69511453D01*
X125616488Y-69882160D01*
X126585192Y-69882160D01*
X127480156Y-69511453D01*
X128165133Y-68826476D01*
X128535840Y-67931512D01*
X128535840Y-66962808D01*
X128165133Y-66067844D01*
X127480156Y-65382867D01*
X126585192Y-65012160D01*
X125616488Y-65012160D01*
X124721524Y-65382867D01*
X124036547Y-66067844D01*
X123665840Y-66962808D01*
X115835840Y-66962808D01*
X115465133Y-66067844D01*
X114780156Y-65382867D01*
X113885192Y-65012160D01*
X112916488Y-65012160D01*
X112021524Y-65382867D01*
X111336547Y-66067844D01*
X110965840Y-66962808D01*
X106770418Y-66962808D01*
X106947240Y-66535923D01*
X106947240Y-65980957D01*
X106734864Y-65468236D01*
X106342444Y-65075816D01*
X106131500Y-64988440D01*
X106342444Y-64901064D01*
X106734864Y-64508644D01*
X106947240Y-63995923D01*
X106947240Y-63440957D01*
X106734864Y-62928236D01*
X106342444Y-62535816D01*
X105829723Y-62323440D01*
X105274757Y-62323440D01*
X104762036Y-62535816D01*
X104369616Y-62928236D01*
X104157240Y-63440957D01*
X104157240Y-63995923D01*
X104369616Y-64508644D01*
X104762036Y-64901064D01*
X104972980Y-64988440D01*
X104762036Y-65075816D01*
X104369616Y-65468236D01*
X104157240Y-65980957D01*
X104157240Y-66535923D01*
X104369616Y-67048644D01*
X104725289Y-67404317D01*
X104544475Y-67440283D01*
X104334431Y-67580631D01*
X104194083Y-67790675D01*
X104144800Y-68038440D01*
X101625680Y-68038440D01*
X101576397Y-67790675D01*
X101436049Y-67580631D01*
X101226005Y-67440283D01*
X101045191Y-67404317D01*
X101400864Y-67048644D01*
X101613240Y-66535923D01*
X101613240Y-65980957D01*
X101400864Y-65468236D01*
X101008444Y-65075816D01*
X100797500Y-64988440D01*
X101008444Y-64901064D01*
X101400864Y-64508644D01*
X101613240Y-63995923D01*
X101613240Y-63440957D01*
X101400864Y-62928236D01*
X101008444Y-62535816D01*
X100495723Y-62323440D01*
X99940757Y-62323440D01*
X99428036Y-62535816D01*
X99035616Y-62928236D01*
X99002280Y-63008716D01*
X99002280Y-54410760D01*
X99523960Y-54410760D01*
X99523960Y-56810760D01*
X99573243Y-57058525D01*
X99713591Y-57268569D01*
X99923635Y-57408917D01*
X100171400Y-57458200D01*
X102571400Y-57458200D01*
X102819165Y-57408917D01*
X103029209Y-57268569D01*
X103169557Y-57058525D01*
X103218840Y-56810760D01*
X103218840Y-55245756D01*
X104536400Y-55245756D01*
X104536400Y-55975764D01*
X104815762Y-56650204D01*
X105331956Y-57166398D01*
X106006396Y-57445760D01*
X106736404Y-57445760D01*
X107410844Y-57166398D01*
X107927038Y-56650204D01*
X108206400Y-55975764D01*
X108206400Y-55245756D01*
X107927038Y-54571316D01*
X107410844Y-54055122D01*
X106736404Y-53775760D01*
X106006396Y-53775760D01*
X105331956Y-54055122D01*
X104815762Y-54571316D01*
X104536400Y-55245756D01*
X103218840Y-55245756D01*
X103218840Y-54410760D01*
X103169557Y-54162995D01*
X103029209Y-53952951D01*
X102819165Y-53812603D01*
X102571400Y-53763320D01*
X100171400Y-53763320D01*
X99923635Y-53812603D01*
X99713591Y-53952951D01*
X99573243Y-54162995D01*
X99523960Y-54410760D01*
X99002280Y-54410760D01*
X99002280Y-47418605D01*
X99741724Y-46679161D01*
X104650640Y-46679161D01*
X104650640Y-47250039D01*
X104869106Y-47777462D01*
X105272778Y-48181134D01*
X105800201Y-48399600D01*
X106371079Y-48399600D01*
X106898502Y-48181134D01*
X107302174Y-47777462D01*
X107520640Y-47250039D01*
X107520640Y-46679161D01*
X107302174Y-46151738D01*
X106898502Y-45748066D01*
X106371079Y-45529600D01*
X105800201Y-45529600D01*
X105272778Y-45748066D01*
X104869106Y-46151738D01*
X104650640Y-46679161D01*
X99741724Y-46679161D01*
X101065567Y-45355318D01*
X101181208Y-45278049D01*
X101487321Y-44819920D01*
X101567680Y-44415927D01*
X101567680Y-44415923D01*
X101594812Y-44279521D01*
X101567680Y-44143119D01*
X101567680Y-43196635D01*
X101679809Y-43028824D01*
X102123753Y-43325458D01*
X102571498Y-43414520D01*
X102873862Y-43414520D01*
X103321607Y-43325458D01*
X103829353Y-42986193D01*
X103992680Y-42741757D01*
X104156007Y-42986193D01*
X104663753Y-43325458D01*
X105111498Y-43414520D01*
X105413862Y-43414520D01*
X105861607Y-43325458D01*
X106369353Y-42986193D01*
X106708618Y-42478447D01*
X106827752Y-41879520D01*
X106771166Y-41595040D01*
X109923174Y-41595040D01*
X110096636Y-42467094D01*
X110590615Y-43206385D01*
X111329906Y-43700364D01*
X111981832Y-43830040D01*
X112422088Y-43830040D01*
X113074014Y-43700364D01*
X113813305Y-43206385D01*
X114307284Y-42467094D01*
X114480746Y-41595040D01*
X114307284Y-40722986D01*
X113813305Y-39983695D01*
X113074014Y-39489716D01*
X112422088Y-39360040D01*
X111981832Y-39360040D01*
X111329906Y-39489716D01*
X110590615Y-39983695D01*
X110096636Y-40722986D01*
X109923174Y-41595040D01*
X106771166Y-41595040D01*
X106708618Y-41280593D01*
X106369353Y-40772847D01*
X105861607Y-40433582D01*
X105413862Y-40344520D01*
X105111498Y-40344520D01*
X104663753Y-40433582D01*
X104156007Y-40772847D01*
X103992680Y-41017283D01*
X103829353Y-40772847D01*
X103321607Y-40433582D01*
X102873862Y-40344520D01*
X102571498Y-40344520D01*
X102123753Y-40433582D01*
X101679809Y-40730216D01*
X101540489Y-40521711D01*
X101330445Y-40381363D01*
X101082680Y-40332080D01*
X99282680Y-40332080D01*
X99034915Y-40381363D01*
X98824871Y-40521711D01*
X98684523Y-40731755D01*
X98635240Y-40979520D01*
X98635240Y-42779520D01*
X98684523Y-43027285D01*
X98797680Y-43196636D01*
X98797680Y-43705835D01*
X96734393Y-45769122D01*
X96618752Y-45846391D01*
X96541483Y-45962032D01*
X96312639Y-46304521D01*
X96205147Y-46844920D01*
X96232281Y-46981332D01*
X96232281Y-55206041D01*
X96127097Y-55048623D01*
X95652429Y-54731460D01*
X95233853Y-54648200D01*
X94951187Y-54648200D01*
X94532611Y-54731460D01*
X94057943Y-55048623D01*
X93740780Y-55523291D01*
X93629407Y-56083200D01*
X92295880Y-56083200D01*
X92295880Y-55777441D01*
X92077414Y-55250018D01*
X91673742Y-54846346D01*
X91146319Y-54627880D01*
X90575441Y-54627880D01*
X90048018Y-54846346D01*
X89644346Y-55250018D01*
X89425880Y-55777441D01*
X88214120Y-55777441D01*
X88214120Y-55232120D01*
X88164837Y-54984355D01*
X88024489Y-54774311D01*
X87814445Y-54633963D01*
X87566680Y-54584680D01*
X85366680Y-54584680D01*
X85118915Y-54633963D01*
X84908871Y-54774311D01*
X84768523Y-54984355D01*
X84719240Y-55232120D01*
X77658350Y-55232120D01*
X77557545Y-55081255D01*
X76983643Y-54697786D01*
X76477560Y-54597120D01*
X76135800Y-54597120D01*
X75629717Y-54697786D01*
X75055815Y-55081255D01*
X74672346Y-55655157D01*
X74537690Y-56332120D01*
X68144240Y-56332120D01*
X68144240Y-55701676D01*
X67864878Y-55027236D01*
X67348684Y-54511042D01*
X66674244Y-54231680D01*
X65944236Y-54231680D01*
X65269796Y-54511042D01*
X64753602Y-55027236D01*
X64474240Y-55701676D01*
X56220494Y-55701676D01*
X55843927Y-55450062D01*
X55396182Y-55361000D01*
X55093818Y-55361000D01*
X54646073Y-55450062D01*
X54138327Y-55789327D01*
X53975000Y-56033763D01*
X53811673Y-55789327D01*
X53303927Y-55450062D01*
X52856182Y-55361000D01*
X52553818Y-55361000D01*
X52106073Y-55450062D01*
X51662129Y-55746696D01*
X51522809Y-55538191D01*
X51312765Y-55397843D01*
X51065000Y-55348560D01*
X49265000Y-55348560D01*
X49017235Y-55397843D01*
X48807191Y-55538191D01*
X48666843Y-55748235D01*
X48617560Y-55996000D01*
X46735920Y-55996000D01*
X46735920Y-55806160D01*
X46686637Y-55558395D01*
X46546289Y-55348351D01*
X46336245Y-55208003D01*
X46088480Y-55158720D01*
X43888480Y-55158720D01*
X43640715Y-55208003D01*
X43430671Y-55348351D01*
X43290323Y-55558395D01*
X43241040Y-55806160D01*
X32917600Y-55806160D01*
X32917600Y-52135081D01*
X74856440Y-52135081D01*
X74856440Y-52705959D01*
X75074906Y-53233382D01*
X75478578Y-53637054D01*
X76006001Y-53855520D01*
X76576879Y-53855520D01*
X77104302Y-53637054D01*
X77507974Y-53233382D01*
X77726440Y-52705959D01*
X77726440Y-52135081D01*
X79856440Y-52135081D01*
X79856440Y-52705959D01*
X80074906Y-53233382D01*
X80478578Y-53637054D01*
X81006001Y-53855520D01*
X81576879Y-53855520D01*
X82104302Y-53637054D01*
X82507974Y-53233382D01*
X82726440Y-52705959D01*
X82726440Y-52135081D01*
X82517245Y-51630040D01*
X86888040Y-51630040D01*
X86888040Y-53150040D01*
X86937323Y-53397805D01*
X87077671Y-53607849D01*
X87287715Y-53748197D01*
X87535480Y-53797480D01*
X89055480Y-53797480D01*
X89303245Y-53748197D01*
X89513289Y-53607849D01*
X89653637Y-53397805D01*
X89689603Y-53216991D01*
X90045276Y-53572664D01*
X90557997Y-53785040D01*
X91112963Y-53785040D01*
X91625684Y-53572664D01*
X92018104Y-53180244D01*
X92105480Y-52969300D01*
X92192856Y-53180244D01*
X92585276Y-53572664D01*
X93097997Y-53785040D01*
X93652963Y-53785040D01*
X94165684Y-53572664D01*
X94558104Y-53180244D01*
X94770480Y-52667523D01*
X94770480Y-52112557D01*
X94558104Y-51599836D01*
X94165684Y-51207416D01*
X93652963Y-50995040D01*
X93097997Y-50995040D01*
X92585276Y-51207416D01*
X92192856Y-51599836D01*
X92105480Y-51810780D01*
X92018104Y-51599836D01*
X91625684Y-51207416D01*
X91112963Y-50995040D01*
X90557997Y-50995040D01*
X90045276Y-51207416D01*
X89689603Y-51563089D01*
X89653637Y-51382275D01*
X89513289Y-51172231D01*
X89303245Y-51031883D01*
X89055480Y-50982600D01*
X87535480Y-50982600D01*
X87287715Y-51031883D01*
X87077671Y-51172231D01*
X86937323Y-51382275D01*
X86888040Y-51630040D01*
X82517245Y-51630040D01*
X82507974Y-51607658D01*
X82104302Y-51203986D01*
X81576879Y-50985520D01*
X81006001Y-50985520D01*
X80478578Y-51203986D01*
X80074906Y-51607658D01*
X79856440Y-52135081D01*
X77726440Y-52135081D01*
X77507974Y-51607658D01*
X77104302Y-51203986D01*
X76576879Y-50985520D01*
X76006001Y-50985520D01*
X75478578Y-51203986D01*
X75074906Y-51607658D01*
X74856440Y-52135081D01*
X32917600Y-52135081D01*
X32917600Y-46420081D01*
X39347240Y-46420081D01*
X39347240Y-46990959D01*
X39565706Y-47518382D01*
X39969378Y-47922054D01*
X40496801Y-48140520D01*
X41067679Y-48140520D01*
X41595102Y-47922054D01*
X41998774Y-47518382D01*
X42217240Y-46990959D01*
X42217240Y-46746160D01*
X43219490Y-46746160D01*
X43354146Y-47423123D01*
X43737615Y-47997025D01*
X44311517Y-48380494D01*
X44817600Y-48481160D01*
X45159360Y-48481160D01*
X45665443Y-48380494D01*
X46239345Y-47997025D01*
X46622814Y-47423123D01*
X46698457Y-47042836D01*
X64474240Y-47042836D01*
X64474240Y-47772844D01*
X64753602Y-48447284D01*
X65269796Y-48963478D01*
X65944236Y-49242840D01*
X66674244Y-49242840D01*
X67348684Y-48963478D01*
X67864878Y-48447284D01*
X68144240Y-47772844D01*
X68144240Y-47042836D01*
X68111834Y-46964600D01*
X91922527Y-46964600D01*
X92033900Y-47524509D01*
X92351063Y-47999177D01*
X92825731Y-48316340D01*
X93244307Y-48399600D01*
X93526973Y-48399600D01*
X93945549Y-48316340D01*
X94420217Y-47999177D01*
X94737380Y-47524509D01*
X94848753Y-46964600D01*
X94737380Y-46404691D01*
X94420217Y-45930023D01*
X93945549Y-45612860D01*
X93526973Y-45529600D01*
X93244307Y-45529600D01*
X92825731Y-45612860D01*
X92351063Y-45930023D01*
X92033900Y-46404691D01*
X91922527Y-46964600D01*
X68111834Y-46964600D01*
X67864878Y-46368396D01*
X67348684Y-45852202D01*
X66674244Y-45572840D01*
X65944236Y-45572840D01*
X65269796Y-45852202D01*
X64753602Y-46368396D01*
X64474240Y-47042836D01*
X46698457Y-47042836D01*
X46757470Y-46746160D01*
X46622814Y-46069197D01*
X46239345Y-45495295D01*
X45665443Y-45111826D01*
X45159360Y-45011160D01*
X44817600Y-45011160D01*
X44311517Y-45111826D01*
X43737615Y-45495295D01*
X43354146Y-46069197D01*
X43219490Y-46746160D01*
X42217240Y-46746160D01*
X42217240Y-46420081D01*
X41998774Y-45892658D01*
X41595102Y-45488986D01*
X41067679Y-45270520D01*
X40496801Y-45270520D01*
X39969378Y-45488986D01*
X39565706Y-45892658D01*
X39347240Y-46420081D01*
X32917600Y-46420081D01*
X32917600Y-41100101D01*
X32999680Y-41100101D01*
X32999680Y-42161099D01*
X33405706Y-43141334D01*
X34155946Y-43891574D01*
X35136181Y-44297600D01*
X36197179Y-44297600D01*
X37177414Y-43891574D01*
X37927654Y-43141334D01*
X38333680Y-42161099D01*
X38333680Y-41600120D01*
X38437414Y-41600120D01*
X38610876Y-42472174D01*
X39104855Y-43211465D01*
X39844146Y-43705444D01*
X40496072Y-43835120D01*
X40936328Y-43835120D01*
X41588254Y-43705444D01*
X42327545Y-43211465D01*
X42821524Y-42472174D01*
X42994986Y-41600120D01*
X42821524Y-40728066D01*
X42335126Y-40000120D01*
X53708760Y-40000120D01*
X53708760Y-43200120D01*
X53758043Y-43447885D01*
X53898391Y-43657929D01*
X54108435Y-43798277D01*
X54356200Y-43847560D01*
X57556200Y-43847560D01*
X57803965Y-43798277D01*
X58014009Y-43657929D01*
X58154357Y-43447885D01*
X58203640Y-43200120D01*
X58203640Y-41207840D01*
X64461800Y-41207840D01*
X64461800Y-43607840D01*
X64511083Y-43855605D01*
X64651431Y-44065649D01*
X64861475Y-44205997D01*
X65109240Y-44255280D01*
X67509240Y-44255280D01*
X67757005Y-44205997D01*
X67967049Y-44065649D01*
X68107397Y-43855605D01*
X68156680Y-43607840D01*
X68156680Y-41207840D01*
X68107397Y-40960075D01*
X67967049Y-40750031D01*
X67757005Y-40609683D01*
X67509240Y-40560400D01*
X65109240Y-40560400D01*
X64861475Y-40609683D01*
X64651431Y-40750031D01*
X64511083Y-40960075D01*
X64461800Y-41207840D01*
X58203640Y-41207840D01*
X58203640Y-40000120D01*
X58154357Y-39752355D01*
X58014009Y-39542311D01*
X57803965Y-39401963D01*
X57556200Y-39352680D01*
X54356200Y-39352680D01*
X54108435Y-39401963D01*
X53898391Y-39542311D01*
X53758043Y-39752355D01*
X53708760Y-40000120D01*
X42335126Y-40000120D01*
X42327545Y-39988775D01*
X41588254Y-39494796D01*
X40936328Y-39365120D01*
X40496072Y-39365120D01*
X39844146Y-39494796D01*
X39104855Y-39988775D01*
X38610876Y-40728066D01*
X38437414Y-41600120D01*
X38333680Y-41600120D01*
X38333680Y-41100101D01*
X37927654Y-40119866D01*
X37177414Y-39369626D01*
X36197179Y-38963600D01*
X35136181Y-38963600D01*
X34155946Y-39369626D01*
X33405706Y-40119866D01*
X32999680Y-41100101D01*
X32917600Y-41100101D01*
X32917600Y-36956200D01*
X129098841Y-36956200D01*
X129098841Y-39358914D01*
G36*
X99035616Y-67048644D02*
X99391289Y-67404317D01*
X99345425Y-67413440D01*
X99002280Y-67413440D01*
X99002280Y-66968164D01*
X99035616Y-67048644D01*
X99035616Y-67048644D01*
G37*
X99035616Y-67048644D02*
X99391289Y-67404317D01*
X99345425Y-67413440D01*
X99002280Y-67413440D01*
X99002280Y-66968164D01*
X99035616Y-67048644D01*
G36*
X99035616Y-64508644D02*
X99428036Y-64901064D01*
X99638980Y-64988440D01*
X99428036Y-65075816D01*
X99035616Y-65468236D01*
X99002280Y-65548716D01*
X99002280Y-64428164D01*
X99035616Y-64508644D01*
X99035616Y-64508644D01*
G37*
X99035616Y-64508644D02*
X99428036Y-64901064D01*
X99638980Y-64988440D01*
X99428036Y-65075816D01*
X99035616Y-65468236D01*
X99002280Y-65548716D01*
X99002280Y-64428164D01*
X99035616Y-64508644D01*
M02*
