M48
; DRILL file {KiCad (5.1.2)-1} date 2019-05-20 오후 2:26:38
; FORMAT={-:-/ absolute / inch / decimal}
; #@! TF.CreationDate,2019-05-20T14:26:38+09:00
; #@! TF.GenerationSoftware,Kicad,Pcbnew,(5.1.2)-1
FMAT,2
INCH
T1C0.0315
T2C0.0354
T3C0.0394
T4C0.0433
T5C0.0472
T6C0.0630
T7C0.0709
T8C0.1200
%
G90
G05
T1
X3.4762Y-2.0626
X3.5762Y-2.0626
X3.6762Y-2.0626
X3.1338Y-3.536
X3.1338Y-4.036
X3.6766Y-1.849
X4.1766Y-1.849
X3.6826Y-2.8596
X3.6826Y-3.3596
X2.8602Y-3.2244
X2.8602Y-3.7244
X1.7706Y-2.4858
X2.2706Y-2.4858
X1.997Y-3.1732
X1.997Y-3.6732
X4.1556Y-2.5086
X4.1556Y-2.6086
X4.1556Y-2.7086
X1.6056Y-2.4864
X1.6056Y-2.9864
X2.6828Y-3.6738
X2.6828Y-4.1738
X1.8138Y-3.1732
X1.8138Y-3.6732
X3.9456Y-2.5086
X3.9456Y-2.6086
X3.9456Y-2.7086
X2.4638Y-3.1718
X2.4638Y-3.6718
X3.0062Y-3.0266
X3.0062Y-3.1266
X3.0062Y-3.2266
X3.0062Y-3.3266
X3.3062Y-3.0266
X3.3062Y-3.1266
X3.3062Y-3.2266
X3.3062Y-3.3266
X3.4842Y-3.0272
X3.4842Y-3.5272
X2.294Y-3.1726
X2.294Y-3.6726
X3.0036Y-2.4432
X3.0036Y-2.5432
X3.0036Y-2.6432
X3.0036Y-2.7432
X3.3036Y-2.4432
X3.3036Y-2.5432
X3.3036Y-2.6432
X3.3036Y-2.7432
X3.5772Y-2.2072
X3.5772Y-2.7072
X3.7438Y-2.208
X3.7438Y-2.708
X1.6056Y-1.8388
X1.6056Y-2.3388
X3.0036Y-2.0638
X3.2005Y-2.0638
X3.3068Y-3.5368
X3.3068Y-4.0368
T2
X3.684Y-3.5938
X3.684Y-3.6938
X3.684Y-3.8238
X3.684Y-3.9238
X2.2416Y-4.0006
X2.2416Y-4.1006
T3
X3.2832Y-4.2666
X3.3832Y-4.2666
X3.4832Y-4.2666
X3.9442Y-1.6488
X4.0442Y-1.6488
X4.1442Y-1.6488
X1.975Y-2.24
X2.075Y-2.24
X2.175Y-2.24
T4
X3.0042Y-2.2178
X3.4042Y-2.2178
X1.7712Y-1.8404
X1.7712Y-2.2404
X1.8222Y-3.8449
X1.8222Y-4.1008
X1.9994Y-3.8449
X1.9994Y-4.1008
T5
X2.6106Y-2.2073
X2.6106Y-2.4042
X4.1542Y-3.873
X4.1542Y-4.0699
X2.6106Y-1.6696
X2.6106Y-1.8665
X3.991Y-2.1894
X4.1879Y-2.1894
X4.0286Y-2.931
X4.0286Y-3.1279
T6
X4.4174Y-1.6376
X4.416Y-3.561
X5.016Y-3.561
X1.603Y-1.6378
X2.203Y-1.6378
X5.0174Y-1.6376
T7
X4.4646Y-2.6554
X4.9646Y-2.6554
T8
X1.4012Y-2.9842
X4.913Y-3.8998
X1.4042Y-1.639
X4.913Y-4.26
T0
M30
