%TF.GenerationSoftware,KiCad,Pcbnew,(5.0.2)-1*%
%TF.CreationDate,2019-02-13T13:46:32+09:00*%
%TF.ProjectId,12f675-mppt,31326636-3735-42d6-9d70-70742e6b6963,rev?*%
%TF.SameCoordinates,Original*%
%TF.FileFunction,Soldermask,Top*%
%TF.FilePolarity,Negative*%
%FSLAX46Y46*%
G04 Gerber Fmt 4.6, Leading zero omitted, Abs format (unit mm)*
G04 Created by KiCad (PCBNEW (5.0.2)-1) date 2019-02-13 오후 1:46:32*
%MOMM*%
%LPD*%
G01*
G04 APERTURE LIST*
%ADD10C,0.100000*%
G04 APERTURE END LIST*
D10*
G36*
X125382912Y-106250088D02*
X125752710Y-106403263D01*
X125752713Y-106403265D01*
X126085525Y-106625643D01*
X126368557Y-106908675D01*
X126590935Y-107241487D01*
X126590937Y-107241490D01*
X126744112Y-107611288D01*
X126822200Y-108003864D01*
X126822200Y-108404136D01*
X126744112Y-108796712D01*
X126590937Y-109166510D01*
X126590935Y-109166513D01*
X126368557Y-109499325D01*
X126085525Y-109782357D01*
X125752713Y-110004735D01*
X125752710Y-110004737D01*
X125382912Y-110157912D01*
X124990336Y-110236000D01*
X124590064Y-110236000D01*
X124197488Y-110157912D01*
X123827690Y-110004737D01*
X123827687Y-110004735D01*
X123494875Y-109782357D01*
X123211843Y-109499325D01*
X122989465Y-109166513D01*
X122989463Y-109166510D01*
X122836288Y-108796712D01*
X122758200Y-108404136D01*
X122758200Y-108003864D01*
X122836288Y-107611288D01*
X122989463Y-107241490D01*
X122989465Y-107241487D01*
X123211843Y-106908675D01*
X123494875Y-106625643D01*
X123827687Y-106403265D01*
X123827690Y-106403263D01*
X124197488Y-106250088D01*
X124590064Y-106172000D01*
X124990336Y-106172000D01*
X125382912Y-106250088D01*
X125382912Y-106250088D01*
G37*
G36*
X86109712Y-107484662D02*
X86279361Y-107536125D01*
X86435713Y-107619696D01*
X86572755Y-107732165D01*
X86685224Y-107869207D01*
X86768795Y-108025559D01*
X86820258Y-108195208D01*
X86837634Y-108371640D01*
X86820258Y-108548072D01*
X86768795Y-108717721D01*
X86685224Y-108874073D01*
X86572755Y-109011115D01*
X86435713Y-109123584D01*
X86279361Y-109207155D01*
X86109712Y-109258618D01*
X85977491Y-109271640D01*
X85889069Y-109271640D01*
X85756848Y-109258618D01*
X85587199Y-109207155D01*
X85430847Y-109123584D01*
X85293805Y-109011115D01*
X85181336Y-108874073D01*
X85097765Y-108717721D01*
X85046302Y-108548072D01*
X85028926Y-108371640D01*
X85046302Y-108195208D01*
X85097765Y-108025559D01*
X85181336Y-107869207D01*
X85293805Y-107732165D01*
X85430847Y-107619696D01*
X85587199Y-107536125D01*
X85756848Y-107484662D01*
X85889069Y-107471640D01*
X85977491Y-107471640D01*
X86109712Y-107484662D01*
X86109712Y-107484662D01*
G37*
G36*
X89373280Y-109271640D02*
X87573280Y-109271640D01*
X87573280Y-107471640D01*
X89373280Y-107471640D01*
X89373280Y-109271640D01*
X89373280Y-109271640D01*
G37*
G36*
X83569712Y-107484662D02*
X83739361Y-107536125D01*
X83895713Y-107619696D01*
X84032755Y-107732165D01*
X84145224Y-107869207D01*
X84228795Y-108025559D01*
X84280258Y-108195208D01*
X84297634Y-108371640D01*
X84280258Y-108548072D01*
X84228795Y-108717721D01*
X84145224Y-108874073D01*
X84032755Y-109011115D01*
X83895713Y-109123584D01*
X83739361Y-109207155D01*
X83569712Y-109258618D01*
X83437491Y-109271640D01*
X83349069Y-109271640D01*
X83216848Y-109258618D01*
X83047199Y-109207155D01*
X82890847Y-109123584D01*
X82753805Y-109011115D01*
X82641336Y-108874073D01*
X82557765Y-108717721D01*
X82506302Y-108548072D01*
X82488926Y-108371640D01*
X82506302Y-108195208D01*
X82557765Y-108025559D01*
X82641336Y-107869207D01*
X82753805Y-107732165D01*
X82890847Y-107619696D01*
X83047199Y-107536125D01*
X83216848Y-107484662D01*
X83349069Y-107471640D01*
X83437491Y-107471640D01*
X83569712Y-107484662D01*
X83569712Y-107484662D01*
G37*
G36*
X68260769Y-105222237D02*
X68299947Y-105226096D01*
X68375348Y-105248969D01*
X68450749Y-105271841D01*
X68589728Y-105346128D01*
X68711542Y-105446098D01*
X68811512Y-105567912D01*
X68885799Y-105706891D01*
X68931544Y-105857694D01*
X68946990Y-106014520D01*
X68931544Y-106171346D01*
X68885799Y-106322149D01*
X68811512Y-106461128D01*
X68711542Y-106582942D01*
X68589728Y-106682912D01*
X68450749Y-106757199D01*
X68375348Y-106780071D01*
X68299947Y-106802944D01*
X68260769Y-106806803D01*
X68182415Y-106814520D01*
X68103825Y-106814520D01*
X68025471Y-106806803D01*
X67986293Y-106802944D01*
X67910892Y-106780071D01*
X67835491Y-106757199D01*
X67696512Y-106682912D01*
X67574698Y-106582942D01*
X67474728Y-106461128D01*
X67400441Y-106322149D01*
X67354696Y-106171346D01*
X67339250Y-106014520D01*
X67354696Y-105857694D01*
X67400441Y-105706891D01*
X67474728Y-105567912D01*
X67574698Y-105446098D01*
X67696512Y-105346128D01*
X67835491Y-105271841D01*
X67910892Y-105248969D01*
X67986293Y-105226096D01*
X68025471Y-105222237D01*
X68103825Y-105214520D01*
X68182415Y-105214520D01*
X68260769Y-105222237D01*
X68260769Y-105222237D01*
G37*
G36*
X46459650Y-103175692D02*
X46575569Y-103198749D01*
X46757558Y-103274131D01*
X46921343Y-103383569D01*
X47060631Y-103522857D01*
X47170069Y-103686642D01*
X47245451Y-103868631D01*
X47283880Y-104061829D01*
X47283880Y-104258811D01*
X47245451Y-104452009D01*
X47170069Y-104633998D01*
X47060631Y-104797783D01*
X46921343Y-104937071D01*
X46757558Y-105046509D01*
X46575569Y-105121891D01*
X46459650Y-105144948D01*
X46382373Y-105160320D01*
X46185387Y-105160320D01*
X46108110Y-105144948D01*
X45992191Y-105121891D01*
X45810202Y-105046509D01*
X45646417Y-104937071D01*
X45507129Y-104797783D01*
X45397691Y-104633998D01*
X45322309Y-104452009D01*
X45283880Y-104258811D01*
X45283880Y-104061829D01*
X45322309Y-103868631D01*
X45397691Y-103686642D01*
X45507129Y-103522857D01*
X45646417Y-103383569D01*
X45810202Y-103274131D01*
X45992191Y-103198749D01*
X46108110Y-103175692D01*
X46185387Y-103160320D01*
X46382373Y-103160320D01*
X46459650Y-103175692D01*
X46459650Y-103175692D01*
G37*
G36*
X50959650Y-103175692D02*
X51075569Y-103198749D01*
X51257558Y-103274131D01*
X51421343Y-103383569D01*
X51560631Y-103522857D01*
X51670069Y-103686642D01*
X51745451Y-103868631D01*
X51783880Y-104061829D01*
X51783880Y-104258811D01*
X51745451Y-104452009D01*
X51670069Y-104633998D01*
X51560631Y-104797783D01*
X51421343Y-104937071D01*
X51257558Y-105046509D01*
X51075569Y-105121891D01*
X50959650Y-105144948D01*
X50882373Y-105160320D01*
X50685387Y-105160320D01*
X50608110Y-105144948D01*
X50492191Y-105121891D01*
X50310202Y-105046509D01*
X50146417Y-104937071D01*
X50007129Y-104797783D01*
X49897691Y-104633998D01*
X49822309Y-104452009D01*
X49783880Y-104258811D01*
X49783880Y-104061829D01*
X49822309Y-103868631D01*
X49897691Y-103686642D01*
X50007129Y-103522857D01*
X50146417Y-103383569D01*
X50310202Y-103274131D01*
X50492191Y-103198749D01*
X50608110Y-103175692D01*
X50685387Y-103160320D01*
X50882373Y-103160320D01*
X50959650Y-103175692D01*
X50959650Y-103175692D01*
G37*
G36*
X57836640Y-105055240D02*
X56036640Y-105055240D01*
X56036640Y-103255240D01*
X57836640Y-103255240D01*
X57836640Y-105055240D01*
X57836640Y-105055240D01*
G37*
G36*
X105866706Y-102220315D02*
X106085092Y-102310773D01*
X106281638Y-102442101D01*
X106448779Y-102609242D01*
X106580107Y-102805788D01*
X106670565Y-103024174D01*
X106716680Y-103256009D01*
X106716680Y-103492391D01*
X106670565Y-103724226D01*
X106580107Y-103942612D01*
X106448779Y-104139158D01*
X106281638Y-104306299D01*
X106085092Y-104437627D01*
X105866706Y-104528085D01*
X105634871Y-104574200D01*
X105398489Y-104574200D01*
X105166654Y-104528085D01*
X104948268Y-104437627D01*
X104751722Y-104306299D01*
X104584581Y-104139158D01*
X104453253Y-103942612D01*
X104362795Y-103724226D01*
X104316680Y-103492391D01*
X104316680Y-103256009D01*
X104362795Y-103024174D01*
X104453253Y-102805788D01*
X104584581Y-102609242D01*
X104751722Y-102442101D01*
X104948268Y-102310773D01*
X105166654Y-102220315D01*
X105398489Y-102174200D01*
X105634871Y-102174200D01*
X105866706Y-102220315D01*
X105866706Y-102220315D01*
G37*
G36*
X84226072Y-101765463D02*
X84371661Y-101825768D01*
X84502693Y-101913321D01*
X84614119Y-102024747D01*
X84701672Y-102155779D01*
X84761977Y-102301368D01*
X84792720Y-102455925D01*
X84792720Y-102613515D01*
X84761977Y-102768072D01*
X84701672Y-102913661D01*
X84614119Y-103044693D01*
X84502693Y-103156119D01*
X84371661Y-103243672D01*
X84226072Y-103303977D01*
X84071515Y-103334720D01*
X83913925Y-103334720D01*
X83759368Y-103303977D01*
X83613779Y-103243672D01*
X83482747Y-103156119D01*
X83371321Y-103044693D01*
X83283768Y-102913661D01*
X83223463Y-102768072D01*
X83192720Y-102613515D01*
X83192720Y-102455925D01*
X83223463Y-102301368D01*
X83283768Y-102155779D01*
X83371321Y-102024747D01*
X83482747Y-101913321D01*
X83613779Y-101825768D01*
X83759368Y-101765463D01*
X83913925Y-101734720D01*
X84071515Y-101734720D01*
X84226072Y-101765463D01*
X84226072Y-101765463D01*
G37*
G36*
X79831872Y-101745143D02*
X79977461Y-101805448D01*
X80108493Y-101893001D01*
X80219919Y-102004427D01*
X80307472Y-102135459D01*
X80367777Y-102281048D01*
X80398520Y-102435605D01*
X80398520Y-102593195D01*
X80367777Y-102747752D01*
X80307472Y-102893341D01*
X80219919Y-103024373D01*
X80108493Y-103135799D01*
X79977461Y-103223352D01*
X79831872Y-103283657D01*
X79677315Y-103314400D01*
X79519725Y-103314400D01*
X79365168Y-103283657D01*
X79219579Y-103223352D01*
X79088547Y-103135799D01*
X78977121Y-103024373D01*
X78889568Y-102893341D01*
X78829263Y-102747752D01*
X78798520Y-102593195D01*
X78798520Y-102435605D01*
X78829263Y-102281048D01*
X78889568Y-102135459D01*
X78977121Y-102004427D01*
X79088547Y-101893001D01*
X79219579Y-101805448D01*
X79365168Y-101745143D01*
X79519725Y-101714400D01*
X79677315Y-101714400D01*
X79831872Y-101745143D01*
X79831872Y-101745143D01*
G37*
G36*
X57199161Y-100749826D02*
X57362949Y-100817669D01*
X57510360Y-100916166D01*
X57635714Y-101041520D01*
X57734211Y-101188931D01*
X57802054Y-101352719D01*
X57836640Y-101526596D01*
X57836640Y-101703884D01*
X57802054Y-101877761D01*
X57734211Y-102041549D01*
X57635714Y-102188960D01*
X57510360Y-102314314D01*
X57362949Y-102412811D01*
X57199161Y-102480654D01*
X57025284Y-102515240D01*
X56847996Y-102515240D01*
X56674119Y-102480654D01*
X56510331Y-102412811D01*
X56362920Y-102314314D01*
X56237566Y-102188960D01*
X56139069Y-102041549D01*
X56071226Y-101877761D01*
X56036640Y-101703884D01*
X56036640Y-101526596D01*
X56071226Y-101352719D01*
X56139069Y-101188931D01*
X56237566Y-101041520D01*
X56362920Y-100916166D01*
X56510331Y-100817669D01*
X56674119Y-100749826D01*
X56847996Y-100715240D01*
X57025284Y-100715240D01*
X57199161Y-100749826D01*
X57199161Y-100749826D01*
G37*
G36*
X125382912Y-97101008D02*
X125752710Y-97254183D01*
X125752713Y-97254185D01*
X126085525Y-97476563D01*
X126368557Y-97759595D01*
X126545574Y-98024520D01*
X126590937Y-98092410D01*
X126744112Y-98462208D01*
X126822200Y-98854784D01*
X126822200Y-99255056D01*
X126744112Y-99647632D01*
X126590937Y-100017430D01*
X126590935Y-100017433D01*
X126368557Y-100350245D01*
X126085525Y-100633277D01*
X125752713Y-100855655D01*
X125752710Y-100855657D01*
X125382912Y-101008832D01*
X124990336Y-101086920D01*
X124590064Y-101086920D01*
X124197488Y-101008832D01*
X123827690Y-100855657D01*
X123827687Y-100855655D01*
X123494875Y-100633277D01*
X123211843Y-100350245D01*
X122989465Y-100017433D01*
X122989463Y-100017430D01*
X122836288Y-99647632D01*
X122758200Y-99255056D01*
X122758200Y-98854784D01*
X122836288Y-98462208D01*
X122989463Y-98092410D01*
X123034826Y-98024520D01*
X123211843Y-97759595D01*
X123494875Y-97476563D01*
X123827687Y-97254185D01*
X123827690Y-97254183D01*
X124197488Y-97101008D01*
X124590064Y-97022920D01*
X124990336Y-97022920D01*
X125382912Y-97101008D01*
X125382912Y-97101008D01*
G37*
G36*
X94473600Y-100564520D02*
X92673600Y-100564520D01*
X92673600Y-98764520D01*
X94473600Y-98764520D01*
X94473600Y-100564520D01*
X94473600Y-100564520D01*
G37*
G36*
X106716680Y-99574200D02*
X104316680Y-99574200D01*
X104316680Y-97174200D01*
X106716680Y-97174200D01*
X106716680Y-99574200D01*
X106716680Y-99574200D01*
G37*
G36*
X50959650Y-96675692D02*
X51075569Y-96698749D01*
X51257558Y-96774131D01*
X51421343Y-96883569D01*
X51560631Y-97022857D01*
X51670069Y-97186642D01*
X51745451Y-97368631D01*
X51766920Y-97476563D01*
X51781693Y-97550830D01*
X51783880Y-97561829D01*
X51783880Y-97758811D01*
X51745451Y-97952009D01*
X51670069Y-98133998D01*
X51560631Y-98297783D01*
X51421343Y-98437071D01*
X51257558Y-98546509D01*
X51075569Y-98621891D01*
X50959650Y-98644948D01*
X50882373Y-98660320D01*
X50685387Y-98660320D01*
X50608110Y-98644948D01*
X50492191Y-98621891D01*
X50310202Y-98546509D01*
X50146417Y-98437071D01*
X50007129Y-98297783D01*
X49897691Y-98133998D01*
X49822309Y-97952009D01*
X49783880Y-97758811D01*
X49783880Y-97561829D01*
X49786068Y-97550830D01*
X49800840Y-97476563D01*
X49822309Y-97368631D01*
X49897691Y-97186642D01*
X50007129Y-97022857D01*
X50146417Y-96883569D01*
X50310202Y-96774131D01*
X50492191Y-96698749D01*
X50608110Y-96675692D01*
X50685387Y-96660320D01*
X50882373Y-96660320D01*
X50959650Y-96675692D01*
X50959650Y-96675692D01*
G37*
G36*
X46459650Y-96675692D02*
X46575569Y-96698749D01*
X46757558Y-96774131D01*
X46921343Y-96883569D01*
X47060631Y-97022857D01*
X47170069Y-97186642D01*
X47245451Y-97368631D01*
X47266920Y-97476563D01*
X47281693Y-97550830D01*
X47283880Y-97561829D01*
X47283880Y-97758811D01*
X47245451Y-97952009D01*
X47170069Y-98133998D01*
X47060631Y-98297783D01*
X46921343Y-98437071D01*
X46757558Y-98546509D01*
X46575569Y-98621891D01*
X46459650Y-98644948D01*
X46382373Y-98660320D01*
X46185387Y-98660320D01*
X46108110Y-98644948D01*
X45992191Y-98621891D01*
X45810202Y-98546509D01*
X45646417Y-98437071D01*
X45507129Y-98297783D01*
X45397691Y-98133998D01*
X45322309Y-97952009D01*
X45283880Y-97758811D01*
X45283880Y-97561829D01*
X45286068Y-97550830D01*
X45300840Y-97476563D01*
X45322309Y-97368631D01*
X45397691Y-97186642D01*
X45507129Y-97022857D01*
X45646417Y-96883569D01*
X45810202Y-96774131D01*
X45992191Y-96698749D01*
X46108110Y-96675692D01*
X46185387Y-96660320D01*
X46382373Y-96660320D01*
X46459650Y-96675692D01*
X46459650Y-96675692D01*
G37*
G36*
X93836121Y-96259106D02*
X93999909Y-96326949D01*
X94147320Y-96425446D01*
X94272674Y-96550800D01*
X94371171Y-96698211D01*
X94439014Y-96861999D01*
X94473600Y-97035876D01*
X94473600Y-97213164D01*
X94439014Y-97387041D01*
X94371171Y-97550829D01*
X94272674Y-97698240D01*
X94147320Y-97823594D01*
X93999909Y-97922091D01*
X93836121Y-97989934D01*
X93662244Y-98024520D01*
X93484956Y-98024520D01*
X93311079Y-97989934D01*
X93147291Y-97922091D01*
X92999880Y-97823594D01*
X92874526Y-97698240D01*
X92776029Y-97550829D01*
X92708186Y-97387041D01*
X92673600Y-97213164D01*
X92673600Y-97035876D01*
X92708186Y-96861999D01*
X92776029Y-96698211D01*
X92874526Y-96550800D01*
X92999880Y-96425446D01*
X93147291Y-96326949D01*
X93311079Y-96259106D01*
X93484956Y-96224520D01*
X93662244Y-96224520D01*
X93836121Y-96259106D01*
X93836121Y-96259106D01*
G37*
G36*
X72766729Y-93807477D02*
X72805907Y-93811336D01*
X72881307Y-93834208D01*
X72956709Y-93857081D01*
X73095688Y-93931368D01*
X73217502Y-94031338D01*
X73317472Y-94153152D01*
X73391759Y-94292131D01*
X73437504Y-94442934D01*
X73452950Y-94599760D01*
X73437504Y-94756586D01*
X73391759Y-94907389D01*
X73317472Y-95046368D01*
X73217502Y-95168182D01*
X73095688Y-95268152D01*
X72956709Y-95342439D01*
X72881308Y-95365311D01*
X72805907Y-95388184D01*
X72766729Y-95392043D01*
X72688375Y-95399760D01*
X72609785Y-95399760D01*
X72531431Y-95392043D01*
X72492253Y-95388184D01*
X72416852Y-95365311D01*
X72341451Y-95342439D01*
X72202472Y-95268152D01*
X72080658Y-95168182D01*
X71980688Y-95046368D01*
X71906401Y-94907389D01*
X71860656Y-94756586D01*
X71845210Y-94599760D01*
X71860656Y-94442934D01*
X71906401Y-94292131D01*
X71980688Y-94153152D01*
X72080658Y-94031338D01*
X72202472Y-93931368D01*
X72341451Y-93857081D01*
X72416853Y-93834208D01*
X72492253Y-93811336D01*
X72531431Y-93807477D01*
X72609785Y-93799760D01*
X72688375Y-93799760D01*
X72766729Y-93807477D01*
X72766729Y-93807477D01*
G37*
G36*
X94473600Y-94722520D02*
X92673600Y-94722520D01*
X92673600Y-92922520D01*
X94473600Y-92922520D01*
X94473600Y-94722520D01*
X94473600Y-94722520D01*
G37*
G36*
X68376472Y-92545263D02*
X68522061Y-92605568D01*
X68653093Y-92693121D01*
X68764519Y-92804547D01*
X68852072Y-92935579D01*
X68912377Y-93081168D01*
X68943120Y-93235725D01*
X68943120Y-93393315D01*
X68912377Y-93547872D01*
X68852072Y-93693461D01*
X68764519Y-93824493D01*
X68653093Y-93935919D01*
X68522061Y-94023472D01*
X68376472Y-94083777D01*
X68221915Y-94114520D01*
X68064325Y-94114520D01*
X67909768Y-94083777D01*
X67764179Y-94023472D01*
X67633147Y-93935919D01*
X67521721Y-93824493D01*
X67434168Y-93693461D01*
X67373863Y-93547872D01*
X67343120Y-93393315D01*
X67343120Y-93235725D01*
X67373863Y-93081168D01*
X67434168Y-92935579D01*
X67521721Y-92804547D01*
X67633147Y-92693121D01*
X67764179Y-92605568D01*
X67909768Y-92545263D01*
X68064325Y-92514520D01*
X68221915Y-92514520D01*
X68376472Y-92545263D01*
X68376472Y-92545263D01*
G37*
G36*
X46303872Y-92530023D02*
X46449461Y-92590328D01*
X46580493Y-92677881D01*
X46691919Y-92789307D01*
X46779472Y-92920339D01*
X46839777Y-93065928D01*
X46870520Y-93220485D01*
X46870520Y-93378075D01*
X46839777Y-93532632D01*
X46779472Y-93678221D01*
X46691919Y-93809253D01*
X46580493Y-93920679D01*
X46449461Y-94008232D01*
X46303872Y-94068537D01*
X46149315Y-94099280D01*
X45991725Y-94099280D01*
X45837168Y-94068537D01*
X45691579Y-94008232D01*
X45560547Y-93920679D01*
X45449121Y-93809253D01*
X45361568Y-93678221D01*
X45301263Y-93532632D01*
X45270520Y-93378075D01*
X45270520Y-93220485D01*
X45301263Y-93065928D01*
X45361568Y-92920339D01*
X45449121Y-92789307D01*
X45560547Y-92677881D01*
X45691579Y-92590328D01*
X45837168Y-92530023D01*
X45991725Y-92499280D01*
X46149315Y-92499280D01*
X46303872Y-92530023D01*
X46303872Y-92530023D01*
G37*
G36*
X50957152Y-92530023D02*
X51102741Y-92590328D01*
X51233773Y-92677881D01*
X51345199Y-92789307D01*
X51432752Y-92920339D01*
X51493057Y-93065928D01*
X51523800Y-93220485D01*
X51523800Y-93378075D01*
X51493057Y-93532632D01*
X51432752Y-93678221D01*
X51345199Y-93809253D01*
X51233773Y-93920679D01*
X51102741Y-94008232D01*
X50957152Y-94068537D01*
X50802595Y-94099280D01*
X50645005Y-94099280D01*
X50490448Y-94068537D01*
X50344859Y-94008232D01*
X50213827Y-93920679D01*
X50102401Y-93809253D01*
X50014848Y-93678221D01*
X49954543Y-93532632D01*
X49923800Y-93378075D01*
X49923800Y-93220485D01*
X49954543Y-93065928D01*
X50014848Y-92920339D01*
X50102401Y-92789307D01*
X50213827Y-92677881D01*
X50344859Y-92590328D01*
X50490448Y-92530023D01*
X50645005Y-92499280D01*
X50802595Y-92499280D01*
X50957152Y-92530023D01*
X50957152Y-92530023D01*
G37*
G36*
X58385249Y-92491757D02*
X58424427Y-92495616D01*
X58486745Y-92514520D01*
X58575229Y-92541361D01*
X58714208Y-92615648D01*
X58836022Y-92715618D01*
X58935992Y-92837432D01*
X59010279Y-92976411D01*
X59056024Y-93127214D01*
X59071470Y-93284040D01*
X59056024Y-93440866D01*
X59010279Y-93591669D01*
X58935992Y-93730648D01*
X58836022Y-93852462D01*
X58714208Y-93952432D01*
X58575229Y-94026719D01*
X58499828Y-94049591D01*
X58424427Y-94072464D01*
X58385249Y-94076323D01*
X58306895Y-94084040D01*
X58228305Y-94084040D01*
X58149951Y-94076323D01*
X58110773Y-94072464D01*
X58035372Y-94049591D01*
X57959971Y-94026719D01*
X57820992Y-93952432D01*
X57699178Y-93852462D01*
X57599208Y-93730648D01*
X57524921Y-93591669D01*
X57479176Y-93440866D01*
X57463730Y-93284040D01*
X57479176Y-93127214D01*
X57524921Y-92976411D01*
X57599208Y-92837432D01*
X57699178Y-92715618D01*
X57820992Y-92615648D01*
X57959971Y-92541361D01*
X58048455Y-92514520D01*
X58110773Y-92495616D01*
X58149951Y-92491757D01*
X58228305Y-92484040D01*
X58306895Y-92484040D01*
X58385249Y-92491757D01*
X58385249Y-92491757D01*
G37*
G36*
X62813872Y-92494463D02*
X62959461Y-92554768D01*
X63090493Y-92642321D01*
X63201919Y-92753747D01*
X63289472Y-92884779D01*
X63349777Y-93030368D01*
X63380520Y-93184925D01*
X63380520Y-93342515D01*
X63349777Y-93497072D01*
X63289472Y-93642661D01*
X63201919Y-93773693D01*
X63090493Y-93885119D01*
X62959461Y-93972672D01*
X62813872Y-94032977D01*
X62659315Y-94063720D01*
X62501725Y-94063720D01*
X62347168Y-94032977D01*
X62201579Y-93972672D01*
X62070547Y-93885119D01*
X61959121Y-93773693D01*
X61871568Y-93642661D01*
X61811263Y-93497072D01*
X61780520Y-93342515D01*
X61780520Y-93184925D01*
X61811263Y-93030368D01*
X61871568Y-92884779D01*
X61959121Y-92753747D01*
X62070547Y-92642321D01*
X62201579Y-92554768D01*
X62347168Y-92494463D01*
X62501725Y-92463720D01*
X62659315Y-92463720D01*
X62813872Y-92494463D01*
X62813872Y-92494463D01*
G37*
G36*
X93836121Y-90417106D02*
X93999909Y-90484949D01*
X94147320Y-90583446D01*
X94272674Y-90708800D01*
X94371171Y-90856211D01*
X94439014Y-91019999D01*
X94473600Y-91193876D01*
X94473600Y-91371164D01*
X94439014Y-91545041D01*
X94371171Y-91708829D01*
X94272674Y-91856240D01*
X94147320Y-91981594D01*
X93999909Y-92080091D01*
X93836121Y-92147934D01*
X93662244Y-92182520D01*
X93484956Y-92182520D01*
X93311079Y-92147934D01*
X93147291Y-92080091D01*
X92999880Y-91981594D01*
X92874526Y-91856240D01*
X92776029Y-91708829D01*
X92708186Y-91545041D01*
X92673600Y-91371164D01*
X92673600Y-91193876D01*
X92708186Y-91019999D01*
X92776029Y-90856211D01*
X92874526Y-90708800D01*
X92999880Y-90583446D01*
X93147291Y-90484949D01*
X93311079Y-90417106D01*
X93484956Y-90382520D01*
X93662244Y-90382520D01*
X93836121Y-90417106D01*
X93836121Y-90417106D01*
G37*
G36*
X112323350Y-88857117D02*
X112480055Y-88872551D01*
X112681122Y-88933544D01*
X112781657Y-88964041D01*
X112913887Y-89034720D01*
X113059613Y-89112612D01*
X113303245Y-89312555D01*
X113503188Y-89556187D01*
X113557380Y-89657573D01*
X113651759Y-89834143D01*
X113651759Y-89834144D01*
X113743249Y-90135745D01*
X113774141Y-90449400D01*
X113743249Y-90763055D01*
X113714990Y-90856211D01*
X113651759Y-91064657D01*
X113572346Y-91213228D01*
X113503188Y-91342613D01*
X113303245Y-91586245D01*
X113059613Y-91786188D01*
X112930228Y-91855346D01*
X112781657Y-91934759D01*
X112681122Y-91965256D01*
X112480055Y-92026249D01*
X112323350Y-92041683D01*
X112244998Y-92049400D01*
X112087802Y-92049400D01*
X112009450Y-92041683D01*
X111852745Y-92026249D01*
X111651678Y-91965256D01*
X111551143Y-91934759D01*
X111402572Y-91855346D01*
X111273187Y-91786188D01*
X111029555Y-91586245D01*
X110829612Y-91342613D01*
X110760454Y-91213228D01*
X110681041Y-91064657D01*
X110617810Y-90856211D01*
X110589551Y-90763055D01*
X110558659Y-90449400D01*
X110589551Y-90135745D01*
X110681041Y-89834144D01*
X110681041Y-89834143D01*
X110775420Y-89657573D01*
X110829612Y-89556187D01*
X111029555Y-89312555D01*
X111273187Y-89112612D01*
X111418913Y-89034720D01*
X111551143Y-88964041D01*
X111651678Y-88933544D01*
X111852745Y-88872551D01*
X112009450Y-88857117D01*
X112087802Y-88849400D01*
X112244998Y-88849400D01*
X112323350Y-88857117D01*
X112323350Y-88857117D01*
G37*
G36*
X129006400Y-92049400D02*
X125806400Y-92049400D01*
X125806400Y-88849400D01*
X129006400Y-88849400D01*
X129006400Y-92049400D01*
X129006400Y-92049400D01*
G37*
G36*
X84110369Y-89042437D02*
X84149547Y-89046296D01*
X84224948Y-89069169D01*
X84300349Y-89092041D01*
X84439328Y-89166328D01*
X84561142Y-89266298D01*
X84661112Y-89388112D01*
X84735399Y-89527091D01*
X84735399Y-89527092D01*
X84781144Y-89677893D01*
X84796590Y-89834720D01*
X84781144Y-89991547D01*
X84767208Y-90037488D01*
X84735399Y-90142349D01*
X84661112Y-90281328D01*
X84561142Y-90403142D01*
X84439328Y-90503112D01*
X84300349Y-90577399D01*
X84280414Y-90583446D01*
X84149547Y-90623144D01*
X84110369Y-90627003D01*
X84032015Y-90634720D01*
X83953425Y-90634720D01*
X83875071Y-90627003D01*
X83835893Y-90623144D01*
X83705026Y-90583446D01*
X83685091Y-90577399D01*
X83546112Y-90503112D01*
X83424298Y-90403142D01*
X83324328Y-90281328D01*
X83250041Y-90142349D01*
X83218232Y-90037488D01*
X83204296Y-89991547D01*
X83188850Y-89834720D01*
X83204296Y-89677893D01*
X83250041Y-89527092D01*
X83250041Y-89527091D01*
X83324328Y-89388112D01*
X83424298Y-89266298D01*
X83546112Y-89166328D01*
X83685091Y-89092041D01*
X83760492Y-89069169D01*
X83835893Y-89046296D01*
X83875071Y-89042437D01*
X83953425Y-89034720D01*
X84032015Y-89034720D01*
X84110369Y-89042437D01*
X84110369Y-89042437D01*
G37*
G36*
X79716169Y-89022117D02*
X79755347Y-89025976D01*
X79822333Y-89046296D01*
X79906149Y-89071721D01*
X80045128Y-89146008D01*
X80166942Y-89245978D01*
X80266912Y-89367792D01*
X80341199Y-89506771D01*
X80386944Y-89657574D01*
X80402390Y-89814400D01*
X80386944Y-89971226D01*
X80341199Y-90122029D01*
X80266912Y-90261008D01*
X80166942Y-90382822D01*
X80045128Y-90482792D01*
X79906149Y-90557079D01*
X79839162Y-90577399D01*
X79755347Y-90602824D01*
X79716169Y-90606683D01*
X79637815Y-90614400D01*
X79559225Y-90614400D01*
X79480871Y-90606683D01*
X79441693Y-90602824D01*
X79357878Y-90577399D01*
X79290891Y-90557079D01*
X79151912Y-90482792D01*
X79030098Y-90382822D01*
X78930128Y-90261008D01*
X78855841Y-90122029D01*
X78810096Y-89971226D01*
X78794650Y-89814400D01*
X78810096Y-89657574D01*
X78855841Y-89506771D01*
X78930128Y-89367792D01*
X79030098Y-89245978D01*
X79151912Y-89146008D01*
X79290891Y-89071721D01*
X79374707Y-89046296D01*
X79441693Y-89025976D01*
X79480871Y-89022117D01*
X79559225Y-89014400D01*
X79637815Y-89014400D01*
X79716169Y-89022117D01*
X79716169Y-89022117D01*
G37*
G36*
X88616329Y-88798597D02*
X88655507Y-88802456D01*
X88730908Y-88825329D01*
X88806309Y-88848201D01*
X88945288Y-88922488D01*
X89067102Y-89022458D01*
X89167072Y-89144272D01*
X89241359Y-89283251D01*
X89241359Y-89283252D01*
X89273169Y-89388114D01*
X89287104Y-89434054D01*
X89302550Y-89590880D01*
X89287104Y-89747706D01*
X89241359Y-89898509D01*
X89167072Y-90037488D01*
X89067102Y-90159302D01*
X88945288Y-90259272D01*
X88806309Y-90333559D01*
X88730907Y-90356432D01*
X88655507Y-90379304D01*
X88622854Y-90382520D01*
X88537975Y-90390880D01*
X88459385Y-90390880D01*
X88374506Y-90382520D01*
X88341853Y-90379304D01*
X88266453Y-90356432D01*
X88191051Y-90333559D01*
X88052072Y-90259272D01*
X87930258Y-90159302D01*
X87830288Y-90037488D01*
X87756001Y-89898509D01*
X87710256Y-89747706D01*
X87694810Y-89590880D01*
X87710256Y-89434054D01*
X87724192Y-89388114D01*
X87756001Y-89283252D01*
X87756001Y-89283251D01*
X87830288Y-89144272D01*
X87930258Y-89022458D01*
X88052072Y-88922488D01*
X88191051Y-88848201D01*
X88266452Y-88825329D01*
X88341853Y-88802456D01*
X88381031Y-88798597D01*
X88459385Y-88790880D01*
X88537975Y-88790880D01*
X88616329Y-88798597D01*
X88616329Y-88798597D01*
G37*
G36*
X93771392Y-84564583D02*
X93916981Y-84624888D01*
X94048013Y-84712441D01*
X94159439Y-84823867D01*
X94246992Y-84954899D01*
X94307297Y-85100488D01*
X94338040Y-85255045D01*
X94338040Y-85412635D01*
X94307297Y-85567192D01*
X94246992Y-85712781D01*
X94159439Y-85843813D01*
X94048013Y-85955239D01*
X93916981Y-86042792D01*
X93771392Y-86103097D01*
X93616835Y-86133840D01*
X93459245Y-86133840D01*
X93304688Y-86103097D01*
X93159099Y-86042792D01*
X93028067Y-85955239D01*
X92916641Y-85843813D01*
X92829088Y-85712781D01*
X92768783Y-85567192D01*
X92738040Y-85412635D01*
X92738040Y-85255045D01*
X92768783Y-85100488D01*
X92829088Y-84954899D01*
X92916641Y-84823867D01*
X93028067Y-84712441D01*
X93159099Y-84624888D01*
X93304688Y-84564583D01*
X93459245Y-84533840D01*
X93616835Y-84533840D01*
X93771392Y-84564583D01*
X93771392Y-84564583D01*
G37*
G36*
X84495129Y-83703357D02*
X84534307Y-83707216D01*
X84609708Y-83730089D01*
X84685109Y-83752961D01*
X84824088Y-83827248D01*
X84945902Y-83927218D01*
X85045872Y-84049032D01*
X85120159Y-84188011D01*
X85165904Y-84338814D01*
X85181350Y-84495640D01*
X85165904Y-84652466D01*
X85120159Y-84803269D01*
X85045872Y-84942248D01*
X84945902Y-85064062D01*
X84824088Y-85164032D01*
X84685109Y-85238319D01*
X84629970Y-85255045D01*
X84534307Y-85284064D01*
X84495129Y-85287923D01*
X84416775Y-85295640D01*
X83538185Y-85295640D01*
X83459831Y-85287923D01*
X83420653Y-85284064D01*
X83324990Y-85255045D01*
X83269851Y-85238319D01*
X83130872Y-85164032D01*
X83009058Y-85064062D01*
X82909088Y-84942248D01*
X82834801Y-84803269D01*
X82789056Y-84652466D01*
X82773610Y-84495640D01*
X82789056Y-84338814D01*
X82834801Y-84188011D01*
X82909088Y-84049032D01*
X83009058Y-83927218D01*
X83130872Y-83827248D01*
X83269851Y-83752961D01*
X83345252Y-83730089D01*
X83420653Y-83707216D01*
X83459831Y-83703357D01*
X83538185Y-83695640D01*
X84416775Y-83695640D01*
X84495129Y-83703357D01*
X84495129Y-83703357D01*
G37*
G36*
X76875129Y-83703357D02*
X76914307Y-83707216D01*
X76989708Y-83730089D01*
X77065109Y-83752961D01*
X77204088Y-83827248D01*
X77325902Y-83927218D01*
X77425872Y-84049032D01*
X77500159Y-84188011D01*
X77545904Y-84338814D01*
X77561350Y-84495640D01*
X77545904Y-84652466D01*
X77500159Y-84803269D01*
X77425872Y-84942248D01*
X77325902Y-85064062D01*
X77204088Y-85164032D01*
X77065109Y-85238319D01*
X77009970Y-85255045D01*
X76914307Y-85284064D01*
X76875129Y-85287923D01*
X76796775Y-85295640D01*
X75918185Y-85295640D01*
X75839831Y-85287923D01*
X75800653Y-85284064D01*
X75704990Y-85255045D01*
X75649851Y-85238319D01*
X75510872Y-85164032D01*
X75389058Y-85064062D01*
X75289088Y-84942248D01*
X75214801Y-84803269D01*
X75169056Y-84652466D01*
X75153610Y-84495640D01*
X75169056Y-84338814D01*
X75214801Y-84188011D01*
X75289088Y-84049032D01*
X75389058Y-83927218D01*
X75510872Y-83827248D01*
X75649851Y-83752961D01*
X75725252Y-83730089D01*
X75800653Y-83707216D01*
X75839831Y-83703357D01*
X75918185Y-83695640D01*
X76796775Y-83695640D01*
X76875129Y-83703357D01*
X76875129Y-83703357D01*
G37*
G36*
X76875129Y-81163357D02*
X76914307Y-81167216D01*
X76989708Y-81190089D01*
X77065109Y-81212961D01*
X77204088Y-81287248D01*
X77325902Y-81387218D01*
X77425872Y-81509032D01*
X77500159Y-81648011D01*
X77505740Y-81666409D01*
X77545904Y-81798813D01*
X77561350Y-81955640D01*
X77545904Y-82112467D01*
X77539641Y-82133112D01*
X77500159Y-82263269D01*
X77425872Y-82402248D01*
X77325902Y-82524062D01*
X77204088Y-82624032D01*
X77065109Y-82698319D01*
X76989708Y-82721191D01*
X76914307Y-82744064D01*
X76875129Y-82747923D01*
X76796775Y-82755640D01*
X75918185Y-82755640D01*
X75839831Y-82747923D01*
X75800653Y-82744064D01*
X75725252Y-82721191D01*
X75649851Y-82698319D01*
X75510872Y-82624032D01*
X75389058Y-82524062D01*
X75289088Y-82402248D01*
X75214801Y-82263269D01*
X75175319Y-82133112D01*
X75169056Y-82112467D01*
X75153610Y-81955640D01*
X75169056Y-81798813D01*
X75209220Y-81666409D01*
X75214801Y-81648011D01*
X75289088Y-81509032D01*
X75389058Y-81387218D01*
X75510872Y-81287248D01*
X75649851Y-81212961D01*
X75725252Y-81190089D01*
X75800653Y-81167216D01*
X75839831Y-81163357D01*
X75918185Y-81155640D01*
X76796775Y-81155640D01*
X76875129Y-81163357D01*
X76875129Y-81163357D01*
G37*
G36*
X84495129Y-81163357D02*
X84534307Y-81167216D01*
X84609708Y-81190089D01*
X84685109Y-81212961D01*
X84824088Y-81287248D01*
X84945902Y-81387218D01*
X85045872Y-81509032D01*
X85120159Y-81648011D01*
X85125740Y-81666409D01*
X85165904Y-81798813D01*
X85181350Y-81955640D01*
X85165904Y-82112467D01*
X85159641Y-82133112D01*
X85120159Y-82263269D01*
X85045872Y-82402248D01*
X84945902Y-82524062D01*
X84824088Y-82624032D01*
X84685109Y-82698319D01*
X84609708Y-82721191D01*
X84534307Y-82744064D01*
X84495129Y-82747923D01*
X84416775Y-82755640D01*
X83538185Y-82755640D01*
X83459831Y-82747923D01*
X83420653Y-82744064D01*
X83345252Y-82721191D01*
X83269851Y-82698319D01*
X83130872Y-82624032D01*
X83009058Y-82524062D01*
X82909088Y-82402248D01*
X82834801Y-82263269D01*
X82795319Y-82133112D01*
X82789056Y-82112467D01*
X82773610Y-81955640D01*
X82789056Y-81798813D01*
X82829220Y-81666409D01*
X82834801Y-81648011D01*
X82909088Y-81509032D01*
X83009058Y-81387218D01*
X83130872Y-81287248D01*
X83269851Y-81212961D01*
X83345252Y-81190089D01*
X83420653Y-81167216D01*
X83459831Y-81163357D01*
X83538185Y-81155640D01*
X84416775Y-81155640D01*
X84495129Y-81163357D01*
X84495129Y-81163357D01*
G37*
G36*
X72882432Y-81130503D02*
X73028021Y-81190808D01*
X73159053Y-81278361D01*
X73270479Y-81389787D01*
X73358032Y-81520819D01*
X73418337Y-81666408D01*
X73449080Y-81820965D01*
X73449080Y-81978555D01*
X73418337Y-82133112D01*
X73358032Y-82278701D01*
X73270479Y-82409733D01*
X73159053Y-82521159D01*
X73028021Y-82608712D01*
X72882432Y-82669017D01*
X72727875Y-82699760D01*
X72570285Y-82699760D01*
X72415728Y-82669017D01*
X72270139Y-82608712D01*
X72139107Y-82521159D01*
X72027681Y-82409733D01*
X71940128Y-82278701D01*
X71879823Y-82133112D01*
X71849080Y-81978555D01*
X71849080Y-81820965D01*
X71879823Y-81666408D01*
X71940128Y-81520819D01*
X72027681Y-81389787D01*
X72139107Y-81278361D01*
X72270139Y-81190808D01*
X72415728Y-81130503D01*
X72570285Y-81099760D01*
X72727875Y-81099760D01*
X72882432Y-81130503D01*
X72882432Y-81130503D01*
G37*
G36*
X50841449Y-79806997D02*
X50880627Y-79810856D01*
X50914202Y-79821041D01*
X51031429Y-79856601D01*
X51170408Y-79930888D01*
X51292222Y-80030858D01*
X51392192Y-80152672D01*
X51466479Y-80291651D01*
X51512224Y-80442454D01*
X51527670Y-80599280D01*
X51512224Y-80756106D01*
X51466479Y-80906909D01*
X51392192Y-81045888D01*
X51292222Y-81167702D01*
X51170408Y-81267672D01*
X51031429Y-81341959D01*
X50997853Y-81352144D01*
X50880627Y-81387704D01*
X50859447Y-81389790D01*
X50763095Y-81399280D01*
X50684505Y-81399280D01*
X50588153Y-81389790D01*
X50566973Y-81387704D01*
X50449747Y-81352144D01*
X50416171Y-81341959D01*
X50277192Y-81267672D01*
X50155378Y-81167702D01*
X50055408Y-81045888D01*
X49981121Y-80906909D01*
X49935376Y-80756106D01*
X49919930Y-80599280D01*
X49935376Y-80442454D01*
X49981121Y-80291651D01*
X50055408Y-80152672D01*
X50155378Y-80030858D01*
X50277192Y-79930888D01*
X50416171Y-79856601D01*
X50533398Y-79821041D01*
X50566973Y-79810856D01*
X50606151Y-79806997D01*
X50684505Y-79799280D01*
X50763095Y-79799280D01*
X50841449Y-79806997D01*
X50841449Y-79806997D01*
G37*
G36*
X46188169Y-79806997D02*
X46227347Y-79810856D01*
X46260922Y-79821041D01*
X46378149Y-79856601D01*
X46517128Y-79930888D01*
X46638942Y-80030858D01*
X46738912Y-80152672D01*
X46813199Y-80291651D01*
X46858944Y-80442454D01*
X46874390Y-80599280D01*
X46858944Y-80756106D01*
X46813199Y-80906909D01*
X46738912Y-81045888D01*
X46638942Y-81167702D01*
X46517128Y-81267672D01*
X46378149Y-81341959D01*
X46344573Y-81352144D01*
X46227347Y-81387704D01*
X46206167Y-81389790D01*
X46109815Y-81399280D01*
X46031225Y-81399280D01*
X45934873Y-81389790D01*
X45913693Y-81387704D01*
X45796467Y-81352144D01*
X45762891Y-81341959D01*
X45623912Y-81267672D01*
X45502098Y-81167702D01*
X45402128Y-81045888D01*
X45327841Y-80906909D01*
X45282096Y-80756106D01*
X45266650Y-80599280D01*
X45282096Y-80442454D01*
X45327841Y-80291651D01*
X45402128Y-80152672D01*
X45502098Y-80030858D01*
X45623912Y-79930888D01*
X45762891Y-79856601D01*
X45880118Y-79821041D01*
X45913693Y-79810856D01*
X45952871Y-79806997D01*
X46031225Y-79799280D01*
X46109815Y-79799280D01*
X46188169Y-79806997D01*
X46188169Y-79806997D01*
G37*
G36*
X58500952Y-79814783D02*
X58646541Y-79875088D01*
X58777573Y-79962641D01*
X58888999Y-80074067D01*
X58976552Y-80205099D01*
X59036857Y-80350688D01*
X59067600Y-80505245D01*
X59067600Y-80662835D01*
X59036857Y-80817392D01*
X58976552Y-80962981D01*
X58888999Y-81094013D01*
X58777573Y-81205439D01*
X58646541Y-81292992D01*
X58500952Y-81353297D01*
X58346395Y-81384040D01*
X58188805Y-81384040D01*
X58034248Y-81353297D01*
X57888659Y-81292992D01*
X57757627Y-81205439D01*
X57646201Y-81094013D01*
X57558648Y-80962981D01*
X57498343Y-80817392D01*
X57467600Y-80662835D01*
X57467600Y-80505245D01*
X57498343Y-80350688D01*
X57558648Y-80205099D01*
X57646201Y-80074067D01*
X57757627Y-79962641D01*
X57888659Y-79875088D01*
X58034248Y-79814783D01*
X58188805Y-79784040D01*
X58346395Y-79784040D01*
X58500952Y-79814783D01*
X58500952Y-79814783D01*
G37*
G36*
X62698169Y-79771437D02*
X62737347Y-79775296D01*
X62810300Y-79797426D01*
X62888149Y-79821041D01*
X63027128Y-79895328D01*
X63148942Y-79995298D01*
X63248912Y-80117112D01*
X63323199Y-80256091D01*
X63323199Y-80256092D01*
X63368944Y-80406893D01*
X63384390Y-80563720D01*
X63368944Y-80720546D01*
X63323199Y-80871349D01*
X63248912Y-81010328D01*
X63148942Y-81132142D01*
X63027128Y-81232112D01*
X62888149Y-81306399D01*
X62812747Y-81329272D01*
X62737347Y-81352144D01*
X62725640Y-81353297D01*
X62619815Y-81363720D01*
X62541225Y-81363720D01*
X62435400Y-81353297D01*
X62423693Y-81352144D01*
X62348293Y-81329272D01*
X62272891Y-81306399D01*
X62133912Y-81232112D01*
X62012098Y-81132142D01*
X61912128Y-81010328D01*
X61837841Y-80871349D01*
X61792096Y-80720546D01*
X61776650Y-80563720D01*
X61792096Y-80406893D01*
X61837841Y-80256092D01*
X61837841Y-80256091D01*
X61912128Y-80117112D01*
X62012098Y-79995298D01*
X62133912Y-79895328D01*
X62272891Y-79821041D01*
X62350740Y-79797426D01*
X62423693Y-79775296D01*
X62462871Y-79771437D01*
X62541225Y-79763720D01*
X62619815Y-79763720D01*
X62698169Y-79771437D01*
X62698169Y-79771437D01*
G37*
G36*
X102676466Y-78293515D02*
X102894852Y-78383973D01*
X103091398Y-78515301D01*
X103258539Y-78682442D01*
X103389867Y-78878988D01*
X103480325Y-79097374D01*
X103526440Y-79329209D01*
X103526440Y-79565591D01*
X103480325Y-79797426D01*
X103389867Y-80015812D01*
X103258539Y-80212358D01*
X103091398Y-80379499D01*
X102894852Y-80510827D01*
X102676466Y-80601285D01*
X102444631Y-80647400D01*
X102208249Y-80647400D01*
X101976414Y-80601285D01*
X101758028Y-80510827D01*
X101561482Y-80379499D01*
X101394341Y-80212358D01*
X101263013Y-80015812D01*
X101172555Y-79797426D01*
X101126440Y-79565591D01*
X101126440Y-79329209D01*
X101172555Y-79097374D01*
X101263013Y-78878988D01*
X101394341Y-78682442D01*
X101561482Y-78515301D01*
X101758028Y-78383973D01*
X101976414Y-78293515D01*
X102208249Y-78247400D01*
X102444631Y-78247400D01*
X102676466Y-78293515D01*
X102676466Y-78293515D01*
G37*
G36*
X76875129Y-78623357D02*
X76914307Y-78627216D01*
X76989708Y-78650089D01*
X77065109Y-78672961D01*
X77204088Y-78747248D01*
X77325902Y-78847218D01*
X77425872Y-78969032D01*
X77500159Y-79108011D01*
X77545904Y-79258814D01*
X77561350Y-79415640D01*
X77545904Y-79572466D01*
X77500159Y-79723269D01*
X77425872Y-79862248D01*
X77325902Y-79984062D01*
X77204088Y-80084032D01*
X77065109Y-80158319D01*
X76989707Y-80181192D01*
X76914307Y-80204064D01*
X76903798Y-80205099D01*
X76796775Y-80215640D01*
X75918185Y-80215640D01*
X75811162Y-80205099D01*
X75800653Y-80204064D01*
X75725252Y-80181191D01*
X75649851Y-80158319D01*
X75510872Y-80084032D01*
X75389058Y-79984062D01*
X75289088Y-79862248D01*
X75214801Y-79723269D01*
X75169056Y-79572466D01*
X75153610Y-79415640D01*
X75169056Y-79258814D01*
X75214801Y-79108011D01*
X75289088Y-78969032D01*
X75389058Y-78847218D01*
X75510872Y-78747248D01*
X75649851Y-78672961D01*
X75725252Y-78650089D01*
X75800653Y-78627216D01*
X75839831Y-78623357D01*
X75918185Y-78615640D01*
X76796775Y-78615640D01*
X76875129Y-78623357D01*
X76875129Y-78623357D01*
G37*
G36*
X84495129Y-78623357D02*
X84534307Y-78627216D01*
X84609708Y-78650089D01*
X84685109Y-78672961D01*
X84824088Y-78747248D01*
X84945902Y-78847218D01*
X85045872Y-78969032D01*
X85120159Y-79108011D01*
X85165904Y-79258814D01*
X85181350Y-79415640D01*
X85165904Y-79572466D01*
X85120159Y-79723269D01*
X85045872Y-79862248D01*
X84945902Y-79984062D01*
X84824088Y-80084032D01*
X84685109Y-80158319D01*
X84609707Y-80181192D01*
X84534307Y-80204064D01*
X84523798Y-80205099D01*
X84416775Y-80215640D01*
X83538185Y-80215640D01*
X83431162Y-80205099D01*
X83420653Y-80204064D01*
X83345252Y-80181191D01*
X83269851Y-80158319D01*
X83130872Y-80084032D01*
X83009058Y-79984062D01*
X82909088Y-79862248D01*
X82834801Y-79723269D01*
X82789056Y-79572466D01*
X82773610Y-79415640D01*
X82789056Y-79258814D01*
X82834801Y-79108011D01*
X82909088Y-78969032D01*
X83009058Y-78847218D01*
X83130872Y-78747248D01*
X83269851Y-78672961D01*
X83345252Y-78650089D01*
X83420653Y-78627216D01*
X83459831Y-78623357D01*
X83538185Y-78615640D01*
X84416775Y-78615640D01*
X84495129Y-78623357D01*
X84495129Y-78623357D01*
G37*
G36*
X36183192Y-73844768D02*
X36552990Y-73997943D01*
X36552993Y-73997945D01*
X36885805Y-74220323D01*
X37168837Y-74503355D01*
X37391215Y-74836167D01*
X37391217Y-74836170D01*
X37544392Y-75205968D01*
X37622480Y-75598544D01*
X37622480Y-75998816D01*
X37544392Y-76391392D01*
X37391217Y-76761190D01*
X37391215Y-76761193D01*
X37168837Y-77094005D01*
X36885805Y-77377037D01*
X36683401Y-77512279D01*
X36552990Y-77599417D01*
X36183192Y-77752592D01*
X35790616Y-77830680D01*
X35390344Y-77830680D01*
X34997768Y-77752592D01*
X34627970Y-77599417D01*
X34497559Y-77512279D01*
X34295155Y-77377037D01*
X34012123Y-77094005D01*
X33789745Y-76761193D01*
X33789743Y-76761190D01*
X33636568Y-76391392D01*
X33558480Y-75998816D01*
X33558480Y-75598544D01*
X33636568Y-75205968D01*
X33789743Y-74836170D01*
X33789745Y-74836167D01*
X34012123Y-74503355D01*
X34295155Y-74220323D01*
X34627967Y-73997945D01*
X34627970Y-73997943D01*
X34997768Y-73844768D01*
X35390344Y-73766680D01*
X35790616Y-73766680D01*
X36183192Y-73844768D01*
X36183192Y-73844768D01*
G37*
G36*
X88732032Y-76121623D02*
X88877621Y-76181928D01*
X89008653Y-76269481D01*
X89120079Y-76380907D01*
X89207632Y-76511939D01*
X89267937Y-76657528D01*
X89298680Y-76812085D01*
X89298680Y-76969675D01*
X89267937Y-77124232D01*
X89207632Y-77269821D01*
X89120079Y-77400853D01*
X89008653Y-77512279D01*
X88877621Y-77599832D01*
X88732032Y-77660137D01*
X88577475Y-77690880D01*
X88419885Y-77690880D01*
X88265328Y-77660137D01*
X88119739Y-77599832D01*
X87988707Y-77512279D01*
X87877281Y-77400853D01*
X87789728Y-77269821D01*
X87729423Y-77124232D01*
X87698680Y-76969675D01*
X87698680Y-76812085D01*
X87729423Y-76657528D01*
X87789728Y-76511939D01*
X87877281Y-76380907D01*
X87988707Y-76269481D01*
X88119739Y-76181928D01*
X88265328Y-76121623D01*
X88419885Y-76090880D01*
X88577475Y-76090880D01*
X88732032Y-76121623D01*
X88732032Y-76121623D01*
G37*
G36*
X77557480Y-77675640D02*
X75157480Y-77675640D01*
X75157480Y-76075640D01*
X77557480Y-76075640D01*
X77557480Y-77675640D01*
X77557480Y-77675640D01*
G37*
G36*
X84495129Y-76083357D02*
X84534307Y-76087216D01*
X84609708Y-76110089D01*
X84685109Y-76132961D01*
X84824088Y-76207248D01*
X84945902Y-76307218D01*
X85045872Y-76429032D01*
X85120159Y-76568011D01*
X85165904Y-76718814D01*
X85181350Y-76875640D01*
X85165904Y-77032466D01*
X85120159Y-77183269D01*
X85045872Y-77322248D01*
X84945902Y-77444062D01*
X84824088Y-77544032D01*
X84685109Y-77618319D01*
X84609708Y-77641191D01*
X84534307Y-77664064D01*
X84495129Y-77667923D01*
X84416775Y-77675640D01*
X83538185Y-77675640D01*
X83459831Y-77667923D01*
X83420653Y-77664064D01*
X83345252Y-77641191D01*
X83269851Y-77618319D01*
X83130872Y-77544032D01*
X83009058Y-77444062D01*
X82909088Y-77322248D01*
X82834801Y-77183269D01*
X82789056Y-77032466D01*
X82773610Y-76875640D01*
X82789056Y-76718814D01*
X82834801Y-76568011D01*
X82909088Y-76429032D01*
X83009058Y-76307218D01*
X83130872Y-76207248D01*
X83269851Y-76132961D01*
X83345252Y-76110089D01*
X83420653Y-76087216D01*
X83459831Y-76083357D01*
X83538185Y-76075640D01*
X84416775Y-76075640D01*
X84495129Y-76083357D01*
X84495129Y-76083357D01*
G37*
G36*
X40899889Y-75062277D02*
X40939067Y-75066136D01*
X41014467Y-75089008D01*
X41089869Y-75111881D01*
X41228848Y-75186168D01*
X41350662Y-75286138D01*
X41450632Y-75407952D01*
X41524919Y-75546931D01*
X41570664Y-75697734D01*
X41586110Y-75854560D01*
X41570664Y-76011386D01*
X41524919Y-76162189D01*
X41450632Y-76301168D01*
X41350662Y-76422982D01*
X41228848Y-76522952D01*
X41089869Y-76597239D01*
X41014467Y-76620112D01*
X40939067Y-76642984D01*
X40899889Y-76646843D01*
X40821535Y-76654560D01*
X40742945Y-76654560D01*
X40664591Y-76646843D01*
X40625413Y-76642984D01*
X40550013Y-76620112D01*
X40474611Y-76597239D01*
X40335632Y-76522952D01*
X40213818Y-76422982D01*
X40113848Y-76301168D01*
X40039561Y-76162189D01*
X39993816Y-76011386D01*
X39978370Y-75854560D01*
X39993816Y-75697734D01*
X40039561Y-75546931D01*
X40113848Y-75407952D01*
X40213818Y-75286138D01*
X40335632Y-75186168D01*
X40474611Y-75111881D01*
X40550013Y-75089008D01*
X40625413Y-75066136D01*
X40664591Y-75062277D01*
X40742945Y-75054560D01*
X40821535Y-75054560D01*
X40899889Y-75062277D01*
X40899889Y-75062277D01*
G37*
G36*
X103526440Y-75647400D02*
X101126440Y-75647400D01*
X101126440Y-73247400D01*
X103526440Y-73247400D01*
X103526440Y-75647400D01*
X103526440Y-75647400D01*
G37*
G36*
X93655689Y-71841557D02*
X93694867Y-71845416D01*
X93770268Y-71868289D01*
X93845669Y-71891161D01*
X93984648Y-71965448D01*
X94106462Y-72065418D01*
X94206432Y-72187232D01*
X94280719Y-72326211D01*
X94326464Y-72477014D01*
X94341910Y-72633840D01*
X94326464Y-72790666D01*
X94280719Y-72941469D01*
X94206432Y-73080448D01*
X94106462Y-73202262D01*
X93984648Y-73302232D01*
X93845669Y-73376519D01*
X93770268Y-73399391D01*
X93694867Y-73422264D01*
X93655689Y-73426123D01*
X93577335Y-73433840D01*
X93498745Y-73433840D01*
X93420391Y-73426123D01*
X93381213Y-73422264D01*
X93305812Y-73399391D01*
X93230411Y-73376519D01*
X93091432Y-73302232D01*
X92969618Y-73202262D01*
X92869648Y-73080448D01*
X92795361Y-72941469D01*
X92749616Y-72790666D01*
X92734170Y-72633840D01*
X92749616Y-72477014D01*
X92795361Y-72326211D01*
X92869648Y-72187232D01*
X92969618Y-72065418D01*
X93091432Y-71965448D01*
X93230411Y-71891161D01*
X93305812Y-71868289D01*
X93381213Y-71845416D01*
X93420391Y-71841557D01*
X93498745Y-71833840D01*
X93577335Y-71833840D01*
X93655689Y-71841557D01*
X93655689Y-71841557D01*
G37*
G36*
X76809089Y-68884997D02*
X76848267Y-68888856D01*
X76923667Y-68911728D01*
X76999069Y-68934601D01*
X77138048Y-69008888D01*
X77259862Y-69108858D01*
X77359832Y-69230672D01*
X77434119Y-69369651D01*
X77434119Y-69369652D01*
X77479864Y-69520453D01*
X77483016Y-69552457D01*
X77495310Y-69677280D01*
X77479864Y-69834106D01*
X77434119Y-69984909D01*
X77359832Y-70123888D01*
X77259862Y-70245702D01*
X77138048Y-70345672D01*
X76999069Y-70419959D01*
X76923668Y-70442831D01*
X76848267Y-70465704D01*
X76809089Y-70469563D01*
X76730735Y-70477280D01*
X75852145Y-70477280D01*
X75773791Y-70469563D01*
X75734613Y-70465704D01*
X75659212Y-70442831D01*
X75583811Y-70419959D01*
X75444832Y-70345672D01*
X75323018Y-70245702D01*
X75223048Y-70123888D01*
X75148761Y-69984909D01*
X75103016Y-69834106D01*
X75087570Y-69677280D01*
X75099864Y-69552457D01*
X75103016Y-69520453D01*
X75148761Y-69369652D01*
X75148761Y-69369651D01*
X75223048Y-69230672D01*
X75323018Y-69108858D01*
X75444832Y-69008888D01*
X75583811Y-68934601D01*
X75659213Y-68911728D01*
X75734613Y-68888856D01*
X75773791Y-68884997D01*
X75852145Y-68877280D01*
X76730735Y-68877280D01*
X76809089Y-68884997D01*
X76809089Y-68884997D01*
G37*
G36*
X84429089Y-68884997D02*
X84468267Y-68888856D01*
X84543667Y-68911728D01*
X84619069Y-68934601D01*
X84758048Y-69008888D01*
X84879862Y-69108858D01*
X84979832Y-69230672D01*
X85054119Y-69369651D01*
X85054119Y-69369652D01*
X85099864Y-69520453D01*
X85103016Y-69552457D01*
X85115310Y-69677280D01*
X85099864Y-69834106D01*
X85054119Y-69984909D01*
X84979832Y-70123888D01*
X84879862Y-70245702D01*
X84758048Y-70345672D01*
X84619069Y-70419959D01*
X84543668Y-70442831D01*
X84468267Y-70465704D01*
X84429089Y-70469563D01*
X84350735Y-70477280D01*
X83472145Y-70477280D01*
X83393791Y-70469563D01*
X83354613Y-70465704D01*
X83279212Y-70442831D01*
X83203811Y-70419959D01*
X83064832Y-70345672D01*
X82943018Y-70245702D01*
X82843048Y-70123888D01*
X82768761Y-69984909D01*
X82723016Y-69834106D01*
X82707570Y-69677280D01*
X82719864Y-69552457D01*
X82723016Y-69520453D01*
X82768761Y-69369652D01*
X82768761Y-69369651D01*
X82843048Y-69230672D01*
X82943018Y-69108858D01*
X83064832Y-69008888D01*
X83203811Y-68934601D01*
X83279213Y-68911728D01*
X83354613Y-68888856D01*
X83393791Y-68884997D01*
X83472145Y-68877280D01*
X84350735Y-68877280D01*
X84429089Y-68884997D01*
X84429089Y-68884997D01*
G37*
G36*
X95325872Y-68013943D02*
X95471461Y-68074248D01*
X95602493Y-68161801D01*
X95713919Y-68273227D01*
X95801472Y-68404259D01*
X95861777Y-68549848D01*
X95892520Y-68704405D01*
X95892520Y-68861995D01*
X95861777Y-69016552D01*
X95801472Y-69162141D01*
X95713919Y-69293173D01*
X95602493Y-69404599D01*
X95471461Y-69492152D01*
X95325872Y-69552457D01*
X95171315Y-69583200D01*
X95013725Y-69583200D01*
X94859168Y-69552457D01*
X94713579Y-69492152D01*
X94582547Y-69404599D01*
X94471121Y-69293173D01*
X94383568Y-69162141D01*
X94323263Y-69016552D01*
X94292520Y-68861995D01*
X94292520Y-68704405D01*
X94323263Y-68549848D01*
X94383568Y-68404259D01*
X94471121Y-68273227D01*
X94582547Y-68161801D01*
X94713579Y-68074248D01*
X94859168Y-68013943D01*
X95013725Y-67983200D01*
X95171315Y-67983200D01*
X95325872Y-68013943D01*
X95325872Y-68013943D01*
G37*
G36*
X90978529Y-67970597D02*
X91017707Y-67974456D01*
X91093107Y-67997328D01*
X91168509Y-68020201D01*
X91307488Y-68094488D01*
X91429302Y-68194458D01*
X91529272Y-68316272D01*
X91603559Y-68455251D01*
X91603559Y-68455252D01*
X91649304Y-68606053D01*
X91664750Y-68762880D01*
X91652343Y-68888856D01*
X91649304Y-68919706D01*
X91603559Y-69070509D01*
X91529272Y-69209488D01*
X91429302Y-69331302D01*
X91307488Y-69431272D01*
X91168509Y-69505559D01*
X91119409Y-69520453D01*
X91017707Y-69551304D01*
X91006000Y-69552457D01*
X90900175Y-69562880D01*
X90821585Y-69562880D01*
X90715760Y-69552457D01*
X90704053Y-69551304D01*
X90602351Y-69520453D01*
X90553251Y-69505559D01*
X90414272Y-69431272D01*
X90292458Y-69331302D01*
X90192488Y-69209488D01*
X90118201Y-69070509D01*
X90072456Y-68919706D01*
X90069418Y-68888856D01*
X90057010Y-68762880D01*
X90072456Y-68606053D01*
X90118201Y-68455252D01*
X90118201Y-68455251D01*
X90192488Y-68316272D01*
X90292458Y-68194458D01*
X90414272Y-68094488D01*
X90553251Y-68020201D01*
X90628653Y-67997328D01*
X90704053Y-67974456D01*
X90743231Y-67970597D01*
X90821585Y-67962880D01*
X90900175Y-67962880D01*
X90978529Y-67970597D01*
X90978529Y-67970597D01*
G37*
G36*
X100978240Y-69558440D02*
X99458240Y-69558440D01*
X99458240Y-68038440D01*
X100978240Y-68038440D01*
X100978240Y-69558440D01*
X100978240Y-69558440D01*
G37*
G36*
X106312240Y-69558440D02*
X104792240Y-69558440D01*
X104792240Y-68038440D01*
X106312240Y-68038440D01*
X106312240Y-69558440D01*
X106312240Y-69558440D01*
G37*
G36*
X126509962Y-65693275D02*
X126625881Y-65716333D01*
X126953460Y-65852021D01*
X127229935Y-66036756D01*
X127248276Y-66049011D01*
X127498989Y-66299724D01*
X127498991Y-66299727D01*
X127619529Y-66480124D01*
X127695980Y-66594542D01*
X127705877Y-66618435D01*
X127831667Y-66922119D01*
X127900840Y-67269876D01*
X127900840Y-67624444D01*
X127831667Y-67972201D01*
X127789397Y-68074249D01*
X127695980Y-68299778D01*
X127498989Y-68594596D01*
X127248276Y-68845309D01*
X127248273Y-68845311D01*
X126953460Y-69042299D01*
X126625881Y-69177987D01*
X126509962Y-69201045D01*
X126278126Y-69247160D01*
X125923554Y-69247160D01*
X125691718Y-69201045D01*
X125575799Y-69177987D01*
X125248220Y-69042299D01*
X124953407Y-68845311D01*
X124953404Y-68845309D01*
X124702691Y-68594596D01*
X124505700Y-68299778D01*
X124412283Y-68074249D01*
X124370013Y-67972201D01*
X124300840Y-67624444D01*
X124300840Y-67269876D01*
X124370013Y-66922119D01*
X124495803Y-66618435D01*
X124505700Y-66594542D01*
X124582152Y-66480124D01*
X124702689Y-66299727D01*
X124702691Y-66299724D01*
X124953404Y-66049011D01*
X124971745Y-66036756D01*
X125248220Y-65852021D01*
X125575799Y-65716333D01*
X125691718Y-65693275D01*
X125923554Y-65647160D01*
X126278126Y-65647160D01*
X126509962Y-65693275D01*
X126509962Y-65693275D01*
G37*
G36*
X113809962Y-65693275D02*
X113925881Y-65716333D01*
X114253460Y-65852021D01*
X114529935Y-66036756D01*
X114548276Y-66049011D01*
X114798989Y-66299724D01*
X114798991Y-66299727D01*
X114919529Y-66480124D01*
X114995980Y-66594542D01*
X115005877Y-66618435D01*
X115131667Y-66922119D01*
X115200840Y-67269876D01*
X115200840Y-67624444D01*
X115131667Y-67972201D01*
X115089397Y-68074249D01*
X114995980Y-68299778D01*
X114798989Y-68594596D01*
X114548276Y-68845309D01*
X114548273Y-68845311D01*
X114253460Y-69042299D01*
X113925881Y-69177987D01*
X113809962Y-69201045D01*
X113578126Y-69247160D01*
X113223554Y-69247160D01*
X112991718Y-69201045D01*
X112875799Y-69177987D01*
X112548220Y-69042299D01*
X112253407Y-68845311D01*
X112253404Y-68845309D01*
X112002691Y-68594596D01*
X111805700Y-68299778D01*
X111712283Y-68074249D01*
X111670013Y-67972201D01*
X111600840Y-67624444D01*
X111600840Y-67269876D01*
X111670013Y-66922119D01*
X111795803Y-66618435D01*
X111805700Y-66594542D01*
X111882152Y-66480124D01*
X112002689Y-66299727D01*
X112002691Y-66299724D01*
X112253404Y-66049011D01*
X112271745Y-66036756D01*
X112548220Y-65852021D01*
X112875799Y-65716333D01*
X112991718Y-65693275D01*
X113223554Y-65647160D01*
X113578126Y-65647160D01*
X113809962Y-65693275D01*
X113809962Y-65693275D01*
G37*
G36*
X76809089Y-66344997D02*
X76848267Y-66348856D01*
X76923667Y-66371728D01*
X76999069Y-66394601D01*
X77138048Y-66468888D01*
X77259862Y-66568858D01*
X77359832Y-66690672D01*
X77434119Y-66829651D01*
X77456991Y-66905052D01*
X77479864Y-66980453D01*
X77495310Y-67137280D01*
X77482251Y-67269876D01*
X77479864Y-67294106D01*
X77434119Y-67444909D01*
X77359832Y-67583888D01*
X77259862Y-67705702D01*
X77138048Y-67805672D01*
X76999069Y-67879959D01*
X76923667Y-67902832D01*
X76848267Y-67925704D01*
X76809089Y-67929563D01*
X76730735Y-67937280D01*
X75852145Y-67937280D01*
X75773791Y-67929563D01*
X75734613Y-67925704D01*
X75659213Y-67902832D01*
X75583811Y-67879959D01*
X75444832Y-67805672D01*
X75323018Y-67705702D01*
X75223048Y-67583888D01*
X75148761Y-67444909D01*
X75103016Y-67294106D01*
X75100630Y-67269876D01*
X75087570Y-67137280D01*
X75103016Y-66980453D01*
X75125889Y-66905052D01*
X75148761Y-66829651D01*
X75223048Y-66690672D01*
X75323018Y-66568858D01*
X75444832Y-66468888D01*
X75583811Y-66394601D01*
X75659213Y-66371728D01*
X75734613Y-66348856D01*
X75773791Y-66344997D01*
X75852145Y-66337280D01*
X76730735Y-66337280D01*
X76809089Y-66344997D01*
X76809089Y-66344997D01*
G37*
G36*
X84429089Y-66344997D02*
X84468267Y-66348856D01*
X84543667Y-66371728D01*
X84619069Y-66394601D01*
X84758048Y-66468888D01*
X84879862Y-66568858D01*
X84979832Y-66690672D01*
X85054119Y-66829651D01*
X85076991Y-66905052D01*
X85099864Y-66980453D01*
X85115310Y-67137280D01*
X85102251Y-67269876D01*
X85099864Y-67294106D01*
X85054119Y-67444909D01*
X84979832Y-67583888D01*
X84879862Y-67705702D01*
X84758048Y-67805672D01*
X84619069Y-67879959D01*
X84543667Y-67902832D01*
X84468267Y-67925704D01*
X84429089Y-67929563D01*
X84350735Y-67937280D01*
X83472145Y-67937280D01*
X83393791Y-67929563D01*
X83354613Y-67925704D01*
X83279213Y-67902832D01*
X83203811Y-67879959D01*
X83064832Y-67805672D01*
X82943018Y-67705702D01*
X82843048Y-67583888D01*
X82768761Y-67444909D01*
X82723016Y-67294106D01*
X82720630Y-67269876D01*
X82707570Y-67137280D01*
X82723016Y-66980453D01*
X82745889Y-66905052D01*
X82768761Y-66829651D01*
X82843048Y-66690672D01*
X82943018Y-66568858D01*
X83064832Y-66468888D01*
X83203811Y-66394601D01*
X83279213Y-66371728D01*
X83354613Y-66348856D01*
X83393791Y-66344997D01*
X83472145Y-66337280D01*
X84350735Y-66337280D01*
X84429089Y-66344997D01*
X84429089Y-66344997D01*
G37*
G36*
X100439923Y-65527646D02*
X100578232Y-65584935D01*
X100702716Y-65668113D01*
X100808567Y-65773964D01*
X100891745Y-65898448D01*
X100949034Y-66036757D01*
X100978240Y-66183585D01*
X100978240Y-66333295D01*
X100949034Y-66480123D01*
X100891745Y-66618432D01*
X100808567Y-66742916D01*
X100702716Y-66848767D01*
X100578232Y-66931945D01*
X100439923Y-66989234D01*
X100293095Y-67018440D01*
X100143385Y-67018440D01*
X99996557Y-66989234D01*
X99858248Y-66931945D01*
X99733764Y-66848767D01*
X99627913Y-66742916D01*
X99544735Y-66618432D01*
X99487446Y-66480123D01*
X99458240Y-66333295D01*
X99458240Y-66183585D01*
X99487446Y-66036757D01*
X99544735Y-65898448D01*
X99627913Y-65773964D01*
X99733764Y-65668113D01*
X99858248Y-65584935D01*
X99996557Y-65527646D01*
X100143385Y-65498440D01*
X100293095Y-65498440D01*
X100439923Y-65527646D01*
X100439923Y-65527646D01*
G37*
G36*
X105773923Y-65527646D02*
X105912232Y-65584935D01*
X106036716Y-65668113D01*
X106142567Y-65773964D01*
X106225745Y-65898448D01*
X106283034Y-66036757D01*
X106312240Y-66183585D01*
X106312240Y-66333295D01*
X106283034Y-66480123D01*
X106225745Y-66618432D01*
X106142567Y-66742916D01*
X106036716Y-66848767D01*
X105912232Y-66931945D01*
X105773923Y-66989234D01*
X105627095Y-67018440D01*
X105477385Y-67018440D01*
X105330557Y-66989234D01*
X105192248Y-66931945D01*
X105067764Y-66848767D01*
X104961913Y-66742916D01*
X104878735Y-66618432D01*
X104821446Y-66480123D01*
X104792240Y-66333295D01*
X104792240Y-66183585D01*
X104821446Y-66036757D01*
X104878735Y-65898448D01*
X104961913Y-65773964D01*
X105067764Y-65668113D01*
X105192248Y-65584935D01*
X105330557Y-65527646D01*
X105477385Y-65498440D01*
X105627095Y-65498440D01*
X105773923Y-65527646D01*
X105773923Y-65527646D01*
G37*
G36*
X76809089Y-63804997D02*
X76848267Y-63808856D01*
X76923668Y-63831729D01*
X76999069Y-63854601D01*
X77138048Y-63928888D01*
X77259862Y-64028858D01*
X77359832Y-64150672D01*
X77434119Y-64289651D01*
X77479864Y-64440454D01*
X77495310Y-64597280D01*
X77479864Y-64754106D01*
X77434119Y-64904909D01*
X77359832Y-65043888D01*
X77259862Y-65165702D01*
X77138048Y-65265672D01*
X76999069Y-65339959D01*
X76923668Y-65362831D01*
X76848267Y-65385704D01*
X76809089Y-65389563D01*
X76730735Y-65397280D01*
X75852145Y-65397280D01*
X75773791Y-65389563D01*
X75734613Y-65385704D01*
X75659212Y-65362831D01*
X75583811Y-65339959D01*
X75444832Y-65265672D01*
X75323018Y-65165702D01*
X75223048Y-65043888D01*
X75148761Y-64904909D01*
X75103016Y-64754106D01*
X75087570Y-64597280D01*
X75103016Y-64440454D01*
X75148761Y-64289651D01*
X75223048Y-64150672D01*
X75323018Y-64028858D01*
X75444832Y-63928888D01*
X75583811Y-63854601D01*
X75659212Y-63831729D01*
X75734613Y-63808856D01*
X75773791Y-63804997D01*
X75852145Y-63797280D01*
X76730735Y-63797280D01*
X76809089Y-63804997D01*
X76809089Y-63804997D01*
G37*
G36*
X84429089Y-63804997D02*
X84468267Y-63808856D01*
X84543668Y-63831729D01*
X84619069Y-63854601D01*
X84758048Y-63928888D01*
X84879862Y-64028858D01*
X84979832Y-64150672D01*
X85054119Y-64289651D01*
X85099864Y-64440454D01*
X85115310Y-64597280D01*
X85099864Y-64754106D01*
X85054119Y-64904909D01*
X84979832Y-65043888D01*
X84879862Y-65165702D01*
X84758048Y-65265672D01*
X84619069Y-65339959D01*
X84543668Y-65362831D01*
X84468267Y-65385704D01*
X84429089Y-65389563D01*
X84350735Y-65397280D01*
X83472145Y-65397280D01*
X83393791Y-65389563D01*
X83354613Y-65385704D01*
X83279212Y-65362831D01*
X83203811Y-65339959D01*
X83064832Y-65265672D01*
X82943018Y-65165702D01*
X82843048Y-65043888D01*
X82768761Y-64904909D01*
X82723016Y-64754106D01*
X82707570Y-64597280D01*
X82723016Y-64440454D01*
X82768761Y-64289651D01*
X82843048Y-64150672D01*
X82943018Y-64028858D01*
X83064832Y-63928888D01*
X83203811Y-63854601D01*
X83279212Y-63831729D01*
X83354613Y-63808856D01*
X83393791Y-63804997D01*
X83472145Y-63797280D01*
X84350735Y-63797280D01*
X84429089Y-63804997D01*
X84429089Y-63804997D01*
G37*
G36*
X100439923Y-62987646D02*
X100578232Y-63044935D01*
X100702716Y-63128113D01*
X100808567Y-63233964D01*
X100891745Y-63358448D01*
X100949034Y-63496757D01*
X100978240Y-63643585D01*
X100978240Y-63793295D01*
X100949034Y-63940123D01*
X100891745Y-64078432D01*
X100808567Y-64202916D01*
X100702716Y-64308767D01*
X100578232Y-64391945D01*
X100439923Y-64449234D01*
X100293095Y-64478440D01*
X100143385Y-64478440D01*
X99996557Y-64449234D01*
X99858248Y-64391945D01*
X99733764Y-64308767D01*
X99627913Y-64202916D01*
X99544735Y-64078432D01*
X99487446Y-63940123D01*
X99458240Y-63793295D01*
X99458240Y-63643585D01*
X99487446Y-63496757D01*
X99544735Y-63358448D01*
X99627913Y-63233964D01*
X99733764Y-63128113D01*
X99858248Y-63044935D01*
X99996557Y-62987646D01*
X100143385Y-62958440D01*
X100293095Y-62958440D01*
X100439923Y-62987646D01*
X100439923Y-62987646D01*
G37*
G36*
X105773923Y-62987646D02*
X105912232Y-63044935D01*
X106036716Y-63128113D01*
X106142567Y-63233964D01*
X106225745Y-63358448D01*
X106283034Y-63496757D01*
X106312240Y-63643585D01*
X106312240Y-63793295D01*
X106283034Y-63940123D01*
X106225745Y-64078432D01*
X106142567Y-64202916D01*
X106036716Y-64308767D01*
X105912232Y-64391945D01*
X105773923Y-64449234D01*
X105627095Y-64478440D01*
X105477385Y-64478440D01*
X105330557Y-64449234D01*
X105192248Y-64391945D01*
X105067764Y-64308767D01*
X104961913Y-64202916D01*
X104878735Y-64078432D01*
X104821446Y-63940123D01*
X104792240Y-63793295D01*
X104792240Y-63643585D01*
X104821446Y-63496757D01*
X104878735Y-63358448D01*
X104961913Y-63233964D01*
X105067764Y-63128113D01*
X105192248Y-63044935D01*
X105330557Y-62987646D01*
X105477385Y-62958440D01*
X105627095Y-62958440D01*
X105773923Y-62987646D01*
X105773923Y-62987646D01*
G37*
G36*
X41015592Y-62385303D02*
X41161181Y-62445608D01*
X41292213Y-62533161D01*
X41403639Y-62644587D01*
X41491192Y-62775619D01*
X41551497Y-62921208D01*
X41582240Y-63075765D01*
X41582240Y-63233355D01*
X41551497Y-63387912D01*
X41491192Y-63533501D01*
X41403639Y-63664533D01*
X41292213Y-63775959D01*
X41161181Y-63863512D01*
X41015592Y-63923817D01*
X40861035Y-63954560D01*
X40703445Y-63954560D01*
X40548888Y-63923817D01*
X40403299Y-63863512D01*
X40272267Y-63775959D01*
X40160841Y-63664533D01*
X40073288Y-63533501D01*
X40012983Y-63387912D01*
X39982240Y-63233355D01*
X39982240Y-63075765D01*
X40012983Y-62921208D01*
X40073288Y-62775619D01*
X40160841Y-62644587D01*
X40272267Y-62533161D01*
X40403299Y-62445608D01*
X40548888Y-62385303D01*
X40703445Y-62354560D01*
X40861035Y-62354560D01*
X41015592Y-62385303D01*
X41015592Y-62385303D01*
G37*
G36*
X57790889Y-62347037D02*
X57830067Y-62350896D01*
X57893252Y-62370063D01*
X57980869Y-62396641D01*
X58119848Y-62470928D01*
X58241662Y-62570898D01*
X58341632Y-62692712D01*
X58415919Y-62831691D01*
X58423681Y-62857280D01*
X58461664Y-62982493D01*
X58462172Y-62987647D01*
X58477110Y-63139320D01*
X58461664Y-63296146D01*
X58415919Y-63446949D01*
X58341632Y-63585928D01*
X58241662Y-63707742D01*
X58119848Y-63807712D01*
X57980869Y-63881999D01*
X57905468Y-63904871D01*
X57830067Y-63927744D01*
X57790889Y-63931603D01*
X57712535Y-63939320D01*
X57633945Y-63939320D01*
X57555591Y-63931603D01*
X57516413Y-63927744D01*
X57441012Y-63904871D01*
X57365611Y-63881999D01*
X57226632Y-63807712D01*
X57104818Y-63707742D01*
X57004848Y-63585928D01*
X56930561Y-63446949D01*
X56884816Y-63296146D01*
X56869370Y-63139320D01*
X56884308Y-62987647D01*
X56884816Y-62982493D01*
X56922799Y-62857280D01*
X56930561Y-62831691D01*
X57004848Y-62692712D01*
X57104818Y-62570898D01*
X57226632Y-62470928D01*
X57365611Y-62396641D01*
X57453228Y-62370063D01*
X57516413Y-62350896D01*
X57555591Y-62347037D01*
X57633945Y-62339320D01*
X57712535Y-62339320D01*
X57790889Y-62347037D01*
X57790889Y-62347037D01*
G37*
G36*
X45206592Y-62370063D02*
X45352181Y-62430368D01*
X45483213Y-62517921D01*
X45594639Y-62629347D01*
X45682192Y-62760379D01*
X45742497Y-62905968D01*
X45773240Y-63060525D01*
X45773240Y-63218115D01*
X45742497Y-63372672D01*
X45682192Y-63518261D01*
X45594639Y-63649293D01*
X45483213Y-63760719D01*
X45352181Y-63848272D01*
X45206592Y-63908577D01*
X45052035Y-63939320D01*
X44894445Y-63939320D01*
X44739888Y-63908577D01*
X44594299Y-63848272D01*
X44463267Y-63760719D01*
X44351841Y-63649293D01*
X44264288Y-63518261D01*
X44203983Y-63372672D01*
X44173240Y-63218115D01*
X44173240Y-63060525D01*
X44203983Y-62905968D01*
X44264288Y-62760379D01*
X44351841Y-62629347D01*
X44463267Y-62517921D01*
X44594299Y-62430368D01*
X44739888Y-62370063D01*
X44894445Y-62339320D01*
X45052035Y-62339320D01*
X45206592Y-62370063D01*
X45206592Y-62370063D01*
G37*
G36*
X77491440Y-62857280D02*
X75091440Y-62857280D01*
X75091440Y-61257280D01*
X77491440Y-61257280D01*
X77491440Y-62857280D01*
X77491440Y-62857280D01*
G37*
G36*
X84429089Y-61264997D02*
X84468267Y-61268856D01*
X84543667Y-61291728D01*
X84619069Y-61314601D01*
X84758048Y-61388888D01*
X84879862Y-61488858D01*
X84979832Y-61610672D01*
X85054119Y-61749651D01*
X85099864Y-61900454D01*
X85115310Y-62057280D01*
X85099864Y-62214106D01*
X85054119Y-62364909D01*
X84979832Y-62503888D01*
X84879862Y-62625702D01*
X84758048Y-62725672D01*
X84619069Y-62799959D01*
X84543667Y-62822832D01*
X84468267Y-62845704D01*
X84429089Y-62849563D01*
X84350735Y-62857280D01*
X83472145Y-62857280D01*
X83393791Y-62849563D01*
X83354613Y-62845704D01*
X83279213Y-62822832D01*
X83203811Y-62799959D01*
X83064832Y-62725672D01*
X82943018Y-62625702D01*
X82843048Y-62503888D01*
X82768761Y-62364909D01*
X82723016Y-62214106D01*
X82707570Y-62057280D01*
X82723016Y-61900454D01*
X82768761Y-61749651D01*
X82843048Y-61610672D01*
X82943018Y-61488858D01*
X83064832Y-61388888D01*
X83203811Y-61314601D01*
X83279213Y-61291728D01*
X83354613Y-61268856D01*
X83393791Y-61264997D01*
X83472145Y-61257280D01*
X84350735Y-61257280D01*
X84429089Y-61264997D01*
X84429089Y-61264997D01*
G37*
G36*
X67509240Y-62266680D02*
X65109240Y-62266680D01*
X65109240Y-59866680D01*
X67509240Y-59866680D01*
X67509240Y-62266680D01*
X67509240Y-62266680D01*
G37*
G36*
X40899889Y-58613237D02*
X40939067Y-58617096D01*
X41014468Y-58639969D01*
X41089869Y-58662841D01*
X41228848Y-58737128D01*
X41350662Y-58837098D01*
X41450632Y-58958912D01*
X41524919Y-59097891D01*
X41570664Y-59248694D01*
X41586110Y-59405520D01*
X41570664Y-59562346D01*
X41524919Y-59713149D01*
X41450632Y-59852128D01*
X41350662Y-59973942D01*
X41228848Y-60073912D01*
X41089869Y-60148199D01*
X41014467Y-60171072D01*
X40939067Y-60193944D01*
X40899889Y-60197803D01*
X40821535Y-60205520D01*
X40742945Y-60205520D01*
X40664591Y-60197803D01*
X40625413Y-60193944D01*
X40550013Y-60171072D01*
X40474611Y-60148199D01*
X40335632Y-60073912D01*
X40213818Y-59973942D01*
X40113848Y-59852128D01*
X40039561Y-59713149D01*
X39993816Y-59562346D01*
X39978370Y-59405520D01*
X39993816Y-59248694D01*
X40039561Y-59097891D01*
X40113848Y-58958912D01*
X40213818Y-58837098D01*
X40335632Y-58737128D01*
X40474611Y-58662841D01*
X40550012Y-58639969D01*
X40625413Y-58617096D01*
X40664591Y-58613237D01*
X40742945Y-58605520D01*
X40821535Y-58605520D01*
X40899889Y-58613237D01*
X40899889Y-58613237D01*
G37*
G36*
X46088480Y-58006160D02*
X43888480Y-58006160D01*
X43888480Y-55806160D01*
X46088480Y-55806160D01*
X46088480Y-58006160D01*
X46088480Y-58006160D01*
G37*
G36*
X51065000Y-57796000D02*
X49265000Y-57796000D01*
X49265000Y-55996000D01*
X51065000Y-55996000D01*
X51065000Y-57796000D01*
X51065000Y-57796000D01*
G37*
G36*
X52881432Y-56009022D02*
X53051081Y-56060485D01*
X53207433Y-56144056D01*
X53344475Y-56256525D01*
X53456944Y-56393567D01*
X53540515Y-56549919D01*
X53591978Y-56719568D01*
X53609354Y-56896000D01*
X53591978Y-57072432D01*
X53540515Y-57242081D01*
X53456944Y-57398433D01*
X53344475Y-57535475D01*
X53207433Y-57647944D01*
X53051081Y-57731515D01*
X52881432Y-57782978D01*
X52749211Y-57796000D01*
X52660789Y-57796000D01*
X52528568Y-57782978D01*
X52358919Y-57731515D01*
X52202567Y-57647944D01*
X52065525Y-57535475D01*
X51953056Y-57398433D01*
X51869485Y-57242081D01*
X51818022Y-57072432D01*
X51800646Y-56896000D01*
X51818022Y-56719568D01*
X51869485Y-56549919D01*
X51953056Y-56393567D01*
X52065525Y-56256525D01*
X52202567Y-56144056D01*
X52358919Y-56060485D01*
X52528568Y-56009022D01*
X52660789Y-55996000D01*
X52749211Y-55996000D01*
X52881432Y-56009022D01*
X52881432Y-56009022D01*
G37*
G36*
X55421432Y-56009022D02*
X55591081Y-56060485D01*
X55747433Y-56144056D01*
X55884475Y-56256525D01*
X55996944Y-56393567D01*
X56080515Y-56549919D01*
X56131978Y-56719568D01*
X56149354Y-56896000D01*
X56131978Y-57072432D01*
X56080515Y-57242081D01*
X55996944Y-57398433D01*
X55884475Y-57535475D01*
X55747433Y-57647944D01*
X55591081Y-57731515D01*
X55421432Y-57782978D01*
X55289211Y-57796000D01*
X55200789Y-57796000D01*
X55068568Y-57782978D01*
X54898919Y-57731515D01*
X54742567Y-57647944D01*
X54605525Y-57535475D01*
X54493056Y-57398433D01*
X54409485Y-57242081D01*
X54358022Y-57072432D01*
X54340646Y-56896000D01*
X54358022Y-56719568D01*
X54409485Y-56549919D01*
X54493056Y-56393567D01*
X54605525Y-56256525D01*
X54742567Y-56144056D01*
X54898919Y-56060485D01*
X55068568Y-56009022D01*
X55200789Y-55996000D01*
X55289211Y-55996000D01*
X55421432Y-56009022D01*
X55421432Y-56009022D01*
G37*
G36*
X76522319Y-55248036D02*
X76729666Y-55310935D01*
X76729668Y-55310936D01*
X76920764Y-55413078D01*
X77088261Y-55550539D01*
X77225722Y-55718036D01*
X77327864Y-55909132D01*
X77327865Y-55909134D01*
X77390764Y-56116481D01*
X77412002Y-56332120D01*
X77390764Y-56547759D01*
X77328931Y-56751593D01*
X77327864Y-56755108D01*
X77225722Y-56946204D01*
X77088261Y-57113701D01*
X76920764Y-57251162D01*
X76729668Y-57353304D01*
X76729666Y-57353305D01*
X76522319Y-57416204D01*
X76360718Y-57432120D01*
X76252642Y-57432120D01*
X76091041Y-57416204D01*
X75883694Y-57353305D01*
X75883692Y-57353304D01*
X75692596Y-57251162D01*
X75525099Y-57113701D01*
X75387638Y-56946204D01*
X75285496Y-56755108D01*
X75284430Y-56751593D01*
X75222596Y-56547759D01*
X75201358Y-56332120D01*
X75222596Y-56116481D01*
X75285495Y-55909134D01*
X75285496Y-55909132D01*
X75387638Y-55718036D01*
X75525099Y-55550539D01*
X75692596Y-55413078D01*
X75883692Y-55310936D01*
X75883694Y-55310935D01*
X76091041Y-55248036D01*
X76252642Y-55232120D01*
X76360718Y-55232120D01*
X76522319Y-55248036D01*
X76522319Y-55248036D01*
G37*
G36*
X87566680Y-57432120D02*
X85366680Y-57432120D01*
X85366680Y-55232120D01*
X87566680Y-55232120D01*
X87566680Y-57432120D01*
X87566680Y-57432120D01*
G37*
G36*
X66659266Y-54912795D02*
X66877652Y-55003253D01*
X67074198Y-55134581D01*
X67241339Y-55301722D01*
X67372667Y-55498268D01*
X67463125Y-55716654D01*
X67509240Y-55948489D01*
X67509240Y-56184871D01*
X67463125Y-56416706D01*
X67372667Y-56635092D01*
X67241339Y-56831638D01*
X67074198Y-56998779D01*
X66877652Y-57130107D01*
X66659266Y-57220565D01*
X66427431Y-57266680D01*
X66191049Y-57266680D01*
X65959214Y-57220565D01*
X65740828Y-57130107D01*
X65544282Y-56998779D01*
X65377141Y-56831638D01*
X65245813Y-56635092D01*
X65155355Y-56416706D01*
X65109240Y-56184871D01*
X65109240Y-55948489D01*
X65155355Y-55716654D01*
X65245813Y-55498268D01*
X65377141Y-55301722D01*
X65544282Y-55134581D01*
X65740828Y-55003253D01*
X65959214Y-54912795D01*
X66191049Y-54866680D01*
X66427431Y-54866680D01*
X66659266Y-54912795D01*
X66659266Y-54912795D01*
G37*
G36*
X95210169Y-55290917D02*
X95249347Y-55294776D01*
X95302616Y-55310935D01*
X95400149Y-55340521D01*
X95539128Y-55414808D01*
X95660942Y-55514778D01*
X95760912Y-55636592D01*
X95835199Y-55775571D01*
X95835199Y-55775572D01*
X95880944Y-55926373D01*
X95896390Y-56083200D01*
X95886938Y-56179173D01*
X95880944Y-56240026D01*
X95835199Y-56390829D01*
X95760912Y-56529808D01*
X95660942Y-56651622D01*
X95539128Y-56751592D01*
X95400149Y-56825879D01*
X95324748Y-56848751D01*
X95249347Y-56871624D01*
X95210169Y-56875483D01*
X95131815Y-56883200D01*
X95053225Y-56883200D01*
X94974871Y-56875483D01*
X94935693Y-56871624D01*
X94860292Y-56848751D01*
X94784891Y-56825879D01*
X94645912Y-56751592D01*
X94524098Y-56651622D01*
X94424128Y-56529808D01*
X94349841Y-56390829D01*
X94304096Y-56240026D01*
X94298103Y-56179173D01*
X94288650Y-56083200D01*
X94304096Y-55926373D01*
X94349841Y-55775572D01*
X94349841Y-55775571D01*
X94424128Y-55636592D01*
X94524098Y-55514778D01*
X94645912Y-55414808D01*
X94784891Y-55340521D01*
X94882424Y-55310935D01*
X94935693Y-55294776D01*
X94974871Y-55290917D01*
X95053225Y-55283200D01*
X95131815Y-55283200D01*
X95210169Y-55290917D01*
X95210169Y-55290917D01*
G37*
G36*
X91094232Y-55293623D02*
X91239821Y-55353928D01*
X91370853Y-55441481D01*
X91482279Y-55552907D01*
X91569832Y-55683939D01*
X91630137Y-55829528D01*
X91660880Y-55984085D01*
X91660880Y-56141675D01*
X91630137Y-56296232D01*
X91569832Y-56441821D01*
X91482279Y-56572853D01*
X91370853Y-56684279D01*
X91239821Y-56771832D01*
X91094232Y-56832137D01*
X90939675Y-56862880D01*
X90782085Y-56862880D01*
X90627528Y-56832137D01*
X90481939Y-56771832D01*
X90350907Y-56684279D01*
X90239481Y-56572853D01*
X90151928Y-56441821D01*
X90091623Y-56296232D01*
X90060880Y-56141675D01*
X90060880Y-55984085D01*
X90091623Y-55829528D01*
X90151928Y-55683939D01*
X90239481Y-55552907D01*
X90350907Y-55441481D01*
X90481939Y-55353928D01*
X90627528Y-55293623D01*
X90782085Y-55262880D01*
X90939675Y-55262880D01*
X91094232Y-55293623D01*
X91094232Y-55293623D01*
G37*
G36*
X106721426Y-54456875D02*
X106939812Y-54547333D01*
X107136358Y-54678661D01*
X107303499Y-54845802D01*
X107434827Y-55042348D01*
X107525285Y-55260734D01*
X107571400Y-55492569D01*
X107571400Y-55728951D01*
X107525285Y-55960786D01*
X107434827Y-56179172D01*
X107303499Y-56375718D01*
X107136358Y-56542859D01*
X106939812Y-56674187D01*
X106721426Y-56764645D01*
X106489591Y-56810760D01*
X106253209Y-56810760D01*
X106021374Y-56764645D01*
X105802988Y-56674187D01*
X105606442Y-56542859D01*
X105439301Y-56375718D01*
X105307973Y-56179172D01*
X105217515Y-55960786D01*
X105171400Y-55728951D01*
X105171400Y-55492569D01*
X105217515Y-55260734D01*
X105307973Y-55042348D01*
X105439301Y-54845802D01*
X105606442Y-54678661D01*
X105802988Y-54547333D01*
X106021374Y-54456875D01*
X106253209Y-54410760D01*
X106489591Y-54410760D01*
X106721426Y-54456875D01*
X106721426Y-54456875D01*
G37*
G36*
X102571400Y-56810760D02*
X100171400Y-56810760D01*
X100171400Y-54410760D01*
X102571400Y-54410760D01*
X102571400Y-56810760D01*
X102571400Y-56810760D01*
G37*
G36*
X76524792Y-51651263D02*
X76670381Y-51711568D01*
X76801413Y-51799121D01*
X76912839Y-51910547D01*
X77000392Y-52041579D01*
X77060697Y-52187168D01*
X77091440Y-52341725D01*
X77091440Y-52499315D01*
X77060697Y-52653872D01*
X77000392Y-52799461D01*
X76912839Y-52930493D01*
X76801413Y-53041919D01*
X76670381Y-53129472D01*
X76524792Y-53189777D01*
X76370235Y-53220520D01*
X76212645Y-53220520D01*
X76058088Y-53189777D01*
X75912499Y-53129472D01*
X75781467Y-53041919D01*
X75670041Y-52930493D01*
X75582488Y-52799461D01*
X75522183Y-52653872D01*
X75491440Y-52499315D01*
X75491440Y-52341725D01*
X75522183Y-52187168D01*
X75582488Y-52041579D01*
X75670041Y-51910547D01*
X75781467Y-51799121D01*
X75912499Y-51711568D01*
X76058088Y-51651263D01*
X76212645Y-51620520D01*
X76370235Y-51620520D01*
X76524792Y-51651263D01*
X76524792Y-51651263D01*
G37*
G36*
X81524792Y-51651263D02*
X81670381Y-51711568D01*
X81801413Y-51799121D01*
X81912839Y-51910547D01*
X82000392Y-52041579D01*
X82060697Y-52187168D01*
X82091440Y-52341725D01*
X82091440Y-52499315D01*
X82060697Y-52653872D01*
X82000392Y-52799461D01*
X81912839Y-52930493D01*
X81801413Y-53041919D01*
X81670381Y-53129472D01*
X81524792Y-53189777D01*
X81370235Y-53220520D01*
X81212645Y-53220520D01*
X81058088Y-53189777D01*
X80912499Y-53129472D01*
X80781467Y-53041919D01*
X80670041Y-52930493D01*
X80582488Y-52799461D01*
X80522183Y-52653872D01*
X80491440Y-52499315D01*
X80491440Y-52341725D01*
X80522183Y-52187168D01*
X80582488Y-52041579D01*
X80670041Y-51910547D01*
X80781467Y-51799121D01*
X80912499Y-51711568D01*
X81058088Y-51651263D01*
X81212645Y-51620520D01*
X81370235Y-51620520D01*
X81524792Y-51651263D01*
X81524792Y-51651263D01*
G37*
G36*
X93597163Y-51659246D02*
X93735472Y-51716535D01*
X93735475Y-51716537D01*
X93859071Y-51799121D01*
X93859956Y-51799713D01*
X93965807Y-51905564D01*
X94048985Y-52030048D01*
X94106274Y-52168357D01*
X94135480Y-52315185D01*
X94135480Y-52464895D01*
X94106274Y-52611723D01*
X94048985Y-52750032D01*
X94048983Y-52750035D01*
X94015958Y-52799461D01*
X93965807Y-52874516D01*
X93859956Y-52980367D01*
X93859953Y-52980369D01*
X93859952Y-52980370D01*
X93735475Y-53063543D01*
X93735472Y-53063545D01*
X93597163Y-53120834D01*
X93450335Y-53150040D01*
X93300625Y-53150040D01*
X93153797Y-53120834D01*
X93015488Y-53063545D01*
X93015485Y-53063543D01*
X92891008Y-52980370D01*
X92891007Y-52980369D01*
X92891004Y-52980367D01*
X92785153Y-52874516D01*
X92735003Y-52799461D01*
X92701977Y-52750035D01*
X92701975Y-52750032D01*
X92644686Y-52611723D01*
X92615480Y-52464895D01*
X92615480Y-52315185D01*
X92644686Y-52168357D01*
X92701975Y-52030048D01*
X92785153Y-51905564D01*
X92891004Y-51799713D01*
X92891890Y-51799121D01*
X93015485Y-51716537D01*
X93015488Y-51716535D01*
X93153797Y-51659246D01*
X93300625Y-51630040D01*
X93450335Y-51630040D01*
X93597163Y-51659246D01*
X93597163Y-51659246D01*
G37*
G36*
X91057163Y-51659246D02*
X91195472Y-51716535D01*
X91195475Y-51716537D01*
X91319071Y-51799121D01*
X91319956Y-51799713D01*
X91425807Y-51905564D01*
X91508985Y-52030048D01*
X91566274Y-52168357D01*
X91595480Y-52315185D01*
X91595480Y-52464895D01*
X91566274Y-52611723D01*
X91508985Y-52750032D01*
X91508983Y-52750035D01*
X91475958Y-52799461D01*
X91425807Y-52874516D01*
X91319956Y-52980367D01*
X91319953Y-52980369D01*
X91319952Y-52980370D01*
X91195475Y-53063543D01*
X91195472Y-53063545D01*
X91057163Y-53120834D01*
X90910335Y-53150040D01*
X90760625Y-53150040D01*
X90613797Y-53120834D01*
X90475488Y-53063545D01*
X90475485Y-53063543D01*
X90351008Y-52980370D01*
X90351007Y-52980369D01*
X90351004Y-52980367D01*
X90245153Y-52874516D01*
X90195003Y-52799461D01*
X90161977Y-52750035D01*
X90161975Y-52750032D01*
X90104686Y-52611723D01*
X90075480Y-52464895D01*
X90075480Y-52315185D01*
X90104686Y-52168357D01*
X90161975Y-52030048D01*
X90245153Y-51905564D01*
X90351004Y-51799713D01*
X90351890Y-51799121D01*
X90475485Y-51716537D01*
X90475488Y-51716535D01*
X90613797Y-51659246D01*
X90760625Y-51630040D01*
X90910335Y-51630040D01*
X91057163Y-51659246D01*
X91057163Y-51659246D01*
G37*
G36*
X89055480Y-53150040D02*
X87535480Y-53150040D01*
X87535480Y-51630040D01*
X89055480Y-51630040D01*
X89055480Y-53150040D01*
X89055480Y-53150040D01*
G37*
G36*
X66659266Y-46253955D02*
X66877652Y-46344413D01*
X67074198Y-46475741D01*
X67241339Y-46642882D01*
X67372667Y-46839428D01*
X67463125Y-47057814D01*
X67509240Y-47289649D01*
X67509240Y-47526031D01*
X67463125Y-47757866D01*
X67372667Y-47976252D01*
X67241339Y-48172798D01*
X67074198Y-48339939D01*
X66877652Y-48471267D01*
X66659266Y-48561725D01*
X66427431Y-48607840D01*
X66191049Y-48607840D01*
X65959214Y-48561725D01*
X65740828Y-48471267D01*
X65544282Y-48339939D01*
X65377141Y-48172798D01*
X65245813Y-47976252D01*
X65155355Y-47757866D01*
X65109240Y-47526031D01*
X65109240Y-47289649D01*
X65155355Y-47057814D01*
X65245813Y-46839428D01*
X65377141Y-46642882D01*
X65544282Y-46475741D01*
X65740828Y-46344413D01*
X65959214Y-46253955D01*
X66191049Y-46207840D01*
X66427431Y-46207840D01*
X66659266Y-46253955D01*
X66659266Y-46253955D01*
G37*
G36*
X45204119Y-45662076D02*
X45411466Y-45724975D01*
X45411468Y-45724976D01*
X45602564Y-45827118D01*
X45770061Y-45964579D01*
X45907522Y-46132076D01*
X46009664Y-46323172D01*
X46009665Y-46323174D01*
X46072564Y-46530521D01*
X46093802Y-46746160D01*
X46072564Y-46961799D01*
X46024141Y-47121427D01*
X46009664Y-47169148D01*
X45907522Y-47360244D01*
X45770061Y-47527741D01*
X45602564Y-47665202D01*
X45474118Y-47733857D01*
X45411466Y-47767345D01*
X45204119Y-47830244D01*
X45042518Y-47846160D01*
X44934442Y-47846160D01*
X44772841Y-47830244D01*
X44565494Y-47767345D01*
X44502842Y-47733857D01*
X44374396Y-47665202D01*
X44206899Y-47527741D01*
X44069438Y-47360244D01*
X43967296Y-47169148D01*
X43952820Y-47121427D01*
X43904396Y-46961799D01*
X43883158Y-46746160D01*
X43904396Y-46530521D01*
X43967295Y-46323174D01*
X43967296Y-46323172D01*
X44069438Y-46132076D01*
X44206899Y-45964579D01*
X44374396Y-45827118D01*
X44565492Y-45724976D01*
X44565494Y-45724975D01*
X44772841Y-45662076D01*
X44934442Y-45646160D01*
X45042518Y-45646160D01*
X45204119Y-45662076D01*
X45204119Y-45662076D01*
G37*
G36*
X93503289Y-46172317D02*
X93542467Y-46176176D01*
X93606334Y-46195550D01*
X93693269Y-46221921D01*
X93832248Y-46296208D01*
X93954062Y-46396178D01*
X94054032Y-46517992D01*
X94128319Y-46656971D01*
X94128319Y-46656972D01*
X94174064Y-46807773D01*
X94189510Y-46964600D01*
X94174064Y-47121427D01*
X94159588Y-47169148D01*
X94128319Y-47272229D01*
X94054032Y-47411208D01*
X93954062Y-47533022D01*
X93832248Y-47632992D01*
X93693269Y-47707279D01*
X93617867Y-47730152D01*
X93542467Y-47753024D01*
X93503289Y-47756883D01*
X93424935Y-47764600D01*
X93346345Y-47764600D01*
X93267991Y-47756883D01*
X93228813Y-47753024D01*
X93153413Y-47730152D01*
X93078011Y-47707279D01*
X92939032Y-47632992D01*
X92817218Y-47533022D01*
X92717248Y-47411208D01*
X92642961Y-47272229D01*
X92611692Y-47169148D01*
X92597216Y-47121427D01*
X92581770Y-46964600D01*
X92597216Y-46807773D01*
X92642961Y-46656972D01*
X92642961Y-46656971D01*
X92717248Y-46517992D01*
X92817218Y-46396178D01*
X92939032Y-46296208D01*
X93078011Y-46221921D01*
X93164946Y-46195550D01*
X93228813Y-46176176D01*
X93267991Y-46172317D01*
X93346345Y-46164600D01*
X93424935Y-46164600D01*
X93503289Y-46172317D01*
X93503289Y-46172317D01*
G37*
G36*
X106318992Y-46195343D02*
X106464581Y-46255648D01*
X106595613Y-46343201D01*
X106707039Y-46454627D01*
X106794592Y-46585659D01*
X106854897Y-46731248D01*
X106885640Y-46885805D01*
X106885640Y-47043395D01*
X106854897Y-47197952D01*
X106794592Y-47343541D01*
X106707039Y-47474573D01*
X106595613Y-47585999D01*
X106464581Y-47673552D01*
X106318992Y-47733857D01*
X106164435Y-47764600D01*
X106006845Y-47764600D01*
X105852288Y-47733857D01*
X105706699Y-47673552D01*
X105575667Y-47585999D01*
X105464241Y-47474573D01*
X105376688Y-47343541D01*
X105316383Y-47197952D01*
X105285640Y-47043395D01*
X105285640Y-46885805D01*
X105316383Y-46731248D01*
X105376688Y-46585659D01*
X105464241Y-46454627D01*
X105575667Y-46343201D01*
X105706699Y-46255648D01*
X105852288Y-46195343D01*
X106006845Y-46164600D01*
X106164435Y-46164600D01*
X106318992Y-46195343D01*
X106318992Y-46195343D01*
G37*
G36*
X41015592Y-45936263D02*
X41161181Y-45996568D01*
X41292213Y-46084121D01*
X41403639Y-46195547D01*
X41491192Y-46326579D01*
X41551497Y-46472168D01*
X41582240Y-46626725D01*
X41582240Y-46784315D01*
X41551497Y-46938872D01*
X41491192Y-47084461D01*
X41403639Y-47215493D01*
X41292213Y-47326919D01*
X41161181Y-47414472D01*
X41015592Y-47474777D01*
X40861035Y-47505520D01*
X40703445Y-47505520D01*
X40548888Y-47474777D01*
X40403299Y-47414472D01*
X40272267Y-47326919D01*
X40160841Y-47215493D01*
X40073288Y-47084461D01*
X40012983Y-46938872D01*
X39982240Y-46784315D01*
X39982240Y-46626725D01*
X40012983Y-46472168D01*
X40073288Y-46326579D01*
X40160841Y-46195547D01*
X40272267Y-46084121D01*
X40403299Y-45996568D01*
X40548888Y-45936263D01*
X40703445Y-45905520D01*
X40861035Y-45905520D01*
X41015592Y-45936263D01*
X41015592Y-45936263D01*
G37*
G36*
X36259392Y-39676688D02*
X36629190Y-39829863D01*
X36629193Y-39829865D01*
X36962005Y-40052243D01*
X37245037Y-40335275D01*
X37467415Y-40668087D01*
X37467417Y-40668090D01*
X37620592Y-41037888D01*
X37698680Y-41430464D01*
X37698680Y-41830736D01*
X37620592Y-42223312D01*
X37467417Y-42593110D01*
X37467415Y-42593113D01*
X37245037Y-42925925D01*
X36962005Y-43208957D01*
X36629193Y-43431335D01*
X36629190Y-43431337D01*
X36259392Y-43584512D01*
X35866816Y-43662600D01*
X35466544Y-43662600D01*
X35073968Y-43584512D01*
X34704170Y-43431337D01*
X34704167Y-43431335D01*
X34371355Y-43208957D01*
X34088323Y-42925925D01*
X33865945Y-42593113D01*
X33865943Y-42593110D01*
X33712768Y-42223312D01*
X33634680Y-41830736D01*
X33634680Y-41430464D01*
X33712768Y-41037888D01*
X33865943Y-40668090D01*
X33865945Y-40668087D01*
X34088323Y-40335275D01*
X34371355Y-40052243D01*
X34704167Y-39829865D01*
X34704170Y-39829863D01*
X35073968Y-39676688D01*
X35466544Y-39598600D01*
X35866816Y-39598600D01*
X36259392Y-39676688D01*
X36259392Y-39676688D01*
G37*
G36*
X67509240Y-43607840D02*
X65109240Y-43607840D01*
X65109240Y-41207840D01*
X67509240Y-41207840D01*
X67509240Y-43607840D01*
X67509240Y-43607840D01*
G37*
G36*
X57556200Y-43200120D02*
X54356200Y-43200120D01*
X54356200Y-40000120D01*
X57556200Y-40000120D01*
X57556200Y-43200120D01*
X57556200Y-43200120D01*
G37*
G36*
X40873150Y-40007837D02*
X41029855Y-40023271D01*
X41230922Y-40084264D01*
X41331457Y-40114761D01*
X41480028Y-40194174D01*
X41609413Y-40263332D01*
X41609415Y-40263333D01*
X41609414Y-40263333D01*
X41853045Y-40463275D01*
X42052987Y-40706906D01*
X42201559Y-40984863D01*
X42217644Y-41037888D01*
X42293049Y-41286465D01*
X42323941Y-41600120D01*
X42293049Y-41913775D01*
X42249920Y-42055951D01*
X42201559Y-42215377D01*
X42197317Y-42223313D01*
X42052988Y-42493333D01*
X41853045Y-42736965D01*
X41609413Y-42936908D01*
X41480028Y-43006066D01*
X41331457Y-43085479D01*
X41230922Y-43115976D01*
X41029855Y-43176969D01*
X40873150Y-43192403D01*
X40794798Y-43200120D01*
X40637602Y-43200120D01*
X40559250Y-43192403D01*
X40402545Y-43176969D01*
X40201478Y-43115976D01*
X40100943Y-43085479D01*
X39952372Y-43006066D01*
X39822987Y-42936908D01*
X39579355Y-42736965D01*
X39379412Y-42493333D01*
X39235083Y-42223313D01*
X39230841Y-42215377D01*
X39182480Y-42055951D01*
X39139351Y-41913775D01*
X39108459Y-41600120D01*
X39139351Y-41286465D01*
X39214756Y-41037888D01*
X39230841Y-40984863D01*
X39379413Y-40706906D01*
X39579355Y-40463275D01*
X39822986Y-40263333D01*
X39822985Y-40263333D01*
X39822987Y-40263332D01*
X39952372Y-40194174D01*
X40100943Y-40114761D01*
X40201478Y-40084264D01*
X40402545Y-40023271D01*
X40559250Y-40007837D01*
X40637602Y-40000120D01*
X40794798Y-40000120D01*
X40873150Y-40007837D01*
X40873150Y-40007837D01*
G37*
G36*
X129041960Y-43195040D02*
X125841960Y-43195040D01*
X125841960Y-39995040D01*
X129041960Y-39995040D01*
X129041960Y-43195040D01*
X129041960Y-43195040D01*
G37*
G36*
X112332136Y-40000120D02*
X112515615Y-40018191D01*
X112716682Y-40079184D01*
X112817217Y-40109681D01*
X112965788Y-40189094D01*
X113095173Y-40258252D01*
X113338805Y-40458195D01*
X113538748Y-40701827D01*
X113541463Y-40706907D01*
X113687319Y-40979783D01*
X113704945Y-41037888D01*
X113778809Y-41281385D01*
X113809701Y-41595040D01*
X113778809Y-41908695D01*
X113734139Y-42055951D01*
X113687319Y-42210297D01*
X113607906Y-42358868D01*
X113538748Y-42488253D01*
X113338805Y-42731885D01*
X113095173Y-42931828D01*
X112965788Y-43000986D01*
X112817217Y-43080399D01*
X112800470Y-43085479D01*
X112515615Y-43171889D01*
X112358910Y-43187323D01*
X112280558Y-43195040D01*
X112123362Y-43195040D01*
X112045010Y-43187323D01*
X111888305Y-43171889D01*
X111603450Y-43085479D01*
X111586703Y-43080399D01*
X111438132Y-43000986D01*
X111308747Y-42931828D01*
X111065115Y-42731885D01*
X110865172Y-42488253D01*
X110796014Y-42358868D01*
X110716601Y-42210297D01*
X110669781Y-42055951D01*
X110625111Y-41908695D01*
X110594219Y-41595040D01*
X110625111Y-41281385D01*
X110698975Y-41037888D01*
X110716601Y-40979783D01*
X110862457Y-40706907D01*
X110865172Y-40701827D01*
X111065115Y-40458195D01*
X111308747Y-40258252D01*
X111438132Y-40189094D01*
X111586703Y-40109681D01*
X111687238Y-40079184D01*
X111888305Y-40018191D01*
X112071784Y-40000120D01*
X112123362Y-39995040D01*
X112280558Y-39995040D01*
X112332136Y-40000120D01*
X112332136Y-40000120D01*
G37*
G36*
X105439112Y-40992542D02*
X105608761Y-41044005D01*
X105765113Y-41127576D01*
X105902155Y-41240045D01*
X106014624Y-41377087D01*
X106098195Y-41533439D01*
X106149658Y-41703088D01*
X106167034Y-41879520D01*
X106149658Y-42055952D01*
X106098195Y-42225601D01*
X106014624Y-42381953D01*
X105902155Y-42518995D01*
X105765113Y-42631464D01*
X105608761Y-42715035D01*
X105439112Y-42766498D01*
X105306891Y-42779520D01*
X105218469Y-42779520D01*
X105086248Y-42766498D01*
X104916599Y-42715035D01*
X104760247Y-42631464D01*
X104623205Y-42518995D01*
X104510736Y-42381953D01*
X104427165Y-42225601D01*
X104375702Y-42055952D01*
X104358326Y-41879520D01*
X104375702Y-41703088D01*
X104427165Y-41533439D01*
X104510736Y-41377087D01*
X104623205Y-41240045D01*
X104760247Y-41127576D01*
X104916599Y-41044005D01*
X105086248Y-40992542D01*
X105218469Y-40979520D01*
X105306891Y-40979520D01*
X105439112Y-40992542D01*
X105439112Y-40992542D01*
G37*
G36*
X102899112Y-40992542D02*
X103068761Y-41044005D01*
X103225113Y-41127576D01*
X103362155Y-41240045D01*
X103474624Y-41377087D01*
X103558195Y-41533439D01*
X103609658Y-41703088D01*
X103627034Y-41879520D01*
X103609658Y-42055952D01*
X103558195Y-42225601D01*
X103474624Y-42381953D01*
X103362155Y-42518995D01*
X103225113Y-42631464D01*
X103068761Y-42715035D01*
X102899112Y-42766498D01*
X102766891Y-42779520D01*
X102678469Y-42779520D01*
X102546248Y-42766498D01*
X102376599Y-42715035D01*
X102220247Y-42631464D01*
X102083205Y-42518995D01*
X101970736Y-42381953D01*
X101887165Y-42225601D01*
X101835702Y-42055952D01*
X101818326Y-41879520D01*
X101835702Y-41703088D01*
X101887165Y-41533439D01*
X101970736Y-41377087D01*
X102083205Y-41240045D01*
X102220247Y-41127576D01*
X102376599Y-41044005D01*
X102546248Y-40992542D01*
X102678469Y-40979520D01*
X102766891Y-40979520D01*
X102899112Y-40992542D01*
X102899112Y-40992542D01*
G37*
G36*
X101082680Y-42779520D02*
X99282680Y-42779520D01*
X99282680Y-40979520D01*
X101082680Y-40979520D01*
X101082680Y-42779520D01*
X101082680Y-42779520D01*
G37*
M02*
