%TF.GenerationSoftware,KiCad,Pcbnew,9.0.6*%
%TF.CreationDate,2025-11-25T19:29:33+09:00*%
%TF.ProjectId,12f675-mppt,31326636-3735-42d6-9d70-70742e6b6963,rev?*%
%TF.SameCoordinates,Original*%
%TF.FileFunction,Copper,L1,Top*%
%TF.FilePolarity,Positive*%
%FSLAX46Y46*%
G04 Gerber Fmt 4.6, Leading zero omitted, Abs format (unit mm)*
G04 Created by KiCad (PCBNEW 9.0.6) date 2025-11-25 19:29:33*
%MOMM*%
%LPD*%
G01*
G04 APERTURE LIST*
%TA.AperFunction,ComponentPad*%
%ADD10R,2.400000X2.400000*%
%TD*%
%TA.AperFunction,ComponentPad*%
%ADD11C,2.400000*%
%TD*%
%TA.AperFunction,ComponentPad*%
%ADD12C,1.600000*%
%TD*%
%TA.AperFunction,ComponentPad*%
%ADD13R,3.200000X3.200000*%
%TD*%
%TA.AperFunction,ComponentPad*%
%ADD14O,3.200000X3.200000*%
%TD*%
%TA.AperFunction,ComponentPad*%
%ADD15R,1.800000X1.800000*%
%TD*%
%TA.AperFunction,ComponentPad*%
%ADD16C,1.800000*%
%TD*%
%TA.AperFunction,ComponentPad*%
%ADD17R,2.200000X2.200000*%
%TD*%
%TA.AperFunction,ComponentPad*%
%ADD18O,2.200000X2.200000*%
%TD*%
%TA.AperFunction,ComponentPad*%
%ADD19R,2.400000X1.600000*%
%TD*%
%TA.AperFunction,ComponentPad*%
%ADD20O,2.400000X1.600000*%
%TD*%
%TA.AperFunction,ComponentPad*%
%ADD21C,3.600000*%
%TD*%
%TA.AperFunction,ComponentPad*%
%ADD22O,1.800000X1.800000*%
%TD*%
%TA.AperFunction,ComponentPad*%
%ADD23R,1.520000X1.520000*%
%TD*%
%TA.AperFunction,ComponentPad*%
%ADD24C,1.520000*%
%TD*%
%TA.AperFunction,ComponentPad*%
%ADD25O,1.600000X1.600000*%
%TD*%
%TA.AperFunction,ComponentPad*%
%ADD26C,2.000000*%
%TD*%
%TA.AperFunction,ComponentPad*%
%ADD27C,4.064000*%
%TD*%
%TA.AperFunction,Conductor*%
%ADD28C,1.500000*%
%TD*%
%TA.AperFunction,Conductor*%
%ADD29C,3.000000*%
%TD*%
G04 APERTURE END LIST*
D10*
X105516680Y-98374200D03*
D11*
X105516680Y-103374200D03*
D10*
X101371400Y-55610760D03*
D11*
X106371400Y-55610760D03*
D10*
X66309240Y-61066680D03*
D11*
X66309240Y-56066680D03*
D12*
X76291440Y-52420520D03*
X81291440Y-52420520D03*
D10*
X66309240Y-42407840D03*
D11*
X66309240Y-47407840D03*
D13*
X127441960Y-41595040D03*
D14*
X112201960Y-41595040D03*
D13*
X127406400Y-90449400D03*
D14*
X112166400Y-90449400D03*
D15*
X56936640Y-104155240D03*
D16*
X56936640Y-101615240D03*
D17*
X44988480Y-56906160D03*
D18*
X44988480Y-46746160D03*
D13*
X55956200Y-41600120D03*
D14*
X40716200Y-41600120D03*
D15*
X93573600Y-93822520D03*
D16*
X93573600Y-91282520D03*
D15*
X93573600Y-99664520D03*
D16*
X93573600Y-97124520D03*
D19*
X76291440Y-62057280D03*
D20*
X76291440Y-64597280D03*
X76291440Y-67137280D03*
X76291440Y-69677280D03*
X83911440Y-69677280D03*
X83911440Y-67137280D03*
X83911440Y-64597280D03*
X83911440Y-62057280D03*
D21*
X126100840Y-67447160D03*
X113400840Y-67447160D03*
D15*
X88473280Y-108371640D03*
D22*
X85933280Y-108371640D03*
X83393280Y-108371640D03*
D15*
X100182680Y-41879520D03*
D22*
X102722680Y-41879520D03*
X105262680Y-41879520D03*
D23*
X105552240Y-68798440D03*
D24*
X105552240Y-66258440D03*
X105552240Y-63718440D03*
D12*
X62580520Y-93263720D03*
D25*
X62580520Y-80563720D03*
D12*
X79598520Y-102514400D03*
D25*
X79598520Y-89814400D03*
D12*
X68143120Y-93314520D03*
D25*
X68143120Y-106014520D03*
D12*
X72649080Y-81899760D03*
D25*
X72649080Y-94599760D03*
D12*
X40782240Y-46705520D03*
D25*
X40782240Y-59405520D03*
D12*
X50723800Y-93299280D03*
D25*
X50723800Y-80599280D03*
D12*
X90860880Y-56062880D03*
D25*
X90860880Y-68762880D03*
D12*
X106085640Y-46964600D03*
D25*
X93385640Y-46964600D03*
D12*
X95092520Y-68783200D03*
D25*
X95092520Y-56083200D03*
D12*
X40782240Y-63154560D03*
D25*
X40782240Y-75854560D03*
D12*
X83992720Y-102534720D03*
D25*
X83992720Y-89834720D03*
D12*
X88498680Y-76890880D03*
D25*
X88498680Y-89590880D03*
D12*
X58267600Y-80584040D03*
D25*
X58267600Y-93284040D03*
D12*
X46070520Y-93299280D03*
D25*
X46070520Y-80599280D03*
D19*
X76357480Y-76875640D03*
D20*
X76357480Y-79415640D03*
X76357480Y-81955640D03*
X76357480Y-84495640D03*
X83977480Y-84495640D03*
X83977480Y-81955640D03*
X83977480Y-79415640D03*
X83977480Y-76875640D03*
D26*
X46283880Y-104160320D03*
X46283880Y-97660320D03*
X50783880Y-104160320D03*
X50783880Y-97660320D03*
D10*
X102326440Y-74447400D03*
D11*
X102326440Y-79447400D03*
D12*
X44973240Y-63139320D03*
D25*
X57673240Y-63139320D03*
D15*
X50165000Y-56896000D03*
D22*
X52705000Y-56896000D03*
X55245000Y-56896000D03*
D27*
X35666680Y-41630600D03*
X35590480Y-75798680D03*
X124790200Y-99054920D03*
X124790200Y-108204000D03*
D23*
X88295480Y-52390040D03*
D24*
X90835480Y-52390040D03*
X93375480Y-52390040D03*
D23*
X100218240Y-68798440D03*
D24*
X100218240Y-66258440D03*
X100218240Y-63718440D03*
D12*
X93538040Y-85333840D03*
D25*
X93538040Y-72633840D03*
D17*
X112268000Y-46863000D03*
D18*
X122428000Y-46863000D03*
D17*
X84886800Y-57607200D03*
D18*
X84886800Y-47447200D03*
D28*
X88498680Y-76890880D02*
X88498680Y-80294480D01*
X76291440Y-52420520D02*
X81264760Y-47447200D01*
X81264760Y-47447200D02*
X84886800Y-47447200D01*
X88498680Y-80294480D02*
X93538040Y-85333840D01*
X88498680Y-108346240D02*
X88473280Y-108371640D01*
X88498680Y-89590880D02*
X88498680Y-108346240D01*
X98143840Y-75930000D02*
X92220000Y-75930000D01*
X99626440Y-74447400D02*
X98143840Y-75930000D01*
X79057480Y-76875640D02*
X80080000Y-75853120D01*
X90150000Y-73860000D02*
X80080000Y-73860000D01*
X72461120Y-76875640D02*
X58267600Y-91069160D01*
X58267600Y-91069160D02*
X58267600Y-93284040D01*
X76357480Y-76875640D02*
X79057480Y-76875640D01*
X80080000Y-65510000D02*
X80992720Y-64597280D01*
X76357480Y-76875640D02*
X72461120Y-76875640D01*
X102326440Y-74447400D02*
X99626440Y-74447400D01*
X80992720Y-64597280D02*
X83911440Y-64597280D01*
X92220000Y-75930000D02*
X90150000Y-73860000D01*
X80080000Y-73860000D02*
X80080000Y-65510000D01*
X76357480Y-76875640D02*
X76713080Y-76875640D01*
X80080000Y-75853120D02*
X80080000Y-73860000D01*
X97617280Y-68457480D02*
X97617280Y-46844920D01*
X108331000Y-50419000D02*
X103505000Y-50419000D01*
X97958240Y-68798440D02*
X97617280Y-68457480D01*
X112268000Y-46863000D02*
X111887000Y-46863000D01*
X97617280Y-46844920D02*
X100182680Y-44279520D01*
X111887000Y-46863000D02*
X108331000Y-50419000D01*
X100182680Y-47096680D02*
X100182680Y-41879520D01*
X100218240Y-68798440D02*
X97958240Y-68798440D01*
X100182680Y-44279520D02*
X100182680Y-41879520D01*
X103505000Y-50419000D02*
X100182680Y-47096680D01*
X83911440Y-69677280D02*
X89946480Y-69677280D01*
X89946480Y-69677280D02*
X90860880Y-68762880D01*
X90860880Y-69956680D02*
X93538040Y-72633840D01*
X90860880Y-68762880D02*
X90860880Y-69956680D01*
X66083200Y-77185520D02*
X56713120Y-77185520D01*
X54152800Y-79745840D02*
X54152800Y-85217000D01*
X73591440Y-69677280D02*
X66083200Y-77185520D01*
X54152800Y-85217000D02*
X46070520Y-93299280D01*
X76291440Y-69677280D02*
X73591440Y-69677280D01*
X56713120Y-77185520D02*
X54152800Y-79745840D01*
D29*
X124109480Y-98374200D02*
X124790200Y-99054920D01*
X105516680Y-98374200D02*
X124109480Y-98374200D01*
%TA.AperFunction,NonConductor*%
G36*
X129327592Y-36631694D02*
G01*
X129395680Y-36651796D01*
X129442094Y-36705520D01*
X129453404Y-36757929D01*
X129448431Y-39422688D01*
X129428302Y-39490771D01*
X129374559Y-39537164D01*
X129304267Y-39547137D01*
X129278398Y-39540508D01*
X129151164Y-39493051D01*
X129151156Y-39493049D01*
X129090609Y-39486540D01*
X129090598Y-39486540D01*
X125793322Y-39486540D01*
X125793310Y-39486540D01*
X125732763Y-39493049D01*
X125732755Y-39493051D01*
X125595757Y-39544150D01*
X125595752Y-39544152D01*
X125478698Y-39631778D01*
X125391072Y-39748832D01*
X125391070Y-39748837D01*
X125339971Y-39885835D01*
X125339969Y-39885843D01*
X125333460Y-39946390D01*
X125333460Y-43243689D01*
X125339969Y-43304236D01*
X125339971Y-43304244D01*
X125391070Y-43441242D01*
X125391072Y-43441247D01*
X125478698Y-43558301D01*
X125595752Y-43645927D01*
X125595754Y-43645928D01*
X125595756Y-43645929D01*
X125653490Y-43667463D01*
X125732755Y-43697028D01*
X125732763Y-43697030D01*
X125793310Y-43703539D01*
X125793315Y-43703539D01*
X125793322Y-43703540D01*
X125793328Y-43703540D01*
X129090592Y-43703540D01*
X129090598Y-43703540D01*
X129090605Y-43703539D01*
X129090609Y-43703539D01*
X129151156Y-43697030D01*
X129151161Y-43697029D01*
X129151164Y-43697028D01*
X129270287Y-43652596D01*
X129341100Y-43647531D01*
X129403412Y-43681556D01*
X129437438Y-43743867D01*
X129440318Y-43770887D01*
X129357311Y-88256325D01*
X129337182Y-88324408D01*
X129283439Y-88370801D01*
X129213147Y-88380774D01*
X129187278Y-88374145D01*
X129115604Y-88347411D01*
X129115596Y-88347409D01*
X129055049Y-88340900D01*
X129055038Y-88340900D01*
X125757762Y-88340900D01*
X125757750Y-88340900D01*
X125697203Y-88347409D01*
X125697195Y-88347411D01*
X125560197Y-88398510D01*
X125560192Y-88398512D01*
X125443138Y-88486138D01*
X125355512Y-88603192D01*
X125355510Y-88603197D01*
X125304411Y-88740195D01*
X125304409Y-88740203D01*
X125297900Y-88800750D01*
X125297900Y-92098049D01*
X125304409Y-92158596D01*
X125304411Y-92158604D01*
X125355510Y-92295602D01*
X125355512Y-92295607D01*
X125443138Y-92412661D01*
X125560192Y-92500287D01*
X125560194Y-92500288D01*
X125560196Y-92500289D01*
X125617930Y-92521823D01*
X125697195Y-92551388D01*
X125697203Y-92551390D01*
X125757750Y-92557899D01*
X125757755Y-92557899D01*
X125757762Y-92557900D01*
X125757768Y-92557900D01*
X129055032Y-92557900D01*
X129055038Y-92557900D01*
X129055045Y-92557899D01*
X129055049Y-92557899D01*
X129115596Y-92551390D01*
X129115599Y-92551389D01*
X129115601Y-92551389D01*
X129179089Y-92527708D01*
X129249903Y-92522643D01*
X129312215Y-92556667D01*
X129346241Y-92618979D01*
X129349121Y-92645999D01*
X129311635Y-112736403D01*
X129291506Y-112804486D01*
X129237763Y-112850879D01*
X129185444Y-112862168D01*
X32435079Y-112715231D01*
X32366988Y-112695125D01*
X32320577Y-112641399D01*
X32309271Y-112588761D01*
X32317324Y-110431007D01*
X32325423Y-108260789D01*
X81984780Y-108260789D01*
X81984780Y-108482491D01*
X82008178Y-108630220D01*
X82019463Y-108701469D01*
X82086704Y-108908415D01*
X82087972Y-108912316D01*
X82087973Y-108912317D01*
X82188625Y-109109858D01*
X82318938Y-109289218D01*
X82475701Y-109445981D01*
X82475704Y-109445983D01*
X82655065Y-109576297D01*
X82852604Y-109676948D01*
X83063456Y-109745458D01*
X83282429Y-109780140D01*
X83282432Y-109780140D01*
X83504128Y-109780140D01*
X83504131Y-109780140D01*
X83723104Y-109745458D01*
X83933956Y-109676948D01*
X84131495Y-109576297D01*
X84310856Y-109445983D01*
X84467623Y-109289216D01*
X84561345Y-109160219D01*
X84617566Y-109116866D01*
X84688302Y-109110791D01*
X84751094Y-109143922D01*
X84765212Y-109160216D01*
X84858937Y-109289216D01*
X84858939Y-109289218D01*
X84858941Y-109289221D01*
X85015701Y-109445981D01*
X85015704Y-109445983D01*
X85195065Y-109576297D01*
X85392604Y-109676948D01*
X85603456Y-109745458D01*
X85822429Y-109780140D01*
X85822432Y-109780140D01*
X86044128Y-109780140D01*
X86044131Y-109780140D01*
X86263104Y-109745458D01*
X86473956Y-109676948D01*
X86671495Y-109576297D01*
X86850856Y-109445983D01*
X86890469Y-109406370D01*
X86952780Y-109372344D01*
X87023596Y-109377408D01*
X87080432Y-109419954D01*
X87097617Y-109451425D01*
X87122391Y-109517844D01*
X87122392Y-109517845D01*
X87122393Y-109517848D01*
X87210018Y-109634901D01*
X87327072Y-109722527D01*
X87327074Y-109722528D01*
X87327076Y-109722529D01*
X87386155Y-109744564D01*
X87464075Y-109773628D01*
X87464083Y-109773630D01*
X87524630Y-109780139D01*
X87524635Y-109780139D01*
X87524642Y-109780140D01*
X87524648Y-109780140D01*
X89421912Y-109780140D01*
X89421918Y-109780140D01*
X89421925Y-109780139D01*
X89421929Y-109780139D01*
X89482476Y-109773630D01*
X89482479Y-109773629D01*
X89482481Y-109773629D01*
X89619484Y-109722529D01*
X89736541Y-109634901D01*
X89824169Y-109517844D01*
X89875269Y-109380841D01*
X89875639Y-109377408D01*
X89881779Y-109320289D01*
X89881780Y-109320272D01*
X89881780Y-108061328D01*
X122249700Y-108061328D01*
X122249700Y-108346671D01*
X122281648Y-108630224D01*
X122345144Y-108908415D01*
X122439379Y-109177721D01*
X122439390Y-109177749D01*
X122563192Y-109434827D01*
X122715003Y-109676431D01*
X122892913Y-109899524D01*
X123094675Y-110101286D01*
X123094679Y-110101289D01*
X123317769Y-110279197D01*
X123419226Y-110342947D01*
X123559372Y-110431007D01*
X123816450Y-110554809D01*
X123816453Y-110554810D01*
X123816461Y-110554814D01*
X123816476Y-110554819D01*
X123816478Y-110554820D01*
X124085784Y-110649055D01*
X124085787Y-110649055D01*
X124085791Y-110649057D01*
X124291692Y-110696052D01*
X124363975Y-110712551D01*
X124363976Y-110712551D01*
X124363980Y-110712552D01*
X124589367Y-110737946D01*
X124647528Y-110744500D01*
X124647529Y-110744500D01*
X124932872Y-110744500D01*
X124981133Y-110739062D01*
X125216420Y-110712552D01*
X125494609Y-110649057D01*
X125763939Y-110554814D01*
X126021024Y-110431009D01*
X126262631Y-110279197D01*
X126485721Y-110101289D01*
X126687489Y-109899521D01*
X126865397Y-109676431D01*
X127017209Y-109434824D01*
X127141014Y-109177739D01*
X127235257Y-108908409D01*
X127298752Y-108630220D01*
X127330700Y-108346671D01*
X127330700Y-108061329D01*
X127328501Y-108041816D01*
X127324146Y-108003167D01*
X127298752Y-107777780D01*
X127235257Y-107499591D01*
X127219326Y-107454064D01*
X127141020Y-107230278D01*
X127141019Y-107230276D01*
X127141014Y-107230261D01*
X127139518Y-107227155D01*
X127017207Y-106973172D01*
X126865396Y-106731568D01*
X126840481Y-106700326D01*
X126687489Y-106508479D01*
X126687486Y-106508475D01*
X126485724Y-106306713D01*
X126262631Y-106128803D01*
X126021027Y-105976992D01*
X125763949Y-105853190D01*
X125763921Y-105853179D01*
X125494615Y-105758944D01*
X125216424Y-105695448D01*
X124932872Y-105663500D01*
X124932871Y-105663500D01*
X124647529Y-105663500D01*
X124647528Y-105663500D01*
X124363975Y-105695448D01*
X124085784Y-105758944D01*
X123816478Y-105853179D01*
X123816450Y-105853190D01*
X123559372Y-105976992D01*
X123317768Y-106128803D01*
X123094675Y-106306713D01*
X122892913Y-106508475D01*
X122715003Y-106731568D01*
X122563192Y-106973172D01*
X122439390Y-107230250D01*
X122439379Y-107230278D01*
X122345144Y-107499584D01*
X122281648Y-107777775D01*
X122249700Y-108061328D01*
X89881780Y-108061328D01*
X89881780Y-107423007D01*
X89881779Y-107422990D01*
X89875270Y-107362443D01*
X89875268Y-107362435D01*
X89825975Y-107230278D01*
X89824169Y-107225436D01*
X89824168Y-107225434D01*
X89824167Y-107225432D01*
X89782312Y-107169521D01*
X89757501Y-107103001D01*
X89757180Y-107094012D01*
X89757180Y-103262216D01*
X103808180Y-103262216D01*
X103808180Y-103486183D01*
X103837411Y-103708220D01*
X103847896Y-103747352D01*
X103895378Y-103924558D01*
X103981085Y-104131472D01*
X103981086Y-104131473D01*
X103981091Y-104131483D01*
X104066285Y-104279042D01*
X104093066Y-104325428D01*
X104229405Y-104503109D01*
X104229414Y-104503119D01*
X104387760Y-104661465D01*
X104387770Y-104661474D01*
X104387771Y-104661475D01*
X104565452Y-104797814D01*
X104759408Y-104909795D01*
X104966322Y-104995502D01*
X105182653Y-105053467D01*
X105182657Y-105053467D01*
X105182659Y-105053468D01*
X105239884Y-105061001D01*
X105404699Y-105082700D01*
X105404706Y-105082700D01*
X105628654Y-105082700D01*
X105628661Y-105082700D01*
X105829336Y-105056280D01*
X105850700Y-105053468D01*
X105850700Y-105053467D01*
X105850707Y-105053467D01*
X106067038Y-104995502D01*
X106273952Y-104909795D01*
X106467908Y-104797814D01*
X106645589Y-104661475D01*
X106803955Y-104503109D01*
X106940294Y-104325428D01*
X107052275Y-104131472D01*
X107137982Y-103924558D01*
X107195947Y-103708227D01*
X107225180Y-103486181D01*
X107225180Y-103262219D01*
X107195947Y-103040173D01*
X107137982Y-102823842D01*
X107052275Y-102616928D01*
X106940294Y-102422972D01*
X106803955Y-102245291D01*
X106803954Y-102245290D01*
X106803945Y-102245280D01*
X106645599Y-102086934D01*
X106645589Y-102086925D01*
X106467908Y-101950586D01*
X106467903Y-101950583D01*
X106273963Y-101838611D01*
X106273958Y-101838608D01*
X106273952Y-101838605D01*
X106067038Y-101752898D01*
X105850707Y-101694933D01*
X105850700Y-101694931D01*
X105628663Y-101665700D01*
X105628661Y-101665700D01*
X105404699Y-101665700D01*
X105404696Y-101665700D01*
X105182659Y-101694931D01*
X105066383Y-101726087D01*
X104966322Y-101752898D01*
X104783570Y-101828597D01*
X104759406Y-101838606D01*
X104759396Y-101838611D01*
X104565456Y-101950583D01*
X104387770Y-102086925D01*
X104387760Y-102086934D01*
X104229414Y-102245280D01*
X104229405Y-102245290D01*
X104093063Y-102422976D01*
X103981091Y-102616916D01*
X103981086Y-102616926D01*
X103981085Y-102616928D01*
X103931335Y-102737034D01*
X103895378Y-102823842D01*
X103837411Y-103040179D01*
X103808180Y-103262216D01*
X89757180Y-103262216D01*
X89757180Y-97013669D01*
X92165100Y-97013669D01*
X92165100Y-97235371D01*
X92199782Y-97454344D01*
X92199783Y-97454349D01*
X92268290Y-97665191D01*
X92268292Y-97665196D01*
X92368943Y-97862735D01*
X92368945Y-97862738D01*
X92499258Y-98042098D01*
X92538870Y-98081710D01*
X92572896Y-98144022D01*
X92567831Y-98214837D01*
X92525284Y-98271673D01*
X92493808Y-98288860D01*
X92427397Y-98313630D01*
X92427392Y-98313632D01*
X92310338Y-98401258D01*
X92222712Y-98518312D01*
X92222710Y-98518317D01*
X92171611Y-98655315D01*
X92171609Y-98655323D01*
X92165100Y-98715870D01*
X92165100Y-100613169D01*
X92171609Y-100673716D01*
X92171611Y-100673724D01*
X92222710Y-100810722D01*
X92222712Y-100810727D01*
X92310338Y-100927781D01*
X92427392Y-101015407D01*
X92427394Y-101015408D01*
X92427396Y-101015409D01*
X92486475Y-101037444D01*
X92564395Y-101066508D01*
X92564403Y-101066510D01*
X92624950Y-101073019D01*
X92624955Y-101073019D01*
X92624962Y-101073020D01*
X92624968Y-101073020D01*
X94522232Y-101073020D01*
X94522238Y-101073020D01*
X94522245Y-101073019D01*
X94522249Y-101073019D01*
X94582796Y-101066510D01*
X94582799Y-101066509D01*
X94582801Y-101066509D01*
X94719804Y-101015409D01*
X94836861Y-100927781D01*
X94924489Y-100810724D01*
X94975589Y-100673721D01*
X94982100Y-100613158D01*
X94982100Y-98715882D01*
X94982099Y-98715870D01*
X94975590Y-98655323D01*
X94975588Y-98655315D01*
X94924489Y-98518317D01*
X94924487Y-98518312D01*
X94836861Y-98401258D01*
X94762671Y-98345720D01*
X94762667Y-98345718D01*
X94719804Y-98313631D01*
X94646540Y-98286304D01*
X94640034Y-98282976D01*
X94619360Y-98263385D01*
X94596556Y-98246314D01*
X94595153Y-98242553D01*
X103508180Y-98242553D01*
X103508180Y-98505846D01*
X103542544Y-98766872D01*
X103542545Y-98766878D01*
X103542546Y-98766880D01*
X103610690Y-99021197D01*
X103711446Y-99264443D01*
X103791299Y-99402753D01*
X103808180Y-99465752D01*
X103808180Y-99622849D01*
X103814689Y-99683396D01*
X103814691Y-99683404D01*
X103865790Y-99820402D01*
X103865792Y-99820407D01*
X103953418Y-99937461D01*
X104070472Y-100025087D01*
X104070474Y-100025088D01*
X104070476Y-100025089D01*
X104129555Y-100047124D01*
X104207475Y-100076188D01*
X104207483Y-100076190D01*
X104268030Y-100082699D01*
X104268035Y-100082699D01*
X104268042Y-100082700D01*
X104425128Y-100082700D01*
X104488126Y-100099580D01*
X104626437Y-100179434D01*
X104869683Y-100280190D01*
X105124000Y-100348334D01*
X105124006Y-100348334D01*
X105124007Y-100348335D01*
X105153961Y-100352278D01*
X105385036Y-100382700D01*
X122554476Y-100382700D01*
X122622597Y-100402702D01*
X122661161Y-100441662D01*
X122715003Y-100527351D01*
X122775566Y-100603295D01*
X122892913Y-100750444D01*
X123094675Y-100952206D01*
X123094679Y-100952209D01*
X123317769Y-101130117D01*
X123419226Y-101193867D01*
X123559372Y-101281927D01*
X123559375Y-101281928D01*
X123559376Y-101281929D01*
X123566617Y-101285416D01*
X123816450Y-101405729D01*
X123816453Y-101405730D01*
X123816461Y-101405734D01*
X123816476Y-101405739D01*
X123816478Y-101405740D01*
X124085784Y-101499975D01*
X124085787Y-101499975D01*
X124085791Y-101499977D01*
X124246483Y-101536654D01*
X124363975Y-101563471D01*
X124363976Y-101563471D01*
X124363980Y-101563472D01*
X124589367Y-101588866D01*
X124647528Y-101595420D01*
X124647529Y-101595420D01*
X124932872Y-101595420D01*
X124981133Y-101589982D01*
X125216420Y-101563472D01*
X125494609Y-101499977D01*
X125763939Y-101405734D01*
X126021024Y-101281929D01*
X126262631Y-101130117D01*
X126485721Y-100952209D01*
X126687489Y-100750441D01*
X126865397Y-100527351D01*
X127017209Y-100285744D01*
X127141014Y-100028659D01*
X127235257Y-99759329D01*
X127298752Y-99481140D01*
X127330700Y-99197591D01*
X127330700Y-98912249D01*
X127298752Y-98628700D01*
X127235257Y-98350511D01*
X127222352Y-98313632D01*
X127141020Y-98081198D01*
X127141019Y-98081196D01*
X127141014Y-98081181D01*
X127108452Y-98013566D01*
X127017207Y-97824092D01*
X126865396Y-97582488D01*
X126832787Y-97541598D01*
X126687489Y-97359399D01*
X126687486Y-97359395D01*
X126485724Y-97157633D01*
X126262631Y-96979723D01*
X126021027Y-96827912D01*
X125763949Y-96704110D01*
X125763921Y-96704099D01*
X125494615Y-96609864D01*
X125216424Y-96546368D01*
X124932872Y-96514420D01*
X124932871Y-96514420D01*
X124893101Y-96514420D01*
X124844883Y-96504829D01*
X124756477Y-96468210D01*
X124502160Y-96400066D01*
X124502158Y-96400065D01*
X124502152Y-96400064D01*
X124241125Y-96365699D01*
X124241124Y-96365699D01*
X123977836Y-96365699D01*
X123973934Y-96365699D01*
X123973902Y-96365700D01*
X105385033Y-96365700D01*
X105124007Y-96400064D01*
X105124000Y-96400066D01*
X104869683Y-96468210D01*
X104680994Y-96546368D01*
X104626435Y-96568967D01*
X104626432Y-96568968D01*
X104555601Y-96609863D01*
X104488126Y-96648819D01*
X104425128Y-96665700D01*
X104268030Y-96665700D01*
X104207483Y-96672209D01*
X104207475Y-96672211D01*
X104070477Y-96723310D01*
X104070472Y-96723312D01*
X103953418Y-96810938D01*
X103865792Y-96927992D01*
X103865790Y-96927997D01*
X103814691Y-97064995D01*
X103814689Y-97065003D01*
X103808180Y-97125550D01*
X103808180Y-97282646D01*
X103791299Y-97345646D01*
X103711452Y-97483944D01*
X103711447Y-97483955D01*
X103610690Y-97727203D01*
X103542544Y-97981527D01*
X103508180Y-98242553D01*
X94595153Y-98242553D01*
X94593938Y-98239295D01*
X94588500Y-98234142D01*
X94581699Y-98206482D01*
X94571745Y-98179794D01*
X94573337Y-98172473D01*
X94571549Y-98165199D01*
X94580781Y-98138252D01*
X94586837Y-98110419D01*
X94593257Y-98101842D01*
X94594562Y-98098036D01*
X94598353Y-98095035D01*
X94608330Y-98081709D01*
X94647941Y-98042098D01*
X94647943Y-98042096D01*
X94778257Y-97862735D01*
X94878908Y-97665196D01*
X94947418Y-97454344D01*
X94982100Y-97235371D01*
X94982100Y-97013669D01*
X94947418Y-96794696D01*
X94878908Y-96583844D01*
X94778257Y-96386305D01*
X94647943Y-96206944D01*
X94647941Y-96206941D01*
X94491178Y-96050178D01*
X94311818Y-95919865D01*
X94311817Y-95919864D01*
X94311815Y-95919863D01*
X94114276Y-95819212D01*
X94114273Y-95819211D01*
X94114271Y-95819210D01*
X93903429Y-95750703D01*
X93903425Y-95750702D01*
X93903424Y-95750702D01*
X93684451Y-95716020D01*
X93462749Y-95716020D01*
X93243776Y-95750702D01*
X93243770Y-95750703D01*
X93032928Y-95819210D01*
X93032922Y-95819213D01*
X92835381Y-95919865D01*
X92656021Y-96050178D01*
X92499258Y-96206941D01*
X92368945Y-96386301D01*
X92268293Y-96583842D01*
X92268290Y-96583848D01*
X92199783Y-96794690D01*
X92199782Y-96794695D01*
X92199782Y-96794696D01*
X92165100Y-97013669D01*
X89757180Y-97013669D01*
X89757180Y-91171669D01*
X92165100Y-91171669D01*
X92165100Y-91393371D01*
X92190469Y-91553543D01*
X92199783Y-91612349D01*
X92209625Y-91642638D01*
X92268292Y-91823196D01*
X92368943Y-92020735D01*
X92368945Y-92020738D01*
X92499258Y-92200098D01*
X92538870Y-92239710D01*
X92572896Y-92302022D01*
X92567831Y-92372837D01*
X92525284Y-92429673D01*
X92493808Y-92446860D01*
X92427397Y-92471630D01*
X92427392Y-92471632D01*
X92310338Y-92559258D01*
X92222712Y-92676312D01*
X92222710Y-92676317D01*
X92171611Y-92813315D01*
X92171609Y-92813323D01*
X92165100Y-92873870D01*
X92165100Y-94771169D01*
X92171609Y-94831716D01*
X92171611Y-94831724D01*
X92222710Y-94968722D01*
X92222712Y-94968727D01*
X92310338Y-95085781D01*
X92427392Y-95173407D01*
X92427394Y-95173408D01*
X92427396Y-95173409D01*
X92486475Y-95195444D01*
X92564395Y-95224508D01*
X92564403Y-95224510D01*
X92624950Y-95231019D01*
X92624955Y-95231019D01*
X92624962Y-95231020D01*
X92624968Y-95231020D01*
X94522232Y-95231020D01*
X94522238Y-95231020D01*
X94522245Y-95231019D01*
X94522249Y-95231019D01*
X94582796Y-95224510D01*
X94582799Y-95224509D01*
X94582801Y-95224509D01*
X94719804Y-95173409D01*
X94836861Y-95085781D01*
X94924489Y-94968724D01*
X94975589Y-94831721D01*
X94982100Y-94771158D01*
X94982100Y-92873882D01*
X94982099Y-92873870D01*
X94975590Y-92813323D01*
X94975588Y-92813315D01*
X94924489Y-92676317D01*
X94924487Y-92676312D01*
X94836861Y-92559258D01*
X94719808Y-92471633D01*
X94719805Y-92471632D01*
X94719804Y-92471631D01*
X94653388Y-92446858D01*
X94596556Y-92404314D01*
X94571745Y-92337794D01*
X94586837Y-92268419D01*
X94608330Y-92239709D01*
X94647941Y-92200098D01*
X94647943Y-92200096D01*
X94778257Y-92020735D01*
X94878908Y-91823196D01*
X94947418Y-91612344D01*
X94982100Y-91393371D01*
X94982100Y-91171669D01*
X94947418Y-90952696D01*
X94878908Y-90741844D01*
X94778257Y-90544305D01*
X94647943Y-90364944D01*
X94647940Y-90364941D01*
X94647938Y-90364938D01*
X94594199Y-90311199D01*
X110057900Y-90311199D01*
X110057900Y-90587600D01*
X110093975Y-90861623D01*
X110165512Y-91128604D01*
X110165513Y-91128606D01*
X110165514Y-91128609D01*
X110271286Y-91383967D01*
X110271287Y-91383968D01*
X110271292Y-91383978D01*
X110409482Y-91623329D01*
X110577744Y-91842614D01*
X110577753Y-91842624D01*
X110773175Y-92038046D01*
X110773185Y-92038055D01*
X110773186Y-92038056D01*
X110984362Y-92200096D01*
X110992470Y-92206317D01*
X111147119Y-92295604D01*
X111231833Y-92344514D01*
X111487191Y-92450286D01*
X111754169Y-92521823D01*
X111754175Y-92521823D01*
X111754176Y-92521824D01*
X111785622Y-92525963D01*
X112028202Y-92557900D01*
X112028209Y-92557900D01*
X112304591Y-92557900D01*
X112304598Y-92557900D01*
X112578631Y-92521823D01*
X112845609Y-92450286D01*
X113100967Y-92344514D01*
X113340333Y-92206315D01*
X113559614Y-92038056D01*
X113755056Y-91842614D01*
X113923315Y-91623333D01*
X114061514Y-91383967D01*
X114167286Y-91128609D01*
X114238823Y-90861631D01*
X114274900Y-90587598D01*
X114274900Y-90311202D01*
X114238823Y-90037169D01*
X114167286Y-89770191D01*
X114061514Y-89514833D01*
X113956202Y-89332428D01*
X113923317Y-89275470D01*
X113810618Y-89128597D01*
X113755056Y-89056186D01*
X113755055Y-89056185D01*
X113755046Y-89056175D01*
X113559624Y-88860753D01*
X113559614Y-88860744D01*
X113402521Y-88740203D01*
X113340333Y-88692485D01*
X113340332Y-88692484D01*
X113340329Y-88692482D01*
X113100978Y-88554292D01*
X113100973Y-88554289D01*
X113100967Y-88554286D01*
X112845609Y-88448514D01*
X112845606Y-88448513D01*
X112845604Y-88448512D01*
X112626318Y-88389755D01*
X112578631Y-88376977D01*
X112578629Y-88376976D01*
X112578623Y-88376975D01*
X112304600Y-88340900D01*
X112304598Y-88340900D01*
X112028202Y-88340900D01*
X112028199Y-88340900D01*
X111754176Y-88376975D01*
X111487195Y-88448512D01*
X111487191Y-88448514D01*
X111270862Y-88538120D01*
X111231831Y-88554287D01*
X111231821Y-88554292D01*
X110992470Y-88692482D01*
X110773185Y-88860744D01*
X110773175Y-88860753D01*
X110577753Y-89056175D01*
X110577744Y-89056185D01*
X110409482Y-89275470D01*
X110271292Y-89514821D01*
X110271287Y-89514831D01*
X110165514Y-89770191D01*
X110165512Y-89770195D01*
X110093975Y-90037176D01*
X110057900Y-90311199D01*
X94594199Y-90311199D01*
X94491178Y-90208178D01*
X94311818Y-90077865D01*
X94311817Y-90077864D01*
X94311815Y-90077863D01*
X94114276Y-89977212D01*
X94114273Y-89977211D01*
X94114271Y-89977210D01*
X93903429Y-89908703D01*
X93903425Y-89908702D01*
X93903424Y-89908702D01*
X93684451Y-89874020D01*
X93462749Y-89874020D01*
X93243776Y-89908702D01*
X93243770Y-89908703D01*
X93032928Y-89977210D01*
X93032922Y-89977213D01*
X92835381Y-90077865D01*
X92656021Y-90208178D01*
X92499258Y-90364941D01*
X92368945Y-90544301D01*
X92268293Y-90741842D01*
X92268290Y-90741848D01*
X92199783Y-90952690D01*
X92199782Y-90952695D01*
X92199782Y-90952696D01*
X92165100Y-91171669D01*
X89757180Y-91171669D01*
X89757180Y-89971965D01*
X89763347Y-89933028D01*
X89768431Y-89917381D01*
X89774960Y-89897288D01*
X89807180Y-89693861D01*
X89807180Y-89487899D01*
X89774960Y-89284472D01*
X89711314Y-89088590D01*
X89617809Y-88905077D01*
X89496748Y-88738450D01*
X89496745Y-88738447D01*
X89496743Y-88738444D01*
X89351115Y-88592816D01*
X89351112Y-88592814D01*
X89351110Y-88592812D01*
X89225679Y-88501682D01*
X89184486Y-88471753D01*
X89184485Y-88471752D01*
X89184483Y-88471751D01*
X89000970Y-88378246D01*
X89000967Y-88378245D01*
X89000965Y-88378244D01*
X88805092Y-88314601D01*
X88805090Y-88314600D01*
X88805088Y-88314600D01*
X88601661Y-88282380D01*
X88395699Y-88282380D01*
X88192272Y-88314600D01*
X88192270Y-88314600D01*
X88192267Y-88314601D01*
X87996394Y-88378244D01*
X87996388Y-88378247D01*
X87812873Y-88471753D01*
X87646247Y-88592814D01*
X87646244Y-88592816D01*
X87500616Y-88738444D01*
X87500614Y-88738447D01*
X87379553Y-88905073D01*
X87286047Y-89088588D01*
X87286044Y-89088594D01*
X87222401Y-89284467D01*
X87222400Y-89284470D01*
X87222400Y-89284472D01*
X87190180Y-89487899D01*
X87190180Y-89693861D01*
X87211660Y-89829479D01*
X87222400Y-89897290D01*
X87234013Y-89933028D01*
X87240180Y-89971965D01*
X87240180Y-107026151D01*
X87220178Y-107094272D01*
X87215048Y-107101660D01*
X87122392Y-107225432D01*
X87122390Y-107225437D01*
X87097620Y-107291848D01*
X87055073Y-107348684D01*
X86988553Y-107373494D01*
X86919179Y-107358402D01*
X86890470Y-107336910D01*
X86850858Y-107297298D01*
X86671498Y-107166985D01*
X86671497Y-107166984D01*
X86671495Y-107166983D01*
X86473956Y-107066332D01*
X86473953Y-107066331D01*
X86473951Y-107066330D01*
X86263109Y-106997823D01*
X86263105Y-106997822D01*
X86263104Y-106997822D01*
X86044131Y-106963140D01*
X85822429Y-106963140D01*
X85603456Y-106997822D01*
X85603450Y-106997823D01*
X85392608Y-107066330D01*
X85392602Y-107066333D01*
X85195061Y-107166985D01*
X85015701Y-107297298D01*
X84858938Y-107454061D01*
X84765216Y-107583059D01*
X84708993Y-107626413D01*
X84638257Y-107632488D01*
X84575465Y-107599356D01*
X84561344Y-107583059D01*
X84467621Y-107454061D01*
X84310858Y-107297298D01*
X84131498Y-107166985D01*
X84131497Y-107166984D01*
X84131495Y-107166983D01*
X83933956Y-107066332D01*
X83933953Y-107066331D01*
X83933951Y-107066330D01*
X83723109Y-106997823D01*
X83723105Y-106997822D01*
X83723104Y-106997822D01*
X83504131Y-106963140D01*
X83282429Y-106963140D01*
X83063456Y-106997822D01*
X83063450Y-106997823D01*
X82852608Y-107066330D01*
X82852602Y-107066333D01*
X82655061Y-107166985D01*
X82475701Y-107297298D01*
X82318938Y-107454061D01*
X82188625Y-107633421D01*
X82087973Y-107830962D01*
X82087970Y-107830968D01*
X82019463Y-108041810D01*
X82019462Y-108041815D01*
X82019462Y-108041816D01*
X81984780Y-108260789D01*
X32325423Y-108260789D01*
X32334191Y-105911539D01*
X66834620Y-105911539D01*
X66834620Y-106117501D01*
X66864589Y-106306713D01*
X66866841Y-106320932D01*
X66927777Y-106508475D01*
X66930486Y-106516810D01*
X67023991Y-106700323D01*
X67145052Y-106866950D01*
X67145054Y-106866952D01*
X67145056Y-106866955D01*
X67290684Y-107012583D01*
X67290687Y-107012585D01*
X67290690Y-107012588D01*
X67457317Y-107133649D01*
X67640830Y-107227154D01*
X67836712Y-107290800D01*
X68040139Y-107323020D01*
X68040142Y-107323020D01*
X68246098Y-107323020D01*
X68246101Y-107323020D01*
X68449528Y-107290800D01*
X68645410Y-107227154D01*
X68828923Y-107133649D01*
X68995550Y-107012588D01*
X69141188Y-106866950D01*
X69262249Y-106700323D01*
X69355754Y-106516810D01*
X69419400Y-106320928D01*
X69451620Y-106117501D01*
X69451620Y-105911539D01*
X69419400Y-105708112D01*
X69355754Y-105512230D01*
X69262249Y-105328717D01*
X69141188Y-105162090D01*
X69141185Y-105162087D01*
X69141183Y-105162084D01*
X68995555Y-105016456D01*
X68995552Y-105016454D01*
X68995550Y-105016452D01*
X68828923Y-104895391D01*
X68645410Y-104801886D01*
X68645407Y-104801885D01*
X68645405Y-104801884D01*
X68449532Y-104738241D01*
X68449530Y-104738240D01*
X68449528Y-104738240D01*
X68246101Y-104706020D01*
X68040139Y-104706020D01*
X67836712Y-104738240D01*
X67836710Y-104738240D01*
X67836707Y-104738241D01*
X67640834Y-104801884D01*
X67640828Y-104801887D01*
X67457313Y-104895393D01*
X67290687Y-105016454D01*
X67290684Y-105016456D01*
X67145056Y-105162084D01*
X67145054Y-105162087D01*
X67023993Y-105328713D01*
X66930487Y-105512228D01*
X66930484Y-105512234D01*
X66866841Y-105708107D01*
X66866840Y-105708110D01*
X66866840Y-105708112D01*
X66834620Y-105911539D01*
X32334191Y-105911539D01*
X32341170Y-104041598D01*
X44775380Y-104041598D01*
X44775380Y-104279042D01*
X44782727Y-104325428D01*
X44812525Y-104513566D01*
X44885527Y-104738241D01*
X44885898Y-104739383D01*
X44993695Y-104950947D01*
X45133260Y-105143042D01*
X45133262Y-105143044D01*
X45133264Y-105143047D01*
X45301152Y-105310935D01*
X45301155Y-105310937D01*
X45301158Y-105310940D01*
X45493253Y-105450505D01*
X45704817Y-105558302D01*
X45930639Y-105631676D01*
X46165158Y-105668820D01*
X46165161Y-105668820D01*
X46402599Y-105668820D01*
X46402602Y-105668820D01*
X46637121Y-105631676D01*
X46862943Y-105558302D01*
X47074507Y-105450505D01*
X47266602Y-105310940D01*
X47434500Y-105143042D01*
X47574065Y-104950947D01*
X47681862Y-104739383D01*
X47755236Y-104513561D01*
X47792380Y-104279042D01*
X47792380Y-104041598D01*
X49275380Y-104041598D01*
X49275380Y-104279042D01*
X49282727Y-104325428D01*
X49312525Y-104513566D01*
X49385527Y-104738241D01*
X49385898Y-104739383D01*
X49493695Y-104950947D01*
X49633260Y-105143042D01*
X49633262Y-105143044D01*
X49633264Y-105143047D01*
X49801152Y-105310935D01*
X49801155Y-105310937D01*
X49801158Y-105310940D01*
X49993253Y-105450505D01*
X50204817Y-105558302D01*
X50430639Y-105631676D01*
X50665158Y-105668820D01*
X50665161Y-105668820D01*
X50902599Y-105668820D01*
X50902602Y-105668820D01*
X51137121Y-105631676D01*
X51362943Y-105558302D01*
X51574507Y-105450505D01*
X51766602Y-105310940D01*
X51934500Y-105143042D01*
X52074065Y-104950947D01*
X52181862Y-104739383D01*
X52255236Y-104513561D01*
X52292380Y-104279042D01*
X52292380Y-104041598D01*
X52255236Y-103807079D01*
X52181862Y-103581257D01*
X52074065Y-103369693D01*
X51934500Y-103177598D01*
X51934497Y-103177595D01*
X51934495Y-103177592D01*
X51766607Y-103009704D01*
X51766604Y-103009702D01*
X51766602Y-103009700D01*
X51574507Y-102870135D01*
X51362943Y-102762338D01*
X51362940Y-102762337D01*
X51362938Y-102762336D01*
X51137126Y-102688965D01*
X51137122Y-102688964D01*
X51137121Y-102688964D01*
X50902602Y-102651820D01*
X50665158Y-102651820D01*
X50430639Y-102688964D01*
X50430633Y-102688965D01*
X50204821Y-102762336D01*
X50204815Y-102762339D01*
X49993249Y-102870137D01*
X49801155Y-103009702D01*
X49801152Y-103009704D01*
X49633264Y-103177592D01*
X49633262Y-103177595D01*
X49493697Y-103369689D01*
X49385899Y-103581255D01*
X49385896Y-103581261D01*
X49312525Y-103807073D01*
X49312524Y-103807078D01*
X49312524Y-103807079D01*
X49275380Y-104041598D01*
X47792380Y-104041598D01*
X47755236Y-103807079D01*
X47681862Y-103581257D01*
X47574065Y-103369693D01*
X47434500Y-103177598D01*
X47434497Y-103177595D01*
X47434495Y-103177592D01*
X47266607Y-103009704D01*
X47266604Y-103009702D01*
X47266602Y-103009700D01*
X47074507Y-102870135D01*
X46862943Y-102762338D01*
X46862940Y-102762337D01*
X46862938Y-102762336D01*
X46637126Y-102688965D01*
X46637122Y-102688964D01*
X46637121Y-102688964D01*
X46402602Y-102651820D01*
X46165158Y-102651820D01*
X45930639Y-102688964D01*
X45930633Y-102688965D01*
X45704821Y-102762336D01*
X45704815Y-102762339D01*
X45493249Y-102870137D01*
X45301155Y-103009702D01*
X45301152Y-103009704D01*
X45133264Y-103177592D01*
X45133262Y-103177595D01*
X44993697Y-103369689D01*
X44885899Y-103581255D01*
X44885896Y-103581261D01*
X44812525Y-103807073D01*
X44812524Y-103807078D01*
X44812524Y-103807079D01*
X44775380Y-104041598D01*
X32341170Y-104041598D01*
X32350639Y-101504389D01*
X55528140Y-101504389D01*
X55528140Y-101726091D01*
X55547594Y-101848917D01*
X55562823Y-101945069D01*
X55591210Y-102032434D01*
X55631332Y-102155916D01*
X55729851Y-102349270D01*
X55731985Y-102353458D01*
X55862298Y-102532818D01*
X55901910Y-102572430D01*
X55935936Y-102634742D01*
X55930871Y-102705557D01*
X55888324Y-102762393D01*
X55856848Y-102779580D01*
X55790437Y-102804350D01*
X55790432Y-102804352D01*
X55673378Y-102891978D01*
X55585752Y-103009032D01*
X55585750Y-103009037D01*
X55534651Y-103146035D01*
X55534649Y-103146043D01*
X55528140Y-103206590D01*
X55528140Y-105103889D01*
X55534649Y-105164436D01*
X55534651Y-105164444D01*
X55585750Y-105301442D01*
X55585752Y-105301447D01*
X55673378Y-105418501D01*
X55790432Y-105506127D01*
X55790434Y-105506128D01*
X55790436Y-105506129D01*
X55849515Y-105528164D01*
X55927435Y-105557228D01*
X55927443Y-105557230D01*
X55987990Y-105563739D01*
X55987995Y-105563739D01*
X55988002Y-105563740D01*
X55988008Y-105563740D01*
X57885272Y-105563740D01*
X57885278Y-105563740D01*
X57885285Y-105563739D01*
X57885289Y-105563739D01*
X57945836Y-105557230D01*
X57945839Y-105557229D01*
X57945841Y-105557229D01*
X58082844Y-105506129D01*
X58199901Y-105418501D01*
X58267116Y-105328713D01*
X58287527Y-105301447D01*
X58287527Y-105301446D01*
X58287529Y-105301444D01*
X58338629Y-105164441D01*
X58338883Y-105162087D01*
X58345139Y-105103889D01*
X58345140Y-105103872D01*
X58345140Y-103206607D01*
X58345139Y-103206590D01*
X58338630Y-103146043D01*
X58338628Y-103146035D01*
X58299145Y-103040179D01*
X58287529Y-103009036D01*
X58287528Y-103009034D01*
X58287527Y-103009032D01*
X58199901Y-102891978D01*
X58082848Y-102804353D01*
X58082845Y-102804352D01*
X58082844Y-102804351D01*
X58016428Y-102779578D01*
X57959596Y-102737034D01*
X57934785Y-102670514D01*
X57949877Y-102601139D01*
X57971370Y-102572429D01*
X58010981Y-102532818D01*
X58010983Y-102532816D01*
X58099183Y-102411419D01*
X78290020Y-102411419D01*
X78290020Y-102617381D01*
X78319634Y-102804352D01*
X78322241Y-102820812D01*
X78383614Y-103009700D01*
X78385886Y-103016690D01*
X78479391Y-103200203D01*
X78600452Y-103366830D01*
X78600454Y-103366832D01*
X78600456Y-103366835D01*
X78746084Y-103512463D01*
X78746087Y-103512465D01*
X78746090Y-103512468D01*
X78912717Y-103633529D01*
X79096230Y-103727034D01*
X79292112Y-103790680D01*
X79495539Y-103822900D01*
X79495542Y-103822900D01*
X79701498Y-103822900D01*
X79701501Y-103822900D01*
X79904928Y-103790680D01*
X80100810Y-103727034D01*
X80284323Y-103633529D01*
X80450950Y-103512468D01*
X80596588Y-103366830D01*
X80717649Y-103200203D01*
X80811154Y-103016690D01*
X80874800Y-102820808D01*
X80907020Y-102617381D01*
X80907020Y-102431739D01*
X82684220Y-102431739D01*
X82684220Y-102637701D01*
X82716440Y-102841128D01*
X82716441Y-102841132D01*
X82773483Y-103016690D01*
X82780086Y-103037010D01*
X82873591Y-103220523D01*
X82994652Y-103387150D01*
X82994654Y-103387152D01*
X82994656Y-103387155D01*
X83140284Y-103532783D01*
X83140287Y-103532785D01*
X83140290Y-103532788D01*
X83306917Y-103653849D01*
X83490430Y-103747354D01*
X83686312Y-103811000D01*
X83889739Y-103843220D01*
X83889742Y-103843220D01*
X84095698Y-103843220D01*
X84095701Y-103843220D01*
X84299128Y-103811000D01*
X84495010Y-103747354D01*
X84678523Y-103653849D01*
X84845150Y-103532788D01*
X84990788Y-103387150D01*
X85111849Y-103220523D01*
X85205354Y-103037010D01*
X85269000Y-102841128D01*
X85301220Y-102637701D01*
X85301220Y-102431739D01*
X85269000Y-102228312D01*
X85205354Y-102032430D01*
X85111849Y-101848917D01*
X84990788Y-101682290D01*
X84990785Y-101682287D01*
X84990783Y-101682284D01*
X84845155Y-101536656D01*
X84845152Y-101536654D01*
X84845150Y-101536652D01*
X84678523Y-101415591D01*
X84495010Y-101322086D01*
X84495007Y-101322085D01*
X84495005Y-101322084D01*
X84299132Y-101258441D01*
X84299130Y-101258440D01*
X84299128Y-101258440D01*
X84095701Y-101226220D01*
X83889739Y-101226220D01*
X83686312Y-101258440D01*
X83686310Y-101258440D01*
X83686307Y-101258441D01*
X83490434Y-101322084D01*
X83490428Y-101322087D01*
X83306913Y-101415593D01*
X83140287Y-101536654D01*
X83140284Y-101536656D01*
X82994656Y-101682284D01*
X82994654Y-101682287D01*
X82873593Y-101848913D01*
X82780087Y-102032428D01*
X82780084Y-102032434D01*
X82716441Y-102228307D01*
X82716440Y-102228310D01*
X82716440Y-102228312D01*
X82684220Y-102431739D01*
X80907020Y-102431739D01*
X80907020Y-102411419D01*
X80874800Y-102207992D01*
X80811154Y-102012110D01*
X80717649Y-101828597D01*
X80596588Y-101661970D01*
X80596585Y-101661967D01*
X80596583Y-101661964D01*
X80450955Y-101516336D01*
X80450952Y-101516334D01*
X80450950Y-101516332D01*
X80312291Y-101415591D01*
X80284326Y-101395273D01*
X80284325Y-101395272D01*
X80284323Y-101395271D01*
X80100810Y-101301766D01*
X80100807Y-101301765D01*
X80100805Y-101301764D01*
X79904932Y-101238121D01*
X79904930Y-101238120D01*
X79904928Y-101238120D01*
X79701501Y-101205900D01*
X79495539Y-101205900D01*
X79292112Y-101238120D01*
X79292110Y-101238120D01*
X79292107Y-101238121D01*
X79096234Y-101301764D01*
X79096228Y-101301767D01*
X78912713Y-101395273D01*
X78746087Y-101516334D01*
X78746084Y-101516336D01*
X78600456Y-101661964D01*
X78600454Y-101661967D01*
X78479393Y-101828593D01*
X78385887Y-102012108D01*
X78385884Y-102012114D01*
X78322241Y-102207987D01*
X78322240Y-102207990D01*
X78322240Y-102207992D01*
X78290020Y-102411419D01*
X58099183Y-102411419D01*
X58141297Y-102353455D01*
X58241948Y-102155916D01*
X58310458Y-101945064D01*
X58345140Y-101726091D01*
X58345140Y-101504389D01*
X58310458Y-101285416D01*
X58241948Y-101074564D01*
X58141297Y-100877025D01*
X58010983Y-100697664D01*
X58010981Y-100697661D01*
X57854218Y-100540898D01*
X57674858Y-100410585D01*
X57674857Y-100410584D01*
X57674855Y-100410583D01*
X57477316Y-100309932D01*
X57477313Y-100309931D01*
X57477311Y-100309930D01*
X57266469Y-100241423D01*
X57266465Y-100241422D01*
X57266464Y-100241422D01*
X57047491Y-100206740D01*
X56825789Y-100206740D01*
X56606816Y-100241422D01*
X56606810Y-100241423D01*
X56395968Y-100309930D01*
X56395962Y-100309933D01*
X56198421Y-100410585D01*
X56019061Y-100540898D01*
X55862298Y-100697661D01*
X55731985Y-100877021D01*
X55631333Y-101074562D01*
X55631330Y-101074568D01*
X55562823Y-101285410D01*
X55562822Y-101285415D01*
X55562822Y-101285416D01*
X55528140Y-101504389D01*
X32350639Y-101504389D01*
X32365428Y-97541598D01*
X44775380Y-97541598D01*
X44775380Y-97779042D01*
X44812524Y-98013561D01*
X44812525Y-98013566D01*
X44884195Y-98234142D01*
X44885898Y-98239383D01*
X44993695Y-98450947D01*
X45133260Y-98643042D01*
X45133262Y-98643044D01*
X45133264Y-98643047D01*
X45301152Y-98810935D01*
X45301155Y-98810937D01*
X45301158Y-98810940D01*
X45493253Y-98950505D01*
X45704817Y-99058302D01*
X45930639Y-99131676D01*
X46165158Y-99168820D01*
X46165161Y-99168820D01*
X46402599Y-99168820D01*
X46402602Y-99168820D01*
X46637121Y-99131676D01*
X46862943Y-99058302D01*
X47074507Y-98950505D01*
X47266602Y-98810940D01*
X47434500Y-98643042D01*
X47574065Y-98450947D01*
X47681862Y-98239383D01*
X47755236Y-98013561D01*
X47792380Y-97779042D01*
X47792380Y-97541598D01*
X49275380Y-97541598D01*
X49275380Y-97779042D01*
X49312524Y-98013561D01*
X49312525Y-98013566D01*
X49384195Y-98234142D01*
X49385898Y-98239383D01*
X49493695Y-98450947D01*
X49633260Y-98643042D01*
X49633262Y-98643044D01*
X49633264Y-98643047D01*
X49801152Y-98810935D01*
X49801155Y-98810937D01*
X49801158Y-98810940D01*
X49993253Y-98950505D01*
X50204817Y-99058302D01*
X50430639Y-99131676D01*
X50665158Y-99168820D01*
X50665161Y-99168820D01*
X50902599Y-99168820D01*
X50902602Y-99168820D01*
X51137121Y-99131676D01*
X51362943Y-99058302D01*
X51574507Y-98950505D01*
X51766602Y-98810940D01*
X51934500Y-98643042D01*
X52074065Y-98450947D01*
X52181862Y-98239383D01*
X52255236Y-98013561D01*
X52292380Y-97779042D01*
X52292380Y-97541598D01*
X52255236Y-97307079D01*
X52181862Y-97081257D01*
X52074065Y-96869693D01*
X51934500Y-96677598D01*
X51934497Y-96677595D01*
X51934495Y-96677592D01*
X51766607Y-96509704D01*
X51766604Y-96509702D01*
X51766602Y-96509700D01*
X51574507Y-96370135D01*
X51362943Y-96262338D01*
X51362940Y-96262337D01*
X51362938Y-96262336D01*
X51137126Y-96188965D01*
X51137122Y-96188964D01*
X51137121Y-96188964D01*
X50902602Y-96151820D01*
X50665158Y-96151820D01*
X50430639Y-96188964D01*
X50430633Y-96188965D01*
X50204821Y-96262336D01*
X50204815Y-96262339D01*
X49993249Y-96370137D01*
X49801155Y-96509702D01*
X49801152Y-96509704D01*
X49633264Y-96677592D01*
X49633262Y-96677595D01*
X49493697Y-96869689D01*
X49385899Y-97081255D01*
X49385896Y-97081261D01*
X49312525Y-97307073D01*
X49312524Y-97307078D01*
X49312524Y-97307079D01*
X49275380Y-97541598D01*
X47792380Y-97541598D01*
X47755236Y-97307079D01*
X47681862Y-97081257D01*
X47574065Y-96869693D01*
X47434500Y-96677598D01*
X47434497Y-96677595D01*
X47434495Y-96677592D01*
X47266607Y-96509704D01*
X47266604Y-96509702D01*
X47266602Y-96509700D01*
X47074507Y-96370135D01*
X46862943Y-96262338D01*
X46862940Y-96262337D01*
X46862938Y-96262336D01*
X46637126Y-96188965D01*
X46637122Y-96188964D01*
X46637121Y-96188964D01*
X46402602Y-96151820D01*
X46165158Y-96151820D01*
X45930639Y-96188964D01*
X45930633Y-96188965D01*
X45704821Y-96262336D01*
X45704815Y-96262339D01*
X45493249Y-96370137D01*
X45301155Y-96509702D01*
X45301152Y-96509704D01*
X45133264Y-96677592D01*
X45133262Y-96677595D01*
X44993697Y-96869689D01*
X44885899Y-97081255D01*
X44885896Y-97081261D01*
X44812525Y-97307073D01*
X44812524Y-97307078D01*
X44812524Y-97307079D01*
X44775380Y-97541598D01*
X32365428Y-97541598D01*
X32381645Y-93196299D01*
X44762020Y-93196299D01*
X44762020Y-93402261D01*
X44793608Y-93601696D01*
X44794241Y-93605692D01*
X44852934Y-93786331D01*
X44857886Y-93801570D01*
X44951391Y-93985083D01*
X45072452Y-94151710D01*
X45072454Y-94151712D01*
X45072456Y-94151715D01*
X45218084Y-94297343D01*
X45218087Y-94297345D01*
X45218090Y-94297348D01*
X45384717Y-94418409D01*
X45568230Y-94511914D01*
X45764112Y-94575560D01*
X45967539Y-94607780D01*
X45967542Y-94607780D01*
X46173498Y-94607780D01*
X46173501Y-94607780D01*
X46376928Y-94575560D01*
X46572810Y-94511914D01*
X46756323Y-94418409D01*
X46922950Y-94297348D01*
X47068588Y-94151710D01*
X47189649Y-93985083D01*
X47206711Y-93951595D01*
X47229879Y-93919707D01*
X47953287Y-93196299D01*
X49415300Y-93196299D01*
X49415300Y-93402261D01*
X49446888Y-93601696D01*
X49447521Y-93605692D01*
X49506214Y-93786331D01*
X49511166Y-93801570D01*
X49604671Y-93985083D01*
X49725732Y-94151710D01*
X49725734Y-94151712D01*
X49725736Y-94151715D01*
X49871364Y-94297343D01*
X49871367Y-94297345D01*
X49871370Y-94297348D01*
X50037997Y-94418409D01*
X50221510Y-94511914D01*
X50417392Y-94575560D01*
X50620819Y-94607780D01*
X50620822Y-94607780D01*
X50826778Y-94607780D01*
X50826781Y-94607780D01*
X51030208Y-94575560D01*
X51226090Y-94511914D01*
X51409603Y-94418409D01*
X51576230Y-94297348D01*
X51721868Y-94151710D01*
X51842929Y-93985083D01*
X51936434Y-93801570D01*
X52000080Y-93605688D01*
X52032300Y-93402261D01*
X52032300Y-93196299D01*
X52029886Y-93181059D01*
X56959100Y-93181059D01*
X56959100Y-93387021D01*
X56991320Y-93590448D01*
X56991321Y-93590452D01*
X57048363Y-93766010D01*
X57054966Y-93786330D01*
X57148471Y-93969843D01*
X57269532Y-94136470D01*
X57269534Y-94136472D01*
X57269536Y-94136475D01*
X57415164Y-94282103D01*
X57415167Y-94282105D01*
X57415170Y-94282108D01*
X57581797Y-94403169D01*
X57765310Y-94496674D01*
X57961192Y-94560320D01*
X58164619Y-94592540D01*
X58164622Y-94592540D01*
X58370578Y-94592540D01*
X58370581Y-94592540D01*
X58574008Y-94560320D01*
X58769890Y-94496674D01*
X58953403Y-94403169D01*
X59120030Y-94282108D01*
X59265668Y-94136470D01*
X59386729Y-93969843D01*
X59480234Y-93786330D01*
X59543880Y-93590448D01*
X59576100Y-93387021D01*
X59576100Y-93181059D01*
X59572882Y-93160739D01*
X61272020Y-93160739D01*
X61272020Y-93366701D01*
X61304240Y-93570128D01*
X61304241Y-93570132D01*
X61361815Y-93747327D01*
X61367886Y-93766010D01*
X61461391Y-93949523D01*
X61582452Y-94116150D01*
X61582454Y-94116152D01*
X61582456Y-94116155D01*
X61728084Y-94261783D01*
X61728087Y-94261785D01*
X61728090Y-94261788D01*
X61894717Y-94382849D01*
X62078230Y-94476354D01*
X62274112Y-94540000D01*
X62477539Y-94572220D01*
X62477542Y-94572220D01*
X62683498Y-94572220D01*
X62683501Y-94572220D01*
X62886928Y-94540000D01*
X63082810Y-94476354D01*
X63266323Y-94382849D01*
X63432950Y-94261788D01*
X63578588Y-94116150D01*
X63699649Y-93949523D01*
X63793154Y-93766010D01*
X63856800Y-93570128D01*
X63889020Y-93366701D01*
X63889020Y-93211539D01*
X66834620Y-93211539D01*
X66834620Y-93417501D01*
X66864427Y-93605692D01*
X66866841Y-93620932D01*
X66925534Y-93801571D01*
X66930486Y-93816810D01*
X67023991Y-94000323D01*
X67145052Y-94166950D01*
X67145054Y-94166952D01*
X67145056Y-94166955D01*
X67290684Y-94312583D01*
X67290687Y-94312585D01*
X67290690Y-94312588D01*
X67457317Y-94433649D01*
X67640830Y-94527154D01*
X67836712Y-94590800D01*
X68040139Y-94623020D01*
X68040142Y-94623020D01*
X68246098Y-94623020D01*
X68246101Y-94623020D01*
X68449528Y-94590800D01*
X68645410Y-94527154D01*
X68705024Y-94496779D01*
X71340580Y-94496779D01*
X71340580Y-94702741D01*
X71372800Y-94906168D01*
X71372801Y-94906172D01*
X71393126Y-94968727D01*
X71436446Y-95102050D01*
X71529951Y-95285563D01*
X71651012Y-95452190D01*
X71651014Y-95452192D01*
X71651016Y-95452195D01*
X71796644Y-95597823D01*
X71796647Y-95597825D01*
X71796650Y-95597828D01*
X71963277Y-95718889D01*
X72146790Y-95812394D01*
X72342672Y-95876040D01*
X72546099Y-95908260D01*
X72546102Y-95908260D01*
X72752058Y-95908260D01*
X72752061Y-95908260D01*
X72955488Y-95876040D01*
X73151370Y-95812394D01*
X73334883Y-95718889D01*
X73501510Y-95597828D01*
X73647148Y-95452190D01*
X73768209Y-95285563D01*
X73861714Y-95102050D01*
X73925360Y-94906168D01*
X73957580Y-94702741D01*
X73957580Y-94496779D01*
X73925360Y-94293352D01*
X73861714Y-94097470D01*
X73768209Y-93913957D01*
X73647148Y-93747330D01*
X73647145Y-93747327D01*
X73647143Y-93747324D01*
X73501515Y-93601696D01*
X73501512Y-93601694D01*
X73501510Y-93601692D01*
X73334883Y-93480631D01*
X73151370Y-93387126D01*
X73151367Y-93387125D01*
X73151365Y-93387124D01*
X72955492Y-93323481D01*
X72955490Y-93323480D01*
X72955488Y-93323480D01*
X72752061Y-93291260D01*
X72546099Y-93291260D01*
X72342672Y-93323480D01*
X72342670Y-93323480D01*
X72342667Y-93323481D01*
X72146794Y-93387124D01*
X72146788Y-93387127D01*
X71963273Y-93480633D01*
X71796647Y-93601694D01*
X71796644Y-93601696D01*
X71651016Y-93747324D01*
X71651014Y-93747327D01*
X71529953Y-93913953D01*
X71436447Y-94097468D01*
X71436444Y-94097474D01*
X71372801Y-94293347D01*
X71372800Y-94293350D01*
X71372800Y-94293352D01*
X71340580Y-94496779D01*
X68705024Y-94496779D01*
X68828923Y-94433649D01*
X68995550Y-94312588D01*
X69141188Y-94166950D01*
X69262249Y-94000323D01*
X69355754Y-93816810D01*
X69419400Y-93620928D01*
X69451620Y-93417501D01*
X69451620Y-93211539D01*
X69419400Y-93008112D01*
X69355754Y-92812230D01*
X69262249Y-92628717D01*
X69141188Y-92462090D01*
X69141185Y-92462087D01*
X69141183Y-92462084D01*
X68995555Y-92316456D01*
X68995552Y-92316454D01*
X68995550Y-92316452D01*
X68870119Y-92225322D01*
X68828926Y-92195393D01*
X68828925Y-92195392D01*
X68828923Y-92195391D01*
X68645410Y-92101886D01*
X68645407Y-92101885D01*
X68645405Y-92101884D01*
X68449532Y-92038241D01*
X68449530Y-92038240D01*
X68449528Y-92038240D01*
X68246101Y-92006020D01*
X68040139Y-92006020D01*
X67836712Y-92038240D01*
X67836710Y-92038240D01*
X67836707Y-92038241D01*
X67640834Y-92101884D01*
X67640828Y-92101887D01*
X67457313Y-92195393D01*
X67290687Y-92316454D01*
X67290684Y-92316456D01*
X67145056Y-92462084D01*
X67145054Y-92462087D01*
X67023993Y-92628713D01*
X66930487Y-92812228D01*
X66930484Y-92812234D01*
X66866841Y-93008107D01*
X66866840Y-93008110D01*
X66866840Y-93008112D01*
X66834620Y-93211539D01*
X63889020Y-93211539D01*
X63889020Y-93160739D01*
X63856800Y-92957312D01*
X63793154Y-92761430D01*
X63699649Y-92577917D01*
X63578588Y-92411290D01*
X63578585Y-92411287D01*
X63578583Y-92411284D01*
X63432955Y-92265656D01*
X63432952Y-92265654D01*
X63432950Y-92265652D01*
X63266323Y-92144591D01*
X63082810Y-92051086D01*
X63082807Y-92051085D01*
X63082805Y-92051084D01*
X62886932Y-91987441D01*
X62886930Y-91987440D01*
X62886928Y-91987440D01*
X62683501Y-91955220D01*
X62477539Y-91955220D01*
X62274112Y-91987440D01*
X62274110Y-91987440D01*
X62274107Y-91987441D01*
X62078234Y-92051084D01*
X62078228Y-92051087D01*
X61894713Y-92144593D01*
X61728087Y-92265654D01*
X61728084Y-92265656D01*
X61582456Y-92411284D01*
X61582454Y-92411287D01*
X61461393Y-92577913D01*
X61367887Y-92761428D01*
X61367884Y-92761434D01*
X61304241Y-92957307D01*
X61304240Y-92957310D01*
X61304240Y-92957312D01*
X61272020Y-93160739D01*
X59572882Y-93160739D01*
X59543880Y-92977632D01*
X59532267Y-92941890D01*
X59526100Y-92902954D01*
X59526100Y-91642638D01*
X59546102Y-91574517D01*
X59563005Y-91553543D01*
X61405129Y-89711419D01*
X78290020Y-89711419D01*
X78290020Y-89917381D01*
X78322240Y-90120808D01*
X78322241Y-90120812D01*
X78384102Y-90311202D01*
X78385886Y-90316690D01*
X78479391Y-90500203D01*
X78600452Y-90666830D01*
X78600454Y-90666832D01*
X78600456Y-90666835D01*
X78746084Y-90812463D01*
X78746087Y-90812465D01*
X78746090Y-90812468D01*
X78912717Y-90933529D01*
X79096230Y-91027034D01*
X79292112Y-91090680D01*
X79495539Y-91122900D01*
X79495542Y-91122900D01*
X79701498Y-91122900D01*
X79701501Y-91122900D01*
X79904928Y-91090680D01*
X80100810Y-91027034D01*
X80284323Y-90933529D01*
X80450950Y-90812468D01*
X80596588Y-90666830D01*
X80717649Y-90500203D01*
X80811154Y-90316690D01*
X80874800Y-90120808D01*
X80907020Y-89917381D01*
X80907020Y-89731739D01*
X82684220Y-89731739D01*
X82684220Y-89937701D01*
X82716440Y-90141128D01*
X82716441Y-90141132D01*
X82773483Y-90316690D01*
X82780086Y-90337010D01*
X82863239Y-90500206D01*
X82873593Y-90520526D01*
X82903522Y-90561719D01*
X82994652Y-90687150D01*
X82994654Y-90687152D01*
X82994656Y-90687155D01*
X83140284Y-90832783D01*
X83140287Y-90832785D01*
X83140290Y-90832788D01*
X83306917Y-90953849D01*
X83490430Y-91047354D01*
X83686312Y-91111000D01*
X83889739Y-91143220D01*
X83889742Y-91143220D01*
X84095698Y-91143220D01*
X84095701Y-91143220D01*
X84299128Y-91111000D01*
X84495010Y-91047354D01*
X84678523Y-90953849D01*
X84845150Y-90832788D01*
X84990788Y-90687150D01*
X85111849Y-90520523D01*
X85205354Y-90337010D01*
X85269000Y-90141128D01*
X85301220Y-89937701D01*
X85301220Y-89731739D01*
X85269000Y-89528312D01*
X85205354Y-89332430D01*
X85111849Y-89148917D01*
X84990788Y-88982290D01*
X84990785Y-88982287D01*
X84990783Y-88982284D01*
X84845155Y-88836656D01*
X84845152Y-88836654D01*
X84845150Y-88836652D01*
X84678523Y-88715591D01*
X84495010Y-88622086D01*
X84495007Y-88622085D01*
X84495005Y-88622084D01*
X84299132Y-88558441D01*
X84299130Y-88558440D01*
X84299128Y-88558440D01*
X84095701Y-88526220D01*
X83889739Y-88526220D01*
X83686312Y-88558440D01*
X83686310Y-88558440D01*
X83686307Y-88558441D01*
X83490434Y-88622084D01*
X83490428Y-88622087D01*
X83306913Y-88715593D01*
X83140287Y-88836654D01*
X83140284Y-88836656D01*
X82994656Y-88982284D01*
X82994654Y-88982287D01*
X82873593Y-89148913D01*
X82780087Y-89332428D01*
X82780084Y-89332434D01*
X82716441Y-89528307D01*
X82716440Y-89528310D01*
X82716440Y-89528312D01*
X82684220Y-89731739D01*
X80907020Y-89731739D01*
X80907020Y-89711419D01*
X80874800Y-89507992D01*
X80811154Y-89312110D01*
X80717649Y-89128597D01*
X80596588Y-88961970D01*
X80596585Y-88961967D01*
X80596583Y-88961964D01*
X80450955Y-88816336D01*
X80450952Y-88816334D01*
X80450950Y-88816332D01*
X80284323Y-88695271D01*
X80100810Y-88601766D01*
X80100807Y-88601765D01*
X80100805Y-88601764D01*
X79904932Y-88538121D01*
X79904930Y-88538120D01*
X79904928Y-88538120D01*
X79701501Y-88505900D01*
X79495539Y-88505900D01*
X79292112Y-88538120D01*
X79292110Y-88538120D01*
X79292107Y-88538121D01*
X79096234Y-88601764D01*
X79096228Y-88601767D01*
X78912713Y-88695273D01*
X78746087Y-88816334D01*
X78746084Y-88816336D01*
X78600456Y-88961964D01*
X78600454Y-88961967D01*
X78479393Y-89128593D01*
X78385887Y-89312108D01*
X78385884Y-89312114D01*
X78322241Y-89507987D01*
X78322240Y-89507990D01*
X78322240Y-89507992D01*
X78290020Y-89711419D01*
X61405129Y-89711419D01*
X69319769Y-81796779D01*
X71340580Y-81796779D01*
X71340580Y-82002741D01*
X71349431Y-82058621D01*
X71372801Y-82206172D01*
X71390956Y-82262048D01*
X71436446Y-82402050D01*
X71529951Y-82585563D01*
X71651012Y-82752190D01*
X71651014Y-82752192D01*
X71651016Y-82752195D01*
X71796644Y-82897823D01*
X71796647Y-82897825D01*
X71796650Y-82897828D01*
X71963277Y-83018889D01*
X72146790Y-83112394D01*
X72342672Y-83176040D01*
X72546099Y-83208260D01*
X72546102Y-83208260D01*
X72752058Y-83208260D01*
X72752061Y-83208260D01*
X72955488Y-83176040D01*
X73151370Y-83112394D01*
X73334883Y-83018889D01*
X73501510Y-82897828D01*
X73647148Y-82752190D01*
X73768209Y-82585563D01*
X73861714Y-82402050D01*
X73925360Y-82206168D01*
X73957580Y-82002741D01*
X73957580Y-81796779D01*
X73925360Y-81593352D01*
X73861714Y-81397470D01*
X73768209Y-81213957D01*
X73647148Y-81047330D01*
X73647145Y-81047327D01*
X73647143Y-81047324D01*
X73501515Y-80901696D01*
X73501512Y-80901694D01*
X73501510Y-80901692D01*
X73376079Y-80810562D01*
X73334886Y-80780633D01*
X73334885Y-80780632D01*
X73334883Y-80780631D01*
X73151370Y-80687126D01*
X73151367Y-80687125D01*
X73151365Y-80687124D01*
X72955492Y-80623481D01*
X72955490Y-80623480D01*
X72955488Y-80623480D01*
X72752061Y-80591260D01*
X72546099Y-80591260D01*
X72342672Y-80623480D01*
X72342670Y-80623480D01*
X72342667Y-80623481D01*
X72146794Y-80687124D01*
X72146788Y-80687127D01*
X71963273Y-80780633D01*
X71796647Y-80901694D01*
X71796644Y-80901696D01*
X71651016Y-81047324D01*
X71651014Y-81047327D01*
X71529953Y-81213953D01*
X71436447Y-81397468D01*
X71436444Y-81397474D01*
X71372801Y-81593347D01*
X71372800Y-81593350D01*
X71372800Y-81593352D01*
X71340580Y-81796779D01*
X69319769Y-81796779D01*
X72945503Y-78171045D01*
X73007815Y-78137019D01*
X73034598Y-78134140D01*
X74908950Y-78134140D01*
X74910931Y-78134449D01*
X74911951Y-78134176D01*
X74923696Y-78136439D01*
X74947317Y-78140124D01*
X74950175Y-78141037D01*
X75048279Y-78177629D01*
X75072923Y-78180278D01*
X75085109Y-78184174D01*
X75104343Y-78197192D01*
X75125801Y-78206080D01*
X75133183Y-78216712D01*
X75143905Y-78223969D01*
X75153047Y-78245321D01*
X75166293Y-78264397D01*
X75166755Y-78277333D01*
X75171851Y-78289234D01*
X75167999Y-78312137D01*
X75168829Y-78335348D01*
X75162223Y-78346480D01*
X75160077Y-78359247D01*
X75144452Y-78376434D01*
X75132602Y-78396407D01*
X75120806Y-78406124D01*
X75105047Y-78417573D01*
X74959416Y-78563204D01*
X74959414Y-78563207D01*
X74838353Y-78729833D01*
X74744847Y-78913348D01*
X74744844Y-78913354D01*
X74681201Y-79109227D01*
X74681200Y-79109230D01*
X74681200Y-79109232D01*
X74648980Y-79312659D01*
X74648980Y-79518621D01*
X74681200Y-79722048D01*
X74681201Y-79722052D01*
X74743397Y-79913473D01*
X74744846Y-79917930D01*
X74838351Y-80101443D01*
X74959412Y-80268070D01*
X74959414Y-80268072D01*
X74959416Y-80268075D01*
X75105044Y-80413703D01*
X75105047Y-80413705D01*
X75105050Y-80413708D01*
X75271677Y-80534769D01*
X75347442Y-80573373D01*
X75399057Y-80622122D01*
X75416123Y-80691037D01*
X75393222Y-80758238D01*
X75347443Y-80797906D01*
X75278513Y-80833027D01*
X75271673Y-80836513D01*
X75105047Y-80957574D01*
X75105044Y-80957576D01*
X74959416Y-81103204D01*
X74959414Y-81103207D01*
X74838353Y-81269833D01*
X74744847Y-81453348D01*
X74744844Y-81453354D01*
X74681201Y-81649227D01*
X74681200Y-81649230D01*
X74681200Y-81649232D01*
X74648980Y-81852659D01*
X74648980Y-82058621D01*
X74672350Y-82206172D01*
X74681201Y-82262052D01*
X74726689Y-82402051D01*
X74744846Y-82457930D01*
X74838351Y-82641443D01*
X74959412Y-82808070D01*
X74959414Y-82808072D01*
X74959416Y-82808075D01*
X75105044Y-82953703D01*
X75105047Y-82953705D01*
X75105050Y-82953708D01*
X75271677Y-83074769D01*
X75347442Y-83113373D01*
X75399057Y-83162122D01*
X75416123Y-83231037D01*
X75393222Y-83298238D01*
X75347443Y-83337906D01*
X75278513Y-83373027D01*
X75271673Y-83376513D01*
X75105047Y-83497574D01*
X75105044Y-83497576D01*
X74959416Y-83643204D01*
X74959414Y-83643207D01*
X74838353Y-83809833D01*
X74744847Y-83993348D01*
X74744844Y-83993354D01*
X74681201Y-84189227D01*
X74681200Y-84189230D01*
X74681200Y-84189232D01*
X74648980Y-84392659D01*
X74648980Y-84598621D01*
X74656807Y-84648037D01*
X74681201Y-84802052D01*
X74690785Y-84831550D01*
X74744846Y-84997930D01*
X74838351Y-85181443D01*
X74959412Y-85348070D01*
X74959414Y-85348072D01*
X74959416Y-85348075D01*
X75105044Y-85493703D01*
X75105047Y-85493705D01*
X75105050Y-85493708D01*
X75271677Y-85614769D01*
X75455190Y-85708274D01*
X75651072Y-85771920D01*
X75854499Y-85804140D01*
X75854502Y-85804140D01*
X76860458Y-85804140D01*
X76860461Y-85804140D01*
X77063888Y-85771920D01*
X77259770Y-85708274D01*
X77443283Y-85614769D01*
X77609910Y-85493708D01*
X77755548Y-85348070D01*
X77876609Y-85181443D01*
X77970114Y-84997930D01*
X78033760Y-84802048D01*
X78065980Y-84598621D01*
X78065980Y-84392659D01*
X78033760Y-84189232D01*
X77970114Y-83993350D01*
X77876609Y-83809837D01*
X77755548Y-83643210D01*
X77755545Y-83643207D01*
X77755543Y-83643204D01*
X77609915Y-83497576D01*
X77609912Y-83497574D01*
X77609910Y-83497572D01*
X77443283Y-83376511D01*
X77367514Y-83337905D01*
X77315902Y-83289159D01*
X77298836Y-83220244D01*
X77321737Y-83153042D01*
X77367514Y-83113375D01*
X77443283Y-83074769D01*
X77609910Y-82953708D01*
X77755548Y-82808070D01*
X77876609Y-82641443D01*
X77970114Y-82457930D01*
X78033760Y-82262048D01*
X78065980Y-82058621D01*
X78065980Y-81852659D01*
X78033760Y-81649232D01*
X77970114Y-81453350D01*
X77876609Y-81269837D01*
X77755548Y-81103210D01*
X77755545Y-81103207D01*
X77755543Y-81103204D01*
X77609915Y-80957576D01*
X77609912Y-80957574D01*
X77609910Y-80957572D01*
X77443283Y-80836511D01*
X77367514Y-80797905D01*
X77315902Y-80749159D01*
X77298836Y-80680244D01*
X77321737Y-80613042D01*
X77367514Y-80573375D01*
X77443283Y-80534769D01*
X77609910Y-80413708D01*
X77755548Y-80268070D01*
X77876609Y-80101443D01*
X77970114Y-79917930D01*
X78033760Y-79722048D01*
X78065980Y-79518621D01*
X78065980Y-79312659D01*
X78033760Y-79109232D01*
X77970114Y-78913350D01*
X77876609Y-78729837D01*
X77755548Y-78563210D01*
X77755545Y-78563207D01*
X77755543Y-78563204D01*
X77609916Y-78417577D01*
X77609912Y-78417574D01*
X77609910Y-78417572D01*
X77594153Y-78406124D01*
X77550802Y-78349903D01*
X77544727Y-78279167D01*
X77577859Y-78216375D01*
X77629850Y-78184173D01*
X77642030Y-78180279D01*
X77666681Y-78177629D01*
X77764803Y-78141030D01*
X77767643Y-78140123D01*
X77773642Y-78139980D01*
X77806010Y-78134140D01*
X79156523Y-78134140D01*
X79156526Y-78134140D01*
X79352180Y-78103152D01*
X79540577Y-78041938D01*
X79717078Y-77952006D01*
X79877338Y-77835570D01*
X80017410Y-77695498D01*
X80940250Y-76772659D01*
X82268980Y-76772659D01*
X82268980Y-76978621D01*
X82294806Y-77141676D01*
X82301201Y-77182052D01*
X82323931Y-77252009D01*
X82364846Y-77377930D01*
X82458351Y-77561443D01*
X82579412Y-77728070D01*
X82579414Y-77728072D01*
X82579416Y-77728075D01*
X82725044Y-77873703D01*
X82725047Y-77873705D01*
X82725050Y-77873708D01*
X82891677Y-77994769D01*
X82967442Y-78033373D01*
X83019057Y-78082122D01*
X83036123Y-78151037D01*
X83013222Y-78218238D01*
X82967443Y-78257906D01*
X82905959Y-78289234D01*
X82891673Y-78296513D01*
X82725047Y-78417574D01*
X82725044Y-78417576D01*
X82579416Y-78563204D01*
X82579414Y-78563207D01*
X82458353Y-78729833D01*
X82364847Y-78913348D01*
X82364844Y-78913354D01*
X82301201Y-79109227D01*
X82301200Y-79109230D01*
X82301200Y-79109232D01*
X82268980Y-79312659D01*
X82268980Y-79518621D01*
X82301200Y-79722048D01*
X82301201Y-79722052D01*
X82363397Y-79913473D01*
X82364846Y-79917930D01*
X82458351Y-80101443D01*
X82579412Y-80268070D01*
X82579414Y-80268072D01*
X82579416Y-80268075D01*
X82725044Y-80413703D01*
X82725047Y-80413705D01*
X82725050Y-80413708D01*
X82891677Y-80534769D01*
X82967442Y-80573373D01*
X83019057Y-80622122D01*
X83036123Y-80691037D01*
X83013222Y-80758238D01*
X82967443Y-80797906D01*
X82898513Y-80833027D01*
X82891673Y-80836513D01*
X82725047Y-80957574D01*
X82725044Y-80957576D01*
X82579416Y-81103204D01*
X82579414Y-81103207D01*
X82458353Y-81269833D01*
X82364847Y-81453348D01*
X82364844Y-81453354D01*
X82301201Y-81649227D01*
X82301200Y-81649230D01*
X82301200Y-81649232D01*
X82268980Y-81852659D01*
X82268980Y-82058621D01*
X82292350Y-82206172D01*
X82301201Y-82262052D01*
X82346689Y-82402051D01*
X82364846Y-82457930D01*
X82458351Y-82641443D01*
X82579412Y-82808070D01*
X82579414Y-82808072D01*
X82579416Y-82808075D01*
X82725044Y-82953703D01*
X82725047Y-82953705D01*
X82725050Y-82953708D01*
X82891677Y-83074769D01*
X82967442Y-83113373D01*
X83019057Y-83162122D01*
X83036123Y-83231037D01*
X83013222Y-83298238D01*
X82967443Y-83337906D01*
X82898513Y-83373027D01*
X82891673Y-83376513D01*
X82725047Y-83497574D01*
X82725044Y-83497576D01*
X82579416Y-83643204D01*
X82579414Y-83643207D01*
X82458353Y-83809833D01*
X82364847Y-83993348D01*
X82364844Y-83993354D01*
X82301201Y-84189227D01*
X82301200Y-84189230D01*
X82301200Y-84189232D01*
X82268980Y-84392659D01*
X82268980Y-84598621D01*
X82276807Y-84648037D01*
X82301201Y-84802052D01*
X82310785Y-84831550D01*
X82364846Y-84997930D01*
X82458351Y-85181443D01*
X82579412Y-85348070D01*
X82579414Y-85348072D01*
X82579416Y-85348075D01*
X82725044Y-85493703D01*
X82725047Y-85493705D01*
X82725050Y-85493708D01*
X82891677Y-85614769D01*
X83075190Y-85708274D01*
X83271072Y-85771920D01*
X83474499Y-85804140D01*
X83474502Y-85804140D01*
X84480458Y-85804140D01*
X84480461Y-85804140D01*
X84683888Y-85771920D01*
X84879770Y-85708274D01*
X85063283Y-85614769D01*
X85229910Y-85493708D01*
X85375548Y-85348070D01*
X85496609Y-85181443D01*
X85590114Y-84997930D01*
X85653760Y-84802048D01*
X85685980Y-84598621D01*
X85685980Y-84392659D01*
X85653760Y-84189232D01*
X85590114Y-83993350D01*
X85496609Y-83809837D01*
X85375548Y-83643210D01*
X85375545Y-83643207D01*
X85375543Y-83643204D01*
X85229915Y-83497576D01*
X85229912Y-83497574D01*
X85229910Y-83497572D01*
X85063283Y-83376511D01*
X84987514Y-83337905D01*
X84935902Y-83289159D01*
X84918836Y-83220244D01*
X84941737Y-83153042D01*
X84987514Y-83113375D01*
X85063283Y-83074769D01*
X85229910Y-82953708D01*
X85375548Y-82808070D01*
X85496609Y-82641443D01*
X85590114Y-82457930D01*
X85653760Y-82262048D01*
X85685980Y-82058621D01*
X85685980Y-81852659D01*
X85653760Y-81649232D01*
X85590114Y-81453350D01*
X85496609Y-81269837D01*
X85375548Y-81103210D01*
X85375545Y-81103207D01*
X85375543Y-81103204D01*
X85229915Y-80957576D01*
X85229912Y-80957574D01*
X85229910Y-80957572D01*
X85063283Y-80836511D01*
X84987514Y-80797905D01*
X84935902Y-80749159D01*
X84918836Y-80680244D01*
X84941737Y-80613042D01*
X84987514Y-80573375D01*
X85063283Y-80534769D01*
X85229910Y-80413708D01*
X85375548Y-80268070D01*
X85496609Y-80101443D01*
X85590114Y-79917930D01*
X85653760Y-79722048D01*
X85685980Y-79518621D01*
X85685980Y-79312659D01*
X85653760Y-79109232D01*
X85590114Y-78913350D01*
X85496609Y-78729837D01*
X85375548Y-78563210D01*
X85375545Y-78563207D01*
X85375543Y-78563204D01*
X85229915Y-78417576D01*
X85229912Y-78417574D01*
X85229911Y-78417573D01*
X85229910Y-78417572D01*
X85093521Y-78318480D01*
X85063286Y-78296513D01*
X85063285Y-78296512D01*
X85063283Y-78296511D01*
X84987514Y-78257905D01*
X84935902Y-78209159D01*
X84918836Y-78140244D01*
X84941737Y-78073042D01*
X84987514Y-78033375D01*
X85063283Y-77994769D01*
X85229910Y-77873708D01*
X85375548Y-77728070D01*
X85496609Y-77561443D01*
X85590114Y-77377930D01*
X85653760Y-77182048D01*
X85685980Y-76978621D01*
X85685980Y-76787899D01*
X87190180Y-76787899D01*
X87190180Y-76993861D01*
X87206405Y-77096298D01*
X87222400Y-77197290D01*
X87234013Y-77233028D01*
X87240180Y-77271965D01*
X87240180Y-80393526D01*
X87271168Y-80589180D01*
X87332382Y-80777577D01*
X87422314Y-80954078D01*
X87422316Y-80954081D01*
X87538751Y-81114340D01*
X87538754Y-81114343D01*
X92378677Y-85954265D01*
X92401848Y-85986156D01*
X92418911Y-86019643D01*
X92539972Y-86186270D01*
X92539974Y-86186272D01*
X92539976Y-86186275D01*
X92685604Y-86331903D01*
X92685607Y-86331905D01*
X92685610Y-86331908D01*
X92852237Y-86452969D01*
X93035750Y-86546474D01*
X93231632Y-86610120D01*
X93435059Y-86642340D01*
X93435062Y-86642340D01*
X93641018Y-86642340D01*
X93641021Y-86642340D01*
X93844448Y-86610120D01*
X94040330Y-86546474D01*
X94223843Y-86452969D01*
X94390470Y-86331908D01*
X94536108Y-86186270D01*
X94657169Y-86019643D01*
X94750674Y-85836130D01*
X94814320Y-85640248D01*
X94846540Y-85436821D01*
X94846540Y-85230859D01*
X94814320Y-85027432D01*
X94750674Y-84831550D01*
X94657169Y-84648037D01*
X94536108Y-84481410D01*
X94536105Y-84481407D01*
X94536103Y-84481404D01*
X94390475Y-84335776D01*
X94390472Y-84335774D01*
X94390470Y-84335772D01*
X94223843Y-84214711D01*
X94190356Y-84197648D01*
X94158465Y-84174477D01*
X89794085Y-79810097D01*
X89760059Y-79747785D01*
X89757180Y-79721002D01*
X89757180Y-79335416D01*
X100617940Y-79335416D01*
X100617940Y-79559383D01*
X100647171Y-79781420D01*
X100647173Y-79781427D01*
X100705138Y-79997758D01*
X100790845Y-80204672D01*
X100790846Y-80204673D01*
X100790851Y-80204683D01*
X100841767Y-80292872D01*
X100902826Y-80398628D01*
X101036912Y-80573373D01*
X101039165Y-80576309D01*
X101039174Y-80576319D01*
X101197520Y-80734665D01*
X101197530Y-80734674D01*
X101197531Y-80734675D01*
X101375212Y-80871014D01*
X101569168Y-80982995D01*
X101776082Y-81068702D01*
X101992413Y-81126667D01*
X101992417Y-81126667D01*
X101992419Y-81126668D01*
X102049644Y-81134201D01*
X102214459Y-81155900D01*
X102214466Y-81155900D01*
X102438414Y-81155900D01*
X102438421Y-81155900D01*
X102639096Y-81129480D01*
X102660460Y-81126668D01*
X102660460Y-81126667D01*
X102660467Y-81126667D01*
X102876798Y-81068702D01*
X103083712Y-80982995D01*
X103277668Y-80871014D01*
X103455349Y-80734675D01*
X103613715Y-80576309D01*
X103750054Y-80398628D01*
X103862035Y-80204672D01*
X103947742Y-79997758D01*
X104005707Y-79781427D01*
X104034940Y-79559381D01*
X104034940Y-79335419D01*
X104005707Y-79113373D01*
X103947742Y-78897042D01*
X103862035Y-78690128D01*
X103750054Y-78496172D01*
X103613715Y-78318491D01*
X103613714Y-78318490D01*
X103613705Y-78318480D01*
X103455359Y-78160134D01*
X103455349Y-78160125D01*
X103429095Y-78139980D01*
X103277668Y-78023786D01*
X103245785Y-78005378D01*
X103083723Y-77911811D01*
X103083718Y-77911808D01*
X103083712Y-77911805D01*
X102876798Y-77826098D01*
X102660467Y-77768133D01*
X102660460Y-77768131D01*
X102438423Y-77738900D01*
X102438421Y-77738900D01*
X102214459Y-77738900D01*
X102214456Y-77738900D01*
X101992419Y-77768131D01*
X101776082Y-77826098D01*
X101569166Y-77911806D01*
X101569156Y-77911811D01*
X101375216Y-78023783D01*
X101197530Y-78160125D01*
X101197520Y-78160134D01*
X101039174Y-78318480D01*
X101039165Y-78318490D01*
X100902823Y-78496176D01*
X100790851Y-78690116D01*
X100790846Y-78690126D01*
X100705138Y-78897042D01*
X100647171Y-79113379D01*
X100617940Y-79335416D01*
X89757180Y-79335416D01*
X89757180Y-77271965D01*
X89763347Y-77233028D01*
X89774959Y-77197290D01*
X89774960Y-77197288D01*
X89807180Y-76993861D01*
X89807180Y-76787899D01*
X89774960Y-76584472D01*
X89711314Y-76388590D01*
X89617809Y-76205077D01*
X89496748Y-76038450D01*
X89496745Y-76038447D01*
X89496743Y-76038444D01*
X89351115Y-75892816D01*
X89351112Y-75892814D01*
X89351110Y-75892812D01*
X89206665Y-75787867D01*
X89184486Y-75771753D01*
X89184485Y-75771752D01*
X89184483Y-75771751D01*
X89000970Y-75678246D01*
X89000967Y-75678245D01*
X89000965Y-75678244D01*
X88805092Y-75614601D01*
X88805090Y-75614600D01*
X88805088Y-75614600D01*
X88601661Y-75582380D01*
X88395699Y-75582380D01*
X88192272Y-75614600D01*
X88192270Y-75614600D01*
X88192267Y-75614601D01*
X87996394Y-75678244D01*
X87996388Y-75678247D01*
X87812873Y-75771753D01*
X87646247Y-75892814D01*
X87646244Y-75892816D01*
X87500616Y-76038444D01*
X87500614Y-76038447D01*
X87379553Y-76205073D01*
X87286047Y-76388588D01*
X87286044Y-76388594D01*
X87222401Y-76584467D01*
X87222400Y-76584470D01*
X87222400Y-76584472D01*
X87190180Y-76787899D01*
X85685980Y-76787899D01*
X85685980Y-76772659D01*
X85653760Y-76569232D01*
X85590114Y-76373350D01*
X85496609Y-76189837D01*
X85375548Y-76023210D01*
X85375545Y-76023207D01*
X85375543Y-76023204D01*
X85229915Y-75877576D01*
X85229912Y-75877574D01*
X85229910Y-75877572D01*
X85063283Y-75756511D01*
X84879770Y-75663006D01*
X84879767Y-75663005D01*
X84879765Y-75663004D01*
X84683892Y-75599361D01*
X84683890Y-75599360D01*
X84683888Y-75599360D01*
X84480461Y-75567140D01*
X83474499Y-75567140D01*
X83271072Y-75599360D01*
X83271070Y-75599360D01*
X83271067Y-75599361D01*
X83075194Y-75663004D01*
X83075188Y-75663007D01*
X82891673Y-75756513D01*
X82725047Y-75877574D01*
X82725044Y-75877576D01*
X82579416Y-76023204D01*
X82579414Y-76023207D01*
X82458353Y-76189833D01*
X82364847Y-76373348D01*
X82364844Y-76373354D01*
X82301201Y-76569227D01*
X82301200Y-76569230D01*
X82301200Y-76569232D01*
X82268980Y-76772659D01*
X80940250Y-76772659D01*
X81034296Y-76678613D01*
X81039925Y-76672983D01*
X81039928Y-76672980D01*
X81039930Y-76672978D01*
X81156367Y-76512717D01*
X81246299Y-76336216D01*
X81295366Y-76185202D01*
X81307512Y-76147820D01*
X81338500Y-75952166D01*
X81338500Y-75244500D01*
X81358502Y-75176379D01*
X81412158Y-75129886D01*
X81464500Y-75118500D01*
X89576522Y-75118500D01*
X89644643Y-75138502D01*
X89665617Y-75155405D01*
X91260070Y-76749858D01*
X91400142Y-76889930D01*
X91560402Y-77006366D01*
X91736903Y-77096298D01*
X91876562Y-77141676D01*
X91925300Y-77157512D01*
X92120954Y-77188500D01*
X92120957Y-77188500D01*
X98242883Y-77188500D01*
X98242886Y-77188500D01*
X98438540Y-77157512D01*
X98626937Y-77096298D01*
X98803438Y-77006366D01*
X98963698Y-76889930D01*
X99103770Y-76749858D01*
X100110823Y-75742805D01*
X100173135Y-75708779D01*
X100199918Y-75705900D01*
X100518057Y-75705900D01*
X100586178Y-75725902D01*
X100632671Y-75779558D01*
X100636112Y-75787867D01*
X100675550Y-75893602D01*
X100675552Y-75893607D01*
X100763178Y-76010661D01*
X100880232Y-76098287D01*
X100880234Y-76098288D01*
X100880236Y-76098289D01*
X100909366Y-76109154D01*
X101017235Y-76149388D01*
X101017243Y-76149390D01*
X101077790Y-76155899D01*
X101077795Y-76155899D01*
X101077802Y-76155900D01*
X101077808Y-76155900D01*
X103575072Y-76155900D01*
X103575078Y-76155900D01*
X103575085Y-76155899D01*
X103575089Y-76155899D01*
X103635636Y-76149390D01*
X103635639Y-76149389D01*
X103635641Y-76149389D01*
X103772644Y-76098289D01*
X103889701Y-76010661D01*
X103977329Y-75893604D01*
X104028429Y-75756601D01*
X104028439Y-75756513D01*
X104034939Y-75696049D01*
X104034940Y-75696032D01*
X104034940Y-73198767D01*
X104034939Y-73198750D01*
X104028430Y-73138203D01*
X104028428Y-73138195D01*
X103977329Y-73001197D01*
X103977327Y-73001192D01*
X103889701Y-72884138D01*
X103772647Y-72796512D01*
X103772642Y-72796510D01*
X103635644Y-72745411D01*
X103635636Y-72745409D01*
X103575089Y-72738900D01*
X103575078Y-72738900D01*
X101077802Y-72738900D01*
X101077790Y-72738900D01*
X101017243Y-72745409D01*
X101017235Y-72745411D01*
X100880237Y-72796510D01*
X100880232Y-72796512D01*
X100763178Y-72884138D01*
X100675552Y-73001192D01*
X100675550Y-73001197D01*
X100636112Y-73106933D01*
X100593565Y-73163769D01*
X100527045Y-73188579D01*
X100518057Y-73188900D01*
X99527394Y-73188900D01*
X99331740Y-73219888D01*
X99331737Y-73219888D01*
X99331736Y-73219889D01*
X99143343Y-73281102D01*
X99143341Y-73281103D01*
X99001013Y-73353623D01*
X99001012Y-73353622D01*
X98966841Y-73371034D01*
X98806579Y-73487471D01*
X98806576Y-73487474D01*
X97659457Y-74634595D01*
X97597145Y-74668620D01*
X97570362Y-74671500D01*
X92793478Y-74671500D01*
X92725357Y-74651498D01*
X92704383Y-74634595D01*
X90969863Y-72900074D01*
X90969860Y-72900071D01*
X90809600Y-72783635D01*
X90734581Y-72745411D01*
X90633093Y-72693700D01*
X90444705Y-72632489D01*
X90444701Y-72632488D01*
X90444700Y-72632488D01*
X90249046Y-72601500D01*
X90249043Y-72601500D01*
X81464500Y-72601500D01*
X81396379Y-72581498D01*
X81349886Y-72527842D01*
X81338500Y-72475500D01*
X81338500Y-66083478D01*
X81347283Y-66053562D01*
X81353912Y-66023093D01*
X81357726Y-66017997D01*
X81358502Y-66015357D01*
X81375405Y-65994383D01*
X81477103Y-65892685D01*
X81539415Y-65858659D01*
X81566198Y-65855780D01*
X82661333Y-65855780D01*
X82729454Y-65875782D01*
X82775947Y-65929438D01*
X82786051Y-65999712D01*
X82756557Y-66064292D01*
X82735394Y-66083716D01*
X82659007Y-66139214D01*
X82659004Y-66139216D01*
X82513376Y-66284844D01*
X82513374Y-66284847D01*
X82392313Y-66451473D01*
X82298807Y-66634988D01*
X82298804Y-66634994D01*
X82235161Y-66830867D01*
X82235160Y-66830870D01*
X82235160Y-66830872D01*
X82202940Y-67034299D01*
X82202940Y-67240261D01*
X82235160Y-67443688D01*
X82235161Y-67443692D01*
X82285450Y-67598467D01*
X82298806Y-67639570D01*
X82392311Y-67823083D01*
X82513372Y-67989710D01*
X82513374Y-67989712D01*
X82513376Y-67989715D01*
X82659004Y-68135343D01*
X82659007Y-68135345D01*
X82659010Y-68135348D01*
X82825637Y-68256409D01*
X82901402Y-68295013D01*
X82953017Y-68343762D01*
X82970083Y-68412677D01*
X82947182Y-68479878D01*
X82901403Y-68519546D01*
X82832473Y-68554667D01*
X82825633Y-68558153D01*
X82659007Y-68679214D01*
X82659004Y-68679216D01*
X82513376Y-68824844D01*
X82513374Y-68824847D01*
X82392313Y-68991473D01*
X82298807Y-69174988D01*
X82298804Y-69174994D01*
X82235161Y-69370867D01*
X82235160Y-69370870D01*
X82235160Y-69370872D01*
X82202940Y-69574299D01*
X82202940Y-69780261D01*
X82232159Y-69964738D01*
X82235161Y-69983692D01*
X82260094Y-70060429D01*
X82298806Y-70179570D01*
X82392311Y-70363083D01*
X82513372Y-70529710D01*
X82513374Y-70529712D01*
X82513376Y-70529715D01*
X82659004Y-70675343D01*
X82659007Y-70675345D01*
X82659010Y-70675348D01*
X82825637Y-70796409D01*
X83009150Y-70889914D01*
X83205032Y-70953560D01*
X83408459Y-70985780D01*
X83408462Y-70985780D01*
X84414418Y-70985780D01*
X84414421Y-70985780D01*
X84617848Y-70953560D01*
X84653589Y-70941946D01*
X84692525Y-70935780D01*
X90008002Y-70935780D01*
X90076123Y-70955782D01*
X90097097Y-70972685D01*
X92378677Y-73254265D01*
X92401848Y-73286156D01*
X92418911Y-73319643D01*
X92539972Y-73486270D01*
X92539974Y-73486272D01*
X92539976Y-73486275D01*
X92685604Y-73631903D01*
X92685607Y-73631905D01*
X92685610Y-73631908D01*
X92852237Y-73752969D01*
X93035750Y-73846474D01*
X93231632Y-73910120D01*
X93435059Y-73942340D01*
X93435062Y-73942340D01*
X93641018Y-73942340D01*
X93641021Y-73942340D01*
X93844448Y-73910120D01*
X94040330Y-73846474D01*
X94223843Y-73752969D01*
X94390470Y-73631908D01*
X94536108Y-73486270D01*
X94657169Y-73319643D01*
X94750674Y-73136130D01*
X94814320Y-72940248D01*
X94846540Y-72736821D01*
X94846540Y-72530859D01*
X94814320Y-72327432D01*
X94750674Y-72131550D01*
X94657169Y-71948037D01*
X94536108Y-71781410D01*
X94536105Y-71781407D01*
X94536103Y-71781404D01*
X94390475Y-71635776D01*
X94390472Y-71635774D01*
X94390470Y-71635772D01*
X94223843Y-71514711D01*
X94190356Y-71497648D01*
X94158465Y-71474477D01*
X92156285Y-69472297D01*
X92141340Y-69444928D01*
X92124484Y-69418700D01*
X92123578Y-69412401D01*
X92122259Y-69409985D01*
X92119380Y-69383202D01*
X92119380Y-69143965D01*
X92125547Y-69105028D01*
X92130556Y-69089612D01*
X92137160Y-69069288D01*
X92169380Y-68865861D01*
X92169380Y-68659899D01*
X92137160Y-68456472D01*
X92073514Y-68260590D01*
X91980009Y-68077077D01*
X91858948Y-67910450D01*
X91858945Y-67910447D01*
X91858943Y-67910444D01*
X91713315Y-67764816D01*
X91713312Y-67764814D01*
X91713310Y-67764812D01*
X91546683Y-67643751D01*
X91363170Y-67550246D01*
X91363167Y-67550245D01*
X91363165Y-67550244D01*
X91167292Y-67486601D01*
X91167290Y-67486600D01*
X91167288Y-67486600D01*
X90963861Y-67454380D01*
X90757899Y-67454380D01*
X90554472Y-67486600D01*
X90554470Y-67486600D01*
X90554467Y-67486601D01*
X90358594Y-67550244D01*
X90358588Y-67550247D01*
X90175073Y-67643753D01*
X90008447Y-67764814D01*
X90008444Y-67764816D01*
X89862816Y-67910444D01*
X89862814Y-67910447D01*
X89741752Y-68077074D01*
X89741750Y-68077078D01*
X89724689Y-68110561D01*
X89701519Y-68142451D01*
X89462097Y-68381875D01*
X89399785Y-68415900D01*
X89373001Y-68418780D01*
X85161547Y-68418780D01*
X85093426Y-68398778D01*
X85046933Y-68345122D01*
X85036829Y-68274848D01*
X85066323Y-68210268D01*
X85087486Y-68190844D01*
X85089943Y-68189058D01*
X85163870Y-68135348D01*
X85309508Y-67989710D01*
X85430569Y-67823083D01*
X85524074Y-67639570D01*
X85587720Y-67443688D01*
X85619940Y-67240261D01*
X85619940Y-67034299D01*
X85587720Y-66830872D01*
X85524074Y-66634990D01*
X85430569Y-66451477D01*
X85309508Y-66284850D01*
X85309505Y-66284847D01*
X85309503Y-66284844D01*
X85163875Y-66139216D01*
X85163872Y-66139214D01*
X85163870Y-66139212D01*
X84997243Y-66018151D01*
X84921474Y-65979545D01*
X84869862Y-65930799D01*
X84852796Y-65861884D01*
X84875697Y-65794682D01*
X84921474Y-65755015D01*
X84997243Y-65716409D01*
X85163870Y-65595348D01*
X85309508Y-65449710D01*
X85430569Y-65283083D01*
X85524074Y-65099570D01*
X85587720Y-64903688D01*
X85619940Y-64700261D01*
X85619940Y-64494299D01*
X85587720Y-64290872D01*
X85524074Y-64094990D01*
X85430569Y-63911477D01*
X85309508Y-63744850D01*
X85309505Y-63744847D01*
X85309503Y-63744844D01*
X85163875Y-63599216D01*
X85163872Y-63599214D01*
X85163871Y-63599213D01*
X85163870Y-63599212D01*
X84997243Y-63478151D01*
X84921474Y-63439545D01*
X84869862Y-63390799D01*
X84852796Y-63321884D01*
X84875697Y-63254682D01*
X84921474Y-63215015D01*
X84997243Y-63176409D01*
X85163870Y-63055348D01*
X85309508Y-62909710D01*
X85430569Y-62743083D01*
X85524074Y-62559570D01*
X85587720Y-62363688D01*
X85619940Y-62160261D01*
X85619940Y-61954299D01*
X85587720Y-61750872D01*
X85524074Y-61554990D01*
X85430569Y-61371477D01*
X85309508Y-61204850D01*
X85309505Y-61204847D01*
X85309503Y-61204844D01*
X85163875Y-61059216D01*
X85163872Y-61059214D01*
X85163870Y-61059212D01*
X84997243Y-60938151D01*
X84813730Y-60844646D01*
X84813727Y-60844645D01*
X84813725Y-60844644D01*
X84617852Y-60781001D01*
X84617850Y-60781000D01*
X84617848Y-60781000D01*
X84414421Y-60748780D01*
X83408459Y-60748780D01*
X83205032Y-60781000D01*
X83205030Y-60781000D01*
X83205027Y-60781001D01*
X83009154Y-60844644D01*
X83009148Y-60844647D01*
X82825633Y-60938153D01*
X82659007Y-61059214D01*
X82659004Y-61059216D01*
X82513376Y-61204844D01*
X82513374Y-61204847D01*
X82392313Y-61371473D01*
X82298807Y-61554988D01*
X82298804Y-61554994D01*
X82235161Y-61750867D01*
X82235160Y-61750870D01*
X82235160Y-61750872D01*
X82202940Y-61954299D01*
X82202940Y-62160261D01*
X82227498Y-62315312D01*
X82235161Y-62363692D01*
X82293381Y-62542876D01*
X82298806Y-62559570D01*
X82392311Y-62743083D01*
X82513372Y-62909710D01*
X82513374Y-62909712D01*
X82513376Y-62909715D01*
X82659004Y-63055343D01*
X82659007Y-63055345D01*
X82659010Y-63055348D01*
X82725261Y-63103482D01*
X82735394Y-63110844D01*
X82778748Y-63167066D01*
X82784823Y-63237802D01*
X82751692Y-63300594D01*
X82689872Y-63335505D01*
X82661333Y-63338780D01*
X80893674Y-63338780D01*
X80698020Y-63369768D01*
X80698017Y-63369768D01*
X80698016Y-63369769D01*
X80509623Y-63430982D01*
X80509621Y-63430983D01*
X80417049Y-63478151D01*
X80333119Y-63520915D01*
X80172861Y-63637350D01*
X79898739Y-63911473D01*
X79260142Y-64550070D01*
X79190106Y-64620106D01*
X79120070Y-64690141D01*
X79003636Y-64850398D01*
X78913703Y-65026901D01*
X78913702Y-65026903D01*
X78864557Y-65178157D01*
X78852488Y-65215300D01*
X78827624Y-65372293D01*
X78821500Y-65410957D01*
X78821500Y-75279642D01*
X78801498Y-75347763D01*
X78784595Y-75368737D01*
X78573097Y-75580235D01*
X78510785Y-75614261D01*
X78484002Y-75617140D01*
X77806010Y-75617140D01*
X77761977Y-75609195D01*
X77666684Y-75573651D01*
X77666676Y-75573649D01*
X77606129Y-75567140D01*
X77606118Y-75567140D01*
X75108842Y-75567140D01*
X75108830Y-75567140D01*
X75048283Y-75573649D01*
X75048275Y-75573651D01*
X74952983Y-75609195D01*
X74908950Y-75617140D01*
X72362074Y-75617140D01*
X72166420Y-75648128D01*
X72166417Y-75648128D01*
X72166416Y-75648129D01*
X71978023Y-75709342D01*
X71978021Y-75709343D01*
X71855539Y-75771751D01*
X71855538Y-75771750D01*
X71801524Y-75799272D01*
X71801523Y-75799272D01*
X71641259Y-75915711D01*
X71641256Y-75915714D01*
X60946854Y-86610118D01*
X57447742Y-90109230D01*
X57377706Y-90179266D01*
X57307670Y-90249301D01*
X57191236Y-90409558D01*
X57101303Y-90586061D01*
X57101302Y-90586063D01*
X57050686Y-90741844D01*
X57040088Y-90774460D01*
X57011677Y-90953849D01*
X57009100Y-90970117D01*
X57009100Y-92902954D01*
X57002933Y-92941890D01*
X56991321Y-92977626D01*
X56991320Y-92977631D01*
X56991320Y-92977632D01*
X56959100Y-93181059D01*
X52029886Y-93181059D01*
X52000080Y-92992872D01*
X51936434Y-92796990D01*
X51842929Y-92613477D01*
X51721868Y-92446850D01*
X51721865Y-92446847D01*
X51721863Y-92446844D01*
X51576235Y-92301216D01*
X51576232Y-92301214D01*
X51576230Y-92301212D01*
X51409603Y-92180151D01*
X51226090Y-92086646D01*
X51226087Y-92086645D01*
X51226085Y-92086644D01*
X51030212Y-92023001D01*
X51030210Y-92023000D01*
X51030208Y-92023000D01*
X50826781Y-91990780D01*
X50620819Y-91990780D01*
X50417392Y-92023000D01*
X50417390Y-92023000D01*
X50417387Y-92023001D01*
X50221514Y-92086644D01*
X50221508Y-92086647D01*
X50037993Y-92180153D01*
X49871367Y-92301214D01*
X49871364Y-92301216D01*
X49725736Y-92446844D01*
X49725734Y-92446847D01*
X49604673Y-92613473D01*
X49511167Y-92796988D01*
X49511164Y-92796994D01*
X49447521Y-92992867D01*
X49447520Y-92992870D01*
X49447520Y-92992872D01*
X49415300Y-93196299D01*
X47953287Y-93196299D01*
X55112730Y-86036858D01*
X55229166Y-85876598D01*
X55319098Y-85700097D01*
X55380312Y-85511700D01*
X55411300Y-85316046D01*
X55411300Y-80481059D01*
X56959100Y-80481059D01*
X56959100Y-80687021D01*
X56991320Y-80890448D01*
X56991321Y-80890452D01*
X57048363Y-81066010D01*
X57054966Y-81086330D01*
X57148471Y-81269843D01*
X57269532Y-81436470D01*
X57269534Y-81436472D01*
X57269536Y-81436475D01*
X57415164Y-81582103D01*
X57415167Y-81582105D01*
X57415170Y-81582108D01*
X57581797Y-81703169D01*
X57765310Y-81796674D01*
X57961192Y-81860320D01*
X58164619Y-81892540D01*
X58164622Y-81892540D01*
X58370578Y-81892540D01*
X58370581Y-81892540D01*
X58574008Y-81860320D01*
X58769890Y-81796674D01*
X58953403Y-81703169D01*
X59120030Y-81582108D01*
X59265668Y-81436470D01*
X59386729Y-81269843D01*
X59480234Y-81086330D01*
X59543880Y-80890448D01*
X59576100Y-80687021D01*
X59576100Y-80481059D01*
X59572882Y-80460739D01*
X61272020Y-80460739D01*
X61272020Y-80666701D01*
X61298916Y-80836511D01*
X61304241Y-80870132D01*
X61361815Y-81047327D01*
X61367886Y-81066010D01*
X61461391Y-81249523D01*
X61582452Y-81416150D01*
X61582454Y-81416152D01*
X61582456Y-81416155D01*
X61728084Y-81561783D01*
X61728087Y-81561785D01*
X61728090Y-81561788D01*
X61894717Y-81682849D01*
X62078230Y-81776354D01*
X62274112Y-81840000D01*
X62477539Y-81872220D01*
X62477542Y-81872220D01*
X62683498Y-81872220D01*
X62683501Y-81872220D01*
X62886928Y-81840000D01*
X63082810Y-81776354D01*
X63266323Y-81682849D01*
X63432950Y-81561788D01*
X63578588Y-81416150D01*
X63699649Y-81249523D01*
X63793154Y-81066010D01*
X63856800Y-80870128D01*
X63889020Y-80666701D01*
X63889020Y-80460739D01*
X63856800Y-80257312D01*
X63793154Y-80061430D01*
X63699649Y-79877917D01*
X63578588Y-79711290D01*
X63578585Y-79711287D01*
X63578583Y-79711284D01*
X63432955Y-79565656D01*
X63432952Y-79565654D01*
X63432950Y-79565652D01*
X63275337Y-79451140D01*
X63266326Y-79444593D01*
X63266325Y-79444592D01*
X63266323Y-79444591D01*
X63082810Y-79351086D01*
X63082807Y-79351085D01*
X63082805Y-79351084D01*
X62886932Y-79287441D01*
X62886930Y-79287440D01*
X62886928Y-79287440D01*
X62683501Y-79255220D01*
X62477539Y-79255220D01*
X62274112Y-79287440D01*
X62274110Y-79287440D01*
X62274107Y-79287441D01*
X62078234Y-79351084D01*
X62078228Y-79351087D01*
X61894713Y-79444593D01*
X61728087Y-79565654D01*
X61728084Y-79565656D01*
X61582456Y-79711284D01*
X61582454Y-79711287D01*
X61461393Y-79877913D01*
X61367887Y-80061428D01*
X61367884Y-80061434D01*
X61304241Y-80257307D01*
X61304240Y-80257310D01*
X61304240Y-80257312D01*
X61272020Y-80460739D01*
X59572882Y-80460739D01*
X59543880Y-80277632D01*
X59480234Y-80081750D01*
X59386729Y-79898237D01*
X59265668Y-79731610D01*
X59265665Y-79731607D01*
X59265663Y-79731604D01*
X59120035Y-79585976D01*
X59120032Y-79585974D01*
X59120030Y-79585972D01*
X58953403Y-79464911D01*
X58769890Y-79371406D01*
X58769887Y-79371405D01*
X58769885Y-79371404D01*
X58574012Y-79307761D01*
X58574010Y-79307760D01*
X58574008Y-79307760D01*
X58370581Y-79275540D01*
X58164619Y-79275540D01*
X57961192Y-79307760D01*
X57961190Y-79307760D01*
X57961187Y-79307761D01*
X57765314Y-79371404D01*
X57765308Y-79371407D01*
X57581793Y-79464913D01*
X57415167Y-79585974D01*
X57415164Y-79585976D01*
X57269536Y-79731604D01*
X57269534Y-79731607D01*
X57148473Y-79898233D01*
X57054967Y-80081748D01*
X57054964Y-80081754D01*
X56991321Y-80277627D01*
X56991320Y-80277630D01*
X56991320Y-80277632D01*
X56959100Y-80481059D01*
X55411300Y-80481059D01*
X55411300Y-80319318D01*
X55431302Y-80251197D01*
X55448205Y-80230223D01*
X57197503Y-78480925D01*
X57259815Y-78446899D01*
X57286598Y-78444020D01*
X66182243Y-78444020D01*
X66182246Y-78444020D01*
X66377900Y-78413032D01*
X66566297Y-78351818D01*
X66742798Y-78261886D01*
X66903058Y-78145450D01*
X67043130Y-78005378D01*
X74075823Y-70972685D01*
X74138135Y-70938659D01*
X74164918Y-70935780D01*
X75510355Y-70935780D01*
X75549290Y-70941946D01*
X75585032Y-70953560D01*
X75788459Y-70985780D01*
X75788462Y-70985780D01*
X76794418Y-70985780D01*
X76794421Y-70985780D01*
X76997848Y-70953560D01*
X77193730Y-70889914D01*
X77377243Y-70796409D01*
X77543870Y-70675348D01*
X77689508Y-70529710D01*
X77810569Y-70363083D01*
X77904074Y-70179570D01*
X77967720Y-69983688D01*
X77999940Y-69780261D01*
X77999940Y-69574299D01*
X77967720Y-69370872D01*
X77904074Y-69174990D01*
X77810569Y-68991477D01*
X77689508Y-68824850D01*
X77689505Y-68824847D01*
X77689503Y-68824844D01*
X77543875Y-68679216D01*
X77543872Y-68679214D01*
X77543870Y-68679212D01*
X77377243Y-68558151D01*
X77301474Y-68519545D01*
X77249862Y-68470799D01*
X77232796Y-68401884D01*
X77255697Y-68334682D01*
X77301474Y-68295015D01*
X77377243Y-68256409D01*
X77543870Y-68135348D01*
X77689508Y-67989710D01*
X77810569Y-67823083D01*
X77904074Y-67639570D01*
X77967720Y-67443688D01*
X77999940Y-67240261D01*
X77999940Y-67034299D01*
X77967720Y-66830872D01*
X77904074Y-66634990D01*
X77810569Y-66451477D01*
X77689508Y-66284850D01*
X77689505Y-66284847D01*
X77689503Y-66284844D01*
X77543875Y-66139216D01*
X77543872Y-66139214D01*
X77543870Y-66139212D01*
X77377243Y-66018151D01*
X77301474Y-65979545D01*
X77249862Y-65930799D01*
X77232796Y-65861884D01*
X77255697Y-65794682D01*
X77301474Y-65755015D01*
X77377243Y-65716409D01*
X77543870Y-65595348D01*
X77689508Y-65449710D01*
X77810569Y-65283083D01*
X77904074Y-65099570D01*
X77967720Y-64903688D01*
X77999940Y-64700261D01*
X77999940Y-64494299D01*
X77967720Y-64290872D01*
X77904074Y-64094990D01*
X77810569Y-63911477D01*
X77689508Y-63744850D01*
X77689505Y-63744847D01*
X77689503Y-63744844D01*
X77543876Y-63599217D01*
X77543872Y-63599214D01*
X77543870Y-63599212D01*
X77528113Y-63587764D01*
X77484762Y-63531543D01*
X77478687Y-63460807D01*
X77511819Y-63398015D01*
X77573639Y-63363104D01*
X77588711Y-63360552D01*
X77600636Y-63359270D01*
X77600639Y-63359269D01*
X77600641Y-63359269D01*
X77737644Y-63308169D01*
X77825639Y-63242297D01*
X77854701Y-63220541D01*
X77942327Y-63103487D01*
X77942327Y-63103486D01*
X77942329Y-63103484D01*
X77993429Y-62966481D01*
X77999533Y-62909710D01*
X77999939Y-62905929D01*
X77999940Y-62905912D01*
X77999940Y-61208647D01*
X77999939Y-61208630D01*
X77993430Y-61148083D01*
X77993428Y-61148075D01*
X77942329Y-61011077D01*
X77942327Y-61011072D01*
X77854701Y-60894018D01*
X77737647Y-60806392D01*
X77737642Y-60806390D01*
X77600644Y-60755291D01*
X77600636Y-60755289D01*
X77540089Y-60748780D01*
X77540078Y-60748780D01*
X75042802Y-60748780D01*
X75042790Y-60748780D01*
X74982243Y-60755289D01*
X74982235Y-60755291D01*
X74845237Y-60806390D01*
X74845232Y-60806392D01*
X74728178Y-60894018D01*
X74640552Y-61011072D01*
X74640550Y-61011077D01*
X74589451Y-61148075D01*
X74589449Y-61148083D01*
X74582940Y-61208630D01*
X74582940Y-62905929D01*
X74589449Y-62966476D01*
X74589451Y-62966484D01*
X74640550Y-63103482D01*
X74640552Y-63103487D01*
X74728178Y-63220541D01*
X74845232Y-63308167D01*
X74845234Y-63308168D01*
X74845236Y-63308169D01*
X74882007Y-63321884D01*
X74982235Y-63359268D01*
X74982238Y-63359268D01*
X74982239Y-63359269D01*
X74982244Y-63359270D01*
X74994168Y-63360552D01*
X75059761Y-63387720D01*
X75100253Y-63446037D01*
X75102789Y-63516988D01*
X75066562Y-63578047D01*
X75054766Y-63587764D01*
X75039007Y-63599213D01*
X74893376Y-63744844D01*
X74893374Y-63744847D01*
X74772313Y-63911473D01*
X74678807Y-64094988D01*
X74678804Y-64094994D01*
X74615161Y-64290867D01*
X74615160Y-64290870D01*
X74615160Y-64290872D01*
X74582940Y-64494299D01*
X74582940Y-64700261D01*
X74615160Y-64903688D01*
X74678806Y-65099570D01*
X74772311Y-65283083D01*
X74893372Y-65449710D01*
X74893374Y-65449712D01*
X74893376Y-65449715D01*
X75039004Y-65595343D01*
X75039007Y-65595345D01*
X75039010Y-65595348D01*
X75205637Y-65716409D01*
X75281402Y-65755013D01*
X75333017Y-65803762D01*
X75350083Y-65872677D01*
X75327182Y-65939878D01*
X75281403Y-65979546D01*
X75212473Y-66014667D01*
X75205633Y-66018153D01*
X75039007Y-66139214D01*
X75039004Y-66139216D01*
X74893376Y-66284844D01*
X74893374Y-66284847D01*
X74772313Y-66451473D01*
X74678807Y-66634988D01*
X74678804Y-66634994D01*
X74615161Y-66830867D01*
X74615160Y-66830870D01*
X74615160Y-66830872D01*
X74582940Y-67034299D01*
X74582940Y-67240261D01*
X74615160Y-67443688D01*
X74615161Y-67443692D01*
X74665450Y-67598467D01*
X74678806Y-67639570D01*
X74772311Y-67823083D01*
X74893372Y-67989710D01*
X74893374Y-67989712D01*
X74893376Y-67989715D01*
X75039004Y-68135343D01*
X75039007Y-68135345D01*
X75039010Y-68135348D01*
X75110888Y-68187570D01*
X75115394Y-68190844D01*
X75158748Y-68247066D01*
X75164823Y-68317802D01*
X75131692Y-68380594D01*
X75069872Y-68415505D01*
X75041333Y-68418780D01*
X73492394Y-68418780D01*
X73296740Y-68449768D01*
X73296737Y-68449768D01*
X73296736Y-68449769D01*
X73276107Y-68456472D01*
X73240074Y-68468180D01*
X73108348Y-68510979D01*
X73108342Y-68510982D01*
X72931842Y-68600913D01*
X72771575Y-68717355D01*
X65598817Y-75890115D01*
X65536505Y-75924141D01*
X65509722Y-75927020D01*
X56614074Y-75927020D01*
X56418420Y-75958008D01*
X56418417Y-75958008D01*
X56418416Y-75958009D01*
X56230023Y-76019222D01*
X56230021Y-76019223D01*
X56129310Y-76070538D01*
X56053519Y-76109155D01*
X55893259Y-76225591D01*
X55893256Y-76225594D01*
X53969363Y-78149489D01*
X53332942Y-78785910D01*
X53262906Y-78855946D01*
X53192870Y-78925981D01*
X53076436Y-79086238D01*
X52986503Y-79262741D01*
X52986502Y-79262743D01*
X52957798Y-79351086D01*
X52925288Y-79451140D01*
X52901520Y-79601212D01*
X52894300Y-79646797D01*
X52894300Y-84643521D01*
X52874298Y-84711642D01*
X52857395Y-84732616D01*
X45450093Y-92139917D01*
X45418203Y-92163088D01*
X45384718Y-92180150D01*
X45384714Y-92180152D01*
X45218087Y-92301214D01*
X45218084Y-92301216D01*
X45072456Y-92446844D01*
X45072454Y-92446847D01*
X44951393Y-92613473D01*
X44857887Y-92796988D01*
X44857884Y-92796994D01*
X44794241Y-92992867D01*
X44794240Y-92992870D01*
X44794240Y-92992872D01*
X44762020Y-93196299D01*
X32381645Y-93196299D01*
X32429043Y-80496299D01*
X44762020Y-80496299D01*
X44762020Y-80702261D01*
X44793608Y-80901696D01*
X44794241Y-80905692D01*
X44852934Y-81086331D01*
X44857886Y-81101570D01*
X44951391Y-81285083D01*
X45072452Y-81451710D01*
X45072454Y-81451712D01*
X45072456Y-81451715D01*
X45218084Y-81597343D01*
X45218087Y-81597345D01*
X45218090Y-81597348D01*
X45384717Y-81718409D01*
X45568230Y-81811914D01*
X45764112Y-81875560D01*
X45967539Y-81907780D01*
X45967542Y-81907780D01*
X46173498Y-81907780D01*
X46173501Y-81907780D01*
X46376928Y-81875560D01*
X46572810Y-81811914D01*
X46756323Y-81718409D01*
X46922950Y-81597348D01*
X47068588Y-81451710D01*
X47189649Y-81285083D01*
X47283154Y-81101570D01*
X47346800Y-80905688D01*
X47379020Y-80702261D01*
X47379020Y-80496299D01*
X49415300Y-80496299D01*
X49415300Y-80702261D01*
X49446888Y-80901696D01*
X49447521Y-80905692D01*
X49506214Y-81086331D01*
X49511166Y-81101570D01*
X49604671Y-81285083D01*
X49725732Y-81451710D01*
X49725734Y-81451712D01*
X49725736Y-81451715D01*
X49871364Y-81597343D01*
X49871367Y-81597345D01*
X49871370Y-81597348D01*
X50037997Y-81718409D01*
X50221510Y-81811914D01*
X50417392Y-81875560D01*
X50620819Y-81907780D01*
X50620822Y-81907780D01*
X50826778Y-81907780D01*
X50826781Y-81907780D01*
X51030208Y-81875560D01*
X51226090Y-81811914D01*
X51409603Y-81718409D01*
X51576230Y-81597348D01*
X51721868Y-81451710D01*
X51842929Y-81285083D01*
X51936434Y-81101570D01*
X52000080Y-80905688D01*
X52032300Y-80702261D01*
X52032300Y-80496299D01*
X52000080Y-80292872D01*
X51936434Y-80096990D01*
X51842929Y-79913477D01*
X51721868Y-79746850D01*
X51721865Y-79746847D01*
X51721863Y-79746844D01*
X51576235Y-79601216D01*
X51576232Y-79601214D01*
X51576230Y-79601212D01*
X51409603Y-79480151D01*
X51226090Y-79386646D01*
X51226087Y-79386645D01*
X51226085Y-79386644D01*
X51030212Y-79323001D01*
X51030210Y-79323000D01*
X51030208Y-79323000D01*
X50826781Y-79290780D01*
X50620819Y-79290780D01*
X50417392Y-79323000D01*
X50417390Y-79323000D01*
X50417387Y-79323001D01*
X50221514Y-79386644D01*
X50221508Y-79386647D01*
X50037993Y-79480153D01*
X49871367Y-79601214D01*
X49871364Y-79601216D01*
X49725736Y-79746844D01*
X49725734Y-79746847D01*
X49604673Y-79913473D01*
X49511167Y-80096988D01*
X49511164Y-80096994D01*
X49447521Y-80292867D01*
X49447520Y-80292870D01*
X49447520Y-80292872D01*
X49415300Y-80496299D01*
X47379020Y-80496299D01*
X47346800Y-80292872D01*
X47283154Y-80096990D01*
X47189649Y-79913477D01*
X47068588Y-79746850D01*
X47068585Y-79746847D01*
X47068583Y-79746844D01*
X46922955Y-79601216D01*
X46922952Y-79601214D01*
X46922950Y-79601212D01*
X46756323Y-79480151D01*
X46572810Y-79386646D01*
X46572807Y-79386645D01*
X46572805Y-79386644D01*
X46376932Y-79323001D01*
X46376930Y-79323000D01*
X46376928Y-79323000D01*
X46173501Y-79290780D01*
X45967539Y-79290780D01*
X45764112Y-79323000D01*
X45764110Y-79323000D01*
X45764107Y-79323001D01*
X45568234Y-79386644D01*
X45568228Y-79386647D01*
X45384713Y-79480153D01*
X45218087Y-79601214D01*
X45218084Y-79601216D01*
X45072456Y-79746844D01*
X45072454Y-79746847D01*
X44951393Y-79913473D01*
X44857887Y-80096988D01*
X44857884Y-80096994D01*
X44794241Y-80292867D01*
X44794240Y-80292870D01*
X44794240Y-80292872D01*
X44762020Y-80496299D01*
X32429043Y-80496299D01*
X32447107Y-75656008D01*
X33049980Y-75656008D01*
X33049980Y-75941351D01*
X33081928Y-76224904D01*
X33145424Y-76503095D01*
X33239659Y-76772401D01*
X33239670Y-76772429D01*
X33363472Y-77029507D01*
X33515283Y-77271111D01*
X33693193Y-77494204D01*
X33894955Y-77695966D01*
X33894959Y-77695969D01*
X34118049Y-77873877D01*
X34178411Y-77911805D01*
X34359652Y-78025687D01*
X34359655Y-78025688D01*
X34359656Y-78025689D01*
X34393398Y-78041938D01*
X34616730Y-78149489D01*
X34616733Y-78149490D01*
X34616741Y-78149494D01*
X34616756Y-78149499D01*
X34616758Y-78149500D01*
X34886064Y-78243735D01*
X34886067Y-78243735D01*
X34886071Y-78243737D01*
X35041300Y-78279167D01*
X35164255Y-78307231D01*
X35164256Y-78307231D01*
X35164260Y-78307232D01*
X35389647Y-78332626D01*
X35447808Y-78339180D01*
X35447809Y-78339180D01*
X35733152Y-78339180D01*
X35781413Y-78333742D01*
X36016700Y-78307232D01*
X36294889Y-78243737D01*
X36351383Y-78223969D01*
X36427906Y-78197192D01*
X36564219Y-78149494D01*
X36821304Y-78025689D01*
X37062911Y-77873877D01*
X37286001Y-77695969D01*
X37487769Y-77494201D01*
X37665677Y-77271111D01*
X37817489Y-77029504D01*
X37941294Y-76772419D01*
X38035537Y-76503089D01*
X38099032Y-76224900D01*
X38130980Y-75941351D01*
X38130980Y-75751579D01*
X39473740Y-75751579D01*
X39473740Y-75957541D01*
X39505960Y-76160968D01*
X39505961Y-76160972D01*
X39562901Y-76336216D01*
X39569606Y-76356850D01*
X39663111Y-76540363D01*
X39784172Y-76706990D01*
X39784174Y-76706992D01*
X39784176Y-76706995D01*
X39929804Y-76852623D01*
X39929807Y-76852625D01*
X39929810Y-76852628D01*
X40096437Y-76973689D01*
X40279950Y-77067194D01*
X40475832Y-77130840D01*
X40679259Y-77163060D01*
X40679262Y-77163060D01*
X40885218Y-77163060D01*
X40885221Y-77163060D01*
X41088648Y-77130840D01*
X41284530Y-77067194D01*
X41468043Y-76973689D01*
X41634670Y-76852628D01*
X41780308Y-76706990D01*
X41901369Y-76540363D01*
X41994874Y-76356850D01*
X42058520Y-76160968D01*
X42090740Y-75957541D01*
X42090740Y-75751579D01*
X42058520Y-75548152D01*
X41994874Y-75352270D01*
X41901369Y-75168757D01*
X41780308Y-75002130D01*
X41780305Y-75002127D01*
X41780303Y-75002124D01*
X41634675Y-74856496D01*
X41634672Y-74856494D01*
X41634670Y-74856492D01*
X41468043Y-74735431D01*
X41284530Y-74641926D01*
X41284527Y-74641925D01*
X41284525Y-74641924D01*
X41088652Y-74578281D01*
X41088650Y-74578280D01*
X41088648Y-74578280D01*
X40885221Y-74546060D01*
X40679259Y-74546060D01*
X40475832Y-74578280D01*
X40475830Y-74578280D01*
X40475827Y-74578281D01*
X40279954Y-74641924D01*
X40279948Y-74641927D01*
X40096433Y-74735433D01*
X39929807Y-74856494D01*
X39929804Y-74856496D01*
X39784176Y-75002124D01*
X39784174Y-75002127D01*
X39663113Y-75168753D01*
X39569607Y-75352268D01*
X39569604Y-75352274D01*
X39505961Y-75548147D01*
X39505960Y-75548150D01*
X39505960Y-75548152D01*
X39473740Y-75751579D01*
X38130980Y-75751579D01*
X38130980Y-75656009D01*
X38126314Y-75614601D01*
X38120967Y-75567140D01*
X38099032Y-75372460D01*
X38035537Y-75094271D01*
X38003295Y-75002130D01*
X37941300Y-74824958D01*
X37941299Y-74824956D01*
X37941294Y-74824941D01*
X37898189Y-74735433D01*
X37817487Y-74567852D01*
X37665676Y-74326248D01*
X37487766Y-74103155D01*
X37286004Y-73901393D01*
X37062911Y-73723483D01*
X36821307Y-73571672D01*
X36564229Y-73447870D01*
X36564201Y-73447859D01*
X36294895Y-73353624D01*
X36016704Y-73290128D01*
X35733152Y-73258180D01*
X35733151Y-73258180D01*
X35447809Y-73258180D01*
X35447808Y-73258180D01*
X35164255Y-73290128D01*
X34886064Y-73353624D01*
X34616758Y-73447859D01*
X34616730Y-73447870D01*
X34359652Y-73571672D01*
X34118048Y-73723483D01*
X33894955Y-73901393D01*
X33693193Y-74103155D01*
X33515283Y-74326248D01*
X33363472Y-74567852D01*
X33239670Y-74824930D01*
X33239659Y-74824958D01*
X33145424Y-75094264D01*
X33081928Y-75372455D01*
X33049980Y-75656008D01*
X32447107Y-75656008D01*
X32494148Y-63051579D01*
X39473740Y-63051579D01*
X39473740Y-63257541D01*
X39505960Y-63460968D01*
X39505961Y-63460972D01*
X39564654Y-63641611D01*
X39569606Y-63656850D01*
X39663111Y-63840363D01*
X39784172Y-64006990D01*
X39784174Y-64006992D01*
X39784176Y-64006995D01*
X39929804Y-64152623D01*
X39929807Y-64152625D01*
X39929810Y-64152628D01*
X40096437Y-64273689D01*
X40279950Y-64367194D01*
X40475832Y-64430840D01*
X40679259Y-64463060D01*
X40679262Y-64463060D01*
X40885218Y-64463060D01*
X40885221Y-64463060D01*
X41088648Y-64430840D01*
X41284530Y-64367194D01*
X41468043Y-64273689D01*
X41634670Y-64152628D01*
X41780308Y-64006990D01*
X41901369Y-63840363D01*
X41994874Y-63656850D01*
X42058520Y-63460968D01*
X42090740Y-63257541D01*
X42090740Y-63051579D01*
X42088326Y-63036339D01*
X43664740Y-63036339D01*
X43664740Y-63242301D01*
X43694625Y-63430983D01*
X43696961Y-63445732D01*
X43759221Y-63637350D01*
X43760606Y-63641610D01*
X43854111Y-63825123D01*
X43975172Y-63991750D01*
X43975174Y-63991752D01*
X43975176Y-63991755D01*
X44120804Y-64137383D01*
X44120807Y-64137385D01*
X44120810Y-64137388D01*
X44287437Y-64258449D01*
X44470950Y-64351954D01*
X44666832Y-64415600D01*
X44870259Y-64447820D01*
X44870262Y-64447820D01*
X45076218Y-64447820D01*
X45076221Y-64447820D01*
X45279648Y-64415600D01*
X45475530Y-64351954D01*
X45659043Y-64258449D01*
X45825670Y-64137388D01*
X45971308Y-63991750D01*
X46092369Y-63825123D01*
X46185874Y-63641610D01*
X46249520Y-63445728D01*
X46281740Y-63242301D01*
X46281740Y-63036339D01*
X56364740Y-63036339D01*
X56364740Y-63242301D01*
X56394625Y-63430983D01*
X56396961Y-63445732D01*
X56459221Y-63637350D01*
X56460606Y-63641610D01*
X56554111Y-63825123D01*
X56675172Y-63991750D01*
X56675174Y-63991752D01*
X56675176Y-63991755D01*
X56820804Y-64137383D01*
X56820807Y-64137385D01*
X56820810Y-64137388D01*
X56987437Y-64258449D01*
X57170950Y-64351954D01*
X57366832Y-64415600D01*
X57570259Y-64447820D01*
X57570262Y-64447820D01*
X57776218Y-64447820D01*
X57776221Y-64447820D01*
X57979648Y-64415600D01*
X58175530Y-64351954D01*
X58359043Y-64258449D01*
X58525670Y-64137388D01*
X58671308Y-63991750D01*
X58792369Y-63825123D01*
X58885874Y-63641610D01*
X58949520Y-63445728D01*
X58981740Y-63242301D01*
X58981740Y-63036339D01*
X58949520Y-62832912D01*
X58885874Y-62637030D01*
X58792369Y-62453517D01*
X58671308Y-62286890D01*
X58671305Y-62286887D01*
X58671303Y-62286884D01*
X58525675Y-62141256D01*
X58525672Y-62141254D01*
X58525670Y-62141252D01*
X58359043Y-62020191D01*
X58175530Y-61926686D01*
X58175527Y-61926685D01*
X58175525Y-61926684D01*
X57979652Y-61863041D01*
X57979650Y-61863040D01*
X57979648Y-61863040D01*
X57776221Y-61830820D01*
X57570259Y-61830820D01*
X57366832Y-61863040D01*
X57366830Y-61863040D01*
X57366827Y-61863041D01*
X57170954Y-61926684D01*
X57170948Y-61926687D01*
X56987433Y-62020193D01*
X56820807Y-62141254D01*
X56820804Y-62141256D01*
X56675176Y-62286884D01*
X56675174Y-62286887D01*
X56554113Y-62453513D01*
X56460607Y-62637028D01*
X56460604Y-62637034D01*
X56396961Y-62832907D01*
X56396960Y-62832910D01*
X56396960Y-62832912D01*
X56364740Y-63036339D01*
X46281740Y-63036339D01*
X46249520Y-62832912D01*
X46185874Y-62637030D01*
X46092369Y-62453517D01*
X45971308Y-62286890D01*
X45971305Y-62286887D01*
X45971303Y-62286884D01*
X45825675Y-62141256D01*
X45825672Y-62141254D01*
X45825670Y-62141252D01*
X45659043Y-62020191D01*
X45475530Y-61926686D01*
X45475527Y-61926685D01*
X45475525Y-61926684D01*
X45279652Y-61863041D01*
X45279650Y-61863040D01*
X45279648Y-61863040D01*
X45076221Y-61830820D01*
X44870259Y-61830820D01*
X44666832Y-61863040D01*
X44666830Y-61863040D01*
X44666827Y-61863041D01*
X44470954Y-61926684D01*
X44470948Y-61926687D01*
X44287433Y-62020193D01*
X44120807Y-62141254D01*
X44120804Y-62141256D01*
X43975176Y-62286884D01*
X43975174Y-62286887D01*
X43854113Y-62453513D01*
X43760607Y-62637028D01*
X43760604Y-62637034D01*
X43696961Y-62832907D01*
X43696960Y-62832910D01*
X43696960Y-62832912D01*
X43664740Y-63036339D01*
X42088326Y-63036339D01*
X42058520Y-62848152D01*
X41994874Y-62652270D01*
X41901369Y-62468757D01*
X41780308Y-62302130D01*
X41780305Y-62302127D01*
X41780303Y-62302124D01*
X41634675Y-62156496D01*
X41634672Y-62156494D01*
X41634670Y-62156492D01*
X41468043Y-62035431D01*
X41284530Y-61941926D01*
X41284527Y-61941925D01*
X41284525Y-61941924D01*
X41088652Y-61878281D01*
X41088650Y-61878280D01*
X41088648Y-61878280D01*
X40885221Y-61846060D01*
X40679259Y-61846060D01*
X40475832Y-61878280D01*
X40475830Y-61878280D01*
X40475827Y-61878281D01*
X40279954Y-61941924D01*
X40279948Y-61941927D01*
X40096433Y-62035433D01*
X39929807Y-62156494D01*
X39929804Y-62156496D01*
X39784176Y-62302124D01*
X39784174Y-62302127D01*
X39663113Y-62468753D01*
X39569607Y-62652268D01*
X39569604Y-62652274D01*
X39505961Y-62848147D01*
X39505960Y-62848150D01*
X39505960Y-62848152D01*
X39473740Y-63051579D01*
X32494148Y-63051579D01*
X32508140Y-59302539D01*
X39473740Y-59302539D01*
X39473740Y-59508501D01*
X39505960Y-59711928D01*
X39505961Y-59711932D01*
X39540438Y-59818042D01*
X39569606Y-59907810D01*
X39663111Y-60091323D01*
X39784172Y-60257950D01*
X39784174Y-60257952D01*
X39784176Y-60257955D01*
X39929804Y-60403583D01*
X39929807Y-60403585D01*
X39929810Y-60403588D01*
X40096437Y-60524649D01*
X40279950Y-60618154D01*
X40475832Y-60681800D01*
X40679259Y-60714020D01*
X40679262Y-60714020D01*
X40885218Y-60714020D01*
X40885221Y-60714020D01*
X41088648Y-60681800D01*
X41284530Y-60618154D01*
X41468043Y-60524649D01*
X41634670Y-60403588D01*
X41780308Y-60257950D01*
X41901369Y-60091323D01*
X41994874Y-59907810D01*
X42024045Y-59818030D01*
X64600740Y-59818030D01*
X64600740Y-62315329D01*
X64607249Y-62375876D01*
X64607251Y-62375884D01*
X64658350Y-62512882D01*
X64658352Y-62512887D01*
X64745978Y-62629941D01*
X64863032Y-62717567D01*
X64863034Y-62717568D01*
X64863036Y-62717569D01*
X64922115Y-62739604D01*
X65000035Y-62768668D01*
X65000043Y-62768670D01*
X65060590Y-62775179D01*
X65060595Y-62775179D01*
X65060602Y-62775180D01*
X65060608Y-62775180D01*
X67557872Y-62775180D01*
X67557878Y-62775180D01*
X67557885Y-62775179D01*
X67557889Y-62775179D01*
X67618436Y-62768670D01*
X67618439Y-62768669D01*
X67618441Y-62768669D01*
X67755444Y-62717569D01*
X67872501Y-62629941D01*
X67960127Y-62512887D01*
X67960127Y-62512886D01*
X67960129Y-62512884D01*
X68011229Y-62375881D01*
X68012540Y-62363692D01*
X68017739Y-62315329D01*
X68017740Y-62315312D01*
X68017740Y-59818047D01*
X68017739Y-59818030D01*
X68011230Y-59757483D01*
X68011228Y-59757475D01*
X67960129Y-59620477D01*
X67960127Y-59620472D01*
X67872501Y-59503418D01*
X67755447Y-59415792D01*
X67755442Y-59415790D01*
X67618444Y-59364691D01*
X67618436Y-59364689D01*
X67557889Y-59358180D01*
X67557878Y-59358180D01*
X65060602Y-59358180D01*
X65060590Y-59358180D01*
X65000043Y-59364689D01*
X65000035Y-59364691D01*
X64863037Y-59415790D01*
X64863032Y-59415792D01*
X64745978Y-59503418D01*
X64658352Y-59620472D01*
X64658350Y-59620477D01*
X64607251Y-59757475D01*
X64607249Y-59757483D01*
X64600740Y-59818030D01*
X42024045Y-59818030D01*
X42058520Y-59711928D01*
X42090740Y-59508501D01*
X42090740Y-59302539D01*
X42058520Y-59099112D01*
X41994874Y-58903230D01*
X41901369Y-58719717D01*
X41780308Y-58553090D01*
X41780305Y-58553087D01*
X41780303Y-58553084D01*
X41634675Y-58407456D01*
X41634672Y-58407454D01*
X41634670Y-58407452D01*
X41484008Y-58297990D01*
X41468046Y-58286393D01*
X41468045Y-58286392D01*
X41468043Y-58286391D01*
X41284530Y-58192886D01*
X41284527Y-58192885D01*
X41284525Y-58192884D01*
X41088652Y-58129241D01*
X41088650Y-58129240D01*
X41088648Y-58129240D01*
X40885221Y-58097020D01*
X40679259Y-58097020D01*
X40475832Y-58129240D01*
X40475830Y-58129240D01*
X40475827Y-58129241D01*
X40279954Y-58192884D01*
X40279948Y-58192887D01*
X40096433Y-58286393D01*
X39929807Y-58407454D01*
X39929804Y-58407456D01*
X39784176Y-58553084D01*
X39784174Y-58553087D01*
X39663113Y-58719713D01*
X39569607Y-58903228D01*
X39569604Y-58903234D01*
X39505961Y-59099107D01*
X39505960Y-59099110D01*
X39505960Y-59099112D01*
X39473740Y-59302539D01*
X32508140Y-59302539D01*
X32521370Y-55757510D01*
X43379980Y-55757510D01*
X43379980Y-58054809D01*
X43386489Y-58115356D01*
X43386491Y-58115364D01*
X43437590Y-58252362D01*
X43437592Y-58252367D01*
X43525218Y-58369421D01*
X43642272Y-58457047D01*
X43642274Y-58457048D01*
X43642276Y-58457049D01*
X43701355Y-58479084D01*
X43779275Y-58508148D01*
X43779283Y-58508150D01*
X43839830Y-58514659D01*
X43839835Y-58514659D01*
X43839842Y-58514660D01*
X43839848Y-58514660D01*
X46137112Y-58514660D01*
X46137118Y-58514660D01*
X46137125Y-58514659D01*
X46137129Y-58514659D01*
X46197676Y-58508150D01*
X46197679Y-58508149D01*
X46197681Y-58508149D01*
X46334684Y-58457049D01*
X46451741Y-58369421D01*
X46539367Y-58252367D01*
X46539367Y-58252366D01*
X46539369Y-58252364D01*
X46590469Y-58115361D01*
X46592051Y-58100654D01*
X46596979Y-58054809D01*
X46596980Y-58054792D01*
X46596980Y-55947350D01*
X48756500Y-55947350D01*
X48756500Y-57844649D01*
X48763009Y-57905196D01*
X48763011Y-57905204D01*
X48814110Y-58042202D01*
X48814112Y-58042207D01*
X48901738Y-58159261D01*
X49018792Y-58246887D01*
X49018794Y-58246888D01*
X49018796Y-58246889D01*
X49077875Y-58268924D01*
X49155795Y-58297988D01*
X49155803Y-58297990D01*
X49216350Y-58304499D01*
X49216355Y-58304499D01*
X49216362Y-58304500D01*
X49216368Y-58304500D01*
X51113632Y-58304500D01*
X51113638Y-58304500D01*
X51113645Y-58304499D01*
X51113649Y-58304499D01*
X51174196Y-58297990D01*
X51174199Y-58297989D01*
X51174201Y-58297989D01*
X51311204Y-58246889D01*
X51383344Y-58192886D01*
X51428261Y-58159261D01*
X51515887Y-58042207D01*
X51515888Y-58042205D01*
X51515887Y-58042205D01*
X51515889Y-58042204D01*
X51540660Y-57975789D01*
X51583204Y-57918957D01*
X51649724Y-57894145D01*
X51719098Y-57909236D01*
X51747809Y-57930729D01*
X51787421Y-57970341D01*
X51787424Y-57970343D01*
X51966785Y-58100657D01*
X52164324Y-58201308D01*
X52375176Y-58269818D01*
X52594149Y-58304500D01*
X52594152Y-58304500D01*
X52815848Y-58304500D01*
X52815851Y-58304500D01*
X53034824Y-58269818D01*
X53245676Y-58201308D01*
X53443215Y-58100657D01*
X53622576Y-57970343D01*
X53779343Y-57813576D01*
X53873065Y-57684579D01*
X53929286Y-57641226D01*
X54000022Y-57635151D01*
X54062814Y-57668282D01*
X54076932Y-57684576D01*
X54170657Y-57813576D01*
X54170659Y-57813578D01*
X54170661Y-57813581D01*
X54327421Y-57970341D01*
X54327424Y-57970343D01*
X54506785Y-58100657D01*
X54704324Y-58201308D01*
X54915176Y-58269818D01*
X55134149Y-58304500D01*
X55134152Y-58304500D01*
X55355848Y-58304500D01*
X55355851Y-58304500D01*
X55574824Y-58269818D01*
X55785676Y-58201308D01*
X55983215Y-58100657D01*
X56162576Y-57970343D01*
X56319343Y-57813576D01*
X56449657Y-57634215D01*
X56550308Y-57436676D01*
X56618818Y-57225824D01*
X56653500Y-57006851D01*
X56653500Y-56785149D01*
X56618818Y-56566176D01*
X56550308Y-56355324D01*
X56449657Y-56157785D01*
X56319343Y-55978424D01*
X56319340Y-55978421D01*
X56319338Y-55978418D01*
X56295616Y-55954696D01*
X64600740Y-55954696D01*
X64600740Y-56178663D01*
X64629971Y-56400700D01*
X64629973Y-56400707D01*
X64687938Y-56617038D01*
X64773645Y-56823952D01*
X64773646Y-56823953D01*
X64773651Y-56823963D01*
X64838124Y-56935632D01*
X64885626Y-57017908D01*
X64934244Y-57081268D01*
X65021965Y-57195589D01*
X65021974Y-57195599D01*
X65180320Y-57353945D01*
X65180330Y-57353954D01*
X65180331Y-57353955D01*
X65358012Y-57490294D01*
X65551968Y-57602275D01*
X65758882Y-57687982D01*
X65975213Y-57745947D01*
X65975217Y-57745947D01*
X65975219Y-57745948D01*
X66032444Y-57753481D01*
X66197259Y-57775180D01*
X66197266Y-57775180D01*
X66421214Y-57775180D01*
X66421221Y-57775180D01*
X66621896Y-57748760D01*
X66643260Y-57745948D01*
X66643260Y-57745947D01*
X66643267Y-57745947D01*
X66859598Y-57687982D01*
X67066512Y-57602275D01*
X67260468Y-57490294D01*
X67438149Y-57353955D01*
X67596515Y-57195589D01*
X67732854Y-57017908D01*
X67844835Y-56823952D01*
X67930542Y-56617038D01*
X67973008Y-56458550D01*
X83278300Y-56458550D01*
X83278300Y-58755849D01*
X83284809Y-58816396D01*
X83284811Y-58816404D01*
X83335910Y-58953402D01*
X83335912Y-58953407D01*
X83423538Y-59070461D01*
X83540592Y-59158087D01*
X83540594Y-59158088D01*
X83540596Y-59158089D01*
X83599675Y-59180124D01*
X83677595Y-59209188D01*
X83677603Y-59209190D01*
X83738150Y-59215699D01*
X83738155Y-59215699D01*
X83738162Y-59215700D01*
X83738168Y-59215700D01*
X86035432Y-59215700D01*
X86035438Y-59215700D01*
X86035445Y-59215699D01*
X86035449Y-59215699D01*
X86095996Y-59209190D01*
X86095999Y-59209189D01*
X86096001Y-59209189D01*
X86233004Y-59158089D01*
X86350061Y-59070461D01*
X86437689Y-58953404D01*
X86488789Y-58816401D01*
X86495300Y-58755838D01*
X86495300Y-56458562D01*
X86495299Y-56458550D01*
X86488790Y-56398003D01*
X86488788Y-56397995D01*
X86459724Y-56320075D01*
X86437689Y-56260996D01*
X86437688Y-56260994D01*
X86437687Y-56260992D01*
X86350061Y-56143938D01*
X86233008Y-56056313D01*
X86233002Y-56056310D01*
X86096004Y-56005211D01*
X86095996Y-56005209D01*
X86035449Y-55998700D01*
X86035438Y-55998700D01*
X83738162Y-55998700D01*
X83738150Y-55998700D01*
X83677603Y-56005209D01*
X83677595Y-56005211D01*
X83540597Y-56056310D01*
X83540592Y-56056312D01*
X83423538Y-56143938D01*
X83335912Y-56260992D01*
X83335910Y-56260997D01*
X83284811Y-56397995D01*
X83284809Y-56398003D01*
X83278300Y-56458550D01*
X67973008Y-56458550D01*
X67988507Y-56400707D01*
X68017740Y-56178661D01*
X68017740Y-55959899D01*
X89552380Y-55959899D01*
X89552380Y-56165861D01*
X89584403Y-56368043D01*
X89584601Y-56369292D01*
X89613608Y-56458567D01*
X89648246Y-56565170D01*
X89741751Y-56748683D01*
X89862812Y-56915310D01*
X89862814Y-56915312D01*
X89862816Y-56915315D01*
X90008444Y-57060943D01*
X90008447Y-57060945D01*
X90008450Y-57060948D01*
X90175077Y-57182009D01*
X90358590Y-57275514D01*
X90554472Y-57339160D01*
X90757899Y-57371380D01*
X90757902Y-57371380D01*
X90963858Y-57371380D01*
X90963861Y-57371380D01*
X91167288Y-57339160D01*
X91363170Y-57275514D01*
X91546683Y-57182009D01*
X91713310Y-57060948D01*
X91858948Y-56915310D01*
X91980009Y-56748683D01*
X92073514Y-56565170D01*
X92137160Y-56369288D01*
X92169380Y-56165861D01*
X92169380Y-55980219D01*
X93784020Y-55980219D01*
X93784020Y-56186181D01*
X93816240Y-56389608D01*
X93816241Y-56389612D01*
X93873608Y-56566170D01*
X93879886Y-56585490D01*
X93973391Y-56769003D01*
X94094452Y-56935630D01*
X94094454Y-56935632D01*
X94094456Y-56935635D01*
X94240084Y-57081263D01*
X94240087Y-57081265D01*
X94240090Y-57081268D01*
X94406717Y-57202329D01*
X94590230Y-57295834D01*
X94786112Y-57359480D01*
X94989539Y-57391700D01*
X94989542Y-57391700D01*
X95195498Y-57391700D01*
X95195501Y-57391700D01*
X95398928Y-57359480D01*
X95594810Y-57295834D01*
X95778323Y-57202329D01*
X95944950Y-57081268D01*
X96090588Y-56935630D01*
X96130844Y-56880221D01*
X96187066Y-56836868D01*
X96257802Y-56830793D01*
X96320594Y-56863924D01*
X96355505Y-56925744D01*
X96358780Y-56954283D01*
X96358780Y-67912116D01*
X96338778Y-67980237D01*
X96285122Y-68026730D01*
X96214848Y-68036834D01*
X96150268Y-68007340D01*
X96130844Y-67986178D01*
X96126528Y-67980237D01*
X96090588Y-67930770D01*
X96090584Y-67930766D01*
X96090582Y-67930763D01*
X95944955Y-67785136D01*
X95944952Y-67785134D01*
X95944950Y-67785132D01*
X95778323Y-67664071D01*
X95594810Y-67570566D01*
X95594807Y-67570565D01*
X95594805Y-67570564D01*
X95398932Y-67506921D01*
X95398930Y-67506920D01*
X95398928Y-67506920D01*
X95195501Y-67474700D01*
X94989539Y-67474700D01*
X94786112Y-67506920D01*
X94786110Y-67506920D01*
X94786107Y-67506921D01*
X94590234Y-67570564D01*
X94590228Y-67570567D01*
X94406713Y-67664073D01*
X94240087Y-67785134D01*
X94240084Y-67785136D01*
X94094456Y-67930764D01*
X94094454Y-67930767D01*
X93973393Y-68097393D01*
X93879887Y-68280908D01*
X93879884Y-68280914D01*
X93816241Y-68476787D01*
X93816240Y-68476790D01*
X93816240Y-68476792D01*
X93784020Y-68680219D01*
X93784020Y-68886181D01*
X93813022Y-69069288D01*
X93816241Y-69089612D01*
X93843983Y-69174994D01*
X93879886Y-69285490D01*
X93973391Y-69469003D01*
X94094452Y-69635630D01*
X94094454Y-69635632D01*
X94094456Y-69635635D01*
X94240084Y-69781263D01*
X94240087Y-69781265D01*
X94240090Y-69781268D01*
X94406717Y-69902329D01*
X94590230Y-69995834D01*
X94786112Y-70059480D01*
X94989539Y-70091700D01*
X94989542Y-70091700D01*
X95195498Y-70091700D01*
X95195501Y-70091700D01*
X95398928Y-70059480D01*
X95594810Y-69995834D01*
X95778323Y-69902329D01*
X95944950Y-69781268D01*
X96090588Y-69635630D01*
X96211649Y-69469003D01*
X96305154Y-69285490D01*
X96339403Y-69180082D01*
X96379475Y-69121478D01*
X96444872Y-69093841D01*
X96514829Y-69105948D01*
X96561170Y-69144958D01*
X96657350Y-69277338D01*
X96998310Y-69618298D01*
X97138382Y-69758370D01*
X97298642Y-69874806D01*
X97475143Y-69964738D01*
X97663540Y-70025952D01*
X97859194Y-70056940D01*
X99319588Y-70056940D01*
X99348569Y-70060318D01*
X99349043Y-70060430D01*
X99409590Y-70066939D01*
X99409595Y-70066939D01*
X99409602Y-70066940D01*
X99409608Y-70066940D01*
X101026872Y-70066940D01*
X101026878Y-70066940D01*
X101026885Y-70066939D01*
X101026889Y-70066939D01*
X101087436Y-70060430D01*
X101087439Y-70060429D01*
X101087441Y-70060429D01*
X101089986Y-70059480D01*
X101106285Y-70053400D01*
X101224444Y-70009329D01*
X101258697Y-69983688D01*
X101341501Y-69921701D01*
X101429127Y-69804647D01*
X101429127Y-69804646D01*
X101429129Y-69804644D01*
X101480229Y-69667641D01*
X101483671Y-69635632D01*
X101486739Y-69607089D01*
X101486740Y-69607072D01*
X101486740Y-67989807D01*
X101486739Y-67989790D01*
X101480230Y-67929243D01*
X101480228Y-67929235D01*
X101451164Y-67851315D01*
X101429129Y-67792236D01*
X101429128Y-67792234D01*
X101429127Y-67792232D01*
X101341501Y-67675178D01*
X101224447Y-67587552D01*
X101224442Y-67587550D01*
X101087444Y-67536451D01*
X101087436Y-67536449D01*
X101026889Y-67529940D01*
X101026878Y-67529940D01*
X101014059Y-67529940D01*
X100945938Y-67509938D01*
X100899445Y-67456282D01*
X100889341Y-67386008D01*
X100918835Y-67321428D01*
X100939998Y-67302004D01*
X101024979Y-67240261D01*
X101044612Y-67225997D01*
X101185797Y-67084812D01*
X101303158Y-66923279D01*
X101393805Y-66745375D01*
X101455505Y-66555481D01*
X101486740Y-66358273D01*
X101486740Y-66158607D01*
X101455505Y-65961399D01*
X101393805Y-65771505D01*
X101303158Y-65593601D01*
X101185797Y-65432068D01*
X101185795Y-65432065D01*
X101044614Y-65290884D01*
X100883082Y-65173524D01*
X100883081Y-65173523D01*
X100883079Y-65173522D01*
X100740169Y-65100705D01*
X100688556Y-65051959D01*
X100671490Y-64983044D01*
X100694391Y-64915842D01*
X100740169Y-64876174D01*
X100883079Y-64803358D01*
X101044612Y-64685997D01*
X101185797Y-64544812D01*
X101303158Y-64383279D01*
X101393805Y-64205375D01*
X101455505Y-64015481D01*
X101486740Y-63818273D01*
X101486740Y-63618607D01*
X104283740Y-63618607D01*
X104283740Y-63818273D01*
X104313631Y-64006995D01*
X104314976Y-64015486D01*
X104376673Y-64205370D01*
X104376675Y-64205375D01*
X104459127Y-64367195D01*
X104467324Y-64383282D01*
X104584684Y-64544814D01*
X104725865Y-64685995D01*
X104745501Y-64700261D01*
X104887401Y-64803358D01*
X104979722Y-64850398D01*
X105030308Y-64876173D01*
X105081923Y-64924922D01*
X105098989Y-64993837D01*
X105076088Y-65061038D01*
X105030308Y-65100707D01*
X104887398Y-65173523D01*
X104725865Y-65290884D01*
X104584684Y-65432065D01*
X104467324Y-65593597D01*
X104376676Y-65771503D01*
X104376673Y-65771509D01*
X104314976Y-65961393D01*
X104314975Y-65961398D01*
X104314975Y-65961399D01*
X104283740Y-66158607D01*
X104283740Y-66358273D01*
X104314975Y-66555481D01*
X104314976Y-66555486D01*
X104340810Y-66634994D01*
X104376675Y-66745375D01*
X104448047Y-66885449D01*
X104467324Y-66923282D01*
X104584684Y-67084814D01*
X104725865Y-67225995D01*
X104830482Y-67302004D01*
X104873836Y-67358227D01*
X104879911Y-67428963D01*
X104846779Y-67491755D01*
X104784959Y-67526666D01*
X104756421Y-67529940D01*
X104743590Y-67529940D01*
X104683043Y-67536449D01*
X104683035Y-67536451D01*
X104546037Y-67587550D01*
X104546032Y-67587552D01*
X104428978Y-67675178D01*
X104341352Y-67792232D01*
X104341350Y-67792237D01*
X104290251Y-67929235D01*
X104290249Y-67929243D01*
X104283740Y-67989790D01*
X104283740Y-69607089D01*
X104290249Y-69667636D01*
X104290251Y-69667644D01*
X104341350Y-69804642D01*
X104341352Y-69804647D01*
X104428978Y-69921701D01*
X104546032Y-70009327D01*
X104546034Y-70009328D01*
X104546036Y-70009329D01*
X104590598Y-70025950D01*
X104683035Y-70060428D01*
X104683043Y-70060430D01*
X104743590Y-70066939D01*
X104743595Y-70066939D01*
X104743602Y-70066940D01*
X104743608Y-70066940D01*
X106360872Y-70066940D01*
X106360878Y-70066940D01*
X106360885Y-70066939D01*
X106360889Y-70066939D01*
X106421436Y-70060430D01*
X106421439Y-70060429D01*
X106421441Y-70060429D01*
X106423986Y-70059480D01*
X106440285Y-70053400D01*
X106558444Y-70009329D01*
X106592697Y-69983688D01*
X106675501Y-69921701D01*
X106763127Y-69804647D01*
X106763127Y-69804646D01*
X106763129Y-69804644D01*
X106814229Y-69667641D01*
X106817671Y-69635632D01*
X106820739Y-69607089D01*
X106820740Y-69607072D01*
X106820740Y-67989807D01*
X106820739Y-67989790D01*
X106814230Y-67929243D01*
X106814228Y-67929235D01*
X106785164Y-67851315D01*
X106763129Y-67792236D01*
X106763128Y-67792234D01*
X106763127Y-67792232D01*
X106675501Y-67675178D01*
X106558447Y-67587552D01*
X106558442Y-67587550D01*
X106421444Y-67536451D01*
X106421436Y-67536449D01*
X106360889Y-67529940D01*
X106360878Y-67529940D01*
X106348059Y-67529940D01*
X106319463Y-67521543D01*
X106290199Y-67515870D01*
X106285789Y-67511656D01*
X106279938Y-67509938D01*
X106260421Y-67487414D01*
X106238870Y-67466820D01*
X106237438Y-67460890D01*
X106233445Y-67456282D01*
X106229203Y-67426780D01*
X106222208Y-67397806D01*
X106224209Y-67392045D01*
X106223341Y-67386008D01*
X106235723Y-67358896D01*
X106245503Y-67330740D01*
X106251211Y-67324983D01*
X106252835Y-67321428D01*
X106270280Y-67304812D01*
X106272120Y-67303367D01*
X106282466Y-67295850D01*
X111092340Y-67295850D01*
X111092340Y-67598469D01*
X111131837Y-67898484D01*
X111210160Y-68190790D01*
X111210161Y-68190792D01*
X111210162Y-68190795D01*
X111325967Y-68470374D01*
X111325968Y-68470375D01*
X111325973Y-68470386D01*
X111477276Y-68732451D01*
X111661489Y-68972520D01*
X111661508Y-68972541D01*
X111875458Y-69186491D01*
X111875468Y-69186500D01*
X111875474Y-69186506D01*
X111875477Y-69186508D01*
X111875479Y-69186510D01*
X112115548Y-69370723D01*
X112377613Y-69522026D01*
X112377617Y-69522027D01*
X112377626Y-69522033D01*
X112657205Y-69637838D01*
X112949508Y-69716161D01*
X112949514Y-69716161D01*
X112949515Y-69716162D01*
X112983943Y-69720694D01*
X113249533Y-69755660D01*
X113249540Y-69755660D01*
X113552140Y-69755660D01*
X113552147Y-69755660D01*
X113852172Y-69716161D01*
X114144475Y-69637838D01*
X114424054Y-69522033D01*
X114686126Y-69370726D01*
X114686126Y-69370725D01*
X114686131Y-69370723D01*
X114825552Y-69263740D01*
X114926206Y-69186506D01*
X115140186Y-68972526D01*
X115253504Y-68824847D01*
X115324403Y-68732451D01*
X115355141Y-68679212D01*
X115475713Y-68470374D01*
X115591518Y-68190795D01*
X115669841Y-67898492D01*
X115709340Y-67598467D01*
X115709340Y-67295853D01*
X115709340Y-67295850D01*
X123792340Y-67295850D01*
X123792340Y-67598469D01*
X123831837Y-67898484D01*
X123910160Y-68190790D01*
X123910161Y-68190792D01*
X123910162Y-68190795D01*
X124025967Y-68470374D01*
X124025968Y-68470375D01*
X124025973Y-68470386D01*
X124177276Y-68732451D01*
X124361489Y-68972520D01*
X124361508Y-68972541D01*
X124575458Y-69186491D01*
X124575468Y-69186500D01*
X124575474Y-69186506D01*
X124575477Y-69186508D01*
X124575479Y-69186510D01*
X124815548Y-69370723D01*
X125077613Y-69522026D01*
X125077617Y-69522027D01*
X125077626Y-69522033D01*
X125357205Y-69637838D01*
X125649508Y-69716161D01*
X125649514Y-69716161D01*
X125649515Y-69716162D01*
X125683943Y-69720694D01*
X125949533Y-69755660D01*
X125949540Y-69755660D01*
X126252140Y-69755660D01*
X126252147Y-69755660D01*
X126552172Y-69716161D01*
X126844475Y-69637838D01*
X127124054Y-69522033D01*
X127386126Y-69370726D01*
X127386126Y-69370725D01*
X127386131Y-69370723D01*
X127525552Y-69263740D01*
X127626206Y-69186506D01*
X127840186Y-68972526D01*
X127953504Y-68824847D01*
X128024403Y-68732451D01*
X128055141Y-68679212D01*
X128175713Y-68470374D01*
X128291518Y-68190795D01*
X128369841Y-67898492D01*
X128409340Y-67598467D01*
X128409340Y-67295853D01*
X128369841Y-66995828D01*
X128291518Y-66703525D01*
X128175713Y-66423946D01*
X128175707Y-66423937D01*
X128175706Y-66423933D01*
X128024403Y-66161868D01*
X127840190Y-65921799D01*
X127840188Y-65921797D01*
X127840186Y-65921794D01*
X127840180Y-65921788D01*
X127840171Y-65921778D01*
X127626221Y-65707828D01*
X127626200Y-65707809D01*
X127386131Y-65523596D01*
X127124066Y-65372293D01*
X127124058Y-65372289D01*
X127124054Y-65372287D01*
X126844475Y-65256482D01*
X126844472Y-65256481D01*
X126844470Y-65256480D01*
X126604385Y-65192149D01*
X126552172Y-65178159D01*
X126552170Y-65178158D01*
X126552164Y-65178157D01*
X126252149Y-65138660D01*
X126252147Y-65138660D01*
X125949533Y-65138660D01*
X125949530Y-65138660D01*
X125649515Y-65178157D01*
X125357209Y-65256480D01*
X125357205Y-65256482D01*
X125077624Y-65372288D01*
X125077613Y-65372293D01*
X124815548Y-65523596D01*
X124575479Y-65707809D01*
X124575458Y-65707828D01*
X124361508Y-65921778D01*
X124361489Y-65921799D01*
X124177276Y-66161868D01*
X124025973Y-66423933D01*
X124025968Y-66423944D01*
X123910162Y-66703525D01*
X123910160Y-66703529D01*
X123831837Y-66995835D01*
X123792340Y-67295850D01*
X115709340Y-67295850D01*
X115669841Y-66995828D01*
X115591518Y-66703525D01*
X115475713Y-66423946D01*
X115475707Y-66423937D01*
X115475706Y-66423933D01*
X115324403Y-66161868D01*
X115140190Y-65921799D01*
X115140188Y-65921797D01*
X115140186Y-65921794D01*
X115140180Y-65921788D01*
X115140171Y-65921778D01*
X114926221Y-65707828D01*
X114926200Y-65707809D01*
X114686131Y-65523596D01*
X114424066Y-65372293D01*
X114424058Y-65372289D01*
X114424054Y-65372287D01*
X114144475Y-65256482D01*
X114144472Y-65256481D01*
X114144470Y-65256480D01*
X113904385Y-65192149D01*
X113852172Y-65178159D01*
X113852170Y-65178158D01*
X113852164Y-65178157D01*
X113552149Y-65138660D01*
X113552147Y-65138660D01*
X113249533Y-65138660D01*
X113249530Y-65138660D01*
X112949515Y-65178157D01*
X112657209Y-65256480D01*
X112657205Y-65256482D01*
X112377624Y-65372288D01*
X112377613Y-65372293D01*
X112115548Y-65523596D01*
X111875479Y-65707809D01*
X111875458Y-65707828D01*
X111661508Y-65921778D01*
X111661489Y-65921799D01*
X111477276Y-66161868D01*
X111325973Y-66423933D01*
X111325968Y-66423944D01*
X111210162Y-66703525D01*
X111210160Y-66703529D01*
X111131837Y-66995835D01*
X111092340Y-67295850D01*
X106282466Y-67295850D01*
X106378612Y-67225997D01*
X106519797Y-67084812D01*
X106637158Y-66923279D01*
X106727805Y-66745375D01*
X106789505Y-66555481D01*
X106820740Y-66358273D01*
X106820740Y-66158607D01*
X106789505Y-65961399D01*
X106727805Y-65771505D01*
X106637158Y-65593601D01*
X106519797Y-65432068D01*
X106519795Y-65432065D01*
X106378614Y-65290884D01*
X106217082Y-65173524D01*
X106217081Y-65173523D01*
X106217079Y-65173522D01*
X106074169Y-65100705D01*
X106022556Y-65051959D01*
X106005490Y-64983044D01*
X106028391Y-64915842D01*
X106074169Y-64876174D01*
X106217079Y-64803358D01*
X106378612Y-64685997D01*
X106519797Y-64544812D01*
X106637158Y-64383279D01*
X106727805Y-64205375D01*
X106789505Y-64015481D01*
X106820740Y-63818273D01*
X106820740Y-63618607D01*
X106789505Y-63421399D01*
X106727805Y-63231505D01*
X106637158Y-63053601D01*
X106519797Y-62892068D01*
X106519795Y-62892065D01*
X106378614Y-62750884D01*
X106217082Y-62633524D01*
X106217081Y-62633523D01*
X106217079Y-62633522D01*
X106039175Y-62542875D01*
X106039172Y-62542874D01*
X106039170Y-62542873D01*
X105849286Y-62481176D01*
X105849282Y-62481175D01*
X105849281Y-62481175D01*
X105652073Y-62449940D01*
X105452407Y-62449940D01*
X105255199Y-62481175D01*
X105255193Y-62481176D01*
X105065309Y-62542873D01*
X105065303Y-62542876D01*
X104887397Y-62633524D01*
X104725865Y-62750884D01*
X104584684Y-62892065D01*
X104467324Y-63053597D01*
X104376676Y-63231503D01*
X104376673Y-63231509D01*
X104314976Y-63421393D01*
X104314975Y-63421398D01*
X104314975Y-63421399D01*
X104283740Y-63618607D01*
X101486740Y-63618607D01*
X101455505Y-63421399D01*
X101393805Y-63231505D01*
X101303158Y-63053601D01*
X101185797Y-62892068D01*
X101185795Y-62892065D01*
X101044614Y-62750884D01*
X100883082Y-62633524D01*
X100883081Y-62633523D01*
X100883079Y-62633522D01*
X100705175Y-62542875D01*
X100705172Y-62542874D01*
X100705170Y-62542873D01*
X100515286Y-62481176D01*
X100515282Y-62481175D01*
X100515281Y-62481175D01*
X100318073Y-62449940D01*
X100118407Y-62449940D01*
X99921199Y-62481175D01*
X99921193Y-62481176D01*
X99731309Y-62542873D01*
X99731303Y-62542876D01*
X99553397Y-62633524D01*
X99391865Y-62750884D01*
X99250684Y-62892065D01*
X99133323Y-63053598D01*
X99114047Y-63091431D01*
X99065298Y-63143046D01*
X98996384Y-63160112D01*
X98929182Y-63137211D01*
X98885030Y-63081613D01*
X98875780Y-63034228D01*
X98875780Y-54362110D01*
X99662900Y-54362110D01*
X99662900Y-56859409D01*
X99669409Y-56919956D01*
X99669411Y-56919964D01*
X99720510Y-57056962D01*
X99720512Y-57056967D01*
X99808138Y-57174021D01*
X99925192Y-57261647D01*
X99925194Y-57261648D01*
X99925196Y-57261649D01*
X99962364Y-57275512D01*
X100062195Y-57312748D01*
X100062203Y-57312750D01*
X100122750Y-57319259D01*
X100122755Y-57319259D01*
X100122762Y-57319260D01*
X100122768Y-57319260D01*
X102620032Y-57319260D01*
X102620038Y-57319260D01*
X102620045Y-57319259D01*
X102620049Y-57319259D01*
X102680596Y-57312750D01*
X102680599Y-57312749D01*
X102680601Y-57312749D01*
X102817604Y-57261649D01*
X102865461Y-57225824D01*
X102934661Y-57174021D01*
X103022287Y-57056967D01*
X103022287Y-57056966D01*
X103022289Y-57056964D01*
X103073389Y-56919961D01*
X103073889Y-56915315D01*
X103079899Y-56859409D01*
X103079900Y-56859392D01*
X103079900Y-55498776D01*
X104662900Y-55498776D01*
X104662900Y-55722743D01*
X104692131Y-55944780D01*
X104692133Y-55944787D01*
X104750098Y-56161118D01*
X104835805Y-56368032D01*
X104835806Y-56368033D01*
X104835811Y-56368043D01*
X104947783Y-56561983D01*
X104947786Y-56561988D01*
X105084125Y-56739669D01*
X105084134Y-56739679D01*
X105242480Y-56898025D01*
X105242490Y-56898034D01*
X105242491Y-56898035D01*
X105420172Y-57034374D01*
X105614128Y-57146355D01*
X105821042Y-57232062D01*
X106037373Y-57290027D01*
X106037377Y-57290027D01*
X106037379Y-57290028D01*
X106081466Y-57295832D01*
X106259419Y-57319260D01*
X106259426Y-57319260D01*
X106483374Y-57319260D01*
X106483381Y-57319260D01*
X106684056Y-57292840D01*
X106705420Y-57290028D01*
X106705420Y-57290027D01*
X106705427Y-57290027D01*
X106921758Y-57232062D01*
X107128672Y-57146355D01*
X107322628Y-57034374D01*
X107500309Y-56898035D01*
X107658675Y-56739669D01*
X107795014Y-56561988D01*
X107906995Y-56368032D01*
X107992702Y-56161118D01*
X108050667Y-55944787D01*
X108079900Y-55722741D01*
X108079900Y-55498779D01*
X108054969Y-55309408D01*
X108050668Y-55276739D01*
X108050667Y-55276737D01*
X108050667Y-55276733D01*
X107992702Y-55060402D01*
X107906995Y-54853488D01*
X107795014Y-54659532D01*
X107658675Y-54481851D01*
X107658674Y-54481850D01*
X107658665Y-54481840D01*
X107500319Y-54323494D01*
X107500309Y-54323485D01*
X107322628Y-54187146D01*
X107283494Y-54164552D01*
X107128683Y-54075171D01*
X107128678Y-54075168D01*
X107128672Y-54075165D01*
X106921758Y-53989458D01*
X106705427Y-53931493D01*
X106705420Y-53931491D01*
X106483383Y-53902260D01*
X106483381Y-53902260D01*
X106259419Y-53902260D01*
X106259416Y-53902260D01*
X106037379Y-53931491D01*
X105821042Y-53989458D01*
X105680920Y-54047499D01*
X105614126Y-54075166D01*
X105614116Y-54075171D01*
X105420176Y-54187143D01*
X105242490Y-54323485D01*
X105242480Y-54323494D01*
X105084134Y-54481840D01*
X105084125Y-54481850D01*
X104947783Y-54659536D01*
X104835811Y-54853476D01*
X104835806Y-54853486D01*
X104750098Y-55060402D01*
X104692131Y-55276739D01*
X104662900Y-55498776D01*
X103079900Y-55498776D01*
X103079900Y-54362127D01*
X103079899Y-54362110D01*
X103073390Y-54301563D01*
X103073388Y-54301555D01*
X103044324Y-54223635D01*
X103022289Y-54164556D01*
X103022288Y-54164554D01*
X103022287Y-54164552D01*
X102934661Y-54047498D01*
X102817607Y-53959872D01*
X102817602Y-53959870D01*
X102680604Y-53908771D01*
X102680596Y-53908769D01*
X102620049Y-53902260D01*
X102620038Y-53902260D01*
X100122762Y-53902260D01*
X100122750Y-53902260D01*
X100062203Y-53908769D01*
X100062195Y-53908771D01*
X99925197Y-53959870D01*
X99925192Y-53959872D01*
X99808138Y-54047498D01*
X99720512Y-54164552D01*
X99720510Y-54164557D01*
X99669411Y-54301555D01*
X99669409Y-54301563D01*
X99662900Y-54362110D01*
X98875780Y-54362110D01*
X98875780Y-47826763D01*
X98895782Y-47758642D01*
X98949438Y-47712149D01*
X99019712Y-47702045D01*
X99084292Y-47731539D01*
X99103716Y-47752702D01*
X99106313Y-47756277D01*
X99106314Y-47756278D01*
X99222750Y-47916538D01*
X99222752Y-47916540D01*
X99222754Y-47916543D01*
X102545070Y-51238858D01*
X102685142Y-51378930D01*
X102845402Y-51495366D01*
X103021903Y-51585298D01*
X103210300Y-51646512D01*
X103405954Y-51677500D01*
X103405957Y-51677500D01*
X108430043Y-51677500D01*
X108430046Y-51677500D01*
X108625700Y-51646512D01*
X108814097Y-51585298D01*
X108990598Y-51495366D01*
X109150858Y-51378930D01*
X109290930Y-51238858D01*
X112021383Y-48508405D01*
X112083695Y-48474379D01*
X112110478Y-48471500D01*
X113416632Y-48471500D01*
X113416638Y-48471500D01*
X113416645Y-48471499D01*
X113416649Y-48471499D01*
X113477196Y-48464990D01*
X113477199Y-48464989D01*
X113477201Y-48464989D01*
X113614204Y-48413889D01*
X113693325Y-48354660D01*
X113731261Y-48326261D01*
X113818887Y-48209207D01*
X113818887Y-48209206D01*
X113818889Y-48209204D01*
X113869989Y-48072201D01*
X113870802Y-48064645D01*
X113876499Y-48011649D01*
X113876500Y-48011632D01*
X113876500Y-46736408D01*
X120819500Y-46736408D01*
X120819500Y-46989592D01*
X120854061Y-47207805D01*
X120859107Y-47239663D01*
X120908403Y-47391380D01*
X120937344Y-47480450D01*
X121052287Y-47706038D01*
X121201105Y-47910868D01*
X121201107Y-47910870D01*
X121201109Y-47910873D01*
X121380126Y-48089890D01*
X121380129Y-48089892D01*
X121380132Y-48089895D01*
X121584962Y-48238713D01*
X121810550Y-48353656D01*
X122051342Y-48431894D01*
X122301408Y-48471500D01*
X122301411Y-48471500D01*
X122554589Y-48471500D01*
X122554592Y-48471500D01*
X122804658Y-48431894D01*
X123045450Y-48353656D01*
X123271038Y-48238713D01*
X123475868Y-48089895D01*
X123654895Y-47910868D01*
X123803713Y-47706038D01*
X123918656Y-47480450D01*
X123996894Y-47239658D01*
X124036500Y-46989592D01*
X124036500Y-46736408D01*
X123996894Y-46486342D01*
X123918656Y-46245550D01*
X123803713Y-46019962D01*
X123654895Y-45815132D01*
X123654892Y-45815129D01*
X123654890Y-45815126D01*
X123475873Y-45636109D01*
X123475870Y-45636107D01*
X123475868Y-45636105D01*
X123278746Y-45492887D01*
X123271041Y-45487289D01*
X123271040Y-45487288D01*
X123271038Y-45487287D01*
X123045450Y-45372344D01*
X123045447Y-45372343D01*
X123045445Y-45372342D01*
X122804663Y-45294107D01*
X122804659Y-45294106D01*
X122804658Y-45294106D01*
X122554592Y-45254500D01*
X122301408Y-45254500D01*
X122051342Y-45294106D01*
X122051336Y-45294107D01*
X121810554Y-45372342D01*
X121810548Y-45372345D01*
X121584958Y-45487289D01*
X121380129Y-45636107D01*
X121380126Y-45636109D01*
X121201109Y-45815126D01*
X121201107Y-45815129D01*
X121052289Y-46019958D01*
X120937345Y-46245548D01*
X120937342Y-46245554D01*
X120859107Y-46486336D01*
X120859106Y-46486341D01*
X120859106Y-46486342D01*
X120819500Y-46736408D01*
X113876500Y-46736408D01*
X113876500Y-45714367D01*
X113876499Y-45714350D01*
X113869990Y-45653803D01*
X113869988Y-45653795D01*
X113819811Y-45519269D01*
X113818889Y-45516796D01*
X113818888Y-45516794D01*
X113818887Y-45516792D01*
X113731261Y-45399738D01*
X113614207Y-45312112D01*
X113614202Y-45312110D01*
X113477204Y-45261011D01*
X113477196Y-45261009D01*
X113416649Y-45254500D01*
X113416638Y-45254500D01*
X111119362Y-45254500D01*
X111119350Y-45254500D01*
X111058803Y-45261009D01*
X111058795Y-45261011D01*
X110921797Y-45312110D01*
X110921792Y-45312112D01*
X110804738Y-45399738D01*
X110717112Y-45516792D01*
X110717110Y-45516797D01*
X110666011Y-45653795D01*
X110666009Y-45653803D01*
X110659500Y-45714350D01*
X110659500Y-46258522D01*
X110639498Y-46326643D01*
X110622595Y-46347617D01*
X107846617Y-49123595D01*
X107784305Y-49157621D01*
X107757522Y-49160500D01*
X104078478Y-49160500D01*
X104010357Y-49140498D01*
X103989383Y-49123595D01*
X101727407Y-46861619D01*
X104777140Y-46861619D01*
X104777140Y-47067581D01*
X104806476Y-47252798D01*
X104809361Y-47271012D01*
X104848453Y-47391326D01*
X104873006Y-47466890D01*
X104966511Y-47650403D01*
X105087572Y-47817030D01*
X105087574Y-47817032D01*
X105087576Y-47817035D01*
X105233204Y-47962663D01*
X105233207Y-47962665D01*
X105233210Y-47962668D01*
X105399837Y-48083729D01*
X105583350Y-48177234D01*
X105779232Y-48240880D01*
X105982659Y-48273100D01*
X105982662Y-48273100D01*
X106188618Y-48273100D01*
X106188621Y-48273100D01*
X106392048Y-48240880D01*
X106587930Y-48177234D01*
X106771443Y-48083729D01*
X106938070Y-47962668D01*
X107083708Y-47817030D01*
X107204769Y-47650403D01*
X107298274Y-47466890D01*
X107361920Y-47271008D01*
X107394140Y-47067581D01*
X107394140Y-46861619D01*
X107361920Y-46658192D01*
X107298274Y-46462310D01*
X107204769Y-46278797D01*
X107083708Y-46112170D01*
X107083705Y-46112167D01*
X107083703Y-46112164D01*
X106938075Y-45966536D01*
X106938072Y-45966534D01*
X106938070Y-45966532D01*
X106781926Y-45853087D01*
X106771446Y-45845473D01*
X106771445Y-45845472D01*
X106771443Y-45845471D01*
X106587930Y-45751966D01*
X106587927Y-45751965D01*
X106587925Y-45751964D01*
X106392052Y-45688321D01*
X106392050Y-45688320D01*
X106392048Y-45688320D01*
X106188621Y-45656100D01*
X105982659Y-45656100D01*
X105779232Y-45688320D01*
X105779230Y-45688320D01*
X105779227Y-45688321D01*
X105583354Y-45751964D01*
X105583348Y-45751967D01*
X105399833Y-45845473D01*
X105233207Y-45966534D01*
X105233204Y-45966536D01*
X105087576Y-46112164D01*
X105087574Y-46112167D01*
X104966513Y-46278793D01*
X104873007Y-46462308D01*
X104873004Y-46462314D01*
X104809361Y-46658187D01*
X104809360Y-46658190D01*
X104809360Y-46658192D01*
X104777140Y-46861619D01*
X101727407Y-46861619D01*
X101478085Y-46612297D01*
X101444059Y-46549985D01*
X101441180Y-46523202D01*
X101441180Y-43191078D01*
X101445461Y-43175204D01*
X101444830Y-43160969D01*
X101455227Y-43138994D01*
X101458269Y-43127719D01*
X101461939Y-43121409D01*
X101533569Y-43025724D01*
X101562091Y-42949252D01*
X101567483Y-42939985D01*
X101585781Y-42922652D01*
X101600884Y-42902477D01*
X101611105Y-42898664D01*
X101619027Y-42891161D01*
X101643790Y-42886472D01*
X101667404Y-42877665D01*
X101678065Y-42879984D01*
X101688784Y-42877955D01*
X101712151Y-42887398D01*
X101736778Y-42892756D01*
X101750121Y-42902744D01*
X101754608Y-42904558D01*
X101756930Y-42907841D01*
X101765489Y-42914249D01*
X101805101Y-42953861D01*
X101805104Y-42953863D01*
X101984465Y-43084177D01*
X102182004Y-43184828D01*
X102392856Y-43253338D01*
X102611829Y-43288020D01*
X102611832Y-43288020D01*
X102833528Y-43288020D01*
X102833531Y-43288020D01*
X103052504Y-43253338D01*
X103263356Y-43184828D01*
X103460895Y-43084177D01*
X103640256Y-42953863D01*
X103797023Y-42797096D01*
X103890745Y-42668099D01*
X103946966Y-42624746D01*
X104017702Y-42618671D01*
X104080494Y-42651802D01*
X104094612Y-42668096D01*
X104188337Y-42797096D01*
X104188339Y-42797098D01*
X104188341Y-42797101D01*
X104345101Y-42953861D01*
X104345104Y-42953863D01*
X104524465Y-43084177D01*
X104722004Y-43184828D01*
X104932856Y-43253338D01*
X105151829Y-43288020D01*
X105151832Y-43288020D01*
X105373528Y-43288020D01*
X105373531Y-43288020D01*
X105592504Y-43253338D01*
X105803356Y-43184828D01*
X106000895Y-43084177D01*
X106180256Y-42953863D01*
X106337023Y-42797096D01*
X106467337Y-42617735D01*
X106567988Y-42420196D01*
X106636498Y-42209344D01*
X106671180Y-41990371D01*
X106671180Y-41768669D01*
X106636498Y-41549696D01*
X106616428Y-41487928D01*
X106606327Y-41456839D01*
X110093460Y-41456839D01*
X110093460Y-41733240D01*
X110129535Y-42007263D01*
X110201072Y-42274244D01*
X110201073Y-42274246D01*
X110201074Y-42274249D01*
X110306846Y-42529607D01*
X110306847Y-42529608D01*
X110306852Y-42529618D01*
X110445042Y-42768969D01*
X110445044Y-42768972D01*
X110445045Y-42768973D01*
X110547690Y-42902744D01*
X110613304Y-42988254D01*
X110613313Y-42988264D01*
X110808735Y-43183686D01*
X110808745Y-43183695D01*
X110808746Y-43183696D01*
X110994363Y-43326124D01*
X111028030Y-43351957D01*
X111182679Y-43441244D01*
X111267393Y-43490154D01*
X111522751Y-43595926D01*
X111789729Y-43667463D01*
X111789735Y-43667463D01*
X111789736Y-43667464D01*
X111821182Y-43671603D01*
X112063762Y-43703540D01*
X112063769Y-43703540D01*
X112340151Y-43703540D01*
X112340158Y-43703540D01*
X112614191Y-43667463D01*
X112881169Y-43595926D01*
X113136527Y-43490154D01*
X113375893Y-43351955D01*
X113595174Y-43183696D01*
X113790616Y-42988254D01*
X113958875Y-42768973D01*
X114097074Y-42529607D01*
X114202846Y-42274249D01*
X114274383Y-42007271D01*
X114310460Y-41733238D01*
X114310460Y-41456842D01*
X114274383Y-41182809D01*
X114202846Y-40915831D01*
X114097074Y-40660473D01*
X114020955Y-40528632D01*
X113958877Y-40421110D01*
X113794505Y-40206895D01*
X113790616Y-40201826D01*
X113790615Y-40201825D01*
X113790606Y-40201815D01*
X113595184Y-40006393D01*
X113595174Y-40006384D01*
X113438081Y-39885843D01*
X113375893Y-39838125D01*
X113375892Y-39838124D01*
X113375889Y-39838122D01*
X113136538Y-39699932D01*
X113136533Y-39699929D01*
X113136527Y-39699926D01*
X112881169Y-39594154D01*
X112881166Y-39594153D01*
X112881164Y-39594152D01*
X112661878Y-39535395D01*
X112614191Y-39522617D01*
X112614189Y-39522616D01*
X112614183Y-39522615D01*
X112340160Y-39486540D01*
X112340158Y-39486540D01*
X112063762Y-39486540D01*
X112063759Y-39486540D01*
X111789736Y-39522615D01*
X111522755Y-39594152D01*
X111522751Y-39594154D01*
X111267391Y-39699927D01*
X111267381Y-39699932D01*
X111028030Y-39838122D01*
X110808745Y-40006384D01*
X110808735Y-40006393D01*
X110613313Y-40201815D01*
X110613304Y-40201825D01*
X110445042Y-40421110D01*
X110306852Y-40660461D01*
X110306847Y-40660471D01*
X110201074Y-40915831D01*
X110201072Y-40915835D01*
X110129535Y-41182816D01*
X110093460Y-41456839D01*
X106606327Y-41456839D01*
X106605522Y-41454363D01*
X106567988Y-41338844D01*
X106467337Y-41141305D01*
X106337023Y-40961944D01*
X106337021Y-40961941D01*
X106180258Y-40805178D01*
X106000898Y-40674865D01*
X106000897Y-40674864D01*
X106000895Y-40674863D01*
X105803356Y-40574212D01*
X105803353Y-40574211D01*
X105803351Y-40574210D01*
X105592509Y-40505703D01*
X105592505Y-40505702D01*
X105592504Y-40505702D01*
X105373531Y-40471020D01*
X105151829Y-40471020D01*
X104932856Y-40505702D01*
X104932850Y-40505703D01*
X104722008Y-40574210D01*
X104722002Y-40574213D01*
X104524461Y-40674865D01*
X104345101Y-40805178D01*
X104188338Y-40961941D01*
X104094616Y-41090939D01*
X104038393Y-41134293D01*
X103967657Y-41140368D01*
X103904865Y-41107236D01*
X103890744Y-41090939D01*
X103797021Y-40961941D01*
X103640258Y-40805178D01*
X103460898Y-40674865D01*
X103460897Y-40674864D01*
X103460895Y-40674863D01*
X103263356Y-40574212D01*
X103263353Y-40574211D01*
X103263351Y-40574210D01*
X103052509Y-40505703D01*
X103052505Y-40505702D01*
X103052504Y-40505702D01*
X102833531Y-40471020D01*
X102611829Y-40471020D01*
X102392856Y-40505702D01*
X102392850Y-40505703D01*
X102182008Y-40574210D01*
X102182002Y-40574213D01*
X101984461Y-40674865D01*
X101805101Y-40805178D01*
X101765488Y-40844791D01*
X101703176Y-40878816D01*
X101632360Y-40873750D01*
X101575525Y-40831203D01*
X101558342Y-40799734D01*
X101533569Y-40733316D01*
X101533567Y-40733314D01*
X101533567Y-40733312D01*
X101445941Y-40616258D01*
X101328887Y-40528632D01*
X101328882Y-40528630D01*
X101191884Y-40477531D01*
X101191876Y-40477529D01*
X101131329Y-40471020D01*
X101131318Y-40471020D01*
X99234042Y-40471020D01*
X99234030Y-40471020D01*
X99173483Y-40477529D01*
X99173475Y-40477531D01*
X99036477Y-40528630D01*
X99036472Y-40528632D01*
X98919418Y-40616258D01*
X98831792Y-40733312D01*
X98831790Y-40733317D01*
X98780691Y-40870315D01*
X98780689Y-40870323D01*
X98774180Y-40930870D01*
X98774180Y-42828169D01*
X98780689Y-42888716D01*
X98780691Y-42888724D01*
X98831790Y-43025722D01*
X98831792Y-43025727D01*
X98899048Y-43115569D01*
X98923859Y-43182089D01*
X98924180Y-43191078D01*
X98924180Y-43706042D01*
X98904178Y-43774163D01*
X98887275Y-43795137D01*
X96797422Y-45884990D01*
X96727386Y-45955026D01*
X96657350Y-46025061D01*
X96540916Y-46185318D01*
X96450983Y-46361821D01*
X96450982Y-46361823D01*
X96398547Y-46523202D01*
X96389768Y-46550220D01*
X96360280Y-46736408D01*
X96358780Y-46745877D01*
X96358780Y-55212116D01*
X96338778Y-55280237D01*
X96285122Y-55326730D01*
X96214848Y-55336834D01*
X96150268Y-55307340D01*
X96130844Y-55286178D01*
X96123982Y-55276733D01*
X96090588Y-55230770D01*
X96090584Y-55230766D01*
X96090582Y-55230763D01*
X95944955Y-55085136D01*
X95944952Y-55085134D01*
X95944950Y-55085132D01*
X95778323Y-54964071D01*
X95594810Y-54870566D01*
X95594807Y-54870565D01*
X95594805Y-54870564D01*
X95398932Y-54806921D01*
X95398930Y-54806920D01*
X95398928Y-54806920D01*
X95195501Y-54774700D01*
X94989539Y-54774700D01*
X94786112Y-54806920D01*
X94786110Y-54806920D01*
X94786107Y-54806921D01*
X94590234Y-54870564D01*
X94590228Y-54870567D01*
X94406713Y-54964073D01*
X94240087Y-55085134D01*
X94240084Y-55085136D01*
X94094456Y-55230764D01*
X94094454Y-55230767D01*
X93973393Y-55397393D01*
X93879887Y-55580908D01*
X93879884Y-55580914D01*
X93816241Y-55776787D01*
X93816240Y-55776790D01*
X93816240Y-55776792D01*
X93784020Y-55980219D01*
X92169380Y-55980219D01*
X92169380Y-55959899D01*
X92137160Y-55756472D01*
X92073514Y-55560590D01*
X91980009Y-55377077D01*
X91858948Y-55210450D01*
X91858945Y-55210447D01*
X91858943Y-55210444D01*
X91713315Y-55064816D01*
X91713312Y-55064814D01*
X91713310Y-55064812D01*
X91546683Y-54943751D01*
X91363170Y-54850246D01*
X91363167Y-54850245D01*
X91363165Y-54850244D01*
X91167292Y-54786601D01*
X91167290Y-54786600D01*
X91167288Y-54786600D01*
X90963861Y-54754380D01*
X90757899Y-54754380D01*
X90554472Y-54786600D01*
X90554470Y-54786600D01*
X90554467Y-54786601D01*
X90358594Y-54850244D01*
X90358588Y-54850247D01*
X90175073Y-54943753D01*
X90008447Y-55064814D01*
X90008444Y-55064816D01*
X89862816Y-55210444D01*
X89862814Y-55210447D01*
X89741753Y-55377073D01*
X89648247Y-55560588D01*
X89648244Y-55560594D01*
X89584601Y-55756467D01*
X89584600Y-55756470D01*
X89584600Y-55756472D01*
X89552380Y-55959899D01*
X68017740Y-55959899D01*
X68017740Y-55954699D01*
X67991781Y-55757522D01*
X67988508Y-55732659D01*
X67988507Y-55732657D01*
X67988507Y-55732653D01*
X67930542Y-55516322D01*
X67844835Y-55309408D01*
X67732854Y-55115452D01*
X67596515Y-54937771D01*
X67596514Y-54937770D01*
X67596505Y-54937760D01*
X67438159Y-54779414D01*
X67438149Y-54779405D01*
X67432017Y-54774700D01*
X67260468Y-54643066D01*
X67260463Y-54643063D01*
X67066523Y-54531091D01*
X67066518Y-54531088D01*
X67066512Y-54531085D01*
X66859598Y-54445378D01*
X66643267Y-54387413D01*
X66643260Y-54387411D01*
X66421223Y-54358180D01*
X66421221Y-54358180D01*
X66197259Y-54358180D01*
X66197256Y-54358180D01*
X65975219Y-54387411D01*
X65758882Y-54445378D01*
X65670856Y-54481840D01*
X65551966Y-54531086D01*
X65551956Y-54531091D01*
X65358016Y-54643063D01*
X65180330Y-54779405D01*
X65180320Y-54779414D01*
X65021974Y-54937760D01*
X65021965Y-54937770D01*
X64885623Y-55115456D01*
X64773651Y-55309396D01*
X64773646Y-55309406D01*
X64773645Y-55309408D01*
X64737200Y-55397393D01*
X64687938Y-55516322D01*
X64629971Y-55732659D01*
X64600740Y-55954696D01*
X56295616Y-55954696D01*
X56162578Y-55821658D01*
X55983218Y-55691345D01*
X55983217Y-55691344D01*
X55983215Y-55691343D01*
X55785676Y-55590692D01*
X55785673Y-55590691D01*
X55785671Y-55590690D01*
X55574829Y-55522183D01*
X55574825Y-55522182D01*
X55574824Y-55522182D01*
X55355851Y-55487500D01*
X55134149Y-55487500D01*
X54915176Y-55522182D01*
X54915170Y-55522183D01*
X54704328Y-55590690D01*
X54704322Y-55590693D01*
X54506781Y-55691345D01*
X54327421Y-55821658D01*
X54170658Y-55978421D01*
X54076936Y-56107419D01*
X54020713Y-56150773D01*
X53949977Y-56156848D01*
X53887185Y-56123716D01*
X53873064Y-56107419D01*
X53779341Y-55978421D01*
X53622578Y-55821658D01*
X53443218Y-55691345D01*
X53443217Y-55691344D01*
X53443215Y-55691343D01*
X53245676Y-55590692D01*
X53245673Y-55590691D01*
X53245671Y-55590690D01*
X53034829Y-55522183D01*
X53034825Y-55522182D01*
X53034824Y-55522182D01*
X52815851Y-55487500D01*
X52594149Y-55487500D01*
X52375176Y-55522182D01*
X52375170Y-55522183D01*
X52164328Y-55590690D01*
X52164322Y-55590693D01*
X51966781Y-55691345D01*
X51787421Y-55821658D01*
X51747808Y-55861271D01*
X51685496Y-55895296D01*
X51614680Y-55890230D01*
X51557845Y-55847683D01*
X51540662Y-55816214D01*
X51515889Y-55749796D01*
X51515887Y-55749794D01*
X51515887Y-55749792D01*
X51428261Y-55632738D01*
X51311207Y-55545112D01*
X51311202Y-55545110D01*
X51174204Y-55494011D01*
X51174196Y-55494009D01*
X51113649Y-55487500D01*
X51113638Y-55487500D01*
X49216362Y-55487500D01*
X49216350Y-55487500D01*
X49155803Y-55494009D01*
X49155795Y-55494011D01*
X49018797Y-55545110D01*
X49018792Y-55545112D01*
X48901738Y-55632738D01*
X48814112Y-55749792D01*
X48814110Y-55749797D01*
X48763011Y-55886795D01*
X48763009Y-55886803D01*
X48756500Y-55947350D01*
X46596980Y-55947350D01*
X46596980Y-55757527D01*
X46596979Y-55757510D01*
X46590470Y-55696963D01*
X46590468Y-55696955D01*
X46547186Y-55580914D01*
X46539369Y-55559956D01*
X46539368Y-55559954D01*
X46539367Y-55559952D01*
X46451741Y-55442898D01*
X46334687Y-55355272D01*
X46334682Y-55355270D01*
X46197684Y-55304171D01*
X46197676Y-55304169D01*
X46137129Y-55297660D01*
X46137118Y-55297660D01*
X43839842Y-55297660D01*
X43839830Y-55297660D01*
X43779283Y-55304169D01*
X43779275Y-55304171D01*
X43642277Y-55355270D01*
X43642272Y-55355272D01*
X43525218Y-55442898D01*
X43437592Y-55559952D01*
X43437590Y-55559957D01*
X43386491Y-55696955D01*
X43386489Y-55696963D01*
X43379980Y-55757510D01*
X32521370Y-55757510D01*
X32534208Y-52317539D01*
X74982940Y-52317539D01*
X74982940Y-52523501D01*
X75008849Y-52687081D01*
X75015161Y-52726932D01*
X75063913Y-52876976D01*
X75078806Y-52922810D01*
X75172311Y-53106323D01*
X75293372Y-53272950D01*
X75293374Y-53272952D01*
X75293376Y-53272955D01*
X75439004Y-53418583D01*
X75439007Y-53418585D01*
X75439010Y-53418588D01*
X75605637Y-53539649D01*
X75789150Y-53633154D01*
X75985032Y-53696800D01*
X76188459Y-53729020D01*
X76188462Y-53729020D01*
X76394418Y-53729020D01*
X76394421Y-53729020D01*
X76597848Y-53696800D01*
X76793730Y-53633154D01*
X76977243Y-53539649D01*
X77143870Y-53418588D01*
X77289508Y-53272950D01*
X77410569Y-53106323D01*
X77427631Y-53072834D01*
X77450799Y-53040946D01*
X78174206Y-52317539D01*
X79982940Y-52317539D01*
X79982940Y-52523501D01*
X80008849Y-52687081D01*
X80015161Y-52726932D01*
X80063913Y-52876976D01*
X80078806Y-52922810D01*
X80172311Y-53106323D01*
X80293372Y-53272950D01*
X80293374Y-53272952D01*
X80293376Y-53272955D01*
X80439004Y-53418583D01*
X80439007Y-53418585D01*
X80439010Y-53418588D01*
X80605637Y-53539649D01*
X80789150Y-53633154D01*
X80985032Y-53696800D01*
X81188459Y-53729020D01*
X81188462Y-53729020D01*
X81394418Y-53729020D01*
X81394421Y-53729020D01*
X81597848Y-53696800D01*
X81793730Y-53633154D01*
X81977243Y-53539649D01*
X82143870Y-53418588D01*
X82289508Y-53272950D01*
X82410569Y-53106323D01*
X82504074Y-52922810D01*
X82567720Y-52726928D01*
X82599940Y-52523501D01*
X82599940Y-52317539D01*
X82567720Y-52114112D01*
X82504074Y-51918230D01*
X82410569Y-51734717D01*
X82368999Y-51677500D01*
X82350537Y-51652089D01*
X82299171Y-51581390D01*
X87026980Y-51581390D01*
X87026980Y-53198689D01*
X87033489Y-53259236D01*
X87033491Y-53259244D01*
X87084590Y-53396242D01*
X87084592Y-53396247D01*
X87172218Y-53513301D01*
X87289272Y-53600927D01*
X87289274Y-53600928D01*
X87289276Y-53600929D01*
X87348355Y-53622964D01*
X87426275Y-53652028D01*
X87426283Y-53652030D01*
X87486830Y-53658539D01*
X87486835Y-53658539D01*
X87486842Y-53658540D01*
X87486848Y-53658540D01*
X89104112Y-53658540D01*
X89104118Y-53658540D01*
X89104125Y-53658539D01*
X89104129Y-53658539D01*
X89164676Y-53652030D01*
X89164679Y-53652029D01*
X89164681Y-53652029D01*
X89301684Y-53600929D01*
X89418741Y-53513301D01*
X89447447Y-53474955D01*
X89506367Y-53396247D01*
X89506367Y-53396246D01*
X89506369Y-53396244D01*
X89557469Y-53259241D01*
X89562074Y-53216414D01*
X89563979Y-53198689D01*
X89563980Y-53198672D01*
X89563980Y-53185858D01*
X89583982Y-53117737D01*
X89637638Y-53071244D01*
X89707912Y-53061140D01*
X89772492Y-53090634D01*
X89791913Y-53111794D01*
X89867923Y-53216412D01*
X89867925Y-53216414D01*
X89867927Y-53216417D01*
X90009105Y-53357595D01*
X90009108Y-53357597D01*
X90170641Y-53474958D01*
X90348545Y-53565605D01*
X90538439Y-53627305D01*
X90735647Y-53658540D01*
X90735650Y-53658540D01*
X90935310Y-53658540D01*
X90935313Y-53658540D01*
X91132521Y-53627305D01*
X91322415Y-53565605D01*
X91500319Y-53474958D01*
X91661852Y-53357597D01*
X91803037Y-53216412D01*
X91920398Y-53054879D01*
X91993214Y-52911969D01*
X92041961Y-52860356D01*
X92110876Y-52843290D01*
X92178078Y-52866191D01*
X92217745Y-52911969D01*
X92290562Y-53054879D01*
X92290564Y-53054882D01*
X92407924Y-53216414D01*
X92549105Y-53357595D01*
X92549108Y-53357597D01*
X92710641Y-53474958D01*
X92888545Y-53565605D01*
X93078439Y-53627305D01*
X93275647Y-53658540D01*
X93275650Y-53658540D01*
X93475310Y-53658540D01*
X93475313Y-53658540D01*
X93672521Y-53627305D01*
X93862415Y-53565605D01*
X94040319Y-53474958D01*
X94201852Y-53357597D01*
X94343037Y-53216412D01*
X94460398Y-53054879D01*
X94551045Y-52876975D01*
X94612745Y-52687081D01*
X94643980Y-52489873D01*
X94643980Y-52290207D01*
X94612745Y-52092999D01*
X94551045Y-51903105D01*
X94460398Y-51725201D01*
X94358752Y-51585298D01*
X94343035Y-51563665D01*
X94201854Y-51422484D01*
X94040322Y-51305124D01*
X94040321Y-51305123D01*
X94040319Y-51305122D01*
X93862415Y-51214475D01*
X93862412Y-51214474D01*
X93862410Y-51214473D01*
X93672526Y-51152776D01*
X93672522Y-51152775D01*
X93672521Y-51152775D01*
X93475313Y-51121540D01*
X93275647Y-51121540D01*
X93078439Y-51152775D01*
X93078433Y-51152776D01*
X92888549Y-51214473D01*
X92888543Y-51214476D01*
X92710637Y-51305124D01*
X92549105Y-51422484D01*
X92407924Y-51563665D01*
X92290563Y-51725198D01*
X92217747Y-51868108D01*
X92168998Y-51919723D01*
X92100083Y-51936789D01*
X92032882Y-51913888D01*
X91993213Y-51868108D01*
X91920398Y-51725201D01*
X91910543Y-51711636D01*
X91803035Y-51563665D01*
X91661854Y-51422484D01*
X91500322Y-51305124D01*
X91500321Y-51305123D01*
X91500319Y-51305122D01*
X91322415Y-51214475D01*
X91322412Y-51214474D01*
X91322410Y-51214473D01*
X91132526Y-51152776D01*
X91132522Y-51152775D01*
X91132521Y-51152775D01*
X90935313Y-51121540D01*
X90735647Y-51121540D01*
X90538439Y-51152775D01*
X90538433Y-51152776D01*
X90348549Y-51214473D01*
X90348543Y-51214476D01*
X90170637Y-51305124D01*
X90009105Y-51422484D01*
X89867924Y-51563665D01*
X89791916Y-51668282D01*
X89735693Y-51711636D01*
X89664957Y-51717711D01*
X89602165Y-51684579D01*
X89567254Y-51622759D01*
X89563980Y-51594221D01*
X89563980Y-51581407D01*
X89563979Y-51581390D01*
X89557470Y-51520843D01*
X89557468Y-51520835D01*
X89506369Y-51383837D01*
X89506367Y-51383832D01*
X89418741Y-51266778D01*
X89301687Y-51179152D01*
X89301682Y-51179150D01*
X89164684Y-51128051D01*
X89164676Y-51128049D01*
X89104129Y-51121540D01*
X89104118Y-51121540D01*
X87486842Y-51121540D01*
X87486830Y-51121540D01*
X87426283Y-51128049D01*
X87426275Y-51128051D01*
X87289277Y-51179150D01*
X87289272Y-51179152D01*
X87172218Y-51266778D01*
X87084592Y-51383832D01*
X87084590Y-51383837D01*
X87033491Y-51520835D01*
X87033489Y-51520843D01*
X87026980Y-51581390D01*
X82299171Y-51581390D01*
X82289506Y-51568087D01*
X82143875Y-51422456D01*
X82143872Y-51422454D01*
X82143870Y-51422452D01*
X81982381Y-51305124D01*
X81977246Y-51301393D01*
X81977245Y-51301392D01*
X81977243Y-51301391D01*
X81793730Y-51207886D01*
X81793727Y-51207885D01*
X81793725Y-51207884D01*
X81597852Y-51144241D01*
X81597850Y-51144240D01*
X81597848Y-51144240D01*
X81394421Y-51112020D01*
X81188459Y-51112020D01*
X80985032Y-51144240D01*
X80985030Y-51144240D01*
X80985027Y-51144241D01*
X80789154Y-51207884D01*
X80789148Y-51207887D01*
X80605633Y-51301393D01*
X80439007Y-51422454D01*
X80439004Y-51422456D01*
X80293376Y-51568084D01*
X80293374Y-51568087D01*
X80172313Y-51734713D01*
X80078807Y-51918228D01*
X80078804Y-51918234D01*
X80015161Y-52114107D01*
X80015160Y-52114110D01*
X80015160Y-52114112D01*
X79982940Y-52317539D01*
X78174206Y-52317539D01*
X81749142Y-48742605D01*
X81811454Y-48708579D01*
X81838237Y-48705700D01*
X83841492Y-48705700D01*
X83909613Y-48725702D01*
X83915553Y-48729764D01*
X84043762Y-48822913D01*
X84269350Y-48937856D01*
X84510142Y-49016094D01*
X84760208Y-49055700D01*
X84760211Y-49055700D01*
X85013389Y-49055700D01*
X85013392Y-49055700D01*
X85263458Y-49016094D01*
X85504250Y-48937856D01*
X85729838Y-48822913D01*
X85934668Y-48674095D01*
X86113695Y-48495068D01*
X86262513Y-48290238D01*
X86377456Y-48064650D01*
X86455694Y-47823858D01*
X86495300Y-47573792D01*
X86495300Y-47320608D01*
X86455694Y-47070542D01*
X86387811Y-46861619D01*
X92077140Y-46861619D01*
X92077140Y-47067581D01*
X92106476Y-47252798D01*
X92109361Y-47271012D01*
X92148453Y-47391326D01*
X92173006Y-47466890D01*
X92266511Y-47650403D01*
X92387572Y-47817030D01*
X92387574Y-47817032D01*
X92387576Y-47817035D01*
X92533204Y-47962663D01*
X92533207Y-47962665D01*
X92533210Y-47962668D01*
X92699837Y-48083729D01*
X92883350Y-48177234D01*
X93079232Y-48240880D01*
X93282659Y-48273100D01*
X93282662Y-48273100D01*
X93488618Y-48273100D01*
X93488621Y-48273100D01*
X93692048Y-48240880D01*
X93887930Y-48177234D01*
X94071443Y-48083729D01*
X94238070Y-47962668D01*
X94383708Y-47817030D01*
X94504769Y-47650403D01*
X94598274Y-47466890D01*
X94661920Y-47271008D01*
X94694140Y-47067581D01*
X94694140Y-46861619D01*
X94661920Y-46658192D01*
X94598274Y-46462310D01*
X94504769Y-46278797D01*
X94383708Y-46112170D01*
X94383705Y-46112167D01*
X94383703Y-46112164D01*
X94238075Y-45966536D01*
X94238072Y-45966534D01*
X94238070Y-45966532D01*
X94081926Y-45853087D01*
X94071446Y-45845473D01*
X94071445Y-45845472D01*
X94071443Y-45845471D01*
X93887930Y-45751966D01*
X93887927Y-45751965D01*
X93887925Y-45751964D01*
X93692052Y-45688321D01*
X93692050Y-45688320D01*
X93692048Y-45688320D01*
X93488621Y-45656100D01*
X93282659Y-45656100D01*
X93079232Y-45688320D01*
X93079230Y-45688320D01*
X93079227Y-45688321D01*
X92883354Y-45751964D01*
X92883348Y-45751967D01*
X92699833Y-45845473D01*
X92533207Y-45966534D01*
X92533204Y-45966536D01*
X92387576Y-46112164D01*
X92387574Y-46112167D01*
X92266513Y-46278793D01*
X92173007Y-46462308D01*
X92173004Y-46462314D01*
X92109361Y-46658187D01*
X92109360Y-46658190D01*
X92109360Y-46658192D01*
X92077140Y-46861619D01*
X86387811Y-46861619D01*
X86377456Y-46829750D01*
X86262513Y-46604162D01*
X86113695Y-46399332D01*
X86113692Y-46399329D01*
X86113690Y-46399326D01*
X85934673Y-46220309D01*
X85934670Y-46220307D01*
X85934668Y-46220305D01*
X85729838Y-46071487D01*
X85504250Y-45956544D01*
X85504247Y-45956543D01*
X85504245Y-45956542D01*
X85263463Y-45878307D01*
X85263459Y-45878306D01*
X85263458Y-45878306D01*
X85013392Y-45838700D01*
X84760208Y-45838700D01*
X84510142Y-45878306D01*
X84510136Y-45878307D01*
X84269354Y-45956542D01*
X84269348Y-45956545D01*
X84043758Y-46071489D01*
X83915553Y-46164636D01*
X83848685Y-46188495D01*
X83841492Y-46188700D01*
X81165714Y-46188700D01*
X80970060Y-46219688D01*
X80970057Y-46219688D01*
X80970056Y-46219689D01*
X80908847Y-46239577D01*
X80781668Y-46280899D01*
X80781662Y-46280902D01*
X80605161Y-46370834D01*
X80605150Y-46370840D01*
X80566241Y-46399111D01*
X80566240Y-46399112D01*
X80444901Y-46487270D01*
X80408970Y-46523202D01*
X80304830Y-46627342D01*
X80304827Y-46627345D01*
X75671014Y-51261157D01*
X75639124Y-51284328D01*
X75605634Y-51301392D01*
X75439007Y-51422454D01*
X75439004Y-51422456D01*
X75293376Y-51568084D01*
X75293374Y-51568087D01*
X75172313Y-51734713D01*
X75078807Y-51918228D01*
X75078804Y-51918234D01*
X75015161Y-52114107D01*
X75015160Y-52114110D01*
X75015160Y-52114112D01*
X74982940Y-52317539D01*
X32534208Y-52317539D01*
X32555537Y-46602539D01*
X39473740Y-46602539D01*
X39473740Y-46808501D01*
X39505960Y-47011928D01*
X39505961Y-47011932D01*
X39526069Y-47073819D01*
X39569606Y-47207810D01*
X39663111Y-47391323D01*
X39784172Y-47557950D01*
X39784174Y-47557952D01*
X39784176Y-47557955D01*
X39929804Y-47703583D01*
X39929807Y-47703585D01*
X39929810Y-47703588D01*
X40096437Y-47824649D01*
X40279950Y-47918154D01*
X40475832Y-47981800D01*
X40679259Y-48014020D01*
X40679262Y-48014020D01*
X40885218Y-48014020D01*
X40885221Y-48014020D01*
X41088648Y-47981800D01*
X41284530Y-47918154D01*
X41468043Y-47824649D01*
X41634670Y-47703588D01*
X41780308Y-47557950D01*
X41901369Y-47391323D01*
X41994874Y-47207810D01*
X42058520Y-47011928D01*
X42090740Y-46808501D01*
X42090740Y-46619568D01*
X43379980Y-46619568D01*
X43379980Y-46872752D01*
X43419586Y-47122818D01*
X43419587Y-47122823D01*
X43497822Y-47363605D01*
X43497824Y-47363610D01*
X43612767Y-47589198D01*
X43761585Y-47794028D01*
X43761587Y-47794030D01*
X43761589Y-47794033D01*
X43940606Y-47973050D01*
X43940609Y-47973052D01*
X43940612Y-47973055D01*
X44145442Y-48121873D01*
X44371030Y-48236816D01*
X44611822Y-48315054D01*
X44861888Y-48354660D01*
X44861891Y-48354660D01*
X45115069Y-48354660D01*
X45115072Y-48354660D01*
X45365138Y-48315054D01*
X45605930Y-48236816D01*
X45831518Y-48121873D01*
X46036348Y-47973055D01*
X46215375Y-47794028D01*
X46364193Y-47589198D01*
X46479136Y-47363610D01*
X46501151Y-47295856D01*
X64600740Y-47295856D01*
X64600740Y-47519823D01*
X64629971Y-47741860D01*
X64629973Y-47741867D01*
X64687938Y-47958198D01*
X64773645Y-48165112D01*
X64773646Y-48165113D01*
X64773651Y-48165123D01*
X64860213Y-48315052D01*
X64885626Y-48359068D01*
X64966901Y-48464988D01*
X65021965Y-48536749D01*
X65021974Y-48536759D01*
X65180320Y-48695105D01*
X65180330Y-48695114D01*
X65180331Y-48695115D01*
X65358012Y-48831454D01*
X65551968Y-48943435D01*
X65758882Y-49029142D01*
X65975213Y-49087107D01*
X65975217Y-49087107D01*
X65975219Y-49087108D01*
X66032444Y-49094641D01*
X66197259Y-49116340D01*
X66197266Y-49116340D01*
X66421214Y-49116340D01*
X66421221Y-49116340D01*
X66621896Y-49089920D01*
X66643260Y-49087108D01*
X66643260Y-49087107D01*
X66643267Y-49087107D01*
X66859598Y-49029142D01*
X67066512Y-48943435D01*
X67260468Y-48831454D01*
X67438149Y-48695115D01*
X67596515Y-48536749D01*
X67732854Y-48359068D01*
X67844835Y-48165112D01*
X67930542Y-47958198D01*
X67988507Y-47741867D01*
X68017740Y-47519821D01*
X68017740Y-47295859D01*
X67988507Y-47073813D01*
X67930542Y-46857482D01*
X67844835Y-46650568D01*
X67732854Y-46456612D01*
X67596515Y-46278931D01*
X67596514Y-46278930D01*
X67596505Y-46278920D01*
X67438159Y-46120574D01*
X67438149Y-46120565D01*
X67427201Y-46112164D01*
X67260468Y-45984226D01*
X67229821Y-45966532D01*
X67066523Y-45872251D01*
X67066518Y-45872248D01*
X67066512Y-45872245D01*
X66859598Y-45786538D01*
X66643267Y-45728573D01*
X66643260Y-45728571D01*
X66421223Y-45699340D01*
X66421221Y-45699340D01*
X66197259Y-45699340D01*
X66197256Y-45699340D01*
X65975219Y-45728571D01*
X65758882Y-45786538D01*
X65598220Y-45853087D01*
X65551966Y-45872246D01*
X65551956Y-45872251D01*
X65358016Y-45984223D01*
X65180330Y-46120565D01*
X65180320Y-46120574D01*
X65021974Y-46278920D01*
X65021965Y-46278930D01*
X64885623Y-46456616D01*
X64773651Y-46650556D01*
X64773646Y-46650566D01*
X64773645Y-46650568D01*
X64734168Y-46745874D01*
X64687938Y-46857482D01*
X64629971Y-47073819D01*
X64600740Y-47295856D01*
X46501151Y-47295856D01*
X46557374Y-47122818D01*
X46596980Y-46872752D01*
X46596980Y-46619568D01*
X46557374Y-46369502D01*
X46479136Y-46128710D01*
X46364193Y-45903122D01*
X46215375Y-45698292D01*
X46215372Y-45698289D01*
X46215370Y-45698286D01*
X46036353Y-45519269D01*
X46036350Y-45519267D01*
X46036348Y-45519265D01*
X45868093Y-45397020D01*
X45831521Y-45370449D01*
X45831520Y-45370448D01*
X45831518Y-45370447D01*
X45605930Y-45255504D01*
X45605927Y-45255503D01*
X45605925Y-45255502D01*
X45365143Y-45177267D01*
X45365139Y-45177266D01*
X45365138Y-45177266D01*
X45115072Y-45137660D01*
X44861888Y-45137660D01*
X44611822Y-45177266D01*
X44611816Y-45177267D01*
X44371034Y-45255502D01*
X44371028Y-45255505D01*
X44145438Y-45370449D01*
X43940609Y-45519267D01*
X43940606Y-45519269D01*
X43761589Y-45698286D01*
X43761587Y-45698289D01*
X43612769Y-45903118D01*
X43497825Y-46128708D01*
X43497822Y-46128714D01*
X43419587Y-46369496D01*
X43419586Y-46369501D01*
X43419586Y-46369502D01*
X43379980Y-46619568D01*
X42090740Y-46619568D01*
X42090740Y-46602539D01*
X42058520Y-46399112D01*
X41994874Y-46203230D01*
X41901369Y-46019717D01*
X41780308Y-45853090D01*
X41780305Y-45853087D01*
X41780303Y-45853084D01*
X41634675Y-45707456D01*
X41634672Y-45707454D01*
X41634670Y-45707452D01*
X41468043Y-45586391D01*
X41284530Y-45492886D01*
X41284527Y-45492885D01*
X41284525Y-45492884D01*
X41088652Y-45429241D01*
X41088650Y-45429240D01*
X41088648Y-45429240D01*
X40885221Y-45397020D01*
X40679259Y-45397020D01*
X40475832Y-45429240D01*
X40475830Y-45429240D01*
X40475827Y-45429241D01*
X40279954Y-45492884D01*
X40279948Y-45492887D01*
X40096433Y-45586393D01*
X39929807Y-45707454D01*
X39929804Y-45707456D01*
X39784176Y-45853084D01*
X39784174Y-45853087D01*
X39663113Y-46019713D01*
X39569607Y-46203228D01*
X39569604Y-46203234D01*
X39505961Y-46399107D01*
X39505960Y-46399110D01*
X39505960Y-46399112D01*
X39473740Y-46602539D01*
X32555537Y-46602539D01*
X32574625Y-41487928D01*
X33126180Y-41487928D01*
X33126180Y-41773271D01*
X33158128Y-42056824D01*
X33221624Y-42335015D01*
X33315859Y-42604321D01*
X33315870Y-42604349D01*
X33439672Y-42861427D01*
X33591483Y-43103031D01*
X33769393Y-43326124D01*
X33971155Y-43527886D01*
X34015665Y-43563381D01*
X34194249Y-43705797D01*
X34254837Y-43743867D01*
X34435852Y-43857607D01*
X34692930Y-43981409D01*
X34692933Y-43981410D01*
X34692941Y-43981414D01*
X34692956Y-43981419D01*
X34692958Y-43981420D01*
X34962264Y-44075655D01*
X34962267Y-44075655D01*
X34962271Y-44075657D01*
X35168172Y-44122652D01*
X35240455Y-44139151D01*
X35240456Y-44139151D01*
X35240460Y-44139152D01*
X35465847Y-44164546D01*
X35524008Y-44171100D01*
X35524009Y-44171100D01*
X35809352Y-44171100D01*
X35857613Y-44165662D01*
X36092900Y-44139152D01*
X36371089Y-44075657D01*
X36640419Y-43981414D01*
X36897504Y-43857609D01*
X37139111Y-43705797D01*
X37362201Y-43527889D01*
X37563969Y-43326121D01*
X37741877Y-43103031D01*
X37893689Y-42861424D01*
X38017494Y-42604339D01*
X38111737Y-42335009D01*
X38175232Y-42056820D01*
X38207180Y-41773271D01*
X38207180Y-41487929D01*
X38207180Y-41487928D01*
X38207180Y-41487924D01*
X38205375Y-41471902D01*
X38204250Y-41461919D01*
X38607700Y-41461919D01*
X38607700Y-41738320D01*
X38643775Y-42012343D01*
X38715312Y-42279324D01*
X38715313Y-42279326D01*
X38715314Y-42279329D01*
X38821086Y-42534687D01*
X38821087Y-42534688D01*
X38821092Y-42534698D01*
X38959282Y-42774049D01*
X38959284Y-42774052D01*
X38959285Y-42774053D01*
X39058032Y-42902744D01*
X39127544Y-42993334D01*
X39127553Y-42993344D01*
X39322975Y-43188766D01*
X39322985Y-43188775D01*
X39322986Y-43188776D01*
X39535649Y-43351957D01*
X39542270Y-43357037D01*
X39696919Y-43446324D01*
X39781633Y-43495234D01*
X40036991Y-43601006D01*
X40303969Y-43672543D01*
X40303975Y-43672543D01*
X40303976Y-43672544D01*
X40335422Y-43676683D01*
X40578002Y-43708620D01*
X40578009Y-43708620D01*
X40854391Y-43708620D01*
X40854398Y-43708620D01*
X41128431Y-43672543D01*
X41395409Y-43601006D01*
X41650767Y-43495234D01*
X41890133Y-43357035D01*
X42109414Y-43188776D01*
X42304856Y-42993334D01*
X42473115Y-42774053D01*
X42611314Y-42534687D01*
X42717086Y-42279329D01*
X42788623Y-42012351D01*
X42824700Y-41738318D01*
X42824700Y-41461922D01*
X42788623Y-41187889D01*
X42717086Y-40920911D01*
X42611314Y-40665553D01*
X42582118Y-40614985D01*
X42473117Y-40426190D01*
X42304855Y-40206905D01*
X42304846Y-40206895D01*
X42109424Y-40011473D01*
X42109414Y-40011464D01*
X42031228Y-39951470D01*
X53847700Y-39951470D01*
X53847700Y-43248769D01*
X53854209Y-43309316D01*
X53854211Y-43309324D01*
X53905310Y-43446322D01*
X53905312Y-43446327D01*
X53992938Y-43563381D01*
X54109992Y-43651007D01*
X54109994Y-43651008D01*
X54109996Y-43651009D01*
X54154113Y-43667464D01*
X54246995Y-43702108D01*
X54247003Y-43702110D01*
X54307550Y-43708619D01*
X54307555Y-43708619D01*
X54307562Y-43708620D01*
X54307568Y-43708620D01*
X57604832Y-43708620D01*
X57604838Y-43708620D01*
X57604845Y-43708619D01*
X57604849Y-43708619D01*
X57665396Y-43702110D01*
X57665399Y-43702109D01*
X57665401Y-43702109D01*
X57802404Y-43651009D01*
X57875988Y-43595925D01*
X57919461Y-43563381D01*
X58007087Y-43446327D01*
X58007087Y-43446326D01*
X58007089Y-43446324D01*
X58058189Y-43309321D01*
X58058736Y-43304241D01*
X58064699Y-43248769D01*
X58064700Y-43248752D01*
X58064700Y-41159190D01*
X64600740Y-41159190D01*
X64600740Y-43656489D01*
X64607249Y-43717036D01*
X64607251Y-43717044D01*
X64658350Y-43854042D01*
X64658352Y-43854047D01*
X64745978Y-43971101D01*
X64863032Y-44058727D01*
X64863034Y-44058728D01*
X64863036Y-44058729D01*
X64908416Y-44075655D01*
X65000035Y-44109828D01*
X65000043Y-44109830D01*
X65060590Y-44116339D01*
X65060595Y-44116339D01*
X65060602Y-44116340D01*
X65060608Y-44116340D01*
X67557872Y-44116340D01*
X67557878Y-44116340D01*
X67557885Y-44116339D01*
X67557889Y-44116339D01*
X67618436Y-44109830D01*
X67618439Y-44109829D01*
X67618441Y-44109829D01*
X67755444Y-44058729D01*
X67858717Y-43981420D01*
X67872501Y-43971101D01*
X67960127Y-43854047D01*
X67960127Y-43854046D01*
X67960129Y-43854044D01*
X68011229Y-43717041D01*
X68012135Y-43708620D01*
X68017739Y-43656489D01*
X68017740Y-43656472D01*
X68017740Y-41159207D01*
X68017739Y-41159190D01*
X68011230Y-41098643D01*
X68011228Y-41098635D01*
X67960244Y-40961944D01*
X67960129Y-40961636D01*
X67960128Y-40961634D01*
X67960127Y-40961632D01*
X67872501Y-40844578D01*
X67755447Y-40756952D01*
X67755442Y-40756950D01*
X67618444Y-40705851D01*
X67618436Y-40705849D01*
X67557889Y-40699340D01*
X67557878Y-40699340D01*
X65060602Y-40699340D01*
X65060590Y-40699340D01*
X65000043Y-40705849D01*
X65000035Y-40705851D01*
X64863037Y-40756950D01*
X64863032Y-40756952D01*
X64745978Y-40844578D01*
X64658352Y-40961632D01*
X64658350Y-40961637D01*
X64607251Y-41098635D01*
X64607249Y-41098643D01*
X64600740Y-41159190D01*
X58064700Y-41159190D01*
X58064700Y-39951487D01*
X58064699Y-39951470D01*
X58058190Y-39890923D01*
X58058188Y-39890915D01*
X58007089Y-39753917D01*
X58007087Y-39753912D01*
X57919461Y-39636858D01*
X57802407Y-39549232D01*
X57802402Y-39549230D01*
X57665404Y-39498131D01*
X57665396Y-39498129D01*
X57604849Y-39491620D01*
X57604838Y-39491620D01*
X54307562Y-39491620D01*
X54307550Y-39491620D01*
X54247003Y-39498129D01*
X54246995Y-39498131D01*
X54109997Y-39549230D01*
X54109992Y-39549232D01*
X53992938Y-39636858D01*
X53905312Y-39753912D01*
X53905310Y-39753917D01*
X53854211Y-39890915D01*
X53854209Y-39890923D01*
X53847700Y-39951470D01*
X42031228Y-39951470D01*
X41952321Y-39890923D01*
X41890133Y-39843205D01*
X41890132Y-39843204D01*
X41890129Y-39843202D01*
X41650778Y-39705012D01*
X41650773Y-39705009D01*
X41650767Y-39705006D01*
X41395409Y-39599234D01*
X41395406Y-39599233D01*
X41395404Y-39599232D01*
X41163762Y-39537164D01*
X41128431Y-39527697D01*
X41128429Y-39527696D01*
X41128423Y-39527695D01*
X40854400Y-39491620D01*
X40854398Y-39491620D01*
X40578002Y-39491620D01*
X40577999Y-39491620D01*
X40303976Y-39527695D01*
X40036995Y-39599232D01*
X40036991Y-39599234D01*
X39793898Y-39699926D01*
X39781631Y-39705007D01*
X39781621Y-39705012D01*
X39542270Y-39843202D01*
X39322985Y-40011464D01*
X39322975Y-40011473D01*
X39127553Y-40206895D01*
X39127544Y-40206905D01*
X38959282Y-40426190D01*
X38821092Y-40665541D01*
X38821087Y-40665551D01*
X38821086Y-40665553D01*
X38783228Y-40756951D01*
X38715314Y-40920911D01*
X38715312Y-40920915D01*
X38643775Y-41187896D01*
X38607700Y-41461919D01*
X38204250Y-41461919D01*
X38185941Y-41299428D01*
X38175232Y-41204380D01*
X38111737Y-40926191D01*
X38109889Y-40920911D01*
X38017500Y-40656878D01*
X38017499Y-40656876D01*
X38017494Y-40656861D01*
X37955742Y-40528632D01*
X37893687Y-40399772D01*
X37805627Y-40259626D01*
X37741877Y-40158169D01*
X37577050Y-39951482D01*
X37563966Y-39935075D01*
X37362204Y-39733313D01*
X37139111Y-39555403D01*
X36897507Y-39403592D01*
X36640429Y-39279790D01*
X36640401Y-39279779D01*
X36371095Y-39185544D01*
X36092904Y-39122048D01*
X35809352Y-39090100D01*
X35809351Y-39090100D01*
X35524009Y-39090100D01*
X35524008Y-39090100D01*
X35240455Y-39122048D01*
X34962264Y-39185544D01*
X34692958Y-39279779D01*
X34692930Y-39279790D01*
X34435852Y-39403592D01*
X34194248Y-39555403D01*
X33971155Y-39733313D01*
X33769393Y-39935075D01*
X33591483Y-40158168D01*
X33439672Y-40399772D01*
X33315870Y-40656850D01*
X33315859Y-40656878D01*
X33221624Y-40926184D01*
X33158128Y-41204375D01*
X33126180Y-41487928D01*
X32574625Y-41487928D01*
X32592810Y-36615351D01*
X32613066Y-36547308D01*
X32666895Y-36501016D01*
X32718991Y-36489824D01*
X129327592Y-36631694D01*
G37*
%TD.AperFunction*%
%TA.AperFunction,NonConductor*%
G36*
X99025602Y-64280623D02*
G01*
X99032069Y-64280346D01*
X99057502Y-64295192D01*
X99084292Y-64307427D01*
X99089194Y-64313691D01*
X99093384Y-64316137D01*
X99114047Y-64345449D01*
X99133322Y-64383279D01*
X99250684Y-64544814D01*
X99391865Y-64685995D01*
X99411501Y-64700261D01*
X99553401Y-64803358D01*
X99645722Y-64850398D01*
X99696308Y-64876173D01*
X99747923Y-64924922D01*
X99764989Y-64993837D01*
X99742088Y-65061038D01*
X99696308Y-65100707D01*
X99553398Y-65173523D01*
X99391865Y-65290884D01*
X99250684Y-65432065D01*
X99133323Y-65593598D01*
X99114047Y-65631431D01*
X99065298Y-65683046D01*
X98996384Y-65700112D01*
X98929182Y-65677211D01*
X98885030Y-65621613D01*
X98875780Y-65574228D01*
X98875780Y-64402651D01*
X98877603Y-64396439D01*
X98876409Y-64390076D01*
X98887484Y-64362789D01*
X98895782Y-64334530D01*
X98900675Y-64330289D01*
X98903110Y-64324292D01*
X98927176Y-64307326D01*
X98949438Y-64288037D01*
X98955847Y-64287115D01*
X98961138Y-64283386D01*
X98990554Y-64282125D01*
X99019712Y-64277933D01*
X99025602Y-64280623D01*
G37*
%TD.AperFunction*%
%TA.AperFunction,NonConductor*%
G36*
X99084292Y-66847427D02*
G01*
X99114047Y-66885449D01*
X99133322Y-66923279D01*
X99250684Y-67084814D01*
X99391865Y-67225995D01*
X99496482Y-67302004D01*
X99512459Y-67322724D01*
X99531430Y-67340750D01*
X99533783Y-67350378D01*
X99539836Y-67358227D01*
X99542074Y-67384295D01*
X99548289Y-67409716D01*
X99545063Y-67419089D01*
X99545911Y-67428963D01*
X99533701Y-67452103D01*
X99525185Y-67476848D01*
X99517404Y-67482988D01*
X99512779Y-67491755D01*
X99489993Y-67504622D01*
X99469454Y-67520833D01*
X99457027Y-67523239D01*
X99450959Y-67526666D01*
X99434616Y-67529348D01*
X99428528Y-67529940D01*
X99409602Y-67529940D01*
X99349039Y-67536451D01*
X99344618Y-67538099D01*
X99331783Y-67539348D01*
X99329085Y-67538832D01*
X99319588Y-67539940D01*
X99001780Y-67539940D01*
X98933659Y-67519938D01*
X98887166Y-67466282D01*
X98875780Y-67413940D01*
X98875780Y-66942651D01*
X98895782Y-66874530D01*
X98949438Y-66828037D01*
X99019712Y-66817933D01*
X99084292Y-66847427D01*
G37*
%TD.AperFunction*%
M02*
